;Holesize 1 =   70.0 PLATED MILS
;Holesize 2 =   48.0 PLATED MILS
;Holesize 3 =   40.0 PLATED MILS
;Holesize 4 =  138.0 PLATED MILS
;Holesize 5 =   64.0 PLATED MILS
;Holesize 6 =  125.0 PLATED MILS
;Holesize 7 =   79.0 PLATED MILS
;Holesize 8 =   32.0 PLATED MILS
;Holesize 9 =   59.0 PLATED MILS
;Holesize 10 =   94.0 PLATED MILS
;Holesize 11 =   10.0 PLATED MILS
M48
INCH
T01C0.070
T02C0.048
T03C0.040
T04C0.138
T05C0.064
T06C0.125
T07C0.079
T08C0.032
T09C0.059
T10C0.094
T11C0.010
%
G05
G90
T01
X089291Y056712
X089291Y052578
X089291Y041751
X089291Y037618
X089291Y024429
X089291Y020295
X089291Y009468
X089291Y005334
X074803Y058562
X074803Y062696
X074803Y049311
X074803Y045177
T02
X098346Y057425
X098346Y059425
X098346Y042464
X098346Y044464
X098346Y025141
X098346Y027141
X098346Y010181
X098346Y012181
X085330Y063307
X083330Y063307
X074984Y040551
X076984Y040551
X076984Y067322
X074984Y067322
X068503Y048517
X068503Y059357
X002047Y009897
X002047Y007897
X018535Y053653
X018535Y051653
X018535Y057653
X018535Y055653
X018535Y061653
X018535Y059653
X040874Y063496
X040874Y065496
X040874Y059496
X040874Y061496
X040874Y055496
X040874Y057496
X040874Y051496
X040874Y053496
X018535Y045653
X018535Y043653
X018535Y049653
X018535Y047653
X040874Y043496
X040874Y045496
X040874Y047496
X040874Y049496
X076692Y012385
X076692Y014385
T03
X098425Y064095
X097625Y063425
X098425Y062755
X097625Y062085
X098425Y061415
X098425Y049135
X097625Y048465
X098425Y047795
X097625Y047125
X098425Y046455
X098425Y031812
X097625Y031142
X098425Y030472
X097625Y029802
X098425Y029132
X098425Y016851
X097625Y016181
X098425Y015511
X097625Y014841
X098425Y014171
X080996Y033102
X080996Y032102
X080996Y031102
X080996Y030102
X080996Y029102
X081996Y029102
X081996Y030102
X081996Y031102
X081996Y032102
X081996Y033102
X045169Y058007
X045169Y057007
X045169Y056007
X045169Y055007
X045169Y054007
X045169Y053007
X045169Y052007
X045169Y051007
X045169Y050007
X045169Y049007
X045169Y048007
X045169Y047007
X045169Y046007
X046169Y046007
X046169Y047007
X046169Y048007
X046169Y049007
X046169Y050007
X046169Y051007
X046169Y052007
X046169Y053007
X046169Y054007
X046169Y055007
X046169Y056007
X046169Y057007
X046169Y058007
X051007Y040051
X052007Y040051
X053007Y040051
X054007Y040051
X055007Y040051
X056007Y040051
X057007Y040051
X058007Y040051
X059007Y040051
X060007Y040051
X061007Y040051
X062007Y040051
X063007Y040051
X063007Y041051
X062007Y041051
X061007Y041051
X060007Y041051
X059007Y041051
X058007Y041051
X057007Y041051
X056007Y041051
X055007Y041051
X054007Y041051
X053007Y041051
X052007Y041051
X051007Y041051
X057261Y063492
X056261Y063492
X055261Y063492
X054261Y063492
X056761Y062492
X055761Y062492
X054761Y062492
X053761Y062492
X057661Y060592
X056661Y060592
X054361Y060592
X053361Y060592
X067480Y044511
X067480Y046511
X067480Y061362
X067480Y063362
X009948Y006897
X009948Y007897
X009948Y008897
X009948Y009897
X009948Y010897
X008948Y010897
X008948Y009897
X008948Y008897
X008948Y007897
X008948Y006897
X014279Y052803
X014279Y053803
X014279Y054803
X014279Y055803
X014279Y056803
X013279Y056803
X013279Y055803
X013279Y054803
X013279Y053803
X013279Y052803
X001862Y064283
X001862Y063283
X001862Y062283
X001862Y061283
X001862Y060283
X002862Y060283
X002862Y061283
X002862Y062283
X002862Y063283
X002862Y064283
X018610Y025559
X018610Y026559
X018610Y027559
X018610Y028559
X018610Y029559
X017610Y029559
X017610Y028559
X017610Y027559
X017610Y026559
X017610Y025559
X023354Y040051
X024354Y040051
X025354Y040051
X026354Y040051
X027354Y040051
X027354Y041051
X026354Y041051
X025354Y041051
X024354Y041051
X023354Y041051
X036220Y062338
X036220Y061338
X036220Y060338
X036220Y057929
X036220Y056929
X036220Y055929
X036220Y053519
X036220Y052519
X036220Y051519
X036220Y049110
X036220Y048110
X036220Y047110
X036220Y044700
X036220Y043700
X036220Y042700
X076877Y019354
X076877Y020354
X076877Y021354
X076877Y022354
X076877Y023354
X076877Y024354
X076877Y025354
X076877Y026354
X076877Y027354
X076877Y028354
X076877Y029354
X076877Y030354
X076877Y031354
X075877Y031354
X075877Y030354
X075877Y029354
X075877Y028354
X075877Y027354
X075877Y026354
X075877Y025354
X075877Y024354
X075877Y023354
X075877Y022354
X075877Y021354
X075877Y020354
X075877Y019354
X059267Y035933
X058267Y035933
X057267Y035933
X056267Y035933
X055267Y035933
X054267Y035933
X053267Y035933
X052267Y035933
X051267Y035933
X050267Y035933
X049267Y035933
X048267Y035933
X047267Y035933
X047267Y034933
X048267Y034933
X049267Y034933
X050267Y034933
X051267Y034933
X052267Y034933
X053267Y034933
X054267Y034933
X055267Y034933
X056267Y034933
X057267Y034933
X058267Y034933
X059267Y034933
X046283Y007374
X047283Y007374
X048283Y007374
X049283Y007374
X050283Y007374
X051283Y007374
X052283Y007374
X053283Y007374
X054283Y007374
X055283Y007374
X056283Y007374
X057283Y007374
X058283Y007374
X058283Y008374
X057283Y008374
X056283Y008374
X055283Y008374
X054283Y008374
X053283Y008374
X052283Y008374
X051283Y008374
X050283Y008374
X049283Y008374
X048283Y008374
X047283Y008374
X046283Y008374
X040444Y025330
X040444Y024330
X040444Y023330
X040444Y022330
X040444Y021330
X040444Y020330
X040444Y019330
X040444Y018330
X040444Y017330
X040444Y016330
X040444Y015330
X040444Y014330
X040444Y013330
X041444Y013330
X041444Y014330
X041444Y015330
X041444Y016330
X041444Y017330
X041444Y018330
X041444Y019330
X041444Y020330
X041444Y021330
X041444Y022330
X041444Y023330
X041444Y024330
X041444Y025330
T04
X081496Y002362
X081496Y051574
X098031Y002362
X098031Y051574
X045669Y040551
X045669Y068110
X072047Y040551
X072047Y067322
X090157Y068110
X098425Y068110
X002362Y014566
X009448Y003149
X002362Y003149
X009448Y014566
X002393Y053561
X002393Y043761
X002362Y040551
X013779Y040551
X013779Y068110
X002362Y068110
X018110Y019685
X018110Y035433
X002362Y019685
X002362Y035433
X018897Y040551
X040551Y040551
X040551Y068110
X018897Y068110
X076377Y007874
X076377Y035433
X040944Y007874
X040944Y035433
X068503Y002755
X076771Y002755
X055905Y002755
X064173Y002755
X040551Y002755
X048818Y002755
T05
X058611Y064792
X052411Y064792
T06
X057761Y065992
X053261Y065992
T07
X005826Y008897
T08
X002913Y050841
X002913Y049751
X002913Y048661
X002913Y047571
X002913Y046481
X001793Y050301
X001793Y049211
X001793Y048121
X001793Y047031
X028248Y062129
X028248Y061129
X028248Y060129
X028248Y059129
X031248Y059129
X031248Y060129
X031248Y061129
X031248Y062129
X033858Y061938
X034458Y061338
X033858Y060738
X028248Y058129
X028248Y057129
X028248Y056129
X028248Y055129
X031248Y055129
X031248Y056129
X031248Y057129
X031248Y058129
X033858Y057529
X034458Y056929
X033858Y056329
X028248Y054129
X028248Y053129
X028248Y052129
X028248Y051129
X031248Y051129
X031248Y052129
X031248Y053129
X031248Y054129
X033858Y053119
X034458Y052519
X033858Y051919
X028248Y050129
X028248Y049129
X028248Y048129
X028248Y047129
X031248Y047129
X031248Y048129
X031248Y049129
X031248Y050129
X033858Y048710
X034458Y048110
X033858Y047510
X028248Y046129
X028248Y045129
X028248Y044129
X028248Y043129
X031248Y043129
X031248Y044129
X031248Y045129
X031248Y046129
X033858Y044300
X034458Y043700
X033858Y043100
X072086Y014645
X068110Y014645
X062322Y019960
T09
X007637Y022854
X007637Y032578
T10
X002322Y022125
X002322Y033070
X013275Y022125
X013275Y033070
T11
X017519Y005314
X032874Y022244
X025393Y013582
X032874Y005314
X026181Y031692
X029921Y032480
X024015Y032874
X022440Y032480
X025000Y028740
X035039Y003070
X035039Y006496
X030708Y003070
X034055Y002362
X028346Y011614
X022440Y011614
X026574Y011417
X029921Y021062
X033661Y018503
X058976Y003503
X072283Y001181
X072047Y011968
X059842Y018897
X058976Y018897
X055511Y023346
X063385Y023149
X059448Y026614
X017834Y009448
X017834Y009448
X093622Y046456
X004488Y008818
X094409Y068543
X094409Y068543
X092283Y066535
X094803Y067874
X092913Y067716
X096496Y068425
X095196Y067244
X028346Y029448
X028346Y032874
X024015Y029448
X027362Y028740
X035826Y003346
X029921Y003346
X034055Y003149
X022440Y012401
X026181Y009842
X033307Y020669
X043622Y003503
X059685Y001181
X074330Y001889
X071259Y001574
X071850Y002283
X070314Y004133
X057795Y014488
X020472Y006496
X096062Y060787
X058425Y052992
X004488Y009291
X004488Y009291
X004488Y009291
X004488Y009291
X005196Y005354
X004409Y007795
X005275Y012440
X005078Y015511
X006456Y015511
X006417Y002204
X005078Y002204
X095590Y067244
X096377Y066732
X029133Y029724
X023228Y029724
X027362Y029527
X029921Y004133
X033661Y001574
X025826Y012007
X044330Y001181
X061732Y001889
X058661Y001574
X059251Y002283
X057716Y004133
X073543Y001889
X072755Y003188
X072755Y003188
X070629Y001181
X073149Y002519
X071259Y002362
X074842Y003070
X020472Y007283
X020472Y004133
X012677Y027952
X012047Y030944
X012047Y025039
X011220Y020000
X094724Y046535
X057874Y052047
X057874Y052047
X057874Y052047
X057165Y050866
X056889Y052755
X055590Y052086
X056377Y052086
X046653Y061574
X058031Y061338
X053622Y063937
X055590Y051259
X095984Y068385
X023228Y030511
X026968Y027952
X033307Y003740
X046377Y001889
X043307Y001574
X043897Y002283
X042362Y004133
X060944Y001889
X060157Y003188
X060157Y003188
X058031Y001181
X060551Y002519
X058661Y002362
X062244Y003070
X073937Y001889
X074724Y001377
X060787Y020944
X019094Y007677
X019685Y004133
X015354Y004133
X096062Y028503
X091574Y063543
X094724Y064094
X093622Y062047
X091574Y048582
X094724Y049133
X093622Y047086
X091574Y031259
X094724Y031811
X093622Y029763
X091574Y016299
X094724Y016850
X093622Y014803
X094251Y060787
X094251Y045826
X094251Y028503
X094251Y013543
X081023Y036023
X092322Y067125
X092322Y067716
X095196Y067874
X095984Y067874
X095639Y069497
X026614Y030118
X033188Y026377
X033188Y026377
X045590Y001889
X044803Y003188
X044803Y003188
X042677Y001181
X045196Y002519
X043307Y002362
X046889Y003070
X061338Y001889
X062125Y001377
X074330Y003031
X059448Y020944
X061889Y022086
X018307Y007677
X021259Y004527
X013779Y004527
X017913Y003149
X013858Y026968
X012047Y027952
X013818Y029921
X009251Y020000
X056614Y050511
X057480Y052677
X057755Y051299
X055590Y050629
X057755Y050866
X056614Y050511
X057874Y052677
X056377Y052637
X050787Y062283
X044685Y061574
X053622Y059291
X057559Y059212
X095590Y068976
X007677Y050314
X025708Y017716
X025708Y017716
X035629Y019488
X030118Y019488
X032559Y026377
X032559Y026377
X035629Y025000
X030118Y025000
X029566Y025551
X029566Y018937
X036181Y025551
X036181Y018937
X035826Y023425
X045984Y001889
X046771Y001377
X061732Y003031
X070669Y001771
X061889Y022874
X017519Y007677
X019173Y005078
X015866Y005078
X017519Y001574
X020275Y002559
X014763Y002559
X017204Y009448
X017204Y009448
X020275Y008070
X014763Y008070
X014212Y008622
X014212Y002007
X020826Y008622
X020826Y002007
X012677Y030944
X092165Y061771
X093622Y060787
X094409Y069488
X006771Y050472
X033188Y009448
X033188Y009448
X028149Y010826
X022637Y010826
X025078Y017716
X025078Y017716
X028149Y016338
X022637Y016338
X022086Y016889
X022086Y010275
X028700Y016889
X028700Y010275
X028346Y014763
X035826Y021062
X035826Y024212
X046377Y003031
X058070Y001771
X073937Y003622
X070669Y002362
X073543Y002519
X074330Y002519
X073985Y004143
X068110Y008464
X070866Y008464
X073622Y008464
X071141Y011968
X067204Y011968
X059133Y016614
X061732Y020393
X059212Y025275
X061889Y021574
X061889Y024409
X060393Y025275
X057007Y024015
X059842Y020393
X057637Y021181
X059055Y020393
X060984Y018897
X058346Y020393
X055511Y022755
X063385Y022519
X063385Y022519
X059448Y027204
X057952Y025275
X016732Y007677
X019685Y004921
X015354Y004921
X017125Y003149
X012677Y031574
X092165Y046811
X096062Y045826
X093622Y061417
X057559Y059842
X058188Y053937
X054921Y053346
X096771Y067283
X026535Y049133
X026535Y053149
X026535Y057165
X026535Y061102
X026535Y045118
X007007Y048188
X026496Y035826
X026496Y035826
X035629Y002559
X030118Y002559
X032559Y009448
X032559Y009448
X035629Y008070
X030118Y008070
X029566Y008622
X029566Y002007
X036181Y008622
X036181Y002007
X035826Y006496
X028346Y012401
X028346Y015551
X035039Y021062
X034448Y024606
X030708Y021062
X042716Y001771
X061338Y003622
X058070Y002362
X060944Y002519
X061732Y002519
X061387Y004143
X072755Y004133
X015944Y007677
X021259Y005314
X013779Y005314
X017086Y003740
X096062Y013543
X092165Y029488
X096614Y069488
X028937Y028937
X023425Y028937
X025866Y035826
X025866Y035826
X028937Y034448
X023425Y034448
X022874Y035000
X022874Y028385
X029488Y035000
X029488Y028385
X029133Y032874
X035826Y004133
X035826Y007283
X027559Y012401
X026968Y015944
X023228Y012401
X036614Y021456
X033661Y024606
X029133Y021456
X033267Y020078
X045984Y003622
X042716Y002362
X045590Y002519
X046377Y002519
X046033Y004143
X060157Y004133
X075118Y001929
X014566Y007283
X019685Y005629
X015354Y005629
X016732Y001574
X012677Y025984
X092165Y014527
X094724Y061496
X007165Y009606
X007165Y009606
X008425Y048267
X008425Y048267
X014685Y049212
X007283Y047244
X029133Y030511
X029133Y033661
X035039Y004133
X034448Y007677
X030708Y004133
X029133Y012795
X026181Y015944
X021653Y012795
X025787Y011417
X034527Y022007
X032874Y024606
X031220Y022007
X032874Y018503
X044803Y004133
X062519Y001929
X074960Y004133
X058543Y014488
X063543Y009488
X014566Y006496
X020472Y005708
X014566Y005708
X016338Y003149
X012677Y025039
X095984Y067244
X092913Y066929
X093503Y067637
X091968Y069488
X028346Y030511
X027755Y034055
X024015Y030511
X036614Y004527
X033661Y007677
X029133Y004527
X033267Y003149
X027047Y013346
X025393Y015944
X023740Y013346
X025393Y009842
X035039Y021850
X032086Y024606
X030708Y021850
X032480Y020078
X047165Y001929
X062362Y004133
X015354Y006496
X021259Y006102
X013779Y006102
X016338Y002362
X012677Y024015
X094724Y063503
X094724Y048543
X094724Y031220
X094724Y016259
X081968Y037086
X091574Y060787
X091574Y064488
X094724Y064566
X091574Y049527
X091574Y045826
X094724Y049606
X091574Y032204
X091574Y028503
X094724Y032283
X091574Y013543
X091574Y017244
X094724Y017322
X029921Y030905
X026968Y034055
X022440Y030905
X026574Y029527
X034527Y005078
X032874Y007677
X031220Y005078
X032874Y001574
X027559Y013188
X024606Y015944
X023228Y013188
X025000Y011417
X036614Y022244
X031299Y024606
X029133Y022244
X032440Y020669
X047007Y004133
X019685Y006496
X019685Y003070
X015354Y003070
X018700Y002362
X093622Y013543
X027834Y031456
X026181Y034055
X024527Y031456
X026181Y027952
X035039Y004921
X032086Y007677
X030708Y004921
X032480Y003149
X029133Y013582
X023818Y015944
X021653Y013582
X024960Y012007
X035039Y022559
X029921Y024212
X030708Y022559
X032086Y018503
X020472Y003346
X014566Y003346
X018700Y003149
X093622Y014173
X094724Y062125
X006535Y048188
X028346Y031299
X025393Y034055
X024015Y031299
X025787Y029527
X036614Y005314
X031299Y007677
X029133Y005314
X032440Y003740
X027559Y013897
X022440Y015551
X023228Y013897
X024606Y009842
X035826Y022637
X029921Y023425
X029921Y022637
X031692Y020078
X014566Y004133
X018307Y001574
X093622Y028503
X094724Y047165
X055590Y052637
X053346Y058110
X029921Y031692
X024606Y034055
X022440Y031692
X025748Y030118
X035039Y005629
X029921Y007283
X030708Y005629
X032086Y001574
X028346Y013976
X022440Y014763
X022440Y013976
X024212Y011417
X036614Y023031
X030708Y023425
X029133Y023031
X031692Y019291
X017952Y003740
X094724Y014251
X093622Y029133
X094724Y029842
X093228Y068858
X028346Y032007
X023228Y033661
X024015Y032007
X025393Y027952
X035826Y005708
X029921Y006496
X029921Y005708
X031692Y003149
X029133Y014370
X023228Y014763
X021653Y014370
X024212Y010629
X035039Y020000
X035039Y023425
X030708Y020000
X034055Y019291
X094724Y014881
X057401Y053937
X004881Y007874
X093937Y066535
X007795Y048267
X008267Y050314
X012716Y049212
X011889Y054330
X006771Y049881
X006850Y046535
X005118Y059763
X005118Y060787
X005118Y061811
X005118Y062755
X029133Y032086
X023228Y032874
X023228Y032086
X025000Y029527
X036614Y006102
X030708Y006496
X029133Y006102
X031692Y002362
X027559Y011338
X027559Y014763
X023228Y011338
X026574Y010629
X035826Y020275
X029921Y020275
X034055Y020078
X071574Y003503
X058582Y025275
X060472Y020393
X057007Y024645
X057007Y021181
X061023Y025275
X061889Y023779
X061889Y020944
X061141Y020393
X094724Y029212
X093622Y045826
X056968Y056771
X004488Y008385
X026338Y044488
X026338Y048503
X026338Y052519
X026338Y056535
X026338Y060551
M30
