G04 FreePCB version 1.354*
G04 C:\JPT\Projects\07\0722 - Cryo Testbench\FreePCB\IOExtend\CAM\inner_copper_2.grb*
G04 inner 2 layer *
G04 Scale: 100 percent, Rotated: No, Reflected: No *
%FSLAX24Y24*%
%MOIN*%
%LN inner 2 *%
G04 Rounded Rectangle Macro, params: W/2, H/2, R *
%AMRNDREC*
21,1,$1+$1,$2+$2-$3-$3,0,0,0*
21,1,$1+$1-$3-$3,$2+$2,0,0,0*
1,1,$3+$3,$1-$3,$2-$3*
1,1,$3+$3,$3-$1,$2-$3*
1,1,$3+$3,$1-$3,$3-$2*
1,1,$3+$3,$3-$1,$3-$2*%
G04 Rectangular Thermal Macro, params: W/2, H/2, T/2 *
%AMRECTHERM*
$4=$3/2*
21,1,$1-$3,$2-$3,0-$1/2-$4,0-$2/2-$4,0*
21,1,$1-$3,$2-$3,0-$1/2-$4,$2/2+$4,0*
21,1,$1-$3,$2-$3,$1/2+$4,0-$2/2-$4,0*
21,1,$1-$3,$2-$3,$1/2+$4,$2/2+$4,0*%
%ADD10C,0.110236*%
%ADD11C,0.089685*%
%ADD12C,0.079685*%
%ADD13C,0.177370*%
%AMTHERM14*7,0,0,0.079685,0.060000,0.009843,45.0*%
%ADD14THERM14*%
%ADD15C,0.001000*%
%ADD16C,0.103685*%
%ADD17C,0.164685*%
%AMTHERM18*7,0,0,0.089685,0.070000,0.009843,45.0*%
%ADD18THERM18*%
%AMTHERM19*7,0,0,0.110236,0.090551,0.009843,45.0*%
%ADD19THERM19*%
%ADD20C,0.119685*%
%ADD21C,0.071370*%
%ADD22C,0.179685*%
%ADD23C,0.098425*%
%ADD24C,0.137795*%
%ADD25C,0.071685*%
%AMTHERM26*7,0,0,0.071685,0.052000,0.009843,45.0*%
%ADD26THERM26*%
%ADD27RECTHERM,0.108343X0.108343X0.004921*%
%ADD28C,0.049370*%
%ADD29C,0.049685*%
%ADD30C,0.090551*%
%ADD31C,0.070000*%
%ADD32C,0.060000*%
%ADD33C,0.157000*%
%ADD34C,0.084000*%
%ADD35C,0.145000*%
%ADD36C,0.100000*%
%ADD37C,0.042000*%
%ADD38C,0.050000*%
%ADD39C,0.160000*%
%ADD40C,0.078740*%
%ADD41C,0.118110*%
%ADD42C,0.052000*%
%ADD43R,0.197000X0.197000*%
%ADD44C,0.030000*%
%ADD45C,0.008000*%
G90*
G70D02*

G04 Step and Repeat for panelization *

G04 ----------------------- Draw copper area (positive)*
G36*
G01X78149Y6102D02*
G01X39173Y6102D01*
G01X39173Y37204D01*
G01X78149Y37204D01*
G01X78149Y6102D01*
G37*

G04 ----------------------- Draw copper area (positive)*
G36*
G01X78149Y984D02*
G01X67125Y984D01*
G01X67125Y4527D01*
G01X78149Y4527D01*
G01X78149Y984D01*
G37*

G04 ----------------------- Draw copper area (positive)*
G36*
G01X65551Y984D02*
G01X54527Y984D01*
G01X54527Y4527D01*
G01X65551Y4527D01*
G01X65551Y984D01*
G37*

G04 ----------------------- Draw copper area (positive)*
G36*
G01X19881Y17913D02*
G01X590Y17913D01*
G01X590Y37204D01*
G01X19881Y37204D01*
G01X19881Y17913D01*
G37*

G04 ----------------------- Draw copper area (positive)*
G36*
G01X50196Y984D02*
G01X39173Y984D01*
G01X39173Y4527D01*
G01X50196Y4527D01*
G01X50196Y984D01*
G37*

G04 ----------------------- Draw copper area (positive)*
G36*
G01X65157Y38779D02*
G01X43897Y38779D01*
G01X43897Y69881D01*
G01X65157Y69881D01*
G01X65157Y38779D01*
G37*

G04 ----------------------- Draw copper area (positive)*
G36*
G01X37795Y22244D02*
G01X37795Y22204D01*
G01X37794Y22165D01*
G01X37793Y22125D01*
G01X37792Y22086D01*
G01X37791Y22046D01*
G01X37789Y22007D01*
G01X37787Y21968D01*
G01X37785Y21928D01*
G01X37782Y21889D01*
G01X37779Y21850D01*
G01X37776Y21810D01*
G01X37772Y21771D01*
G01X37768Y21732D01*
G01X37764Y21693D01*
G01X37759Y21653D01*
G01X37754Y21614D01*
G01X37749Y21575D01*
G01X37744Y21536D01*
G01X37738Y21497D01*
G01X37732Y21458D01*
G01X37725Y21419D01*
G01X37718Y21380D01*
G01X37711Y21342D01*
G01X37704Y21303D01*
G01X37696Y21264D01*
G01X37688Y21226D01*
G01X37680Y21187D01*
G01X37671Y21149D01*
G01X37662Y21110D01*
G01X37653Y21072D01*
G01X37644Y21033D01*
G01X37634Y20995D01*
G01X37624Y20957D01*
G01X37613Y20919D01*
G01X37602Y20881D01*
G01X37591Y20843D01*
G01X37580Y20806D01*
G01X37568Y20768D01*
G01X37556Y20730D01*
G01X37544Y20693D01*
G01X37531Y20655D01*
G01X37519Y20618D01*
G01X37505Y20581D01*
G01X37492Y20544D01*
G01X37478Y20507D01*
G01X37464Y20470D01*
G01X37450Y20433D01*
G01X37435Y20397D01*
G01X37420Y20360D01*
G01X37405Y20324D01*
G01X37389Y20288D01*
G01X37374Y20252D01*
G01X37357Y20216D01*
G01X37341Y20180D01*
G01X37324Y20144D01*
G01X37307Y20108D01*
G01X37290Y20073D01*
G01X37273Y20038D01*
G01X37255Y20002D01*
G01X37237Y19967D01*
G01X37218Y19932D01*
G01X37200Y19898D01*
G01X37181Y19863D01*
G01X37162Y19829D01*
G01X37142Y19794D01*
G01X37122Y19760D01*
G01X37102Y19726D01*
G01X37082Y19692D01*
G01X37061Y19659D01*
G01X37040Y19625D01*
G01X37019Y19592D01*
G01X36998Y19559D01*
G01X36976Y19526D01*
G01X36954Y19493D01*
G01X36932Y19460D01*
G01X36910Y19428D01*
G01X36887Y19396D01*
G01X36864Y19364D01*
G01X36841Y19332D01*
G01X36817Y19300D01*
G01X36794Y19269D01*
G01X36770Y19237D01*
G01X36746Y19206D01*
G01X36721Y19175D01*
G01X36696Y19145D01*
G01X36671Y19114D01*
G01X36646Y19084D01*
G01X36621Y19053D01*
G01X36595Y19024D01*
G01X36569Y18994D01*
G01X36543Y18964D01*
G01X36517Y18935D01*
G01X36490Y18906D01*
G01X36463Y18877D01*
G01X36436Y18848D01*
G01X36409Y18820D01*
G01X36381Y18792D01*
G01X36353Y18764D01*
G01X36325Y18736D01*
G01X36297Y18708D01*
G01X36269Y18681D01*
G01X36240Y18654D01*
G01X36211Y18627D01*
G01X36182Y18600D01*
G01X36153Y18574D01*
G01X36123Y18548D01*
G01X36094Y18522D01*
G01X36064Y18496D01*
G01X36033Y18471D01*
G01X36003Y18446D01*
G01X35973Y18421D01*
G01X35942Y18396D01*
G01X35911Y18372D01*
G01X35880Y18347D01*
G01X35848Y18323D01*
G01X35817Y18300D01*
G01X35785Y18276D01*
G01X35753Y18253D01*
G01X35721Y18230D01*
G01X35689Y18207D01*
G01X35657Y18185D01*
G01X35624Y18163D01*
G01X35591Y18141D01*
G01X35558Y18119D01*
G01X35525Y18098D01*
G01X35492Y18077D01*
G01X35458Y18056D01*
G01X35425Y18035D01*
G01X35391Y18015D01*
G01X35357Y17995D01*
G01X35323Y17975D01*
G01X35288Y17956D01*
G01X35254Y17936D01*
G01X35219Y17917D01*
G01X35185Y17899D01*
G01X35150Y17880D01*
G01X35115Y17862D01*
G01X35080Y17844D01*
G01X35044Y17827D01*
G01X35009Y17810D01*
G01X34973Y17793D01*
G01X34937Y17776D01*
G01X34902Y17760D01*
G01X34866Y17744D01*
G01X34829Y17728D01*
G01X34793Y17712D01*
G01X34757Y17697D01*
G01X34720Y17682D01*
G01X34684Y17667D01*
G01X34647Y17653D01*
G01X34610Y17639D01*
G01X34573Y17625D01*
G01X34536Y17612D01*
G01X34499Y17598D01*
G01X34462Y17586D01*
G01X34424Y17573D01*
G01X34387Y17561D01*
G01X34349Y17549D01*
G01X34312Y17537D01*
G01X34274Y17526D01*
G01X34236Y17515D01*
G01X34198Y17504D01*
G01X34160Y17493D01*
G01X34122Y17483D01*
G01X34084Y17473D01*
G01X34045Y17464D01*
G01X34007Y17455D01*
G01X33969Y17446D01*
G01X33930Y17437D01*
G01X33892Y17429D01*
G01X33853Y17421D01*
G01X33814Y17413D01*
G01X33776Y17406D01*
G01X33737Y17399D01*
G01X33698Y17392D01*
G01X33659Y17385D01*
G01X33620Y17379D01*
G01X33581Y17373D01*
G01X33542Y17368D01*
G01X33503Y17363D01*
G01X33464Y17358D01*
G01X33425Y17353D01*
G01X33385Y17349D01*
G01X33346Y17345D01*
G01X33307Y17341D01*
G01X33267Y17338D01*
G01X33228Y17335D01*
G01X33189Y17332D01*
G01X33149Y17330D01*
G01X33110Y17328D01*
G01X33071Y17326D01*
G01X33031Y17325D01*
G01X32992Y17324D01*
G01X32952Y17323D01*
G01X32913Y17322D01*
G01X32874Y17322D01*
G01X32834Y17322D01*
G01X32795Y17323D01*
G01X32755Y17324D01*
G01X32716Y17325D01*
G01X32676Y17326D01*
G01X32637Y17328D01*
G01X32598Y17330D01*
G01X32558Y17332D01*
G01X32519Y17335D01*
G01X32480Y17338D01*
G01X32440Y17341D01*
G01X32401Y17345D01*
G01X32362Y17349D01*
G01X32323Y17353D01*
G01X32283Y17358D01*
G01X32244Y17363D01*
G01X32205Y17368D01*
G01X32166Y17373D01*
G01X32127Y17379D01*
G01X32088Y17385D01*
G01X32049Y17392D01*
G01X32010Y17399D01*
G01X31972Y17406D01*
G01X31933Y17413D01*
G01X31894Y17421D01*
G01X31855Y17429D01*
G01X31817Y17437D01*
G01X31778Y17446D01*
G01X31740Y17455D01*
G01X31702Y17464D01*
G01X31663Y17473D01*
G01X31625Y17483D01*
G01X31587Y17493D01*
G01X31549Y17504D01*
G01X31511Y17515D01*
G01X31473Y17526D01*
G01X31436Y17537D01*
G01X31398Y17549D01*
G01X31360Y17561D01*
G01X31323Y17573D01*
G01X31285Y17586D01*
G01X31248Y17598D01*
G01X31211Y17612D01*
G01X31174Y17625D01*
G01X31137Y17639D01*
G01X31100Y17653D01*
G01X31063Y17667D01*
G01X31027Y17682D01*
G01X30990Y17697D01*
G01X30954Y17712D01*
G01X30918Y17728D01*
G01X30881Y17744D01*
G01X30845Y17760D01*
G01X30810Y17776D01*
G01X30774Y17793D01*
G01X30738Y17810D01*
G01X30703Y17827D01*
G01X30667Y17844D01*
G01X30632Y17862D01*
G01X30597Y17880D01*
G01X30562Y17899D01*
G01X30528Y17917D01*
G01X30493Y17936D01*
G01X30459Y17956D01*
G01X30424Y17975D01*
G01X30390Y17995D01*
G01X30356Y18015D01*
G01X30322Y18035D01*
G01X30289Y18056D01*
G01X30255Y18077D01*
G01X30222Y18098D01*
G01X30189Y18119D01*
G01X30156Y18141D01*
G01X30123Y18163D01*
G01X30090Y18185D01*
G01X30058Y18207D01*
G01X30026Y18230D01*
G01X29994Y18253D01*
G01X29962Y18276D01*
G01X29930Y18300D01*
G01X29899Y18323D01*
G01X29867Y18347D01*
G01X29836Y18372D01*
G01X29805Y18396D01*
G01X29774Y18421D01*
G01X29744Y18446D01*
G01X29714Y18471D01*
G01X29683Y18496D01*
G01X29653Y18522D01*
G01X29624Y18548D01*
G01X29594Y18574D01*
G01X29565Y18600D01*
G01X29536Y18627D01*
G01X29507Y18654D01*
G01X29478Y18681D01*
G01X29450Y18708D01*
G01X29422Y18736D01*
G01X29394Y18764D01*
G01X29366Y18792D01*
G01X29338Y18820D01*
G01X29311Y18848D01*
G01X29284Y18877D01*
G01X29257Y18906D01*
G01X29230Y18935D01*
G01X29204Y18964D01*
G01X29178Y18994D01*
G01X29152Y19024D01*
G01X29126Y19053D01*
G01X29101Y19084D01*
G01X29076Y19114D01*
G01X29051Y19145D01*
G01X29026Y19175D01*
G01X29001Y19206D01*
G01X28977Y19237D01*
G01X28953Y19269D01*
G01X28930Y19300D01*
G01X28906Y19332D01*
G01X28883Y19364D01*
G01X28860Y19396D01*
G01X28837Y19428D01*
G01X28815Y19460D01*
G01X28793Y19493D01*
G01X28771Y19526D01*
G01X28749Y19559D01*
G01X28728Y19592D01*
G01X28707Y19625D01*
G01X28686Y19659D01*
G01X28665Y19692D01*
G01X28645Y19726D01*
G01X28625Y19760D01*
G01X28605Y19794D01*
G01X28586Y19829D01*
G01X28566Y19863D01*
G01X28547Y19898D01*
G01X28529Y19932D01*
G01X28510Y19967D01*
G01X28492Y20002D01*
G01X28474Y20038D01*
G01X28457Y20073D01*
G01X28440Y20108D01*
G01X28423Y20144D01*
G01X28406Y20180D01*
G01X28390Y20216D01*
G01X28373Y20252D01*
G01X28358Y20288D01*
G01X28342Y20324D01*
G01X28327Y20360D01*
G01X28312Y20397D01*
G01X28297Y20433D01*
G01X28283Y20470D01*
G01X28269Y20507D01*
G01X28255Y20544D01*
G01X28242Y20581D01*
G01X28228Y20618D01*
G01X28216Y20655D01*
G01X28203Y20693D01*
G01X28191Y20730D01*
G01X28179Y20768D01*
G01X28167Y20806D01*
G01X28156Y20843D01*
G01X28145Y20881D01*
G01X28134Y20919D01*
G01X28123Y20957D01*
G01X28113Y20995D01*
G01X28103Y21033D01*
G01X28094Y21072D01*
G01X28085Y21110D01*
G01X28076Y21149D01*
G01X28067Y21187D01*
G01X28059Y21226D01*
G01X28051Y21264D01*
G01X28043Y21303D01*
G01X28036Y21342D01*
G01X28029Y21380D01*
G01X28022Y21419D01*
G01X28015Y21458D01*
G01X28009Y21497D01*
G01X28003Y21536D01*
G01X27998Y21575D01*
G01X27993Y21614D01*
G01X27988Y21653D01*
G01X27983Y21693D01*
G01X27979Y21732D01*
G01X27975Y21771D01*
G01X27971Y21810D01*
G01X27968Y21850D01*
G01X27965Y21889D01*
G01X27962Y21928D01*
G01X27960Y21968D01*
G01X27958Y22007D01*
G01X27956Y22046D01*
G01X27955Y22086D01*
G01X27954Y22125D01*
G01X27953Y22165D01*
G01X27952Y22204D01*
G01X27952Y22244D01*
G01X27952Y22283D01*
G01X27953Y22322D01*
G01X27954Y22362D01*
G01X27955Y22401D01*
G01X27956Y22441D01*
G01X27958Y22480D01*
G01X27960Y22520D01*
G01X27962Y22559D01*
G01X27965Y22598D01*
G01X27968Y22638D01*
G01X27971Y22677D01*
G01X27975Y22716D01*
G01X27979Y22755D01*
G01X27983Y22795D01*
G01X27988Y22834D01*
G01X27993Y22873D01*
G01X27998Y22912D01*
G01X28003Y22951D01*
G01X28009Y22990D01*
G01X28015Y23029D01*
G01X28022Y23068D01*
G01X28029Y23107D01*
G01X28036Y23146D01*
G01X28043Y23184D01*
G01X28051Y23223D01*
G01X28059Y23262D01*
G01X28067Y23300D01*
G01X28076Y23339D01*
G01X28085Y23377D01*
G01X28094Y23415D01*
G01X28103Y23454D01*
G01X28113Y23492D01*
G01X28123Y23530D01*
G01X28134Y23568D01*
G01X28145Y23606D01*
G01X28156Y23644D01*
G01X28167Y23682D01*
G01X28179Y23719D01*
G01X28191Y23757D01*
G01X28203Y23794D01*
G01X28216Y23832D01*
G01X28228Y23869D01*
G01X28242Y23906D01*
G01X28255Y23943D01*
G01X28269Y23980D01*
G01X28283Y24017D01*
G01X28297Y24054D01*
G01X28312Y24090D01*
G01X28327Y24127D01*
G01X28342Y24163D01*
G01X28358Y24200D01*
G01X28373Y24236D01*
G01X28390Y24272D01*
G01X28406Y24308D01*
G01X28423Y24343D01*
G01X28440Y24379D01*
G01X28457Y24414D01*
G01X28474Y24450D01*
G01X28492Y24485D01*
G01X28510Y24520D01*
G01X28529Y24555D01*
G01X28547Y24590D01*
G01X28566Y24624D01*
G01X28586Y24659D01*
G01X28605Y24693D01*
G01X28625Y24727D01*
G01X28645Y24761D01*
G01X28665Y24795D01*
G01X28686Y24828D01*
G01X28707Y24862D01*
G01X28728Y24895D01*
G01X28749Y24928D01*
G01X28771Y24961D01*
G01X28793Y24994D01*
G01X28815Y25027D01*
G01X28837Y25059D01*
G01X28860Y25091D01*
G01X28883Y25123D01*
G01X28906Y25155D01*
G01X28930Y25187D01*
G01X28953Y25219D01*
G01X28977Y25250D01*
G01X29001Y25281D01*
G01X29026Y25312D01*
G01X29051Y25343D01*
G01X29076Y25373D01*
G01X29101Y25404D01*
G01X29126Y25434D01*
G01X29152Y25464D01*
G01X29178Y25493D01*
G01X29204Y25523D01*
G01X29230Y25552D01*
G01X29257Y25581D01*
G01X29284Y25610D01*
G01X29311Y25639D01*
G01X29338Y25667D01*
G01X29366Y25695D01*
G01X29394Y25723D01*
G01X29422Y25751D01*
G01X29450Y25779D01*
G01X29478Y25806D01*
G01X29507Y25833D01*
G01X29536Y25860D01*
G01X29565Y25887D01*
G01X29594Y25913D01*
G01X29624Y25939D01*
G01X29653Y25965D01*
G01X29683Y25991D01*
G01X29714Y26016D01*
G01X29744Y26042D01*
G01X29774Y26066D01*
G01X29805Y26091D01*
G01X29836Y26116D01*
G01X29867Y26140D01*
G01X29899Y26164D01*
G01X29930Y26188D01*
G01X29962Y26211D01*
G01X29994Y26234D01*
G01X30026Y26257D01*
G01X30058Y26280D01*
G01X30090Y26302D01*
G01X30123Y26324D01*
G01X30156Y26346D01*
G01X30189Y26368D01*
G01X30222Y26389D01*
G01X30255Y26411D01*
G01X30289Y26431D01*
G01X30322Y26452D01*
G01X30356Y26472D01*
G01X30390Y26492D01*
G01X30424Y26512D01*
G01X30459Y26532D01*
G01X30493Y26551D01*
G01X30528Y26570D01*
G01X30562Y26588D01*
G01X30597Y26607D01*
G01X30632Y26625D01*
G01X30667Y26643D01*
G01X30703Y26660D01*
G01X30738Y26677D01*
G01X30774Y26694D01*
G01X30810Y26711D01*
G01X30845Y26728D01*
G01X30881Y26744D01*
G01X30918Y26759D01*
G01X30954Y26775D01*
G01X30990Y26790D01*
G01X31027Y26805D01*
G01X31063Y26820D01*
G01X31100Y26834D01*
G01X31137Y26848D01*
G01X31174Y26862D01*
G01X31211Y26876D01*
G01X31248Y26889D01*
G01X31285Y26902D01*
G01X31323Y26914D01*
G01X31360Y26926D01*
G01X31398Y26938D01*
G01X31436Y26950D01*
G01X31473Y26961D01*
G01X31511Y26973D01*
G01X31549Y26983D01*
G01X31587Y26994D01*
G01X31625Y27004D01*
G01X31663Y27014D01*
G01X31702Y27023D01*
G01X31740Y27033D01*
G01X31778Y27041D01*
G01X31817Y27050D01*
G01X31855Y27058D01*
G01X31894Y27066D01*
G01X31933Y27074D01*
G01X31972Y27081D01*
G01X32010Y27089D01*
G01X32049Y27095D01*
G01X32088Y27102D01*
G01X32127Y27108D01*
G01X32166Y27114D01*
G01X32205Y27119D01*
G01X32244Y27124D01*
G01X32283Y27129D01*
G01X32323Y27134D01*
G01X32362Y27138D01*
G01X32401Y27142D01*
G01X32440Y27146D01*
G01X32480Y27149D01*
G01X32519Y27152D01*
G01X32558Y27155D01*
G01X32598Y27157D01*
G01X32637Y27159D01*
G01X32676Y27161D01*
G01X32716Y27162D01*
G01X32755Y27163D01*
G01X32795Y27164D01*
G01X32834Y27165D01*
G01X32874Y27165D01*
G01X32913Y27165D01*
G01X32952Y27164D01*
G01X32992Y27163D01*
G01X33031Y27162D01*
G01X33071Y27161D01*
G01X33110Y27159D01*
G01X33149Y27157D01*
G01X33189Y27155D01*
G01X33228Y27152D01*
G01X33267Y27149D01*
G01X33307Y27146D01*
G01X33346Y27142D01*
G01X33385Y27138D01*
G01X33425Y27134D01*
G01X33464Y27129D01*
G01X33503Y27124D01*
G01X33542Y27119D01*
G01X33581Y27114D01*
G01X33620Y27108D01*
G01X33659Y27102D01*
G01X33698Y27095D01*
G01X33737Y27089D01*
G01X33776Y27081D01*
G01X33814Y27074D01*
G01X33853Y27066D01*
G01X33892Y27058D01*
G01X33930Y27050D01*
G01X33969Y27041D01*
G01X34007Y27033D01*
G01X34045Y27023D01*
G01X34084Y27014D01*
G01X34122Y27004D01*
G01X34160Y26994D01*
G01X34198Y26983D01*
G01X34236Y26973D01*
G01X34274Y26961D01*
G01X34312Y26950D01*
G01X34349Y26938D01*
G01X34387Y26926D01*
G01X34424Y26914D01*
G01X34462Y26902D01*
G01X34499Y26889D01*
G01X34536Y26876D01*
G01X34573Y26862D01*
G01X34610Y26848D01*
G01X34647Y26834D01*
G01X34684Y26820D01*
G01X34720Y26805D01*
G01X34757Y26790D01*
G01X34793Y26775D01*
G01X34829Y26759D01*
G01X34866Y26744D01*
G01X34902Y26728D01*
G01X34937Y26711D01*
G01X34973Y26694D01*
G01X35009Y26677D01*
G01X35044Y26660D01*
G01X35080Y26643D01*
G01X35115Y26625D01*
G01X35150Y26607D01*
G01X35185Y26588D01*
G01X35219Y26570D01*
G01X35254Y26551D01*
G01X35288Y26532D01*
G01X35323Y26512D01*
G01X35357Y26492D01*
G01X35391Y26472D01*
G01X35425Y26452D01*
G01X35458Y26431D01*
G01X35492Y26411D01*
G01X35525Y26389D01*
G01X35558Y26368D01*
G01X35591Y26346D01*
G01X35624Y26324D01*
G01X35657Y26302D01*
G01X35689Y26280D01*
G01X35721Y26257D01*
G01X35753Y26234D01*
G01X35785Y26211D01*
G01X35817Y26188D01*
G01X35848Y26164D01*
G01X35880Y26140D01*
G01X35911Y26116D01*
G01X35942Y26091D01*
G01X35973Y26066D01*
G01X36003Y26042D01*
G01X36033Y26016D01*
G01X36064Y25991D01*
G01X36094Y25965D01*
G01X36123Y25939D01*
G01X36153Y25913D01*
G01X36182Y25887D01*
G01X36211Y25860D01*
G01X36240Y25833D01*
G01X36269Y25806D01*
G01X36297Y25779D01*
G01X36325Y25751D01*
G01X36353Y25723D01*
G01X36381Y25695D01*
G01X36409Y25667D01*
G01X36436Y25639D01*
G01X36463Y25610D01*
G01X36490Y25581D01*
G01X36517Y25552D01*
G01X36543Y25523D01*
G01X36569Y25493D01*
G01X36595Y25464D01*
G01X36621Y25434D01*
G01X36646Y25404D01*
G01X36671Y25373D01*
G01X36696Y25343D01*
G01X36721Y25312D01*
G01X36746Y25281D01*
G01X36770Y25250D01*
G01X36794Y25219D01*
G01X36817Y25187D01*
G01X36841Y25155D01*
G01X36864Y25123D01*
G01X36887Y25091D01*
G01X36910Y25059D01*
G01X36932Y25027D01*
G01X36954Y24994D01*
G01X36976Y24961D01*
G01X36998Y24928D01*
G01X37019Y24895D01*
G01X37040Y24862D01*
G01X37061Y24828D01*
G01X37082Y24795D01*
G01X37102Y24761D01*
G01X37122Y24727D01*
G01X37142Y24693D01*
G01X37162Y24659D01*
G01X37181Y24624D01*
G01X37200Y24590D01*
G01X37218Y24555D01*
G01X37237Y24520D01*
G01X37255Y24485D01*
G01X37273Y24450D01*
G01X37290Y24414D01*
G01X37307Y24379D01*
G01X37324Y24343D01*
G01X37341Y24308D01*
G01X37357Y24272D01*
G01X37374Y24236D01*
G01X37389Y24200D01*
G01X37405Y24163D01*
G01X37420Y24127D01*
G01X37435Y24090D01*
G01X37450Y24054D01*
G01X37464Y24017D01*
G01X37478Y23980D01*
G01X37492Y23943D01*
G01X37505Y23906D01*
G01X37519Y23869D01*
G01X37531Y23832D01*
G01X37544Y23794D01*
G01X37556Y23757D01*
G01X37568Y23719D01*
G01X37580Y23682D01*
G01X37591Y23644D01*
G01X37602Y23606D01*
G01X37613Y23568D01*
G01X37624Y23530D01*
G01X37634Y23492D01*
G01X37644Y23454D01*
G01X37653Y23415D01*
G01X37662Y23377D01*
G01X37671Y23339D01*
G01X37680Y23300D01*
G01X37688Y23262D01*
G01X37696Y23223D01*
G01X37704Y23184D01*
G01X37711Y23146D01*
G01X37718Y23107D01*
G01X37725Y23068D01*
G01X37732Y23029D01*
G01X37738Y22990D01*
G01X37744Y22951D01*
G01X37749Y22912D01*
G01X37754Y22873D01*
G01X37759Y22834D01*
G01X37764Y22795D01*
G01X37768Y22755D01*
G01X37772Y22716D01*
G01X37776Y22677D01*
G01X37779Y22638D01*
G01X37782Y22598D01*
G01X37785Y22559D01*
G01X37787Y22520D01*
G01X37789Y22480D01*
G01X37791Y22441D01*
G01X37792Y22401D01*
G01X37793Y22362D01*
G01X37794Y22322D01*
G01X37795Y22283D01*
G01X37795Y22244D01*
G37*

G04 ----------------------- Draw copper area (positive)*
G36*
G01X22440Y5314D02*
G01X22440Y5275D01*
G01X22440Y5236D01*
G01X22439Y5196D01*
G01X22438Y5157D01*
G01X22436Y5117D01*
G01X22435Y5078D01*
G01X22433Y5039D01*
G01X22430Y4999D01*
G01X22428Y4960D01*
G01X22425Y4920D01*
G01X22421Y4881D01*
G01X22418Y4842D01*
G01X22414Y4803D01*
G01X22410Y4763D01*
G01X22405Y4724D01*
G01X22400Y4685D01*
G01X22395Y4646D01*
G01X22389Y4607D01*
G01X22384Y4568D01*
G01X22377Y4529D01*
G01X22371Y4490D01*
G01X22364Y4451D01*
G01X22357Y4412D01*
G01X22350Y4374D01*
G01X22342Y4335D01*
G01X22334Y4296D01*
G01X22326Y4258D01*
G01X22317Y4219D01*
G01X22308Y4181D01*
G01X22299Y4143D01*
G01X22289Y4104D01*
G01X22279Y4066D01*
G01X22269Y4028D01*
G01X22259Y3990D01*
G01X22248Y3952D01*
G01X22237Y3914D01*
G01X22226Y3876D01*
G01X22214Y3839D01*
G01X22202Y3801D01*
G01X22190Y3764D01*
G01X22177Y3726D01*
G01X22164Y3689D01*
G01X22151Y3652D01*
G01X22138Y3615D01*
G01X22124Y3578D01*
G01X22110Y3541D01*
G01X22095Y3504D01*
G01X22081Y3468D01*
G01X22066Y3431D01*
G01X22051Y3395D01*
G01X22035Y3359D01*
G01X22019Y3322D01*
G01X22003Y3286D01*
G01X21987Y3251D01*
G01X21970Y3215D01*
G01X21953Y3179D01*
G01X21936Y3144D01*
G01X21918Y3108D01*
G01X21900Y3073D01*
G01X21882Y3038D01*
G01X21864Y3003D01*
G01X21845Y2969D01*
G01X21826Y2934D01*
G01X21807Y2900D01*
G01X21788Y2865D01*
G01X21768Y2831D01*
G01X21748Y2797D01*
G01X21728Y2763D01*
G01X21707Y2730D01*
G01X21686Y2696D01*
G01X21665Y2663D01*
G01X21644Y2630D01*
G01X21622Y2597D01*
G01X21600Y2564D01*
G01X21578Y2531D01*
G01X21555Y2499D01*
G01X21533Y2467D01*
G01X21510Y2435D01*
G01X21487Y2403D01*
G01X21463Y2371D01*
G01X21439Y2339D01*
G01X21415Y2308D01*
G01X21391Y2277D01*
G01X21367Y2246D01*
G01X21342Y2215D01*
G01X21317Y2185D01*
G01X21292Y2154D01*
G01X21266Y2124D01*
G01X21241Y2094D01*
G01X21215Y2065D01*
G01X21189Y2035D01*
G01X21162Y2006D01*
G01X21136Y1977D01*
G01X21109Y1948D01*
G01X21082Y1919D01*
G01X21054Y1891D01*
G01X21027Y1863D01*
G01X20999Y1835D01*
G01X20971Y1807D01*
G01X20943Y1779D01*
G01X20914Y1752D01*
G01X20886Y1725D01*
G01X20857Y1698D01*
G01X20828Y1671D01*
G01X20798Y1645D01*
G01X20769Y1619D01*
G01X20739Y1593D01*
G01X20709Y1567D01*
G01X20679Y1542D01*
G01X20649Y1517D01*
G01X20618Y1492D01*
G01X20588Y1467D01*
G01X20557Y1442D01*
G01X20525Y1418D01*
G01X20494Y1394D01*
G01X20463Y1370D01*
G01X20431Y1347D01*
G01X20399Y1324D01*
G01X20367Y1301D01*
G01X20335Y1278D01*
G01X20302Y1256D01*
G01X20270Y1234D01*
G01X20237Y1212D01*
G01X20204Y1190D01*
G01X20171Y1169D01*
G01X20137Y1148D01*
G01X20104Y1127D01*
G01X20070Y1106D01*
G01X20037Y1086D01*
G01X20003Y1066D01*
G01X19968Y1046D01*
G01X19934Y1026D01*
G01X19900Y1007D01*
G01X19865Y988D01*
G01X19830Y970D01*
G01X19795Y951D01*
G01X19760Y933D01*
G01X19725Y915D01*
G01X19690Y898D01*
G01X19654Y881D01*
G01X19619Y864D01*
G01X19583Y847D01*
G01X19547Y831D01*
G01X19511Y814D01*
G01X19475Y799D01*
G01X19439Y783D01*
G01X19402Y768D01*
G01X19366Y753D01*
G01X19329Y738D01*
G01X19293Y724D01*
G01X19256Y710D01*
G01X19219Y696D01*
G01X19182Y683D01*
G01X19145Y669D01*
G01X19107Y656D01*
G01X19070Y644D01*
G01X19032Y632D01*
G01X18995Y620D01*
G01X18957Y608D01*
G01X18919Y597D01*
G01X18882Y586D01*
G01X18844Y575D01*
G01X18806Y564D01*
G01X18767Y554D01*
G01X18729Y544D01*
G01X18691Y535D01*
G01X18653Y526D01*
G01X18614Y517D01*
G01X18576Y508D01*
G01X18537Y500D01*
G01X18499Y492D01*
G01X18460Y484D01*
G01X18421Y477D01*
G01X18382Y469D01*
G01X18344Y463D01*
G01X18305Y456D01*
G01X18266Y450D01*
G01X18227Y444D01*
G01X18188Y439D01*
G01X18149Y434D01*
G01X18109Y429D01*
G01X18070Y424D01*
G01X18031Y420D01*
G01X17992Y416D01*
G01X17952Y412D01*
G01X17913Y409D01*
G01X17874Y406D01*
G01X17834Y403D01*
G01X17795Y401D01*
G01X17756Y399D01*
G01X17716Y397D01*
G01X17677Y396D01*
G01X17637Y395D01*
G01X17598Y394D01*
G01X17559Y393D01*
G01X17519Y393D01*
G01X17480Y393D01*
G01X17440Y394D01*
G01X17401Y395D01*
G01X17361Y396D01*
G01X17322Y397D01*
G01X17283Y399D01*
G01X17243Y401D01*
G01X17204Y403D01*
G01X17165Y406D01*
G01X17125Y409D01*
G01X17086Y412D01*
G01X17047Y416D01*
G01X17007Y420D01*
G01X16968Y424D01*
G01X16929Y429D01*
G01X16890Y434D01*
G01X16851Y439D01*
G01X16812Y444D01*
G01X16773Y450D01*
G01X16734Y456D01*
G01X16695Y463D01*
G01X16656Y469D01*
G01X16617Y477D01*
G01X16578Y484D01*
G01X16540Y492D01*
G01X16501Y500D01*
G01X16463Y508D01*
G01X16424Y517D01*
G01X16386Y526D01*
G01X16347Y535D01*
G01X16309Y544D01*
G01X16271Y554D01*
G01X16233Y564D01*
G01X16195Y575D01*
G01X16157Y586D01*
G01X16119Y597D01*
G01X16081Y608D01*
G01X16044Y620D01*
G01X16006Y632D01*
G01X15968Y644D01*
G01X15931Y656D01*
G01X15894Y669D01*
G01X15857Y683D01*
G01X15820Y696D01*
G01X15783Y710D01*
G01X15746Y724D01*
G01X15709Y738D01*
G01X15672Y753D01*
G01X15636Y768D01*
G01X15600Y783D01*
G01X15563Y799D01*
G01X15527Y814D01*
G01X15491Y831D01*
G01X15455Y847D01*
G01X15420Y864D01*
G01X15384Y881D01*
G01X15348Y898D01*
G01X15313Y915D01*
G01X15278Y933D01*
G01X15243Y951D01*
G01X15208Y970D01*
G01X15173Y988D01*
G01X15139Y1007D01*
G01X15104Y1026D01*
G01X15070Y1046D01*
G01X15036Y1066D01*
G01X15002Y1086D01*
G01X14968Y1106D01*
G01X14934Y1127D01*
G01X14901Y1148D01*
G01X14868Y1169D01*
G01X14834Y1190D01*
G01X14801Y1212D01*
G01X14769Y1234D01*
G01X14736Y1256D01*
G01X14704Y1278D01*
G01X14671Y1301D01*
G01X14639Y1324D01*
G01X14607Y1347D01*
G01X14576Y1370D01*
G01X14544Y1394D01*
G01X14513Y1418D01*
G01X14482Y1442D01*
G01X14451Y1467D01*
G01X14420Y1492D01*
G01X14390Y1517D01*
G01X14359Y1542D01*
G01X14329Y1567D01*
G01X14299Y1593D01*
G01X14269Y1619D01*
G01X14240Y1645D01*
G01X14211Y1671D01*
G01X14182Y1698D01*
G01X14153Y1725D01*
G01X14124Y1752D01*
G01X14096Y1779D01*
G01X14067Y1807D01*
G01X14039Y1835D01*
G01X14012Y1863D01*
G01X13984Y1891D01*
G01X13957Y1919D01*
G01X13930Y1948D01*
G01X13903Y1977D01*
G01X13876Y2006D01*
G01X13850Y2035D01*
G01X13824Y2065D01*
G01X13798Y2094D01*
G01X13772Y2124D01*
G01X13746Y2154D01*
G01X13721Y2185D01*
G01X13696Y2215D01*
G01X13672Y2246D01*
G01X13647Y2277D01*
G01X13623Y2308D01*
G01X13599Y2339D01*
G01X13575Y2371D01*
G01X13552Y2403D01*
G01X13529Y2435D01*
G01X13506Y2467D01*
G01X13483Y2499D01*
G01X13460Y2531D01*
G01X13438Y2564D01*
G01X13416Y2597D01*
G01X13395Y2630D01*
G01X13373Y2663D01*
G01X13352Y2696D01*
G01X13331Y2730D01*
G01X13311Y2763D01*
G01X13290Y2797D01*
G01X13270Y2831D01*
G01X13251Y2865D01*
G01X13231Y2900D01*
G01X13212Y2934D01*
G01X13193Y2969D01*
G01X13174Y3003D01*
G01X13156Y3038D01*
G01X13138Y3073D01*
G01X13120Y3108D01*
G01X13103Y3144D01*
G01X13085Y3179D01*
G01X13068Y3215D01*
G01X13052Y3251D01*
G01X13035Y3286D01*
G01X13019Y3322D01*
G01X13003Y3359D01*
G01X12988Y3395D01*
G01X12973Y3431D01*
G01X12958Y3468D01*
G01X12943Y3504D01*
G01X12929Y3541D01*
G01X12915Y3578D01*
G01X12901Y3615D01*
G01X12887Y3652D01*
G01X12874Y3689D01*
G01X12861Y3726D01*
G01X12849Y3764D01*
G01X12836Y3801D01*
G01X12824Y3839D01*
G01X12813Y3876D01*
G01X12801Y3914D01*
G01X12790Y3952D01*
G01X12779Y3990D01*
G01X12769Y4028D01*
G01X12759Y4066D01*
G01X12749Y4104D01*
G01X12739Y4143D01*
G01X12730Y4181D01*
G01X12721Y4219D01*
G01X12713Y4258D01*
G01X12704Y4296D01*
G01X12696Y4335D01*
G01X12689Y4374D01*
G01X12681Y4412D01*
G01X12674Y4451D01*
G01X12667Y4490D01*
G01X12661Y4529D01*
G01X12655Y4568D01*
G01X12649Y4607D01*
G01X12644Y4646D01*
G01X12638Y4685D01*
G01X12633Y4724D01*
G01X12629Y4763D01*
G01X12625Y4803D01*
G01X12621Y4842D01*
G01X12617Y4881D01*
G01X12614Y4920D01*
G01X12611Y4960D01*
G01X12608Y4999D01*
G01X12606Y5039D01*
G01X12604Y5078D01*
G01X12602Y5117D01*
G01X12600Y5157D01*
G01X12599Y5196D01*
G01X12599Y5236D01*
G01X12598Y5275D01*
G01X12598Y5314D01*
G01X12598Y5354D01*
G01X12599Y5393D01*
G01X12599Y5433D01*
G01X12600Y5472D01*
G01X12602Y5512D01*
G01X12604Y5551D01*
G01X12606Y5590D01*
G01X12608Y5630D01*
G01X12611Y5669D01*
G01X12614Y5708D01*
G01X12617Y5748D01*
G01X12621Y5787D01*
G01X12625Y5826D01*
G01X12629Y5865D01*
G01X12633Y5905D01*
G01X12638Y5944D01*
G01X12644Y5983D01*
G01X12649Y6022D01*
G01X12655Y6061D01*
G01X12661Y6100D01*
G01X12667Y6139D01*
G01X12674Y6178D01*
G01X12681Y6216D01*
G01X12689Y6255D01*
G01X12696Y6294D01*
G01X12704Y6333D01*
G01X12713Y6371D01*
G01X12721Y6410D01*
G01X12730Y6448D01*
G01X12739Y6486D01*
G01X12749Y6525D01*
G01X12759Y6563D01*
G01X12769Y6601D01*
G01X12779Y6639D01*
G01X12790Y6677D01*
G01X12801Y6715D01*
G01X12813Y6752D01*
G01X12824Y6790D01*
G01X12836Y6828D01*
G01X12849Y6865D01*
G01X12861Y6903D01*
G01X12874Y6940D01*
G01X12887Y6977D01*
G01X12901Y7014D01*
G01X12915Y7051D01*
G01X12929Y7088D01*
G01X12943Y7125D01*
G01X12958Y7161D01*
G01X12973Y7198D01*
G01X12988Y7234D01*
G01X13003Y7270D01*
G01X13019Y7307D01*
G01X13035Y7343D01*
G01X13052Y7378D01*
G01X13068Y7414D01*
G01X13085Y7450D01*
G01X13103Y7485D01*
G01X13120Y7521D01*
G01X13138Y7556D01*
G01X13156Y7591D01*
G01X13174Y7626D01*
G01X13193Y7660D01*
G01X13212Y7695D01*
G01X13231Y7729D01*
G01X13251Y7764D01*
G01X13270Y7798D01*
G01X13290Y7832D01*
G01X13311Y7866D01*
G01X13331Y7899D01*
G01X13352Y7933D01*
G01X13373Y7966D01*
G01X13395Y7999D01*
G01X13416Y8032D01*
G01X13438Y8065D01*
G01X13460Y8098D01*
G01X13483Y8130D01*
G01X13506Y8162D01*
G01X13529Y8194D01*
G01X13552Y8226D01*
G01X13575Y8258D01*
G01X13599Y8289D01*
G01X13623Y8321D01*
G01X13647Y8352D01*
G01X13672Y8383D01*
G01X13696Y8414D01*
G01X13721Y8444D01*
G01X13746Y8474D01*
G01X13772Y8505D01*
G01X13798Y8534D01*
G01X13824Y8564D01*
G01X13850Y8594D01*
G01X13876Y8623D01*
G01X13903Y8652D01*
G01X13930Y8681D01*
G01X13957Y8710D01*
G01X13984Y8738D01*
G01X14012Y8766D01*
G01X14039Y8794D01*
G01X14067Y8822D01*
G01X14096Y8850D01*
G01X14124Y8877D01*
G01X14153Y8904D01*
G01X14182Y8931D01*
G01X14211Y8958D01*
G01X14240Y8984D01*
G01X14269Y9010D01*
G01X14299Y9036D01*
G01X14329Y9062D01*
G01X14359Y9087D01*
G01X14390Y9112D01*
G01X14420Y9137D01*
G01X14451Y9162D01*
G01X14482Y9187D01*
G01X14513Y9211D01*
G01X14544Y9235D01*
G01X14576Y9258D01*
G01X14607Y9282D01*
G01X14639Y9305D01*
G01X14671Y9328D01*
G01X14704Y9351D01*
G01X14736Y9373D01*
G01X14769Y9395D01*
G01X14801Y9417D01*
G01X14834Y9439D01*
G01X14868Y9460D01*
G01X14901Y9481D01*
G01X14934Y9502D01*
G01X14968Y9523D01*
G01X15002Y9543D01*
G01X15036Y9563D01*
G01X15070Y9583D01*
G01X15104Y9602D01*
G01X15139Y9622D01*
G01X15173Y9641D01*
G01X15208Y9659D01*
G01X15243Y9678D01*
G01X15278Y9696D01*
G01X15313Y9714D01*
G01X15348Y9731D01*
G01X15384Y9748D01*
G01X15420Y9765D01*
G01X15455Y9782D01*
G01X15491Y9798D01*
G01X15527Y9815D01*
G01X15563Y9830D01*
G01X15600Y9846D01*
G01X15636Y9861D01*
G01X15672Y9876D01*
G01X15709Y9891D01*
G01X15746Y9905D01*
G01X15783Y9919D01*
G01X15820Y9933D01*
G01X15857Y9946D01*
G01X15894Y9960D01*
G01X15931Y9972D01*
G01X15968Y9985D01*
G01X16006Y9997D01*
G01X16044Y10009D01*
G01X16081Y10021D01*
G01X16119Y10032D01*
G01X16157Y10043D01*
G01X16195Y10054D01*
G01X16233Y10065D01*
G01X16271Y10075D01*
G01X16309Y10085D01*
G01X16347Y10094D01*
G01X16386Y10103D01*
G01X16424Y10112D01*
G01X16463Y10121D01*
G01X16501Y10129D01*
G01X16540Y10137D01*
G01X16578Y10145D01*
G01X16617Y10152D01*
G01X16656Y10159D01*
G01X16695Y10166D01*
G01X16734Y10173D01*
G01X16773Y10179D01*
G01X16812Y10185D01*
G01X16851Y10190D01*
G01X16890Y10195D01*
G01X16929Y10200D01*
G01X16968Y10205D01*
G01X17007Y10209D01*
G01X17047Y10213D01*
G01X17086Y10217D01*
G01X17125Y10220D01*
G01X17165Y10223D01*
G01X17204Y10226D01*
G01X17243Y10228D01*
G01X17283Y10230D01*
G01X17322Y10232D01*
G01X17361Y10233D01*
G01X17401Y10234D01*
G01X17440Y10235D01*
G01X17480Y10236D01*
G01X17519Y10236D01*
G01X17559Y10236D01*
G01X17598Y10235D01*
G01X17637Y10234D01*
G01X17677Y10233D01*
G01X17716Y10232D01*
G01X17756Y10230D01*
G01X17795Y10228D01*
G01X17834Y10226D01*
G01X17874Y10223D01*
G01X17913Y10220D01*
G01X17952Y10217D01*
G01X17992Y10213D01*
G01X18031Y10209D01*
G01X18070Y10205D01*
G01X18109Y10200D01*
G01X18149Y10195D01*
G01X18188Y10190D01*
G01X18227Y10185D01*
G01X18266Y10179D01*
G01X18305Y10173D01*
G01X18344Y10166D01*
G01X18382Y10159D01*
G01X18421Y10152D01*
G01X18460Y10145D01*
G01X18499Y10137D01*
G01X18537Y10129D01*
G01X18576Y10121D01*
G01X18614Y10112D01*
G01X18653Y10103D01*
G01X18691Y10094D01*
G01X18729Y10085D01*
G01X18767Y10075D01*
G01X18806Y10065D01*
G01X18844Y10054D01*
G01X18882Y10043D01*
G01X18919Y10032D01*
G01X18957Y10021D01*
G01X18995Y10009D01*
G01X19032Y9997D01*
G01X19070Y9985D01*
G01X19107Y9972D01*
G01X19145Y9960D01*
G01X19182Y9946D01*
G01X19219Y9933D01*
G01X19256Y9919D01*
G01X19293Y9905D01*
G01X19329Y9891D01*
G01X19366Y9876D01*
G01X19402Y9861D01*
G01X19439Y9846D01*
G01X19475Y9830D01*
G01X19511Y9815D01*
G01X19547Y9798D01*
G01X19583Y9782D01*
G01X19619Y9765D01*
G01X19654Y9748D01*
G01X19690Y9731D01*
G01X19725Y9714D01*
G01X19760Y9696D01*
G01X19795Y9678D01*
G01X19830Y9659D01*
G01X19865Y9641D01*
G01X19900Y9622D01*
G01X19934Y9602D01*
G01X19968Y9583D01*
G01X20003Y9563D01*
G01X20037Y9543D01*
G01X20070Y9523D01*
G01X20104Y9502D01*
G01X20137Y9481D01*
G01X20171Y9460D01*
G01X20204Y9439D01*
G01X20237Y9417D01*
G01X20270Y9395D01*
G01X20302Y9373D01*
G01X20335Y9351D01*
G01X20367Y9328D01*
G01X20399Y9305D01*
G01X20431Y9282D01*
G01X20463Y9258D01*
G01X20494Y9235D01*
G01X20525Y9211D01*
G01X20557Y9187D01*
G01X20588Y9162D01*
G01X20618Y9137D01*
G01X20649Y9112D01*
G01X20679Y9087D01*
G01X20709Y9062D01*
G01X20739Y9036D01*
G01X20769Y9010D01*
G01X20798Y8984D01*
G01X20828Y8958D01*
G01X20857Y8931D01*
G01X20886Y8904D01*
G01X20914Y8877D01*
G01X20943Y8850D01*
G01X20971Y8822D01*
G01X20999Y8794D01*
G01X21027Y8766D01*
G01X21054Y8738D01*
G01X21082Y8710D01*
G01X21109Y8681D01*
G01X21136Y8652D01*
G01X21162Y8623D01*
G01X21189Y8594D01*
G01X21215Y8564D01*
G01X21241Y8534D01*
G01X21266Y8505D01*
G01X21292Y8474D01*
G01X21317Y8444D01*
G01X21342Y8414D01*
G01X21367Y8383D01*
G01X21391Y8352D01*
G01X21415Y8321D01*
G01X21439Y8289D01*
G01X21463Y8258D01*
G01X21487Y8226D01*
G01X21510Y8194D01*
G01X21533Y8162D01*
G01X21555Y8130D01*
G01X21578Y8098D01*
G01X21600Y8065D01*
G01X21622Y8032D01*
G01X21644Y7999D01*
G01X21665Y7966D01*
G01X21686Y7933D01*
G01X21707Y7899D01*
G01X21728Y7866D01*
G01X21748Y7832D01*
G01X21768Y7798D01*
G01X21788Y7764D01*
G01X21807Y7729D01*
G01X21826Y7695D01*
G01X21845Y7660D01*
G01X21864Y7626D01*
G01X21882Y7591D01*
G01X21900Y7556D01*
G01X21918Y7521D01*
G01X21936Y7485D01*
G01X21953Y7450D01*
G01X21970Y7414D01*
G01X21987Y7378D01*
G01X22003Y7343D01*
G01X22019Y7307D01*
G01X22035Y7270D01*
G01X22051Y7234D01*
G01X22066Y7198D01*
G01X22081Y7161D01*
G01X22095Y7125D01*
G01X22110Y7088D01*
G01X22124Y7051D01*
G01X22138Y7014D01*
G01X22151Y6977D01*
G01X22164Y6940D01*
G01X22177Y6903D01*
G01X22190Y6865D01*
G01X22202Y6828D01*
G01X22214Y6790D01*
G01X22226Y6752D01*
G01X22237Y6715D01*
G01X22248Y6677D01*
G01X22259Y6639D01*
G01X22269Y6601D01*
G01X22279Y6563D01*
G01X22289Y6525D01*
G01X22299Y6486D01*
G01X22308Y6448D01*
G01X22317Y6410D01*
G01X22326Y6371D01*
G01X22334Y6333D01*
G01X22342Y6294D01*
G01X22350Y6255D01*
G01X22357Y6216D01*
G01X22364Y6178D01*
G01X22371Y6139D01*
G01X22377Y6100D01*
G01X22384Y6061D01*
G01X22389Y6022D01*
G01X22395Y5983D01*
G01X22400Y5944D01*
G01X22405Y5905D01*
G01X22410Y5865D01*
G01X22414Y5826D01*
G01X22418Y5787D01*
G01X22421Y5748D01*
G01X22425Y5708D01*
G01X22428Y5669D01*
G01X22430Y5630D01*
G01X22433Y5590D01*
G01X22435Y5551D01*
G01X22436Y5512D01*
G01X22438Y5472D01*
G01X22439Y5433D01*
G01X22440Y5393D01*
G01X22440Y5354D01*
G01X22440Y5314D01*
G37*

G04 ----------------------- Draw copper area (positive)*
G36*
G01X30314Y13582D02*
G01X30314Y13543D01*
G01X30314Y13503D01*
G01X30313Y13464D01*
G01X30312Y13424D01*
G01X30311Y13385D01*
G01X30309Y13346D01*
G01X30307Y13306D01*
G01X30304Y13267D01*
G01X30302Y13228D01*
G01X30299Y13188D01*
G01X30295Y13149D01*
G01X30292Y13110D01*
G01X30288Y13070D01*
G01X30284Y13031D01*
G01X30279Y12992D01*
G01X30274Y12953D01*
G01X30269Y12914D01*
G01X30263Y12875D01*
G01X30258Y12836D01*
G01X30251Y12797D01*
G01X30245Y12758D01*
G01X30238Y12719D01*
G01X30231Y12680D01*
G01X30224Y12641D01*
G01X30216Y12603D01*
G01X30208Y12564D01*
G01X30200Y12526D01*
G01X30191Y12487D01*
G01X30182Y12449D01*
G01X30173Y12410D01*
G01X30163Y12372D01*
G01X30154Y12334D01*
G01X30143Y12296D01*
G01X30133Y12258D01*
G01X30122Y12220D01*
G01X30111Y12182D01*
G01X30100Y12144D01*
G01X30088Y12107D01*
G01X30076Y12069D01*
G01X30064Y12031D01*
G01X30051Y11994D01*
G01X30038Y11957D01*
G01X30025Y11920D01*
G01X30012Y11883D01*
G01X29998Y11846D01*
G01X29984Y11809D01*
G01X29969Y11772D01*
G01X29955Y11735D01*
G01X29940Y11699D01*
G01X29925Y11663D01*
G01X29909Y11626D01*
G01X29893Y11590D01*
G01X29877Y11554D01*
G01X29861Y11518D01*
G01X29844Y11483D01*
G01X29827Y11447D01*
G01X29810Y11411D01*
G01X29792Y11376D01*
G01X29774Y11341D01*
G01X29756Y11306D01*
G01X29738Y11271D01*
G01X29719Y11236D01*
G01X29700Y11202D01*
G01X29681Y11167D01*
G01X29662Y11133D01*
G01X29642Y11099D01*
G01X29622Y11065D01*
G01X29602Y11031D01*
G01X29581Y10997D01*
G01X29560Y10964D01*
G01X29539Y10931D01*
G01X29518Y10897D01*
G01X29496Y10864D01*
G01X29474Y10832D01*
G01X29452Y10799D01*
G01X29429Y10767D01*
G01X29407Y10734D01*
G01X29384Y10702D01*
G01X29361Y10670D01*
G01X29337Y10639D01*
G01X29313Y10607D01*
G01X29289Y10576D01*
G01X29265Y10545D01*
G01X29241Y10514D01*
G01X29216Y10483D01*
G01X29191Y10453D01*
G01X29166Y10422D01*
G01X29140Y10392D01*
G01X29115Y10362D01*
G01X29089Y10332D01*
G01X29063Y10303D01*
G01X29036Y10274D01*
G01X29010Y10245D01*
G01X28983Y10216D01*
G01X28956Y10187D01*
G01X28928Y10159D01*
G01X28901Y10130D01*
G01X28873Y10102D01*
G01X28845Y10075D01*
G01X28817Y10047D01*
G01X28788Y10020D01*
G01X28760Y9993D01*
G01X28731Y9966D01*
G01X28702Y9939D01*
G01X28672Y9913D01*
G01X28643Y9887D01*
G01X28613Y9861D01*
G01X28583Y9835D01*
G01X28553Y9809D01*
G01X28523Y9784D01*
G01X28492Y9759D01*
G01X28462Y9735D01*
G01X28431Y9710D01*
G01X28399Y9686D01*
G01X28368Y9662D01*
G01X28337Y9638D01*
G01X28305Y9615D01*
G01X28273Y9592D01*
G01X28241Y9569D01*
G01X28209Y9546D01*
G01X28176Y9523D01*
G01X28144Y9501D01*
G01X28111Y9479D01*
G01X28078Y9458D01*
G01X28045Y9436D01*
G01X28011Y9415D01*
G01X27978Y9394D01*
G01X27944Y9374D01*
G01X27911Y9353D01*
G01X27877Y9333D01*
G01X27842Y9314D01*
G01X27808Y9294D01*
G01X27774Y9275D01*
G01X27739Y9256D01*
G01X27704Y9237D01*
G01X27669Y9219D01*
G01X27634Y9201D01*
G01X27599Y9183D01*
G01X27564Y9166D01*
G01X27528Y9148D01*
G01X27493Y9131D01*
G01X27457Y9115D01*
G01X27421Y9098D01*
G01X27385Y9082D01*
G01X27349Y9066D01*
G01X27313Y9051D01*
G01X27276Y9036D01*
G01X27240Y9021D01*
G01X27203Y9006D01*
G01X27167Y8992D01*
G01X27130Y8977D01*
G01X27093Y8964D01*
G01X27056Y8950D01*
G01X27019Y8937D01*
G01X26981Y8924D01*
G01X26944Y8912D01*
G01X26906Y8899D01*
G01X26869Y8887D01*
G01X26831Y8876D01*
G01X26793Y8864D01*
G01X26756Y8853D01*
G01X26718Y8842D01*
G01X26680Y8832D01*
G01X26642Y8822D01*
G01X26603Y8812D01*
G01X26565Y8802D01*
G01X26527Y8793D01*
G01X26488Y8784D01*
G01X26450Y8776D01*
G01X26411Y8767D01*
G01X26373Y8759D01*
G01X26334Y8752D01*
G01X26295Y8744D01*
G01X26256Y8737D01*
G01X26218Y8730D01*
G01X26179Y8724D01*
G01X26140Y8718D01*
G01X26101Y8712D01*
G01X26062Y8707D01*
G01X26023Y8701D01*
G01X25983Y8696D01*
G01X25944Y8692D01*
G01X25905Y8688D01*
G01X25866Y8684D01*
G01X25826Y8680D01*
G01X25787Y8677D01*
G01X25748Y8674D01*
G01X25709Y8671D01*
G01X25669Y8669D01*
G01X25630Y8667D01*
G01X25590Y8665D01*
G01X25551Y8663D01*
G01X25512Y8662D01*
G01X25472Y8662D01*
G01X25433Y8661D01*
G01X25393Y8661D01*
G01X25354Y8661D01*
G01X25314Y8662D01*
G01X25275Y8662D01*
G01X25235Y8663D01*
G01X25196Y8665D01*
G01X25157Y8667D01*
G01X25117Y8669D01*
G01X25078Y8671D01*
G01X25039Y8674D01*
G01X24999Y8677D01*
G01X24960Y8680D01*
G01X24921Y8684D01*
G01X24881Y8688D01*
G01X24842Y8692D01*
G01X24803Y8696D01*
G01X24764Y8701D01*
G01X24725Y8707D01*
G01X24686Y8712D01*
G01X24647Y8718D01*
G01X24608Y8724D01*
G01X24569Y8730D01*
G01X24530Y8737D01*
G01X24491Y8744D01*
G01X24452Y8752D01*
G01X24414Y8759D01*
G01X24375Y8767D01*
G01X24337Y8776D01*
G01X24298Y8784D01*
G01X24260Y8793D01*
G01X24221Y8802D01*
G01X24183Y8812D01*
G01X24145Y8822D01*
G01X24107Y8832D01*
G01X24069Y8842D01*
G01X24031Y8853D01*
G01X23993Y8864D01*
G01X23955Y8876D01*
G01X23918Y8887D01*
G01X23880Y8899D01*
G01X23842Y8912D01*
G01X23805Y8924D01*
G01X23768Y8937D01*
G01X23731Y8950D01*
G01X23694Y8964D01*
G01X23657Y8977D01*
G01X23620Y8992D01*
G01X23583Y9006D01*
G01X23546Y9021D01*
G01X23510Y9036D01*
G01X23474Y9051D01*
G01X23437Y9066D01*
G01X23401Y9082D01*
G01X23365Y9098D01*
G01X23329Y9115D01*
G01X23294Y9131D01*
G01X23258Y9148D01*
G01X23222Y9166D01*
G01X23187Y9183D01*
G01X23152Y9201D01*
G01X23117Y9219D01*
G01X23082Y9237D01*
G01X23047Y9256D01*
G01X23013Y9275D01*
G01X22978Y9294D01*
G01X22944Y9314D01*
G01X22910Y9333D01*
G01X22876Y9353D01*
G01X22842Y9374D01*
G01X22808Y9394D01*
G01X22775Y9415D01*
G01X22742Y9436D01*
G01X22708Y9458D01*
G01X22676Y9479D01*
G01X22643Y9501D01*
G01X22610Y9523D01*
G01X22578Y9546D01*
G01X22545Y9569D01*
G01X22513Y9592D01*
G01X22481Y9615D01*
G01X22450Y9638D01*
G01X22418Y9662D01*
G01X22387Y9686D01*
G01X22356Y9710D01*
G01X22325Y9735D01*
G01X22294Y9759D01*
G01X22264Y9784D01*
G01X22233Y9809D01*
G01X22203Y9835D01*
G01X22173Y9861D01*
G01X22143Y9887D01*
G01X22114Y9913D01*
G01X22085Y9939D01*
G01X22056Y9966D01*
G01X22027Y9993D01*
G01X21998Y10020D01*
G01X21970Y10047D01*
G01X21941Y10075D01*
G01X21913Y10102D01*
G01X21886Y10130D01*
G01X21858Y10159D01*
G01X21831Y10187D01*
G01X21804Y10216D01*
G01X21777Y10245D01*
G01X21750Y10274D01*
G01X21724Y10303D01*
G01X21698Y10332D01*
G01X21672Y10362D01*
G01X21646Y10392D01*
G01X21620Y10422D01*
G01X21595Y10453D01*
G01X21570Y10483D01*
G01X21546Y10514D01*
G01X21521Y10545D01*
G01X21497Y10576D01*
G01X21473Y10607D01*
G01X21449Y10639D01*
G01X21426Y10670D01*
G01X21403Y10702D01*
G01X21380Y10734D01*
G01X21357Y10767D01*
G01X21334Y10799D01*
G01X21312Y10832D01*
G01X21290Y10864D01*
G01X21269Y10897D01*
G01X21247Y10931D01*
G01X21226Y10964D01*
G01X21205Y10997D01*
G01X21185Y11031D01*
G01X21165Y11065D01*
G01X21144Y11099D01*
G01X21125Y11133D01*
G01X21105Y11167D01*
G01X21086Y11202D01*
G01X21067Y11236D01*
G01X21048Y11271D01*
G01X21030Y11306D01*
G01X21012Y11341D01*
G01X20994Y11376D01*
G01X20977Y11411D01*
G01X20959Y11447D01*
G01X20942Y11483D01*
G01X20926Y11518D01*
G01X20909Y11554D01*
G01X20893Y11590D01*
G01X20877Y11626D01*
G01X20862Y11663D01*
G01X20847Y11699D01*
G01X20832Y11735D01*
G01X20817Y11772D01*
G01X20803Y11809D01*
G01X20789Y11846D01*
G01X20775Y11883D01*
G01X20761Y11920D01*
G01X20748Y11957D01*
G01X20735Y11994D01*
G01X20723Y12031D01*
G01X20710Y12069D01*
G01X20698Y12107D01*
G01X20687Y12144D01*
G01X20675Y12182D01*
G01X20664Y12220D01*
G01X20654Y12258D01*
G01X20643Y12296D01*
G01X20633Y12334D01*
G01X20623Y12372D01*
G01X20613Y12410D01*
G01X20604Y12449D01*
G01X20595Y12487D01*
G01X20587Y12526D01*
G01X20578Y12564D01*
G01X20570Y12603D01*
G01X20563Y12641D01*
G01X20555Y12680D01*
G01X20548Y12719D01*
G01X20541Y12758D01*
G01X20535Y12797D01*
G01X20529Y12836D01*
G01X20523Y12875D01*
G01X20518Y12914D01*
G01X20512Y12953D01*
G01X20507Y12992D01*
G01X20503Y13031D01*
G01X20499Y13070D01*
G01X20495Y13110D01*
G01X20491Y13149D01*
G01X20488Y13188D01*
G01X20485Y13228D01*
G01X20482Y13267D01*
G01X20480Y13306D01*
G01X20478Y13346D01*
G01X20476Y13385D01*
G01X20474Y13424D01*
G01X20473Y13464D01*
G01X20473Y13503D01*
G01X20472Y13543D01*
G01X20472Y13582D01*
G01X20472Y13622D01*
G01X20473Y13661D01*
G01X20473Y13700D01*
G01X20474Y13740D01*
G01X20476Y13779D01*
G01X20478Y13819D01*
G01X20480Y13858D01*
G01X20482Y13897D01*
G01X20485Y13937D01*
G01X20488Y13976D01*
G01X20491Y14015D01*
G01X20495Y14055D01*
G01X20499Y14094D01*
G01X20503Y14133D01*
G01X20507Y14172D01*
G01X20512Y14211D01*
G01X20518Y14251D01*
G01X20523Y14290D01*
G01X20529Y14329D01*
G01X20535Y14368D01*
G01X20541Y14407D01*
G01X20548Y14445D01*
G01X20555Y14484D01*
G01X20563Y14523D01*
G01X20570Y14562D01*
G01X20578Y14600D01*
G01X20587Y14639D01*
G01X20595Y14677D01*
G01X20604Y14716D01*
G01X20613Y14754D01*
G01X20623Y14792D01*
G01X20633Y14830D01*
G01X20643Y14869D01*
G01X20654Y14907D01*
G01X20664Y14945D01*
G01X20675Y14982D01*
G01X20687Y15020D01*
G01X20698Y15058D01*
G01X20710Y15095D01*
G01X20723Y15133D01*
G01X20735Y15170D01*
G01X20748Y15208D01*
G01X20761Y15245D01*
G01X20775Y15282D01*
G01X20789Y15319D01*
G01X20803Y15356D01*
G01X20817Y15392D01*
G01X20832Y15429D01*
G01X20847Y15465D01*
G01X20862Y15502D01*
G01X20877Y15538D01*
G01X20893Y15574D01*
G01X20909Y15610D01*
G01X20926Y15646D01*
G01X20942Y15682D01*
G01X20959Y15717D01*
G01X20977Y15753D01*
G01X20994Y15788D01*
G01X21012Y15823D01*
G01X21030Y15858D01*
G01X21048Y15893D01*
G01X21067Y15928D01*
G01X21086Y15963D01*
G01X21105Y15997D01*
G01X21125Y16031D01*
G01X21144Y16066D01*
G01X21165Y16100D01*
G01X21185Y16133D01*
G01X21205Y16167D01*
G01X21226Y16200D01*
G01X21247Y16234D01*
G01X21269Y16267D01*
G01X21290Y16300D01*
G01X21312Y16333D01*
G01X21334Y16365D01*
G01X21357Y16398D01*
G01X21380Y16430D01*
G01X21403Y16462D01*
G01X21426Y16494D01*
G01X21449Y16526D01*
G01X21473Y16557D01*
G01X21497Y16588D01*
G01X21521Y16620D01*
G01X21546Y16651D01*
G01X21570Y16681D01*
G01X21595Y16712D01*
G01X21620Y16742D01*
G01X21646Y16772D01*
G01X21672Y16802D01*
G01X21698Y16832D01*
G01X21724Y16861D01*
G01X21750Y16891D01*
G01X21777Y16920D01*
G01X21804Y16949D01*
G01X21831Y16977D01*
G01X21858Y17006D01*
G01X21886Y17034D01*
G01X21913Y17062D01*
G01X21941Y17090D01*
G01X21970Y17117D01*
G01X21998Y17145D01*
G01X22027Y17172D01*
G01X22056Y17199D01*
G01X22085Y17225D01*
G01X22114Y17252D01*
G01X22143Y17278D01*
G01X22173Y17304D01*
G01X22203Y17329D01*
G01X22233Y17355D01*
G01X22264Y17380D01*
G01X22294Y17405D01*
G01X22325Y17430D01*
G01X22356Y17454D01*
G01X22387Y17478D01*
G01X22418Y17502D01*
G01X22450Y17526D01*
G01X22481Y17550D01*
G01X22513Y17573D01*
G01X22545Y17596D01*
G01X22578Y17618D01*
G01X22610Y17641D01*
G01X22643Y17663D01*
G01X22676Y17685D01*
G01X22708Y17707D01*
G01X22742Y17728D01*
G01X22775Y17749D01*
G01X22808Y17770D01*
G01X22842Y17791D01*
G01X22876Y17811D01*
G01X22910Y17831D01*
G01X22944Y17851D01*
G01X22978Y17870D01*
G01X23013Y17889D01*
G01X23047Y17908D01*
G01X23082Y17927D01*
G01X23117Y17945D01*
G01X23152Y17963D01*
G01X23187Y17981D01*
G01X23222Y17999D01*
G01X23258Y18016D01*
G01X23294Y18033D01*
G01X23329Y18050D01*
G01X23365Y18066D01*
G01X23401Y18082D01*
G01X23437Y18098D01*
G01X23474Y18114D01*
G01X23510Y18129D01*
G01X23546Y18144D01*
G01X23583Y18158D01*
G01X23620Y18173D01*
G01X23657Y18187D01*
G01X23694Y18201D01*
G01X23731Y18214D01*
G01X23768Y18227D01*
G01X23805Y18240D01*
G01X23842Y18253D01*
G01X23880Y18265D01*
G01X23918Y18277D01*
G01X23955Y18289D01*
G01X23993Y18300D01*
G01X24031Y18311D01*
G01X24069Y18322D01*
G01X24107Y18332D01*
G01X24145Y18342D01*
G01X24183Y18352D01*
G01X24221Y18362D01*
G01X24260Y18371D01*
G01X24298Y18380D01*
G01X24337Y18389D01*
G01X24375Y18397D01*
G01X24414Y18405D01*
G01X24452Y18413D01*
G01X24491Y18420D01*
G01X24530Y18427D01*
G01X24569Y18434D01*
G01X24608Y18440D01*
G01X24647Y18446D01*
G01X24686Y18452D01*
G01X24725Y18458D01*
G01X24764Y18463D01*
G01X24803Y18468D01*
G01X24842Y18472D01*
G01X24881Y18477D01*
G01X24921Y18481D01*
G01X24960Y18484D01*
G01X24999Y18488D01*
G01X25039Y18491D01*
G01X25078Y18493D01*
G01X25117Y18496D01*
G01X25157Y18498D01*
G01X25196Y18499D01*
G01X25235Y18501D01*
G01X25275Y18502D01*
G01X25314Y18503D01*
G01X25354Y18503D01*
G01X25393Y18503D01*
G01X25433Y18503D01*
G01X25472Y18503D01*
G01X25512Y18502D01*
G01X25551Y18501D01*
G01X25590Y18499D01*
G01X25630Y18498D01*
G01X25669Y18496D01*
G01X25709Y18493D01*
G01X25748Y18491D01*
G01X25787Y18488D01*
G01X25826Y18484D01*
G01X25866Y18481D01*
G01X25905Y18477D01*
G01X25944Y18472D01*
G01X25983Y18468D01*
G01X26023Y18463D01*
G01X26062Y18458D01*
G01X26101Y18452D01*
G01X26140Y18446D01*
G01X26179Y18440D01*
G01X26218Y18434D01*
G01X26256Y18427D01*
G01X26295Y18420D01*
G01X26334Y18413D01*
G01X26373Y18405D01*
G01X26411Y18397D01*
G01X26450Y18389D01*
G01X26488Y18380D01*
G01X26527Y18371D01*
G01X26565Y18362D01*
G01X26603Y18352D01*
G01X26642Y18342D01*
G01X26680Y18332D01*
G01X26718Y18322D01*
G01X26756Y18311D01*
G01X26793Y18300D01*
G01X26831Y18289D01*
G01X26869Y18277D01*
G01X26906Y18265D01*
G01X26944Y18253D01*
G01X26981Y18240D01*
G01X27019Y18227D01*
G01X27056Y18214D01*
G01X27093Y18201D01*
G01X27130Y18187D01*
G01X27167Y18173D01*
G01X27203Y18158D01*
G01X27240Y18144D01*
G01X27276Y18129D01*
G01X27313Y18114D01*
G01X27349Y18098D01*
G01X27385Y18082D01*
G01X27421Y18066D01*
G01X27457Y18050D01*
G01X27493Y18033D01*
G01X27528Y18016D01*
G01X27564Y17999D01*
G01X27599Y17981D01*
G01X27634Y17963D01*
G01X27669Y17945D01*
G01X27704Y17927D01*
G01X27739Y17908D01*
G01X27774Y17889D01*
G01X27808Y17870D01*
G01X27842Y17851D01*
G01X27877Y17831D01*
G01X27911Y17811D01*
G01X27944Y17791D01*
G01X27978Y17770D01*
G01X28011Y17749D01*
G01X28045Y17728D01*
G01X28078Y17707D01*
G01X28111Y17685D01*
G01X28144Y17663D01*
G01X28176Y17641D01*
G01X28209Y17618D01*
G01X28241Y17596D01*
G01X28273Y17573D01*
G01X28305Y17550D01*
G01X28337Y17526D01*
G01X28368Y17502D01*
G01X28399Y17478D01*
G01X28431Y17454D01*
G01X28462Y17430D01*
G01X28492Y17405D01*
G01X28523Y17380D01*
G01X28553Y17355D01*
G01X28583Y17329D01*
G01X28613Y17304D01*
G01X28643Y17278D01*
G01X28672Y17252D01*
G01X28702Y17225D01*
G01X28731Y17199D01*
G01X28760Y17172D01*
G01X28788Y17145D01*
G01X28817Y17117D01*
G01X28845Y17090D01*
G01X28873Y17062D01*
G01X28901Y17034D01*
G01X28928Y17006D01*
G01X28956Y16977D01*
G01X28983Y16949D01*
G01X29010Y16920D01*
G01X29036Y16891D01*
G01X29063Y16861D01*
G01X29089Y16832D01*
G01X29115Y16802D01*
G01X29140Y16772D01*
G01X29166Y16742D01*
G01X29191Y16712D01*
G01X29216Y16681D01*
G01X29241Y16651D01*
G01X29265Y16620D01*
G01X29289Y16588D01*
G01X29313Y16557D01*
G01X29337Y16526D01*
G01X29361Y16494D01*
G01X29384Y16462D01*
G01X29407Y16430D01*
G01X29429Y16398D01*
G01X29452Y16365D01*
G01X29474Y16333D01*
G01X29496Y16300D01*
G01X29518Y16267D01*
G01X29539Y16234D01*
G01X29560Y16200D01*
G01X29581Y16167D01*
G01X29602Y16133D01*
G01X29622Y16100D01*
G01X29642Y16066D01*
G01X29662Y16031D01*
G01X29681Y15997D01*
G01X29700Y15963D01*
G01X29719Y15928D01*
G01X29738Y15893D01*
G01X29756Y15858D01*
G01X29774Y15823D01*
G01X29792Y15788D01*
G01X29810Y15753D01*
G01X29827Y15717D01*
G01X29844Y15682D01*
G01X29861Y15646D01*
G01X29877Y15610D01*
G01X29893Y15574D01*
G01X29909Y15538D01*
G01X29925Y15502D01*
G01X29940Y15465D01*
G01X29955Y15429D01*
G01X29969Y15392D01*
G01X29984Y15356D01*
G01X29998Y15319D01*
G01X30012Y15282D01*
G01X30025Y15245D01*
G01X30038Y15208D01*
G01X30051Y15170D01*
G01X30064Y15133D01*
G01X30076Y15095D01*
G01X30088Y15058D01*
G01X30100Y15020D01*
G01X30111Y14982D01*
G01X30122Y14945D01*
G01X30133Y14907D01*
G01X30143Y14869D01*
G01X30154Y14830D01*
G01X30163Y14792D01*
G01X30173Y14754D01*
G01X30182Y14716D01*
G01X30191Y14677D01*
G01X30200Y14639D01*
G01X30208Y14600D01*
G01X30216Y14562D01*
G01X30224Y14523D01*
G01X30231Y14484D01*
G01X30238Y14445D01*
G01X30245Y14407D01*
G01X30251Y14368D01*
G01X30258Y14329D01*
G01X30263Y14290D01*
G01X30269Y14251D01*
G01X30274Y14211D01*
G01X30279Y14172D01*
G01X30284Y14133D01*
G01X30288Y14094D01*
G01X30292Y14055D01*
G01X30295Y14015D01*
G01X30299Y13976D01*
G01X30302Y13937D01*
G01X30304Y13897D01*
G01X30307Y13858D01*
G01X30309Y13819D01*
G01X30311Y13779D01*
G01X30312Y13740D01*
G01X30313Y13700D01*
G01X30314Y13661D01*
G01X30314Y13622D01*
G01X30314Y13582D01*
G37*

G04 ----------------------- Draw copper area (positive)*
G36*
G01X42322Y38779D02*
G01X17125Y38779D01*
G01X17125Y69881D01*
G01X42322Y69881D01*
G01X42322Y38779D01*
G37*

G04 ----------------------- Draw copper area (positive)*
G36*
G01X37795Y5314D02*
G01X37795Y5275D01*
G01X37794Y5236D01*
G01X37793Y5196D01*
G01X37792Y5157D01*
G01X37791Y5117D01*
G01X37789Y5078D01*
G01X37787Y5039D01*
G01X37785Y4999D01*
G01X37782Y4960D01*
G01X37779Y4920D01*
G01X37776Y4881D01*
G01X37772Y4842D01*
G01X37768Y4803D01*
G01X37764Y4763D01*
G01X37759Y4724D01*
G01X37754Y4685D01*
G01X37749Y4646D01*
G01X37744Y4607D01*
G01X37738Y4568D01*
G01X37732Y4529D01*
G01X37725Y4490D01*
G01X37718Y4451D01*
G01X37711Y4412D01*
G01X37704Y4374D01*
G01X37696Y4335D01*
G01X37688Y4296D01*
G01X37680Y4258D01*
G01X37671Y4219D01*
G01X37662Y4181D01*
G01X37653Y4143D01*
G01X37644Y4104D01*
G01X37634Y4066D01*
G01X37624Y4028D01*
G01X37613Y3990D01*
G01X37602Y3952D01*
G01X37591Y3914D01*
G01X37580Y3876D01*
G01X37568Y3839D01*
G01X37556Y3801D01*
G01X37544Y3764D01*
G01X37531Y3726D01*
G01X37519Y3689D01*
G01X37505Y3652D01*
G01X37492Y3615D01*
G01X37478Y3578D01*
G01X37464Y3541D01*
G01X37450Y3504D01*
G01X37435Y3468D01*
G01X37420Y3431D01*
G01X37405Y3395D01*
G01X37389Y3359D01*
G01X37374Y3322D01*
G01X37357Y3286D01*
G01X37341Y3251D01*
G01X37324Y3215D01*
G01X37307Y3179D01*
G01X37290Y3144D01*
G01X37273Y3108D01*
G01X37255Y3073D01*
G01X37237Y3038D01*
G01X37218Y3003D01*
G01X37200Y2969D01*
G01X37181Y2934D01*
G01X37162Y2900D01*
G01X37142Y2865D01*
G01X37122Y2831D01*
G01X37102Y2797D01*
G01X37082Y2763D01*
G01X37061Y2730D01*
G01X37040Y2696D01*
G01X37019Y2663D01*
G01X36998Y2630D01*
G01X36976Y2597D01*
G01X36954Y2564D01*
G01X36932Y2531D01*
G01X36910Y2499D01*
G01X36887Y2467D01*
G01X36864Y2435D01*
G01X36841Y2403D01*
G01X36817Y2371D01*
G01X36794Y2339D01*
G01X36770Y2308D01*
G01X36746Y2277D01*
G01X36721Y2246D01*
G01X36696Y2215D01*
G01X36671Y2185D01*
G01X36646Y2154D01*
G01X36621Y2124D01*
G01X36595Y2094D01*
G01X36569Y2065D01*
G01X36543Y2035D01*
G01X36517Y2006D01*
G01X36490Y1977D01*
G01X36463Y1948D01*
G01X36436Y1919D01*
G01X36409Y1891D01*
G01X36381Y1863D01*
G01X36353Y1835D01*
G01X36325Y1807D01*
G01X36297Y1779D01*
G01X36269Y1752D01*
G01X36240Y1725D01*
G01X36211Y1698D01*
G01X36182Y1671D01*
G01X36153Y1645D01*
G01X36123Y1619D01*
G01X36094Y1593D01*
G01X36064Y1567D01*
G01X36033Y1542D01*
G01X36003Y1517D01*
G01X35973Y1492D01*
G01X35942Y1467D01*
G01X35911Y1442D01*
G01X35880Y1418D01*
G01X35848Y1394D01*
G01X35817Y1370D01*
G01X35785Y1347D01*
G01X35753Y1324D01*
G01X35721Y1301D01*
G01X35689Y1278D01*
G01X35657Y1256D01*
G01X35624Y1234D01*
G01X35591Y1212D01*
G01X35558Y1190D01*
G01X35525Y1169D01*
G01X35492Y1148D01*
G01X35458Y1127D01*
G01X35425Y1106D01*
G01X35391Y1086D01*
G01X35357Y1066D01*
G01X35323Y1046D01*
G01X35288Y1026D01*
G01X35254Y1007D01*
G01X35219Y988D01*
G01X35185Y970D01*
G01X35150Y951D01*
G01X35115Y933D01*
G01X35080Y915D01*
G01X35044Y898D01*
G01X35009Y881D01*
G01X34973Y864D01*
G01X34937Y847D01*
G01X34902Y831D01*
G01X34866Y814D01*
G01X34829Y799D01*
G01X34793Y783D01*
G01X34757Y768D01*
G01X34720Y753D01*
G01X34684Y738D01*
G01X34647Y724D01*
G01X34610Y710D01*
G01X34573Y696D01*
G01X34536Y683D01*
G01X34499Y669D01*
G01X34462Y656D01*
G01X34424Y644D01*
G01X34387Y632D01*
G01X34349Y620D01*
G01X34312Y608D01*
G01X34274Y597D01*
G01X34236Y586D01*
G01X34198Y575D01*
G01X34160Y564D01*
G01X34122Y554D01*
G01X34084Y544D01*
G01X34045Y535D01*
G01X34007Y526D01*
G01X33969Y517D01*
G01X33930Y508D01*
G01X33892Y500D01*
G01X33853Y492D01*
G01X33814Y484D01*
G01X33776Y477D01*
G01X33737Y469D01*
G01X33698Y463D01*
G01X33659Y456D01*
G01X33620Y450D01*
G01X33581Y444D01*
G01X33542Y439D01*
G01X33503Y434D01*
G01X33464Y429D01*
G01X33425Y424D01*
G01X33385Y420D01*
G01X33346Y416D01*
G01X33307Y412D01*
G01X33267Y409D01*
G01X33228Y406D01*
G01X33189Y403D01*
G01X33149Y401D01*
G01X33110Y399D01*
G01X33071Y397D01*
G01X33031Y396D01*
G01X32992Y395D01*
G01X32952Y394D01*
G01X32913Y393D01*
G01X32874Y393D01*
G01X32834Y393D01*
G01X32795Y394D01*
G01X32755Y395D01*
G01X32716Y396D01*
G01X32676Y397D01*
G01X32637Y399D01*
G01X32598Y401D01*
G01X32558Y403D01*
G01X32519Y406D01*
G01X32480Y409D01*
G01X32440Y412D01*
G01X32401Y416D01*
G01X32362Y420D01*
G01X32323Y424D01*
G01X32283Y429D01*
G01X32244Y434D01*
G01X32205Y439D01*
G01X32166Y444D01*
G01X32127Y450D01*
G01X32088Y456D01*
G01X32049Y463D01*
G01X32010Y469D01*
G01X31972Y477D01*
G01X31933Y484D01*
G01X31894Y492D01*
G01X31855Y500D01*
G01X31817Y508D01*
G01X31778Y517D01*
G01X31740Y526D01*
G01X31702Y535D01*
G01X31663Y544D01*
G01X31625Y554D01*
G01X31587Y564D01*
G01X31549Y575D01*
G01X31511Y586D01*
G01X31473Y597D01*
G01X31436Y608D01*
G01X31398Y620D01*
G01X31360Y632D01*
G01X31323Y644D01*
G01X31285Y656D01*
G01X31248Y669D01*
G01X31211Y683D01*
G01X31174Y696D01*
G01X31137Y710D01*
G01X31100Y724D01*
G01X31063Y738D01*
G01X31027Y753D01*
G01X30990Y768D01*
G01X30954Y783D01*
G01X30918Y799D01*
G01X30881Y814D01*
G01X30845Y831D01*
G01X30810Y847D01*
G01X30774Y864D01*
G01X30738Y881D01*
G01X30703Y898D01*
G01X30667Y915D01*
G01X30632Y933D01*
G01X30597Y951D01*
G01X30562Y970D01*
G01X30528Y988D01*
G01X30493Y1007D01*
G01X30459Y1026D01*
G01X30424Y1046D01*
G01X30390Y1066D01*
G01X30356Y1086D01*
G01X30322Y1106D01*
G01X30289Y1127D01*
G01X30255Y1148D01*
G01X30222Y1169D01*
G01X30189Y1190D01*
G01X30156Y1212D01*
G01X30123Y1234D01*
G01X30090Y1256D01*
G01X30058Y1278D01*
G01X30026Y1301D01*
G01X29994Y1324D01*
G01X29962Y1347D01*
G01X29930Y1370D01*
G01X29899Y1394D01*
G01X29867Y1418D01*
G01X29836Y1442D01*
G01X29805Y1467D01*
G01X29774Y1492D01*
G01X29744Y1517D01*
G01X29714Y1542D01*
G01X29683Y1567D01*
G01X29653Y1593D01*
G01X29624Y1619D01*
G01X29594Y1645D01*
G01X29565Y1671D01*
G01X29536Y1698D01*
G01X29507Y1725D01*
G01X29478Y1752D01*
G01X29450Y1779D01*
G01X29422Y1807D01*
G01X29394Y1835D01*
G01X29366Y1863D01*
G01X29338Y1891D01*
G01X29311Y1919D01*
G01X29284Y1948D01*
G01X29257Y1977D01*
G01X29230Y2006D01*
G01X29204Y2035D01*
G01X29178Y2065D01*
G01X29152Y2094D01*
G01X29126Y2124D01*
G01X29101Y2154D01*
G01X29076Y2185D01*
G01X29051Y2215D01*
G01X29026Y2246D01*
G01X29001Y2277D01*
G01X28977Y2308D01*
G01X28953Y2339D01*
G01X28930Y2371D01*
G01X28906Y2403D01*
G01X28883Y2435D01*
G01X28860Y2467D01*
G01X28837Y2499D01*
G01X28815Y2531D01*
G01X28793Y2564D01*
G01X28771Y2597D01*
G01X28749Y2630D01*
G01X28728Y2663D01*
G01X28707Y2696D01*
G01X28686Y2730D01*
G01X28665Y2763D01*
G01X28645Y2797D01*
G01X28625Y2831D01*
G01X28605Y2865D01*
G01X28586Y2900D01*
G01X28566Y2934D01*
G01X28547Y2969D01*
G01X28529Y3003D01*
G01X28510Y3038D01*
G01X28492Y3073D01*
G01X28474Y3108D01*
G01X28457Y3144D01*
G01X28440Y3179D01*
G01X28423Y3215D01*
G01X28406Y3251D01*
G01X28390Y3286D01*
G01X28373Y3322D01*
G01X28358Y3359D01*
G01X28342Y3395D01*
G01X28327Y3431D01*
G01X28312Y3468D01*
G01X28297Y3504D01*
G01X28283Y3541D01*
G01X28269Y3578D01*
G01X28255Y3615D01*
G01X28242Y3652D01*
G01X28228Y3689D01*
G01X28216Y3726D01*
G01X28203Y3764D01*
G01X28191Y3801D01*
G01X28179Y3839D01*
G01X28167Y3876D01*
G01X28156Y3914D01*
G01X28145Y3952D01*
G01X28134Y3990D01*
G01X28123Y4028D01*
G01X28113Y4066D01*
G01X28103Y4104D01*
G01X28094Y4143D01*
G01X28085Y4181D01*
G01X28076Y4219D01*
G01X28067Y4258D01*
G01X28059Y4296D01*
G01X28051Y4335D01*
G01X28043Y4374D01*
G01X28036Y4412D01*
G01X28029Y4451D01*
G01X28022Y4490D01*
G01X28015Y4529D01*
G01X28009Y4568D01*
G01X28003Y4607D01*
G01X27998Y4646D01*
G01X27993Y4685D01*
G01X27988Y4724D01*
G01X27983Y4763D01*
G01X27979Y4803D01*
G01X27975Y4842D01*
G01X27971Y4881D01*
G01X27968Y4920D01*
G01X27965Y4960D01*
G01X27962Y4999D01*
G01X27960Y5039D01*
G01X27958Y5078D01*
G01X27956Y5117D01*
G01X27955Y5157D01*
G01X27954Y5196D01*
G01X27953Y5236D01*
G01X27952Y5275D01*
G01X27952Y5314D01*
G01X27952Y5354D01*
G01X27953Y5393D01*
G01X27954Y5433D01*
G01X27955Y5472D01*
G01X27956Y5512D01*
G01X27958Y5551D01*
G01X27960Y5590D01*
G01X27962Y5630D01*
G01X27965Y5669D01*
G01X27968Y5708D01*
G01X27971Y5748D01*
G01X27975Y5787D01*
G01X27979Y5826D01*
G01X27983Y5865D01*
G01X27988Y5905D01*
G01X27993Y5944D01*
G01X27998Y5983D01*
G01X28003Y6022D01*
G01X28009Y6061D01*
G01X28015Y6100D01*
G01X28022Y6139D01*
G01X28029Y6178D01*
G01X28036Y6216D01*
G01X28043Y6255D01*
G01X28051Y6294D01*
G01X28059Y6333D01*
G01X28067Y6371D01*
G01X28076Y6410D01*
G01X28085Y6448D01*
G01X28094Y6486D01*
G01X28103Y6525D01*
G01X28113Y6563D01*
G01X28123Y6601D01*
G01X28134Y6639D01*
G01X28145Y6677D01*
G01X28156Y6715D01*
G01X28167Y6752D01*
G01X28179Y6790D01*
G01X28191Y6828D01*
G01X28203Y6865D01*
G01X28216Y6903D01*
G01X28228Y6940D01*
G01X28242Y6977D01*
G01X28255Y7014D01*
G01X28269Y7051D01*
G01X28283Y7088D01*
G01X28297Y7125D01*
G01X28312Y7161D01*
G01X28327Y7198D01*
G01X28342Y7234D01*
G01X28358Y7270D01*
G01X28373Y7307D01*
G01X28390Y7343D01*
G01X28406Y7378D01*
G01X28423Y7414D01*
G01X28440Y7450D01*
G01X28457Y7485D01*
G01X28474Y7521D01*
G01X28492Y7556D01*
G01X28510Y7591D01*
G01X28529Y7626D01*
G01X28547Y7660D01*
G01X28566Y7695D01*
G01X28586Y7729D01*
G01X28605Y7764D01*
G01X28625Y7798D01*
G01X28645Y7832D01*
G01X28665Y7866D01*
G01X28686Y7899D01*
G01X28707Y7933D01*
G01X28728Y7966D01*
G01X28749Y7999D01*
G01X28771Y8032D01*
G01X28793Y8065D01*
G01X28815Y8098D01*
G01X28837Y8130D01*
G01X28860Y8162D01*
G01X28883Y8194D01*
G01X28906Y8226D01*
G01X28930Y8258D01*
G01X28953Y8289D01*
G01X28977Y8321D01*
G01X29001Y8352D01*
G01X29026Y8383D01*
G01X29051Y8414D01*
G01X29076Y8444D01*
G01X29101Y8474D01*
G01X29126Y8505D01*
G01X29152Y8534D01*
G01X29178Y8564D01*
G01X29204Y8594D01*
G01X29230Y8623D01*
G01X29257Y8652D01*
G01X29284Y8681D01*
G01X29311Y8710D01*
G01X29338Y8738D01*
G01X29366Y8766D01*
G01X29394Y8794D01*
G01X29422Y8822D01*
G01X29450Y8850D01*
G01X29478Y8877D01*
G01X29507Y8904D01*
G01X29536Y8931D01*
G01X29565Y8958D01*
G01X29594Y8984D01*
G01X29624Y9010D01*
G01X29653Y9036D01*
G01X29683Y9062D01*
G01X29714Y9087D01*
G01X29744Y9112D01*
G01X29774Y9137D01*
G01X29805Y9162D01*
G01X29836Y9187D01*
G01X29867Y9211D01*
G01X29899Y9235D01*
G01X29930Y9258D01*
G01X29962Y9282D01*
G01X29994Y9305D01*
G01X30026Y9328D01*
G01X30058Y9351D01*
G01X30090Y9373D01*
G01X30123Y9395D01*
G01X30156Y9417D01*
G01X30189Y9439D01*
G01X30222Y9460D01*
G01X30255Y9481D01*
G01X30289Y9502D01*
G01X30322Y9523D01*
G01X30356Y9543D01*
G01X30390Y9563D01*
G01X30424Y9583D01*
G01X30459Y9602D01*
G01X30493Y9622D01*
G01X30528Y9641D01*
G01X30562Y9659D01*
G01X30597Y9678D01*
G01X30632Y9696D01*
G01X30667Y9714D01*
G01X30703Y9731D01*
G01X30738Y9748D01*
G01X30774Y9765D01*
G01X30810Y9782D01*
G01X30845Y9798D01*
G01X30881Y9815D01*
G01X30918Y9830D01*
G01X30954Y9846D01*
G01X30990Y9861D01*
G01X31027Y9876D01*
G01X31063Y9891D01*
G01X31100Y9905D01*
G01X31137Y9919D01*
G01X31174Y9933D01*
G01X31211Y9946D01*
G01X31248Y9960D01*
G01X31285Y9972D01*
G01X31323Y9985D01*
G01X31360Y9997D01*
G01X31398Y10009D01*
G01X31436Y10021D01*
G01X31473Y10032D01*
G01X31511Y10043D01*
G01X31549Y10054D01*
G01X31587Y10065D01*
G01X31625Y10075D01*
G01X31663Y10085D01*
G01X31702Y10094D01*
G01X31740Y10103D01*
G01X31778Y10112D01*
G01X31817Y10121D01*
G01X31855Y10129D01*
G01X31894Y10137D01*
G01X31933Y10145D01*
G01X31972Y10152D01*
G01X32010Y10159D01*
G01X32049Y10166D01*
G01X32088Y10173D01*
G01X32127Y10179D01*
G01X32166Y10185D01*
G01X32205Y10190D01*
G01X32244Y10195D01*
G01X32283Y10200D01*
G01X32323Y10205D01*
G01X32362Y10209D01*
G01X32401Y10213D01*
G01X32440Y10217D01*
G01X32480Y10220D01*
G01X32519Y10223D01*
G01X32558Y10226D01*
G01X32598Y10228D01*
G01X32637Y10230D01*
G01X32676Y10232D01*
G01X32716Y10233D01*
G01X32755Y10234D01*
G01X32795Y10235D01*
G01X32834Y10236D01*
G01X32874Y10236D01*
G01X32913Y10236D01*
G01X32952Y10235D01*
G01X32992Y10234D01*
G01X33031Y10233D01*
G01X33071Y10232D01*
G01X33110Y10230D01*
G01X33149Y10228D01*
G01X33189Y10226D01*
G01X33228Y10223D01*
G01X33267Y10220D01*
G01X33307Y10217D01*
G01X33346Y10213D01*
G01X33385Y10209D01*
G01X33425Y10205D01*
G01X33464Y10200D01*
G01X33503Y10195D01*
G01X33542Y10190D01*
G01X33581Y10185D01*
G01X33620Y10179D01*
G01X33659Y10173D01*
G01X33698Y10166D01*
G01X33737Y10159D01*
G01X33776Y10152D01*
G01X33814Y10145D01*
G01X33853Y10137D01*
G01X33892Y10129D01*
G01X33930Y10121D01*
G01X33969Y10112D01*
G01X34007Y10103D01*
G01X34045Y10094D01*
G01X34084Y10085D01*
G01X34122Y10075D01*
G01X34160Y10065D01*
G01X34198Y10054D01*
G01X34236Y10043D01*
G01X34274Y10032D01*
G01X34312Y10021D01*
G01X34349Y10009D01*
G01X34387Y9997D01*
G01X34424Y9985D01*
G01X34462Y9972D01*
G01X34499Y9960D01*
G01X34536Y9946D01*
G01X34573Y9933D01*
G01X34610Y9919D01*
G01X34647Y9905D01*
G01X34684Y9891D01*
G01X34720Y9876D01*
G01X34757Y9861D01*
G01X34793Y9846D01*
G01X34829Y9830D01*
G01X34866Y9815D01*
G01X34902Y9798D01*
G01X34937Y9782D01*
G01X34973Y9765D01*
G01X35009Y9748D01*
G01X35044Y9731D01*
G01X35080Y9714D01*
G01X35115Y9696D01*
G01X35150Y9678D01*
G01X35185Y9659D01*
G01X35219Y9641D01*
G01X35254Y9622D01*
G01X35288Y9602D01*
G01X35323Y9583D01*
G01X35357Y9563D01*
G01X35391Y9543D01*
G01X35425Y9523D01*
G01X35458Y9502D01*
G01X35492Y9481D01*
G01X35525Y9460D01*
G01X35558Y9439D01*
G01X35591Y9417D01*
G01X35624Y9395D01*
G01X35657Y9373D01*
G01X35689Y9351D01*
G01X35721Y9328D01*
G01X35753Y9305D01*
G01X35785Y9282D01*
G01X35817Y9258D01*
G01X35848Y9235D01*
G01X35880Y9211D01*
G01X35911Y9187D01*
G01X35942Y9162D01*
G01X35973Y9137D01*
G01X36003Y9112D01*
G01X36033Y9087D01*
G01X36064Y9062D01*
G01X36094Y9036D01*
G01X36123Y9010D01*
G01X36153Y8984D01*
G01X36182Y8958D01*
G01X36211Y8931D01*
G01X36240Y8904D01*
G01X36269Y8877D01*
G01X36297Y8850D01*
G01X36325Y8822D01*
G01X36353Y8794D01*
G01X36381Y8766D01*
G01X36409Y8738D01*
G01X36436Y8710D01*
G01X36463Y8681D01*
G01X36490Y8652D01*
G01X36517Y8623D01*
G01X36543Y8594D01*
G01X36569Y8564D01*
G01X36595Y8534D01*
G01X36621Y8505D01*
G01X36646Y8474D01*
G01X36671Y8444D01*
G01X36696Y8414D01*
G01X36721Y8383D01*
G01X36746Y8352D01*
G01X36770Y8321D01*
G01X36794Y8289D01*
G01X36817Y8258D01*
G01X36841Y8226D01*
G01X36864Y8194D01*
G01X36887Y8162D01*
G01X36910Y8130D01*
G01X36932Y8098D01*
G01X36954Y8065D01*
G01X36976Y8032D01*
G01X36998Y7999D01*
G01X37019Y7966D01*
G01X37040Y7933D01*
G01X37061Y7899D01*
G01X37082Y7866D01*
G01X37102Y7832D01*
G01X37122Y7798D01*
G01X37142Y7764D01*
G01X37162Y7729D01*
G01X37181Y7695D01*
G01X37200Y7660D01*
G01X37218Y7626D01*
G01X37237Y7591D01*
G01X37255Y7556D01*
G01X37273Y7521D01*
G01X37290Y7485D01*
G01X37307Y7450D01*
G01X37324Y7414D01*
G01X37341Y7378D01*
G01X37357Y7343D01*
G01X37374Y7307D01*
G01X37389Y7270D01*
G01X37405Y7234D01*
G01X37420Y7198D01*
G01X37435Y7161D01*
G01X37450Y7125D01*
G01X37464Y7088D01*
G01X37478Y7051D01*
G01X37492Y7014D01*
G01X37505Y6977D01*
G01X37519Y6940D01*
G01X37531Y6903D01*
G01X37544Y6865D01*
G01X37556Y6828D01*
G01X37568Y6790D01*
G01X37580Y6752D01*
G01X37591Y6715D01*
G01X37602Y6677D01*
G01X37613Y6639D01*
G01X37624Y6601D01*
G01X37634Y6563D01*
G01X37644Y6525D01*
G01X37653Y6486D01*
G01X37662Y6448D01*
G01X37671Y6410D01*
G01X37680Y6371D01*
G01X37688Y6333D01*
G01X37696Y6294D01*
G01X37704Y6255D01*
G01X37711Y6216D01*
G01X37718Y6178D01*
G01X37725Y6139D01*
G01X37732Y6100D01*
G01X37738Y6061D01*
G01X37744Y6022D01*
G01X37749Y5983D01*
G01X37754Y5944D01*
G01X37759Y5905D01*
G01X37764Y5865D01*
G01X37768Y5826D01*
G01X37772Y5787D01*
G01X37776Y5748D01*
G01X37779Y5708D01*
G01X37782Y5669D01*
G01X37785Y5630D01*
G01X37787Y5590D01*
G01X37789Y5551D01*
G01X37791Y5512D01*
G01X37792Y5472D01*
G01X37793Y5433D01*
G01X37794Y5393D01*
G01X37795Y5354D01*
G01X37795Y5314D01*
G37*

G04 ----------------------- Draw copper area (positive)*
G36*
G01X31102Y31692D02*
G01X31102Y31653D01*
G01X31101Y31614D01*
G01X31100Y31574D01*
G01X31099Y31535D01*
G01X31098Y31495D01*
G01X31096Y31456D01*
G01X31094Y31416D01*
G01X31092Y31377D01*
G01X31089Y31338D01*
G01X31086Y31298D01*
G01X31083Y31259D01*
G01X31079Y31220D01*
G01X31075Y31181D01*
G01X31071Y31141D01*
G01X31066Y31102D01*
G01X31061Y31063D01*
G01X31056Y31024D01*
G01X31051Y30985D01*
G01X31045Y30946D01*
G01X31039Y30907D01*
G01X31032Y30868D01*
G01X31026Y30829D01*
G01X31018Y30790D01*
G01X31011Y30752D01*
G01X31003Y30713D01*
G01X30995Y30674D01*
G01X30987Y30636D01*
G01X30978Y30597D01*
G01X30970Y30559D01*
G01X30960Y30521D01*
G01X30951Y30482D01*
G01X30941Y30444D01*
G01X30931Y30406D01*
G01X30920Y30368D01*
G01X30910Y30330D01*
G01X30898Y30292D01*
G01X30887Y30254D01*
G01X30875Y30217D01*
G01X30863Y30179D01*
G01X30851Y30142D01*
G01X30839Y30104D01*
G01X30826Y30067D01*
G01X30813Y30030D01*
G01X30799Y29993D01*
G01X30785Y29956D01*
G01X30771Y29919D01*
G01X30757Y29882D01*
G01X30742Y29846D01*
G01X30727Y29809D01*
G01X30712Y29773D01*
G01X30696Y29736D01*
G01X30681Y29700D01*
G01X30665Y29664D01*
G01X30648Y29628D01*
G01X30631Y29593D01*
G01X30615Y29557D01*
G01X30597Y29522D01*
G01X30580Y29486D01*
G01X30562Y29451D01*
G01X30544Y29416D01*
G01X30525Y29381D01*
G01X30507Y29347D01*
G01X30488Y29312D01*
G01X30469Y29277D01*
G01X30449Y29243D01*
G01X30429Y29209D01*
G01X30409Y29175D01*
G01X30389Y29141D01*
G01X30368Y29108D01*
G01X30348Y29074D01*
G01X30326Y29041D01*
G01X30305Y29008D01*
G01X30283Y28975D01*
G01X30261Y28942D01*
G01X30239Y28909D01*
G01X30217Y28877D01*
G01X30194Y28845D01*
G01X30171Y28813D01*
G01X30148Y28781D01*
G01X30125Y28749D01*
G01X30101Y28717D01*
G01X30077Y28686D01*
G01X30053Y28655D01*
G01X30028Y28624D01*
G01X30003Y28593D01*
G01X29979Y28563D01*
G01X29953Y28532D01*
G01X29928Y28502D01*
G01X29902Y28472D01*
G01X29876Y28443D01*
G01X29850Y28413D01*
G01X29824Y28384D01*
G01X29797Y28355D01*
G01X29770Y28326D01*
G01X29743Y28297D01*
G01X29716Y28269D01*
G01X29688Y28241D01*
G01X29660Y28213D01*
G01X29632Y28185D01*
G01X29604Y28157D01*
G01X29576Y28130D01*
G01X29547Y28103D01*
G01X29518Y28076D01*
G01X29489Y28049D01*
G01X29460Y28023D01*
G01X29430Y27997D01*
G01X29401Y27971D01*
G01X29371Y27945D01*
G01X29341Y27920D01*
G01X29310Y27894D01*
G01X29280Y27870D01*
G01X29249Y27845D01*
G01X29218Y27820D01*
G01X29187Y27796D01*
G01X29156Y27772D01*
G01X29124Y27748D01*
G01X29092Y27725D01*
G01X29060Y27702D01*
G01X29028Y27679D01*
G01X28996Y27656D01*
G01X28964Y27634D01*
G01X28931Y27612D01*
G01X28898Y27590D01*
G01X28865Y27568D01*
G01X28832Y27547D01*
G01X28799Y27525D01*
G01X28765Y27505D01*
G01X28732Y27484D01*
G01X28698Y27464D01*
G01X28664Y27444D01*
G01X28630Y27424D01*
G01X28596Y27404D01*
G01X28561Y27385D01*
G01X28527Y27366D01*
G01X28492Y27348D01*
G01X28457Y27329D01*
G01X28422Y27311D01*
G01X28387Y27293D01*
G01X28351Y27276D01*
G01X28316Y27259D01*
G01X28280Y27242D01*
G01X28245Y27225D01*
G01X28209Y27208D01*
G01X28173Y27192D01*
G01X28137Y27177D01*
G01X28100Y27161D01*
G01X28064Y27146D01*
G01X28027Y27131D01*
G01X27991Y27116D01*
G01X27954Y27102D01*
G01X27917Y27088D01*
G01X27880Y27074D01*
G01X27843Y27060D01*
G01X27806Y27047D01*
G01X27769Y27034D01*
G01X27731Y27022D01*
G01X27694Y27010D01*
G01X27656Y26998D01*
G01X27619Y26986D01*
G01X27581Y26975D01*
G01X27543Y26963D01*
G01X27505Y26953D01*
G01X27467Y26942D01*
G01X27429Y26932D01*
G01X27391Y26922D01*
G01X27352Y26913D01*
G01X27314Y26903D01*
G01X27276Y26895D01*
G01X27237Y26886D01*
G01X27199Y26878D01*
G01X27160Y26870D01*
G01X27121Y26862D01*
G01X27083Y26855D01*
G01X27044Y26847D01*
G01X27005Y26841D01*
G01X26966Y26834D01*
G01X26927Y26828D01*
G01X26888Y26822D01*
G01X26849Y26817D01*
G01X26810Y26812D01*
G01X26771Y26807D01*
G01X26732Y26802D01*
G01X26692Y26798D01*
G01X26653Y26794D01*
G01X26614Y26790D01*
G01X26575Y26787D01*
G01X26535Y26784D01*
G01X26496Y26781D01*
G01X26457Y26779D01*
G01X26417Y26777D01*
G01X26378Y26775D01*
G01X26338Y26774D01*
G01X26299Y26773D01*
G01X26259Y26772D01*
G01X26220Y26771D01*
G01X26181Y26771D01*
G01X26141Y26771D01*
G01X26102Y26772D01*
G01X26062Y26773D01*
G01X26023Y26774D01*
G01X25983Y26775D01*
G01X25944Y26777D01*
G01X25905Y26779D01*
G01X25865Y26781D01*
G01X25826Y26784D01*
G01X25787Y26787D01*
G01X25747Y26790D01*
G01X25708Y26794D01*
G01X25669Y26798D01*
G01X25630Y26802D01*
G01X25590Y26807D01*
G01X25551Y26812D01*
G01X25512Y26817D01*
G01X25473Y26822D01*
G01X25434Y26828D01*
G01X25395Y26834D01*
G01X25356Y26841D01*
G01X25317Y26847D01*
G01X25279Y26855D01*
G01X25240Y26862D01*
G01X25201Y26870D01*
G01X25163Y26878D01*
G01X25124Y26886D01*
G01X25086Y26895D01*
G01X25047Y26903D01*
G01X25009Y26913D01*
G01X24970Y26922D01*
G01X24932Y26932D01*
G01X24894Y26942D01*
G01X24856Y26953D01*
G01X24818Y26963D01*
G01X24780Y26975D01*
G01X24743Y26986D01*
G01X24705Y26998D01*
G01X24667Y27010D01*
G01X24630Y27022D01*
G01X24592Y27034D01*
G01X24555Y27047D01*
G01X24518Y27060D01*
G01X24481Y27074D01*
G01X24444Y27088D01*
G01X24407Y27102D01*
G01X24370Y27116D01*
G01X24334Y27131D01*
G01X24297Y27146D01*
G01X24261Y27161D01*
G01X24225Y27177D01*
G01X24189Y27192D01*
G01X24153Y27208D01*
G01X24117Y27225D01*
G01X24081Y27242D01*
G01X24045Y27259D01*
G01X24010Y27276D01*
G01X23975Y27293D01*
G01X23939Y27311D01*
G01X23904Y27329D01*
G01X23869Y27348D01*
G01X23835Y27366D01*
G01X23800Y27385D01*
G01X23766Y27404D01*
G01X23731Y27424D01*
G01X23697Y27444D01*
G01X23663Y27464D01*
G01X23629Y27484D01*
G01X23596Y27505D01*
G01X23562Y27525D01*
G01X23529Y27547D01*
G01X23496Y27568D01*
G01X23463Y27590D01*
G01X23430Y27612D01*
G01X23398Y27634D01*
G01X23365Y27656D01*
G01X23333Y27679D01*
G01X23301Y27702D01*
G01X23269Y27725D01*
G01X23237Y27748D01*
G01X23206Y27772D01*
G01X23174Y27796D01*
G01X23143Y27820D01*
G01X23112Y27845D01*
G01X23082Y27870D01*
G01X23051Y27894D01*
G01X23021Y27920D01*
G01X22991Y27945D01*
G01X22961Y27971D01*
G01X22931Y27997D01*
G01X22901Y28023D01*
G01X22872Y28049D01*
G01X22843Y28076D01*
G01X22814Y28103D01*
G01X22785Y28130D01*
G01X22757Y28157D01*
G01X22729Y28185D01*
G01X22701Y28213D01*
G01X22673Y28241D01*
G01X22645Y28269D01*
G01X22618Y28297D01*
G01X22591Y28326D01*
G01X22564Y28355D01*
G01X22538Y28384D01*
G01X22511Y28413D01*
G01X22485Y28443D01*
G01X22459Y28472D01*
G01X22433Y28502D01*
G01X22408Y28532D01*
G01X22383Y28563D01*
G01X22358Y28593D01*
G01X22333Y28624D01*
G01X22309Y28655D01*
G01X22284Y28686D01*
G01X22260Y28717D01*
G01X22237Y28749D01*
G01X22213Y28781D01*
G01X22190Y28813D01*
G01X22167Y28845D01*
G01X22144Y28877D01*
G01X22122Y28909D01*
G01X22100Y28942D01*
G01X22078Y28975D01*
G01X22056Y29008D01*
G01X22035Y29041D01*
G01X22014Y29074D01*
G01X21993Y29108D01*
G01X21972Y29141D01*
G01X21952Y29175D01*
G01X21932Y29209D01*
G01X21912Y29243D01*
G01X21893Y29277D01*
G01X21873Y29312D01*
G01X21854Y29347D01*
G01X21836Y29381D01*
G01X21817Y29416D01*
G01X21799Y29451D01*
G01X21781Y29486D01*
G01X21764Y29522D01*
G01X21747Y29557D01*
G01X21730Y29593D01*
G01X21713Y29628D01*
G01X21697Y29664D01*
G01X21681Y29700D01*
G01X21665Y29736D01*
G01X21649Y29773D01*
G01X21634Y29809D01*
G01X21619Y29846D01*
G01X21604Y29882D01*
G01X21590Y29919D01*
G01X21576Y29956D01*
G01X21562Y29993D01*
G01X21549Y30030D01*
G01X21536Y30067D01*
G01X21523Y30104D01*
G01X21510Y30142D01*
G01X21498Y30179D01*
G01X21486Y30217D01*
G01X21474Y30254D01*
G01X21463Y30292D01*
G01X21452Y30330D01*
G01X21441Y30368D01*
G01X21430Y30406D01*
G01X21420Y30444D01*
G01X21410Y30482D01*
G01X21401Y30521D01*
G01X21392Y30559D01*
G01X21383Y30597D01*
G01X21374Y30636D01*
G01X21366Y30674D01*
G01X21358Y30713D01*
G01X21350Y30752D01*
G01X21343Y30790D01*
G01X21336Y30829D01*
G01X21329Y30868D01*
G01X21322Y30907D01*
G01X21316Y30946D01*
G01X21310Y30985D01*
G01X21305Y31024D01*
G01X21300Y31063D01*
G01X21295Y31102D01*
G01X21290Y31141D01*
G01X21286Y31181D01*
G01X21282Y31220D01*
G01X21278Y31259D01*
G01X21275Y31298D01*
G01X21272Y31338D01*
G01X21269Y31377D01*
G01X21267Y31416D01*
G01X21265Y31456D01*
G01X21263Y31495D01*
G01X21262Y31535D01*
G01X21261Y31574D01*
G01X21260Y31614D01*
G01X21260Y31653D01*
G01X21259Y31692D01*
G01X21260Y31732D01*
G01X21260Y31771D01*
G01X21261Y31811D01*
G01X21262Y31850D01*
G01X21263Y31890D01*
G01X21265Y31929D01*
G01X21267Y31968D01*
G01X21269Y32008D01*
G01X21272Y32047D01*
G01X21275Y32086D01*
G01X21278Y32126D01*
G01X21282Y32165D01*
G01X21286Y32204D01*
G01X21290Y32243D01*
G01X21295Y32283D01*
G01X21300Y32322D01*
G01X21305Y32361D01*
G01X21310Y32400D01*
G01X21316Y32439D01*
G01X21322Y32478D01*
G01X21329Y32517D01*
G01X21336Y32556D01*
G01X21343Y32594D01*
G01X21350Y32633D01*
G01X21358Y32672D01*
G01X21366Y32710D01*
G01X21374Y32749D01*
G01X21383Y32787D01*
G01X21392Y32826D01*
G01X21401Y32864D01*
G01X21410Y32903D01*
G01X21420Y32941D01*
G01X21430Y32979D01*
G01X21441Y33017D01*
G01X21452Y33055D01*
G01X21463Y33093D01*
G01X21474Y33130D01*
G01X21486Y33168D01*
G01X21498Y33206D01*
G01X21510Y33243D01*
G01X21523Y33281D01*
G01X21536Y33318D01*
G01X21549Y33355D01*
G01X21562Y33392D01*
G01X21576Y33429D01*
G01X21590Y33466D01*
G01X21604Y33503D01*
G01X21619Y33539D01*
G01X21634Y33576D01*
G01X21649Y33612D01*
G01X21665Y33648D01*
G01X21681Y33684D01*
G01X21697Y33720D01*
G01X21713Y33756D01*
G01X21730Y33792D01*
G01X21747Y33828D01*
G01X21764Y33863D01*
G01X21781Y33898D01*
G01X21799Y33934D01*
G01X21817Y33969D01*
G01X21836Y34004D01*
G01X21854Y34038D01*
G01X21873Y34073D01*
G01X21893Y34107D01*
G01X21912Y34142D01*
G01X21932Y34176D01*
G01X21952Y34210D01*
G01X21972Y34244D01*
G01X21993Y34277D01*
G01X22014Y34311D01*
G01X22035Y34344D01*
G01X22056Y34377D01*
G01X22078Y34410D01*
G01X22100Y34443D01*
G01X22122Y34476D01*
G01X22144Y34508D01*
G01X22167Y34540D01*
G01X22190Y34572D01*
G01X22213Y34604D01*
G01X22237Y34636D01*
G01X22260Y34667D01*
G01X22284Y34699D01*
G01X22309Y34730D01*
G01X22333Y34761D01*
G01X22358Y34792D01*
G01X22383Y34822D01*
G01X22408Y34852D01*
G01X22433Y34883D01*
G01X22459Y34912D01*
G01X22485Y34942D01*
G01X22511Y34972D01*
G01X22538Y35001D01*
G01X22564Y35030D01*
G01X22591Y35059D01*
G01X22618Y35088D01*
G01X22645Y35116D01*
G01X22673Y35144D01*
G01X22701Y35172D01*
G01X22729Y35200D01*
G01X22757Y35228D01*
G01X22785Y35255D01*
G01X22814Y35282D01*
G01X22843Y35309D01*
G01X22872Y35336D01*
G01X22901Y35362D01*
G01X22931Y35388D01*
G01X22961Y35414D01*
G01X22991Y35440D01*
G01X23021Y35465D01*
G01X23051Y35490D01*
G01X23082Y35515D01*
G01X23112Y35540D01*
G01X23143Y35564D01*
G01X23174Y35589D01*
G01X23206Y35613D01*
G01X23237Y35636D01*
G01X23269Y35660D01*
G01X23301Y35683D01*
G01X23333Y35706D01*
G01X23365Y35729D01*
G01X23398Y35751D01*
G01X23430Y35773D01*
G01X23463Y35795D01*
G01X23496Y35817D01*
G01X23529Y35838D01*
G01X23562Y35859D01*
G01X23596Y35880D01*
G01X23629Y35901D01*
G01X23663Y35921D01*
G01X23697Y35941D01*
G01X23731Y35961D01*
G01X23766Y35980D01*
G01X23800Y36000D01*
G01X23835Y36019D01*
G01X23869Y36037D01*
G01X23904Y36056D01*
G01X23939Y36074D01*
G01X23975Y36092D01*
G01X24010Y36109D01*
G01X24045Y36126D01*
G01X24081Y36143D01*
G01X24117Y36160D01*
G01X24153Y36176D01*
G01X24189Y36192D01*
G01X24225Y36208D01*
G01X24261Y36224D01*
G01X24297Y36239D01*
G01X24334Y36254D01*
G01X24370Y36269D01*
G01X24407Y36283D01*
G01X24444Y36297D01*
G01X24481Y36311D01*
G01X24518Y36324D01*
G01X24555Y36338D01*
G01X24592Y36350D01*
G01X24630Y36363D01*
G01X24667Y36375D01*
G01X24705Y36387D01*
G01X24743Y36399D01*
G01X24780Y36410D01*
G01X24818Y36421D01*
G01X24856Y36432D01*
G01X24894Y36443D01*
G01X24932Y36453D01*
G01X24970Y36463D01*
G01X25009Y36472D01*
G01X25047Y36481D01*
G01X25086Y36490D01*
G01X25124Y36499D01*
G01X25163Y36507D01*
G01X25201Y36515D01*
G01X25240Y36523D01*
G01X25279Y36530D01*
G01X25317Y36537D01*
G01X25356Y36544D01*
G01X25395Y36551D01*
G01X25434Y36557D01*
G01X25473Y36563D01*
G01X25512Y36568D01*
G01X25551Y36573D01*
G01X25590Y36578D01*
G01X25630Y36583D01*
G01X25669Y36587D01*
G01X25708Y36591D01*
G01X25747Y36595D01*
G01X25787Y36598D01*
G01X25826Y36601D01*
G01X25865Y36604D01*
G01X25905Y36606D01*
G01X25944Y36608D01*
G01X25983Y36610D01*
G01X26023Y36611D01*
G01X26062Y36612D01*
G01X26102Y36613D01*
G01X26141Y36614D01*
G01X26181Y36614D01*
G01X26220Y36614D01*
G01X26259Y36613D01*
G01X26299Y36612D01*
G01X26338Y36611D01*
G01X26378Y36610D01*
G01X26417Y36608D01*
G01X26457Y36606D01*
G01X26496Y36604D01*
G01X26535Y36601D01*
G01X26575Y36598D01*
G01X26614Y36595D01*
G01X26653Y36591D01*
G01X26692Y36587D01*
G01X26732Y36583D01*
G01X26771Y36578D01*
G01X26810Y36573D01*
G01X26849Y36568D01*
G01X26888Y36563D01*
G01X26927Y36557D01*
G01X26966Y36551D01*
G01X27005Y36544D01*
G01X27044Y36537D01*
G01X27083Y36530D01*
G01X27121Y36523D01*
G01X27160Y36515D01*
G01X27199Y36507D01*
G01X27237Y36499D01*
G01X27276Y36490D01*
G01X27314Y36481D01*
G01X27352Y36472D01*
G01X27391Y36463D01*
G01X27429Y36453D01*
G01X27467Y36443D01*
G01X27505Y36432D01*
G01X27543Y36421D01*
G01X27581Y36410D01*
G01X27619Y36399D01*
G01X27656Y36387D01*
G01X27694Y36375D01*
G01X27731Y36363D01*
G01X27769Y36350D01*
G01X27806Y36338D01*
G01X27843Y36324D01*
G01X27880Y36311D01*
G01X27917Y36297D01*
G01X27954Y36283D01*
G01X27991Y36269D01*
G01X28027Y36254D01*
G01X28064Y36239D01*
G01X28100Y36224D01*
G01X28137Y36208D01*
G01X28173Y36192D01*
G01X28209Y36176D01*
G01X28245Y36160D01*
G01X28280Y36143D01*
G01X28316Y36126D01*
G01X28351Y36109D01*
G01X28387Y36092D01*
G01X28422Y36074D01*
G01X28457Y36056D01*
G01X28492Y36037D01*
G01X28527Y36019D01*
G01X28561Y36000D01*
G01X28596Y35980D01*
G01X28630Y35961D01*
G01X28664Y35941D01*
G01X28698Y35921D01*
G01X28732Y35901D01*
G01X28765Y35880D01*
G01X28799Y35859D01*
G01X28832Y35838D01*
G01X28865Y35817D01*
G01X28898Y35795D01*
G01X28931Y35773D01*
G01X28964Y35751D01*
G01X28996Y35729D01*
G01X29028Y35706D01*
G01X29060Y35683D01*
G01X29092Y35660D01*
G01X29124Y35636D01*
G01X29156Y35613D01*
G01X29187Y35589D01*
G01X29218Y35564D01*
G01X29249Y35540D01*
G01X29280Y35515D01*
G01X29310Y35490D01*
G01X29341Y35465D01*
G01X29371Y35440D01*
G01X29401Y35414D01*
G01X29430Y35388D01*
G01X29460Y35362D01*
G01X29489Y35336D01*
G01X29518Y35309D01*
G01X29547Y35282D01*
G01X29576Y35255D01*
G01X29604Y35228D01*
G01X29632Y35200D01*
G01X29660Y35172D01*
G01X29688Y35144D01*
G01X29716Y35116D01*
G01X29743Y35088D01*
G01X29770Y35059D01*
G01X29797Y35030D01*
G01X29824Y35001D01*
G01X29850Y34972D01*
G01X29876Y34942D01*
G01X29902Y34912D01*
G01X29928Y34883D01*
G01X29953Y34852D01*
G01X29979Y34822D01*
G01X30003Y34792D01*
G01X30028Y34761D01*
G01X30053Y34730D01*
G01X30077Y34699D01*
G01X30101Y34667D01*
G01X30125Y34636D01*
G01X30148Y34604D01*
G01X30171Y34572D01*
G01X30194Y34540D01*
G01X30217Y34508D01*
G01X30239Y34476D01*
G01X30261Y34443D01*
G01X30283Y34410D01*
G01X30305Y34377D01*
G01X30326Y34344D01*
G01X30348Y34311D01*
G01X30368Y34277D01*
G01X30389Y34244D01*
G01X30409Y34210D01*
G01X30429Y34176D01*
G01X30449Y34142D01*
G01X30469Y34107D01*
G01X30488Y34073D01*
G01X30507Y34038D01*
G01X30525Y34004D01*
G01X30544Y33969D01*
G01X30562Y33934D01*
G01X30580Y33898D01*
G01X30597Y33863D01*
G01X30615Y33828D01*
G01X30631Y33792D01*
G01X30648Y33756D01*
G01X30665Y33720D01*
G01X30681Y33684D01*
G01X30696Y33648D01*
G01X30712Y33612D01*
G01X30727Y33576D01*
G01X30742Y33539D01*
G01X30757Y33503D01*
G01X30771Y33466D01*
G01X30785Y33429D01*
G01X30799Y33392D01*
G01X30813Y33355D01*
G01X30826Y33318D01*
G01X30839Y33281D01*
G01X30851Y33243D01*
G01X30863Y33206D01*
G01X30875Y33168D01*
G01X30887Y33130D01*
G01X30898Y33093D01*
G01X30910Y33055D01*
G01X30920Y33017D01*
G01X30931Y32979D01*
G01X30941Y32941D01*
G01X30951Y32903D01*
G01X30960Y32864D01*
G01X30970Y32826D01*
G01X30978Y32787D01*
G01X30987Y32749D01*
G01X30995Y32710D01*
G01X31003Y32672D01*
G01X31011Y32633D01*
G01X31018Y32594D01*
G01X31026Y32556D01*
G01X31032Y32517D01*
G01X31039Y32478D01*
G01X31045Y32439D01*
G01X31051Y32400D01*
G01X31056Y32361D01*
G01X31061Y32322D01*
G01X31066Y32283D01*
G01X31071Y32243D01*
G01X31075Y32204D01*
G01X31079Y32165D01*
G01X31083Y32126D01*
G01X31086Y32086D01*
G01X31089Y32047D01*
G01X31092Y32008D01*
G01X31094Y31968D01*
G01X31096Y31929D01*
G01X31098Y31890D01*
G01X31099Y31850D01*
G01X31100Y31811D01*
G01X31101Y31771D01*
G01X31102Y31732D01*
G01X31102Y31692D01*
G37*

G04 ----------------------- Draw copper area (positive)*
G36*
G01X11220Y1377D02*
G01X590Y1377D01*
G01X590Y16338D01*
G01X11220Y16338D01*
G01X11220Y1377D01*
G37*

G04 ----------------------- Draw copper area (positive)*
G36*
G01X78149Y38779D02*
G01X66732Y38779D01*
G01X66732Y69094D01*
G01X78149Y69094D01*
G01X78149Y38779D01*
G37*

G04 ----------------------- Draw copper area (positive)*
G36*
G01X15551Y38779D02*
G01X590Y38779D01*
G01X590Y69881D01*
G01X15551Y69881D01*
G01X15551Y38779D01*
G37*

G04 ----------------------- Draw copper area (positive)*
G36*
G01X99803Y66338D02*
G01X88779Y66338D01*
G01X88779Y69881D01*
G01X99803Y69881D01*
G01X99803Y66338D01*
G37*

G04 ----------------------- Draw copper area (positive)*
G36*
G01X99803Y590D02*
G01X79724Y590D01*
G01X79724Y64763D01*
G01X99803Y64763D01*
G01X99803Y590D01*
G37*

G04 -------------------- Draw copper area cutout (negative)*
%LPC*%
G36*
G01X62795Y26181D02*
G01X56102Y26181D01*
G01X56102Y19488D01*
G01X62795Y19488D01*
G01X62795Y26181D01*
G37*

G04 ----------------------- Draw copper area (positive)*
%LPD*%
G36*
G01X62598Y19685D02*
G01X56299Y19685D01*
G01X56299Y25984D01*
G01X62598Y25984D01*
G01X62598Y19685D01*
G37*

G04 -------------------- Draw copper area clearances (negative)*
%LPC*%

G04 Draw clearances for pads*
G54D10*
G01X89291Y56712D03*
G01X89291Y52578D03*
G54D11*
G01X98346Y57425D03*
G01X98346Y59425D03*
G54D12*
G01X98425Y64095D03*
G01X97625Y63425D03*
G01X98425Y62755D03*
G01X97625Y62085D03*
G01X98425Y61415D03*
G54D10*
G01X89291Y41751D03*
G01X89291Y37618D03*
G54D11*
G01X98346Y42464D03*
G01X98346Y44464D03*
G54D12*
G01X98425Y49135D03*
G01X97625Y48465D03*
G01X98425Y47795D03*
G01X97625Y47125D03*
G01X98425Y46455D03*
G54D10*
G01X89291Y24429D03*
G01X89291Y20295D03*
G54D11*
G01X98346Y25141D03*
G01X98346Y27141D03*
G54D12*
G01X98425Y31812D03*
G01X97625Y31142D03*
G01X98425Y30472D03*
G01X97625Y29802D03*
G01X98425Y29132D03*
G54D10*
G01X89291Y9468D03*
G01X89291Y5334D03*
G54D11*
G01X98346Y10181D03*
G01X98346Y12181D03*
G54D12*
G01X98425Y16851D03*
G01X97625Y16181D03*
G01X98425Y15511D03*
G01X97625Y14841D03*
G01X98425Y14171D03*
G01X80996Y33102D03*
G01X80996Y32102D03*
G01X80996Y31102D03*
G01X80996Y30102D03*
G01X80996Y29102D03*
G01X81996Y29102D03*
G01X81996Y30102D03*
G01X81996Y31102D03*
G01X81996Y32102D03*
G01X81996Y33102D03*
G54D11*
G01X85330Y63307D03*
G01X83330Y63307D03*
G54D13*
G01X81496Y2362D03*
G01X81496Y51574D03*
G01X98031Y2362D03*
G01X98031Y51574D03*
G54D12*
G01X45169Y58007D03*
G54D14*
G01X45169Y57007D03*
G54D15*
G54D12*
G01X45169Y56007D03*
G01X45169Y55007D03*
G01X45169Y54007D03*
G01X45169Y53007D03*
G01X45169Y52007D03*
G01X45169Y51007D03*
G01X45169Y50007D03*
G01X45169Y49007D03*
G01X45169Y48007D03*
G01X45169Y47007D03*
G01X45169Y46007D03*
G01X46169Y46007D03*
G01X46169Y47007D03*
G01X46169Y48007D03*
G01X46169Y49007D03*
G01X46169Y50007D03*
G01X46169Y51007D03*
G01X46169Y52007D03*
G01X46169Y53007D03*
G01X46169Y54007D03*
G01X46169Y55007D03*
G01X46169Y56007D03*
G01X46169Y57007D03*
G01X46169Y58007D03*
G01X51007Y40051D03*
G01X52007Y40051D03*
G01X53007Y40051D03*
G01X54007Y40051D03*
G01X55007Y40051D03*
G01X56007Y40051D03*
G01X57007Y40051D03*
G01X58007Y40051D03*
G01X59007Y40051D03*
G01X60007Y40051D03*
G01X61007Y40051D03*
G01X62007Y40051D03*
G01X63007Y40051D03*
G01X63007Y41051D03*
G01X62007Y41051D03*
G01X61007Y41051D03*
G01X60007Y41051D03*
G01X59007Y41051D03*
G01X58007Y41051D03*
G01X57007Y41051D03*
G01X56007Y41051D03*
G01X55007Y41051D03*
G01X54007Y41051D03*
G01X53007Y41051D03*
G01X52007Y41051D03*
G01X51007Y41051D03*
G54D13*
G01X45669Y40551D03*
G01X45669Y68110D03*
G54D16*
G01X58611Y64792D03*
G54D17*
G01X57761Y65992D03*
G01X53261Y65992D03*
G54D16*
G01X52411Y64792D03*
G54D12*
G01X57261Y63492D03*
G01X56261Y63492D03*
G01X55261Y63492D03*
G01X54261Y63492D03*
G01X56761Y62492D03*
G01X55761Y62492D03*
G01X54761Y62492D03*
G01X53761Y62492D03*
G01X57661Y60592D03*
G01X56661Y60592D03*
G01X54361Y60592D03*
G01X53361Y60592D03*
G54D11*
G01X74984Y40551D03*
G01X76984Y40551D03*
G01X76984Y67322D03*
G54D18*
G01X74984Y67322D03*
G54D15*
G54D10*
G01X74803Y58562D03*
G54D19*
G01X74803Y62696D03*
G54D15*
G54D10*
G01X74803Y49311D03*
G01X74803Y45177D03*
G54D11*
G01X68503Y48517D03*
G54D18*
G01X68503Y59357D03*
G54D15*
G54D13*
G01X72047Y40551D03*
G01X72047Y67322D03*
G54D12*
G01X67480Y44511D03*
G01X67480Y46511D03*
G01X67480Y61362D03*
G54D14*
G01X67480Y63362D03*
G54D15*
G54D13*
G01X90157Y68110D03*
G01X98425Y68110D03*
G54D18*
G01X2047Y9897D03*
G54D15*
G54D11*
G01X2047Y7897D03*
G54D12*
G01X9948Y6897D03*
G01X9948Y7897D03*
G01X9948Y8897D03*
G01X9948Y9897D03*
G01X9948Y10897D03*
G01X8948Y10897D03*
G01X8948Y9897D03*
G01X8948Y8897D03*
G01X8948Y7897D03*
G01X8948Y6897D03*
G54D13*
G01X2362Y14566D03*
G01X9448Y3149D03*
G01X2362Y3149D03*
G01X9448Y14566D03*
G54D20*
G01X5826Y8897D03*
G54D21*
G01X2913Y50841D03*
G01X2913Y49751D03*
G01X2913Y48661D03*
G01X2913Y47571D03*
G01X2913Y46481D03*
G01X1793Y50301D03*
G01X1793Y49211D03*
G01X1793Y48121D03*
G01X1793Y47031D03*
G54D22*
G01X2393Y53561D03*
G01X2393Y43761D03*
G54D14*
G01X14279Y52803D03*
G54D15*
G54D12*
G01X14279Y53803D03*
G01X14279Y54803D03*
G01X14279Y55803D03*
G01X14279Y56803D03*
G01X13279Y56803D03*
G01X13279Y55803D03*
G01X13279Y54803D03*
G01X13279Y53803D03*
G01X13279Y52803D03*
G54D14*
G01X1862Y64283D03*
G54D15*
G54D12*
G01X1862Y63283D03*
G01X1862Y62283D03*
G01X1862Y61283D03*
G01X1862Y60283D03*
G01X2862Y60283D03*
G01X2862Y61283D03*
G01X2862Y62283D03*
G01X2862Y63283D03*
G01X2862Y64283D03*
G54D13*
G01X2362Y40551D03*
G01X13779Y40551D03*
G01X13779Y68110D03*
G01X2362Y68110D03*
G54D14*
G01X18610Y25559D03*
G54D15*
G54D12*
G01X18610Y26559D03*
G01X18610Y27559D03*
G01X18610Y28559D03*
G01X18610Y29559D03*
G01X17610Y29559D03*
G01X17610Y28559D03*
G01X17610Y27559D03*
G01X17610Y26559D03*
G01X17610Y25559D03*
G54D13*
G01X18110Y19685D03*
G01X18110Y35433D03*
G01X2362Y19685D03*
G01X2362Y35433D03*
G54D23*
G01X7637Y22854D03*
G01X7637Y32578D03*
G54D24*
G01X2322Y22125D03*
G01X2322Y33070D03*
G01X13275Y22125D03*
G01X13275Y33070D03*
G54D11*
G01X18535Y53653D03*
G01X18535Y51653D03*
G01X18535Y57653D03*
G01X18535Y55653D03*
G54D18*
G01X18535Y61653D03*
G54D15*
G54D11*
G01X18535Y59653D03*
G01X40874Y63496D03*
G54D18*
G01X40874Y65496D03*
G54D15*
G54D11*
G01X40874Y59496D03*
G01X40874Y61496D03*
G01X40874Y55496D03*
G01X40874Y57496D03*
G01X40874Y51496D03*
G01X40874Y53496D03*
G54D12*
G01X23354Y40051D03*
G01X24354Y40051D03*
G01X25354Y40051D03*
G01X26354Y40051D03*
G01X27354Y40051D03*
G01X27354Y41051D03*
G01X26354Y41051D03*
G01X25354Y41051D03*
G01X24354Y41051D03*
G01X23354Y41051D03*
G54D11*
G01X18535Y45653D03*
G01X18535Y43653D03*
G01X18535Y49653D03*
G01X18535Y47653D03*
G01X40874Y43496D03*
G01X40874Y45496D03*
G01X40874Y47496D03*
G01X40874Y49496D03*
G54D13*
G01X18897Y40551D03*
G01X40551Y40551D03*
G01X40551Y68110D03*
G01X18897Y68110D03*
G54D25*
G01X28248Y62129D03*
G01X28248Y61129D03*
G01X28248Y60129D03*
G01X28248Y59129D03*
G01X31248Y59129D03*
G01X31248Y60129D03*
G01X31248Y61129D03*
G54D26*
G01X31248Y62129D03*
G54D15*
G54D12*
G01X36220Y62338D03*
G01X36220Y61338D03*
G54D14*
G01X36220Y60338D03*
G54D15*
G54D25*
G01X33858Y61938D03*
G01X34458Y61338D03*
G01X33858Y60738D03*
G01X28248Y58129D03*
G01X28248Y57129D03*
G01X28248Y56129D03*
G01X28248Y55129D03*
G01X31248Y55129D03*
G01X31248Y56129D03*
G01X31248Y57129D03*
G01X31248Y58129D03*
G54D12*
G01X36220Y57929D03*
G01X36220Y56929D03*
G01X36220Y55929D03*
G54D25*
G01X33858Y57529D03*
G01X34458Y56929D03*
G01X33858Y56329D03*
G01X28248Y54129D03*
G01X28248Y53129D03*
G01X28248Y52129D03*
G01X28248Y51129D03*
G01X31248Y51129D03*
G01X31248Y52129D03*
G01X31248Y53129D03*
G01X31248Y54129D03*
G54D12*
G01X36220Y53519D03*
G01X36220Y52519D03*
G01X36220Y51519D03*
G54D25*
G01X33858Y53119D03*
G01X34458Y52519D03*
G01X33858Y51919D03*
G01X28248Y50129D03*
G01X28248Y49129D03*
G01X28248Y48129D03*
G01X28248Y47129D03*
G01X31248Y47129D03*
G01X31248Y48129D03*
G01X31248Y49129D03*
G01X31248Y50129D03*
G54D12*
G01X36220Y49110D03*
G01X36220Y48110D03*
G01X36220Y47110D03*
G54D25*
G01X33858Y48710D03*
G01X34458Y48110D03*
G01X33858Y47510D03*
G01X28248Y46129D03*
G01X28248Y45129D03*
G01X28248Y44129D03*
G01X28248Y43129D03*
G01X31248Y43129D03*
G01X31248Y44129D03*
G01X31248Y45129D03*
G01X31248Y46129D03*
G54D12*
G01X36220Y44700D03*
G01X36220Y43700D03*
G01X36220Y42700D03*
G54D25*
G01X33858Y44300D03*
G01X34458Y43700D03*
G01X33858Y43100D03*
G54D27*
G01X17519Y5314D03*
G54D15*
G54D12*
G01X76877Y19354D03*
G01X76877Y20354D03*
G01X76877Y21354D03*
G01X76877Y22354D03*
G01X76877Y23354D03*
G01X76877Y24354D03*
G01X76877Y25354D03*
G01X76877Y26354D03*
G01X76877Y27354D03*
G01X76877Y28354D03*
G01X76877Y29354D03*
G01X76877Y30354D03*
G01X76877Y31354D03*
G01X75877Y31354D03*
G01X75877Y30354D03*
G01X75877Y29354D03*
G01X75877Y28354D03*
G01X75877Y27354D03*
G01X75877Y26354D03*
G01X75877Y25354D03*
G01X75877Y24354D03*
G01X75877Y23354D03*
G01X75877Y22354D03*
G01X75877Y21354D03*
G01X75877Y20354D03*
G01X75877Y19354D03*
G01X59267Y35933D03*
G01X58267Y35933D03*
G01X57267Y35933D03*
G01X56267Y35933D03*
G01X55267Y35933D03*
G01X54267Y35933D03*
G01X53267Y35933D03*
G01X52267Y35933D03*
G01X51267Y35933D03*
G01X50267Y35933D03*
G01X49267Y35933D03*
G01X48267Y35933D03*
G01X47267Y35933D03*
G01X47267Y34933D03*
G01X48267Y34933D03*
G01X49267Y34933D03*
G01X50267Y34933D03*
G01X51267Y34933D03*
G01X52267Y34933D03*
G01X53267Y34933D03*
G01X54267Y34933D03*
G01X55267Y34933D03*
G01X56267Y34933D03*
G01X57267Y34933D03*
G01X58267Y34933D03*
G01X59267Y34933D03*
G01X46283Y7374D03*
G01X47283Y7374D03*
G01X48283Y7374D03*
G01X49283Y7374D03*
G01X50283Y7374D03*
G01X51283Y7374D03*
G01X52283Y7374D03*
G01X53283Y7374D03*
G01X54283Y7374D03*
G01X55283Y7374D03*
G01X56283Y7374D03*
G01X57283Y7374D03*
G01X58283Y7374D03*
G01X58283Y8374D03*
G01X57283Y8374D03*
G01X56283Y8374D03*
G01X55283Y8374D03*
G01X54283Y8374D03*
G01X53283Y8374D03*
G01X52283Y8374D03*
G01X51283Y8374D03*
G01X50283Y8374D03*
G01X49283Y8374D03*
G01X48283Y8374D03*
G01X47283Y8374D03*
G01X46283Y8374D03*
G01X40444Y25330D03*
G01X40444Y24330D03*
G01X40444Y23330D03*
G01X40444Y22330D03*
G01X40444Y21330D03*
G01X40444Y20330D03*
G01X40444Y19330D03*
G01X40444Y18330D03*
G01X40444Y17330D03*
G01X40444Y16330D03*
G01X40444Y15330D03*
G01X40444Y14330D03*
G01X40444Y13330D03*
G01X41444Y13330D03*
G01X41444Y14330D03*
G01X41444Y15330D03*
G01X41444Y16330D03*
G01X41444Y17330D03*
G01X41444Y18330D03*
G01X41444Y19330D03*
G01X41444Y20330D03*
G01X41444Y21330D03*
G01X41444Y22330D03*
G01X41444Y23330D03*
G01X41444Y24330D03*
G01X41444Y25330D03*
G54D11*
G01X76692Y12385D03*
G01X76692Y14385D03*
G54D13*
G01X76377Y7874D03*
G01X76377Y35433D03*
G01X40944Y7874D03*
G01X40944Y35433D03*
G01X68503Y2755D03*
G01X76771Y2755D03*
G01X55905Y2755D03*
G01X64173Y2755D03*
G01X40551Y2755D03*
G01X48818Y2755D03*
G54D27*
G01X32874Y22244D03*
G54D15*
G54D27*
G01X25393Y13582D03*
G54D15*
G54D27*
G01X32874Y5314D03*
G54D15*
G54D27*
G01X26181Y31692D03*
G54D15*

G04 Draw clearances for traces*
G54D28*
G01X29921Y32480D03*
G01X24015Y32874D03*
G01X22440Y32480D03*
G01X25000Y28740D03*
G01X35039Y3070D03*
G01X35039Y6496D03*
G01X30708Y3070D03*
G01X34055Y2362D03*
G01X28346Y11614D03*
G01X22440Y11614D03*
G01X26574Y11417D03*
G01X29921Y21062D03*
G01X33661Y18503D03*
G01X58976Y3503D03*
G01X72283Y1181D03*
G54D15*
G54D28*
G01X17834Y9448D03*
G01X17834Y9448D03*
G01X93622Y46456D03*
G01X4488Y8818D03*
G01X94409Y68543D03*
G01X94409Y68543D03*
G01X92283Y66535D03*
G01X94803Y67874D03*
G01X92913Y67716D03*
G01X96496Y68425D03*
G01X95196Y67244D03*
G01X28346Y29448D03*
G01X28346Y32874D03*
G01X24015Y29448D03*
G01X27362Y28740D03*
G01X35826Y3346D03*
G01X29921Y3346D03*
G01X34055Y3149D03*
G01X22440Y12401D03*
G01X26181Y9842D03*
G01X33307Y20669D03*
G01X43622Y3503D03*
G01X59685Y1181D03*
G54D15*
G54D28*
G01X57795Y14488D03*
G01X20472Y6496D03*
G01X96062Y60787D03*
G01X58425Y52992D03*
G01X4488Y9291D03*
G01X4488Y9291D03*
G01X4488Y9291D03*
G01X4488Y9291D03*
G01X5196Y5354D03*
G01X4409Y7795D03*
G01X5275Y12440D03*
G01X5078Y15511D03*
G01X6456Y15511D03*
G01X6417Y2204D03*
G01X5078Y2204D03*
G01X95590Y67244D03*
G01X96377Y66732D03*
G01X29133Y29724D03*
G01X23228Y29724D03*
G01X27362Y29527D03*
G01X29921Y4133D03*
G01X33661Y1574D03*
G01X25826Y12007D03*
G01X44330Y1181D03*
G54D15*
G54D28*
G01X73543Y1889D03*
G01X72755Y3188D03*
G01X72755Y3188D03*
G01X70629Y1181D03*
G01X73149Y2519D03*
G01X71259Y2362D03*
G01X74842Y3070D03*
G01X20472Y7283D03*
G01X20472Y4133D03*
G54D15*
G54D28*
G01X94724Y46535D03*
G01X57874Y52047D03*
G01X57874Y52047D03*
G01X57874Y52047D03*
G01X57165Y50866D03*
G01X56889Y52755D03*
G01X55590Y52086D03*
G01X56377Y52086D03*
G01X46653Y61574D03*
G01X58031Y61338D03*
G01X53622Y63937D03*
G01X55590Y51259D03*
G01X95984Y68385D03*
G01X23228Y30511D03*
G01X26968Y27952D03*
G01X33307Y3740D03*
G54D15*
G54D28*
G01X60944Y1889D03*
G01X60157Y3188D03*
G01X60157Y3188D03*
G01X58031Y1181D03*
G01X60551Y2519D03*
G01X58661Y2362D03*
G01X62244Y3070D03*
G01X73937Y1889D03*
G01X74724Y1377D03*
G01X60787Y20944D03*
G01X19094Y7677D03*
G01X19685Y4133D03*
G01X15354Y4133D03*
G01X96062Y28503D03*
G01X91574Y63543D03*
G01X94724Y64094D03*
G01X93622Y62047D03*
G01X91574Y48582D03*
G01X94724Y49133D03*
G01X93622Y47086D03*
G01X91574Y31259D03*
G01X94724Y31811D03*
G01X93622Y29763D03*
G01X91574Y16299D03*
G01X94724Y16850D03*
G01X93622Y14803D03*
G01X94251Y60787D03*
G01X94251Y45826D03*
G01X94251Y28503D03*
G01X94251Y13543D03*
G01X81023Y36023D03*
G01X92322Y67125D03*
G01X92322Y67716D03*
G54D29*
G01X95196Y67874D03*
G01X95984Y67874D03*
G54D15*
G36*
G01X96035Y67997D02*
G01X96078Y67968D01*
G01X96107Y67925D01*
G01X96117Y67874D01*
G01X96107Y67822D01*
G01X96078Y67779D01*
G01X96035Y67750D01*
G01X95984Y67740D01*
G01X95196Y67740D01*
G01X95145Y67750D01*
G01X95102Y67779D01*
G01X95073Y67822D01*
G01X95063Y67874D01*
G01X95073Y67925D01*
G01X95102Y67968D01*
G01X95145Y67997D01*
G01X95196Y68007D01*
G01X95984Y68007D01*
G01X96035Y67997D01*
G37*
G01X96035Y67997D02*
G01X96078Y67968D01*
G01X96107Y67925D01*
G01X96117Y67874D01*
G01X96107Y67822D01*
G01X96078Y67779D01*
G01X96035Y67750D01*
G01X95984Y67740D01*
G01X95196Y67740D01*
G01X95145Y67750D01*
G01X95102Y67779D01*
G01X95073Y67822D01*
G01X95063Y67874D01*
G01X95073Y67925D01*
G01X95102Y67968D01*
G01X95145Y67997D01*
G01X95196Y68007D01*
G01X95984Y68007D01*
G01X96035Y67997D01*
G36*
G01X96035Y67997D02*
G01X96078Y67968D01*
G01X96107Y67925D01*
G01X96117Y67874D01*
G01X96107Y67822D01*
G01X96078Y67779D01*
G01X96035Y67750D01*
G01X95984Y67740D01*
G01X95196Y67740D01*
G01X95145Y67750D01*
G01X95102Y67779D01*
G01X95073Y67822D01*
G01X95063Y67874D01*
G01X95073Y67925D01*
G01X95102Y67968D01*
G01X95145Y67997D01*
G01X95196Y68007D01*
G01X95984Y68007D01*
G01X96035Y67997D01*
G37*
G01X96035Y67997D02*
G01X96078Y67968D01*
G01X96107Y67925D01*
G01X96117Y67874D01*
G01X96107Y67822D01*
G01X96078Y67779D01*
G01X96035Y67750D01*
G01X95984Y67740D01*
G01X95196Y67740D01*
G01X95145Y67750D01*
G01X95102Y67779D01*
G01X95073Y67822D01*
G01X95063Y67874D01*
G01X95073Y67925D01*
G01X95102Y67968D01*
G01X95145Y67997D01*
G01X95196Y68007D01*
G01X95984Y68007D01*
G01X96035Y67997D01*
G54D28*
G01X95639Y69497D03*
G01X26614Y30118D03*
G01X33188Y26377D03*
G01X33188Y26377D03*
G01X45590Y1889D03*
G01X44803Y3188D03*
G01X44803Y3188D03*
G01X42677Y1181D03*
G01X45196Y2519D03*
G01X43307Y2362D03*
G01X46889Y3070D03*
G01X61338Y1889D03*
G01X62125Y1377D03*
G01X74330Y3031D03*
G01X59448Y20944D03*
G01X61889Y22086D03*
G01X18307Y7677D03*
G01X21259Y4527D03*
G01X13779Y4527D03*
G01X17913Y3149D03*
G01X13858Y26968D03*
G01X12047Y27952D03*
G01X13818Y29921D03*
G01X9251Y20000D03*
G54D15*
G54D28*
G01X95590Y68976D03*
G01X7677Y50314D03*
G01X25708Y17716D03*
G01X25708Y17716D03*
G54D15*
G54D28*
G01X35826Y23425D03*
G01X45984Y1889D03*
G01X46771Y1377D03*
G01X61732Y3031D03*
G01X70669Y1771D03*
G01X61889Y22874D03*
G01X17519Y7677D03*
G01X19173Y5078D03*
G01X15866Y5078D03*
G01X17519Y1574D03*
G54D15*
G54D28*
G01X12677Y30944D03*
G01X92165Y61771D03*
G01X93622Y60787D03*
G01X94409Y69488D03*
G01X6771Y50472D03*
G01X33188Y9448D03*
G01X33188Y9448D03*
G54D15*
G54D28*
G01X28346Y14763D03*
G01X35826Y21062D03*
G01X35826Y24212D03*
G01X46377Y3031D03*
G01X58070Y1771D03*
G01X73937Y3622D03*
G01X70669Y2362D03*
G54D29*
G01X73543Y2519D03*
G01X74330Y2519D03*
G54D15*
G36*
G01X74381Y2642D02*
G01X74425Y2614D01*
G01X74453Y2570D01*
G01X74464Y2519D01*
G01X74453Y2468D01*
G01X74425Y2425D01*
G01X74381Y2396D01*
G01X74330Y2386D01*
G01X73543Y2386D01*
G01X73492Y2396D01*
G01X73448Y2425D01*
G01X73420Y2468D01*
G01X73409Y2519D01*
G01X73420Y2570D01*
G01X73448Y2614D01*
G01X73492Y2642D01*
G01X73543Y2653D01*
G01X74330Y2653D01*
G01X74381Y2642D01*
G37*
G01X74381Y2642D02*
G01X74425Y2614D01*
G01X74453Y2570D01*
G01X74464Y2519D01*
G01X74453Y2468D01*
G01X74425Y2425D01*
G01X74381Y2396D01*
G01X74330Y2386D01*
G01X73543Y2386D01*
G01X73492Y2396D01*
G01X73448Y2425D01*
G01X73420Y2468D01*
G01X73409Y2519D01*
G01X73420Y2570D01*
G01X73448Y2614D01*
G01X73492Y2642D01*
G01X73543Y2653D01*
G01X74330Y2653D01*
G01X74381Y2642D01*
G36*
G01X74381Y2642D02*
G01X74425Y2614D01*
G01X74453Y2570D01*
G01X74464Y2519D01*
G01X74453Y2468D01*
G01X74425Y2425D01*
G01X74381Y2396D01*
G01X74330Y2386D01*
G01X73543Y2386D01*
G01X73492Y2396D01*
G01X73448Y2425D01*
G01X73420Y2468D01*
G01X73409Y2519D01*
G01X73420Y2570D01*
G01X73448Y2614D01*
G01X73492Y2642D01*
G01X73543Y2653D01*
G01X74330Y2653D01*
G01X74381Y2642D01*
G37*
G01X74381Y2642D02*
G01X74425Y2614D01*
G01X74453Y2570D01*
G01X74464Y2519D01*
G01X74453Y2468D01*
G01X74425Y2425D01*
G01X74381Y2396D01*
G01X74330Y2386D01*
G01X73543Y2386D01*
G01X73492Y2396D01*
G01X73448Y2425D01*
G01X73420Y2468D01*
G01X73409Y2519D01*
G01X73420Y2570D01*
G01X73448Y2614D01*
G01X73492Y2642D01*
G01X73543Y2653D01*
G01X74330Y2653D01*
G01X74381Y2642D01*
G54D28*
G01X73985Y4143D03*
G01X68110Y8464D03*
G01X70866Y8464D03*
G01X73622Y8464D03*
G01X71141Y11968D03*
G01X67204Y11968D03*
G01X59133Y16614D03*
G01X61732Y20393D03*
G01X59212Y25275D03*
G01X61889Y21574D03*
G01X61889Y24409D03*
G01X60393Y25275D03*
G01X57007Y24015D03*
G01X59842Y20393D03*
G01X57637Y21181D03*
G01X59055Y20393D03*
G01X60984Y18897D03*
G01X58346Y20393D03*
G01X55511Y22755D03*
G01X63385Y22519D03*
G01X63385Y22519D03*
G01X59448Y27204D03*
G01X57952Y25275D03*
G01X16732Y7677D03*
G01X19685Y4921D03*
G01X15354Y4921D03*
G01X17125Y3149D03*
G01X12677Y31574D03*
G01X92165Y46811D03*
G01X96062Y45826D03*
G01X93622Y61417D03*
G01X57559Y59842D03*
G01X58188Y53937D03*
G01X54921Y53346D03*
G01X96771Y67283D03*
G54D15*
G54D28*
G01X7007Y48188D03*
G01X26496Y35826D03*
G01X26496Y35826D03*
G54D15*
G54D28*
G01X35826Y6496D03*
G01X28346Y12401D03*
G01X28346Y15551D03*
G01X35039Y21062D03*
G01X34448Y24606D03*
G01X30708Y21062D03*
G01X42716Y1771D03*
G01X61338Y3622D03*
G01X58070Y2362D03*
G54D29*
G01X60944Y2519D03*
G01X61732Y2519D03*
G54D15*
G36*
G01X61783Y2642D02*
G01X61826Y2614D01*
G01X61855Y2570D01*
G01X61865Y2519D01*
G01X61855Y2468D01*
G01X61826Y2425D01*
G01X61783Y2396D01*
G01X61732Y2386D01*
G01X60944Y2386D01*
G01X60893Y2396D01*
G01X60850Y2425D01*
G01X60821Y2468D01*
G01X60811Y2519D01*
G01X60821Y2570D01*
G01X60850Y2614D01*
G01X60893Y2642D01*
G01X60944Y2653D01*
G01X61732Y2653D01*
G01X61783Y2642D01*
G37*
G01X61783Y2642D02*
G01X61826Y2614D01*
G01X61855Y2570D01*
G01X61865Y2519D01*
G01X61855Y2468D01*
G01X61826Y2425D01*
G01X61783Y2396D01*
G01X61732Y2386D01*
G01X60944Y2386D01*
G01X60893Y2396D01*
G01X60850Y2425D01*
G01X60821Y2468D01*
G01X60811Y2519D01*
G01X60821Y2570D01*
G01X60850Y2614D01*
G01X60893Y2642D01*
G01X60944Y2653D01*
G01X61732Y2653D01*
G01X61783Y2642D01*
G36*
G01X61783Y2642D02*
G01X61826Y2614D01*
G01X61855Y2570D01*
G01X61865Y2519D01*
G01X61855Y2468D01*
G01X61826Y2425D01*
G01X61783Y2396D01*
G01X61732Y2386D01*
G01X60944Y2386D01*
G01X60893Y2396D01*
G01X60850Y2425D01*
G01X60821Y2468D01*
G01X60811Y2519D01*
G01X60821Y2570D01*
G01X60850Y2614D01*
G01X60893Y2642D01*
G01X60944Y2653D01*
G01X61732Y2653D01*
G01X61783Y2642D01*
G37*
G01X61783Y2642D02*
G01X61826Y2614D01*
G01X61855Y2570D01*
G01X61865Y2519D01*
G01X61855Y2468D01*
G01X61826Y2425D01*
G01X61783Y2396D01*
G01X61732Y2386D01*
G01X60944Y2386D01*
G01X60893Y2396D01*
G01X60850Y2425D01*
G01X60821Y2468D01*
G01X60811Y2519D01*
G01X60821Y2570D01*
G01X60850Y2614D01*
G01X60893Y2642D01*
G01X60944Y2653D01*
G01X61732Y2653D01*
G01X61783Y2642D01*
G54D28*
G01X61387Y4143D03*
G01X72755Y4133D03*
G01X15944Y7677D03*
G01X21259Y5314D03*
G01X13779Y5314D03*
G01X17086Y3740D03*
G01X96062Y13543D03*
G01X92165Y29488D03*
G01X96614Y69488D03*
G54D15*
G54D28*
G01X29133Y32874D03*
G01X35826Y4133D03*
G01X35826Y7283D03*
G01X27559Y12401D03*
G01X26968Y15944D03*
G01X23228Y12401D03*
G01X36614Y21456D03*
G01X33661Y24606D03*
G01X29133Y21456D03*
G01X33267Y20078D03*
G01X45984Y3622D03*
G01X42716Y2362D03*
G54D29*
G01X45590Y2519D03*
G01X46377Y2519D03*
G54D15*
G36*
G01X46429Y2642D02*
G01X46472Y2614D01*
G01X46501Y2570D01*
G01X46511Y2519D01*
G01X46501Y2468D01*
G01X46472Y2425D01*
G01X46429Y2396D01*
G01X46377Y2386D01*
G01X45590Y2386D01*
G01X45539Y2396D01*
G01X45496Y2425D01*
G01X45467Y2468D01*
G01X45457Y2519D01*
G01X45467Y2570D01*
G01X45496Y2614D01*
G01X45539Y2642D01*
G01X45590Y2653D01*
G01X46377Y2653D01*
G01X46429Y2642D01*
G37*
G01X46429Y2642D02*
G01X46472Y2614D01*
G01X46501Y2570D01*
G01X46511Y2519D01*
G01X46501Y2468D01*
G01X46472Y2425D01*
G01X46429Y2396D01*
G01X46377Y2386D01*
G01X45590Y2386D01*
G01X45539Y2396D01*
G01X45496Y2425D01*
G01X45467Y2468D01*
G01X45457Y2519D01*
G01X45467Y2570D01*
G01X45496Y2614D01*
G01X45539Y2642D01*
G01X45590Y2653D01*
G01X46377Y2653D01*
G01X46429Y2642D01*
G36*
G01X46429Y2642D02*
G01X46472Y2614D01*
G01X46501Y2570D01*
G01X46511Y2519D01*
G01X46501Y2468D01*
G01X46472Y2425D01*
G01X46429Y2396D01*
G01X46377Y2386D01*
G01X45590Y2386D01*
G01X45539Y2396D01*
G01X45496Y2425D01*
G01X45467Y2468D01*
G01X45457Y2519D01*
G01X45467Y2570D01*
G01X45496Y2614D01*
G01X45539Y2642D01*
G01X45590Y2653D01*
G01X46377Y2653D01*
G01X46429Y2642D01*
G37*
G01X46429Y2642D02*
G01X46472Y2614D01*
G01X46501Y2570D01*
G01X46511Y2519D01*
G01X46501Y2468D01*
G01X46472Y2425D01*
G01X46429Y2396D01*
G01X46377Y2386D01*
G01X45590Y2386D01*
G01X45539Y2396D01*
G01X45496Y2425D01*
G01X45467Y2468D01*
G01X45457Y2519D01*
G01X45467Y2570D01*
G01X45496Y2614D01*
G01X45539Y2642D01*
G01X45590Y2653D01*
G01X46377Y2653D01*
G01X46429Y2642D01*
G54D28*
G01X46033Y4143D03*
G01X60157Y4133D03*
G01X75118Y1929D03*
G01X14566Y7283D03*
G01X19685Y5629D03*
G01X15354Y5629D03*
G01X16732Y1574D03*
G01X12677Y25984D03*
G01X92165Y14527D03*
G01X94724Y61496D03*
G54D15*
G54D28*
G01X29133Y30511D03*
G01X29133Y33661D03*
G01X35039Y4133D03*
G01X34448Y7677D03*
G01X30708Y4133D03*
G01X29133Y12795D03*
G01X26181Y15944D03*
G01X21653Y12795D03*
G01X25787Y11417D03*
G01X34527Y22007D03*
G01X32874Y24606D03*
G01X31220Y22007D03*
G01X32874Y18503D03*
G01X44803Y4133D03*
G01X62519Y1929D03*
G01X74960Y4133D03*
G01X58543Y14488D03*
G01X63543Y9488D03*
G01X14566Y6496D03*
G01X20472Y5708D03*
G01X14566Y5708D03*
G01X16338Y3149D03*
G01X12677Y25039D03*
G54D15*
G54D28*
G01X28346Y30511D03*
G01X27755Y34055D03*
G01X24015Y30511D03*
G01X36614Y4527D03*
G01X33661Y7677D03*
G01X29133Y4527D03*
G01X33267Y3149D03*
G01X27047Y13346D03*
G01X25393Y15944D03*
G01X23740Y13346D03*
G01X25393Y9842D03*
G01X35039Y21850D03*
G01X32086Y24606D03*
G01X30708Y21850D03*
G01X32480Y20078D03*
G01X47165Y1929D03*
G01X62362Y4133D03*
G01X15354Y6496D03*
G01X21259Y6102D03*
G01X13779Y6102D03*
G01X16338Y2362D03*
G01X12677Y24015D03*
G54D15*
G54D28*
G01X29921Y30905D03*
G01X26968Y34055D03*
G01X22440Y30905D03*
G01X26574Y29527D03*
G01X34527Y5078D03*
G01X32874Y7677D03*
G01X31220Y5078D03*
G01X32874Y1574D03*
G01X27559Y13188D03*
G01X24606Y15944D03*
G01X23228Y13188D03*
G01X25000Y11417D03*
G01X36614Y22244D03*
G01X31299Y24606D03*
G01X29133Y22244D03*
G01X32440Y20669D03*
G01X47007Y4133D03*
G01X19685Y6496D03*
G01X19685Y3070D03*
G01X15354Y3070D03*
G01X18700Y2362D03*
G01X93622Y13543D03*
G01X27834Y31456D03*
G01X26181Y34055D03*
G01X24527Y31456D03*
G01X26181Y27952D03*
G01X35039Y4921D03*
G01X32086Y7677D03*
G01X30708Y4921D03*
G01X32480Y3149D03*
G01X29133Y13582D03*
G01X23818Y15944D03*
G01X21653Y13582D03*
G01X24960Y12007D03*
G01X35039Y22559D03*
G01X29921Y24212D03*
G01X30708Y22559D03*
G01X32086Y18503D03*
G01X20472Y3346D03*
G01X14566Y3346D03*
G01X18700Y3149D03*
G01X93622Y14173D03*
G01X94724Y62125D03*
G01X6535Y48188D03*
G01X28346Y31299D03*
G01X25393Y34055D03*
G01X24015Y31299D03*
G01X25787Y29527D03*
G01X36614Y5314D03*
G01X31299Y7677D03*
G01X29133Y5314D03*
G01X32440Y3740D03*
G01X27559Y13897D03*
G01X22440Y15551D03*
G01X23228Y13897D03*
G01X24606Y9842D03*
G01X35826Y22637D03*
G01X29921Y23425D03*
G01X29921Y22637D03*
G01X31692Y20078D03*
G01X14566Y4133D03*
G01X18307Y1574D03*
G01X93622Y28503D03*
G01X94724Y47165D03*
G01X55590Y52637D03*
G01X53346Y58110D03*
G01X29921Y31692D03*
G01X24606Y34055D03*
G01X22440Y31692D03*
G01X25748Y30118D03*
G01X35039Y5629D03*
G01X29921Y7283D03*
G01X30708Y5629D03*
G01X32086Y1574D03*
G01X28346Y13976D03*
G01X22440Y14763D03*
G01X22440Y13976D03*
G01X24212Y11417D03*
G01X36614Y23031D03*
G01X30708Y23425D03*
G01X29133Y23031D03*
G01X31692Y19291D03*
G01X17952Y3740D03*
G01X94724Y14251D03*
G01X93622Y29133D03*
G01X94724Y29842D03*
G01X93228Y68858D03*
G01X28346Y32007D03*
G01X23228Y33661D03*
G01X24015Y32007D03*
G01X25393Y27952D03*
G01X35826Y5708D03*
G01X29921Y6496D03*
G01X29921Y5708D03*
G01X31692Y3149D03*
G01X29133Y14370D03*
G01X23228Y14763D03*
G01X21653Y14370D03*
G01X24212Y10629D03*
G01X35039Y20000D03*
G01X35039Y23425D03*
G01X30708Y20000D03*
G01X34055Y19291D03*
G01X94724Y14881D03*
G01X57401Y53937D03*
G01X4881Y7874D03*
G01X93937Y66535D03*
G01X7795Y48267D03*
G01X8267Y50314D03*
G01X12716Y49212D03*
G01X11889Y54330D03*
G01X6771Y49881D03*
G01X6850Y46535D03*
G01X5118Y59763D03*
G01X5118Y60787D03*
G01X5118Y61811D03*
G01X5118Y62755D03*
G01X29133Y32086D03*
G01X23228Y32874D03*
G01X23228Y32086D03*
G01X25000Y29527D03*
G01X36614Y6102D03*
G01X30708Y6496D03*
G01X29133Y6102D03*
G01X31692Y2362D03*
G01X27559Y11338D03*
G01X27559Y14763D03*
G01X23228Y11338D03*
G01X26574Y10629D03*
G01X35826Y20275D03*
G01X29921Y20275D03*
G01X34055Y20078D03*
G01X71574Y3503D03*
G54D21*
G01X68110Y14645D03*
G54D15*
G54D28*
G01X94724Y29212D03*
G01X93622Y45826D03*
G01X56968Y56771D03*
G01X4488Y8385D03*
G01X26338Y44488D03*
G01X26338Y48503D03*
G01X26338Y52519D03*
G01X26338Y56535D03*
G01X26338Y60551D03*

G04 Draw clearances for text*

G04 -------------- Draw Parts, Pads, Traces, Vias and Text (positive)*
%LPD*%
G04 Draw part 6R11*
G04 Draw part 6R10*
G04 Draw part 6C8*
G54D30*
G01X89291Y56712D03*
G01X89291Y52578D03*
G04 Draw part 6C5*
G04 Draw part 6C4*
G04 Draw part 6R8*
G04 Draw part 6R3*
G04 Draw part 6R1*
G04 Draw part 6C2*
G04 Draw part 6C3*
G04 Draw part 6R2*
G04 Draw part 6R4*
G04 Draw part 6R7*
G04 Draw part 6R9*
G04 Draw part 6J3*
G54D31*
G01X98346Y57425D03*
G01X98346Y59425D03*
G04 Draw part 6R6*
G04 Draw part 6U2*
G54D32*
G01X98425Y64095D03*
G01X97625Y63425D03*
G01X98425Y62755D03*
G01X97625Y62085D03*
G01X98425Y61415D03*
G04 Draw part 6U1*
G04 Draw part 6D2*
G04 Draw part 6D3*
G04 Draw part 6R12*
G04 Draw part 6C7*
G04 Draw part 6C6*
G04 Draw part 6R25*
G04 Draw part 6R24*
G04 Draw part 6C15*
G54D30*
G01X89291Y41751D03*
G01X89291Y37618D03*
G04 Draw part 6C12*
G04 Draw part 6C11*
G04 Draw part 6R22*
G04 Draw part 6R17*
G04 Draw part 6R15*
G04 Draw part 6C9*
G04 Draw part 6C10*
G04 Draw part 6R16*
G04 Draw part 6R18*
G04 Draw part 6R21*
G04 Draw part 6R23*
G04 Draw part 6J4*
G54D31*
G01X98346Y42464D03*
G01X98346Y44464D03*
G04 Draw part 6R20*
G04 Draw part 6U4*
G54D32*
G01X98425Y49135D03*
G01X97625Y48465D03*
G01X98425Y47795D03*
G01X97625Y47125D03*
G01X98425Y46455D03*
G04 Draw part 6U3*
G04 Draw part 6D4*
G04 Draw part 6D5*
G04 Draw part 6R26*
G04 Draw part 6C14*
G04 Draw part 6C13*
G04 Draw part 7R11*
G04 Draw part 7R10*
G04 Draw part 7C7*
G54D30*
G01X89291Y24429D03*
G01X89291Y20295D03*
G04 Draw part 7C4*
G04 Draw part 7C3*
G04 Draw part 7R8*
G04 Draw part 7R3*
G04 Draw part 7R1*
G04 Draw part 7C1*
G04 Draw part 7C2*
G04 Draw part 7R2*
G04 Draw part 7R4*
G04 Draw part 7R7*
G04 Draw part 7R9*
G04 Draw part 7J5*
G54D31*
G01X98346Y25141D03*
G01X98346Y27141D03*
G04 Draw part 7R6*
G04 Draw part 7U2*
G54D32*
G01X98425Y31812D03*
G01X97625Y31142D03*
G01X98425Y30472D03*
G01X97625Y29802D03*
G01X98425Y29132D03*
G04 Draw part 7U1*
G04 Draw part 7D1*
G04 Draw part 7D2*
G04 Draw part 7R12*
G04 Draw part 7C6*
G04 Draw part 7C5*
G04 Draw part 7R25*
G04 Draw part 7R24*
G04 Draw part 7C14*
G54D30*
G01X89291Y9468D03*
G01X89291Y5334D03*
G04 Draw part 7C11*
G04 Draw part 7C10*
G04 Draw part 7R22*
G04 Draw part 7R17*
G04 Draw part 7R15*
G04 Draw part 7C8*
G04 Draw part 7C9*
G04 Draw part 7R16*
G04 Draw part 7R18*
G04 Draw part 7R21*
G04 Draw part 7R23*
G04 Draw part 7J6*
G54D31*
G01X98346Y10181D03*
G01X98346Y12181D03*
G04 Draw part 7R20*
G04 Draw part 7U4*
G54D32*
G01X98425Y16851D03*
G01X97625Y16181D03*
G01X98425Y15511D03*
G01X97625Y14841D03*
G01X98425Y14171D03*
G04 Draw part 7U3*
G04 Draw part 7D3*
G04 Draw part 7D4*
G04 Draw part 7R26*
G04 Draw part 7C13*
G04 Draw part 7C12*
G04 Draw part 6R5*
G04 Draw part 6J2*
G01X80996Y33102D03*
G01X80996Y32102D03*
G01X80996Y31102D03*
G01X80996Y30102D03*
G01X80996Y29102D03*
G01X81996Y29102D03*
G01X81996Y30102D03*
G01X81996Y31102D03*
G01X81996Y32102D03*
G01X81996Y33102D03*
G04 Draw part 6C1*
G04 Draw part 6J1*
G54D31*
G01X85330Y63307D03*
G01X83330Y63307D03*
G04 Draw part 6D1*
G04 Draw part 6R19*
G04 Draw part 6R27*
G04 Draw part 6R28*
G04 Draw part 6R29*
G04 Draw part 6R30*
G04 Draw part 7J1*
G54D33*
G01X81496Y2362D03*
G04 Draw part 7J2*
G01X81496Y51574D03*
G04 Draw part 7J3*
G01X98031Y2362D03*
G04 Draw part 7J4*
G01X98031Y51574D03*
G04 Draw part 7R5*
G04 Draw part 7R19*
G04 Draw part 5J6*
G54D32*
G01X45169Y58007D03*
G01X45169Y57007D03*
G01X45169Y56007D03*
G01X45169Y55007D03*
G01X45169Y54007D03*
G01X45169Y53007D03*
G01X45169Y52007D03*
G01X45169Y51007D03*
G01X45169Y50007D03*
G01X45169Y49007D03*
G01X45169Y48007D03*
G01X45169Y47007D03*
G01X45169Y46007D03*
G01X46169Y46007D03*
G01X46169Y47007D03*
G01X46169Y48007D03*
G01X46169Y49007D03*
G01X46169Y50007D03*
G01X46169Y51007D03*
G01X46169Y52007D03*
G01X46169Y53007D03*
G01X46169Y54007D03*
G01X46169Y55007D03*
G01X46169Y56007D03*
G01X46169Y57007D03*
G01X46169Y58007D03*
G04 Draw part 5J7*
G01X51007Y40051D03*
G01X52007Y40051D03*
G01X53007Y40051D03*
G01X54007Y40051D03*
G01X55007Y40051D03*
G01X56007Y40051D03*
G01X57007Y40051D03*
G01X58007Y40051D03*
G01X59007Y40051D03*
G01X60007Y40051D03*
G01X61007Y40051D03*
G01X62007Y40051D03*
G01X63007Y40051D03*
G01X63007Y41051D03*
G01X62007Y41051D03*
G01X61007Y41051D03*
G01X60007Y41051D03*
G01X59007Y41051D03*
G01X58007Y41051D03*
G01X57007Y41051D03*
G01X56007Y41051D03*
G01X55007Y41051D03*
G01X54007Y41051D03*
G01X53007Y41051D03*
G01X52007Y41051D03*
G01X51007Y41051D03*
G04 Draw part 5C1*
G04 Draw part 5R3*
G04 Draw part 5R4*
G04 Draw part 5R1*
G04 Draw part 5R2*
G04 Draw part 5R11*
G04 Draw part 5C5*
G04 Draw part 5R14*
G04 Draw part 5C12*
G04 Draw part 5R12*
G04 Draw part 5R13*
G04 Draw part 5R6*
G04 Draw part 5R5*
G04 Draw part 5J2*
G54D33*
G01X45669Y40551D03*
G04 Draw part 5J4*
G01X45669Y68110D03*
G04 Draw part 5J1*
G54D34*
G01X58611Y64792D03*
G54D35*
G01X57761Y65992D03*
G01X53261Y65992D03*
G54D34*
G01X52411Y64792D03*
G54D32*
G01X57261Y63492D03*
G01X56261Y63492D03*
G01X55261Y63492D03*
G01X54261Y63492D03*
G01X56761Y62492D03*
G01X55761Y62492D03*
G01X54761Y62492D03*
G01X53761Y62492D03*
G01X57661Y60592D03*
G01X56661Y60592D03*
G01X54361Y60592D03*
G01X53361Y60592D03*
G04 Draw part 5D1*
G04 Draw part 5U1*
G04 Draw part 5R7*
G04 Draw part 5R9*
G04 Draw part 5R8*
G04 Draw part 5R10*
G04 Draw part 5C2*
G04 Draw part 5C3*
G04 Draw part 5C4*
G04 Draw part 5C6*
G04 Draw part 5C7*
G04 Draw part 5C8*
G04 Draw part 5C9*
G04 Draw part 5C10*
G04 Draw part 5C11*
G04 Draw part 5R15*
G04 Draw part 5R16*
G04 Draw part 5R17*
G04 Draw part 5R18*
G04 Draw part 5R19*
G04 Draw part 5R20*
G04 Draw part 5R21*
G04 Draw part 5R22*
G04 Draw part 5R23*
G04 Draw part 5R24*
G04 Draw part 5R25*
G04 Draw part 5R26*
G04 Draw part 5R27*
G04 Draw part 5R28*
G04 Draw part 5R29*
G04 Draw part 5R30*
G04 Draw part 5R31*
G04 Draw part 5R32*
G04 Draw part 5R33*
G04 Draw part 5R34*
G04 Draw part 5R35*
G04 Draw part 3J2*
G54D31*
G01X74984Y40551D03*
G01X76984Y40551D03*
G04 Draw part 3J3*
G01X76984Y67322D03*
G01X74984Y67322D03*
G04 Draw part 3C3*
G54D30*
G01X74803Y58562D03*
G01X74803Y62696D03*
G04 Draw part 3C1*
G01X74803Y49311D03*
G01X74803Y45177D03*
G04 Draw part 3C2*
G54D31*
G01X68503Y48517D03*
G01X68503Y59357D03*
G04 Draw part 3J1*
G54D33*
G01X72047Y40551D03*
G04 Draw part 3J4*
G01X72047Y67322D03*
G04 Draw part 3D1*
G54D32*
G01X67480Y44511D03*
G01X67480Y46511D03*
G04 Draw part 3D2*
G01X67480Y61362D03*
G01X67480Y63362D03*
G04 Draw part 3J7*
G04 Draw part 3J8*
G04 Draw part 3J9*
G04 Draw part 3J10*
G04 Draw part 3R12*
G04 Draw part 3R11*
G04 Draw part 3R1*
G04 Draw part 3R2*
G04 Draw part 3C5*
G04 Draw part 3C6*
G04 Draw part 3C4*
G04 Draw part 3R7*
G04 Draw part 3C9*
G04 Draw part 3C10*
G04 Draw part 3C11*
G04 Draw part 3C7*
G04 Draw part 3R3*
G04 Draw part 3R4*
G04 Draw part 3R5*
G04 Draw part 3R6*
G04 Draw part 3C8*
G04 Draw part 3R8*
G04 Draw part 3R9*
G04 Draw part 3R10*
G04 Draw part 3J5*
G54D33*
G01X90157Y68110D03*
G04 Draw part 3J6*
G01X98425Y68110D03*
G04 Draw part 3U1*
G04 Draw part 3U2*
G04 Draw part 3D3*
G04 Draw part 4C1*
G04 Draw part 4J2*
G04 Draw part 4J1*
G54D31*
G01X2047Y9897D03*
G01X2047Y7897D03*
G04 Draw part 4C2*
G04 Draw part 4C3*
G04 Draw part 4L1*
G04 Draw part 4C4*
G04 Draw part 4R1*
G04 Draw part 4C11*
G04 Draw part 4C12*
G04 Draw part 4L2*
G04 Draw part 4R2*
G04 Draw part 4C5*
G04 Draw part 4J3*
G54D32*
G01X9948Y6897D03*
G01X9948Y7897D03*
G01X9948Y8897D03*
G01X9948Y9897D03*
G01X9948Y10897D03*
G01X8948Y10897D03*
G01X8948Y9897D03*
G01X8948Y8897D03*
G01X8948Y7897D03*
G01X8948Y6897D03*
G04 Draw part 4J8*
G04 Draw part 4J4*
G54D33*
G01X2362Y14566D03*
G04 Draw part 4J5*
G01X9448Y3149D03*
G04 Draw part 4J6*
G01X2362Y3149D03*
G04 Draw part 4J7*
G01X9448Y14566D03*
G04 Draw part 4U1*
G54D36*
G01X5826Y8897D03*
G04 Draw part 4C6*
G04 Draw part 4C7*
G04 Draw part 4C8*
G04 Draw part 4C9*
G04 Draw part 4C10*
G04 Draw part 4C13*
G04 Draw part 1C4*
G04 Draw part 1C5*
G04 Draw part 1J6*
G54D37*
G01X2913Y50841D03*
G54D38*
G01X2913Y49751D03*
G01X2913Y48661D03*
G01X2913Y47571D03*
G01X2913Y46481D03*
G01X1793Y50301D03*
G01X1793Y49211D03*
G01X1793Y48121D03*
G01X1793Y47031D03*
G54D39*
G01X2393Y53561D03*
G01X2393Y43761D03*
G04 Draw part 1J1*
G54D32*
G01X14279Y52803D03*
G01X14279Y53803D03*
G01X14279Y54803D03*
G01X14279Y55803D03*
G01X14279Y56803D03*
G01X13279Y56803D03*
G01X13279Y55803D03*
G01X13279Y54803D03*
G01X13279Y53803D03*
G01X13279Y52803D03*
G04 Draw part 1C1*
G04 Draw part 1R1*
G04 Draw part 1R2*
G04 Draw part 1J7*
G01X1862Y64283D03*
G01X1862Y63283D03*
G01X1862Y62283D03*
G01X1862Y61283D03*
G01X1862Y60283D03*
G01X2862Y60283D03*
G01X2862Y61283D03*
G01X2862Y62283D03*
G01X2862Y63283D03*
G01X2862Y64283D03*
G04 Draw part 1R3*
G04 Draw part 1C9*
G04 Draw part 1C2*
G04 Draw part 1C3*
G04 Draw part 1C6*
G04 Draw part 1C7*
G04 Draw part 1C8*
G04 Draw part 1R4*
G04 Draw part 1R5*
G04 Draw part 1R6*
G04 Draw part 1C10*
G04 Draw part 1C11*
G04 Draw part 1C12*
G04 Draw part 1U1*
G04 Draw part 1J2*
G54D33*
G01X2362Y40551D03*
G04 Draw part 1J3*
G01X13779Y40551D03*
G04 Draw part 1J4*
G01X13779Y68110D03*
G04 Draw part 1J5*
G01X2362Y68110D03*
G04 Draw part 9J13*
G04 Draw part 8C1*
G04 Draw part 8R1*
G04 Draw part 8J5*
G54D32*
G01X18610Y25559D03*
G01X18610Y26559D03*
G01X18610Y27559D03*
G01X18610Y28559D03*
G01X18610Y29559D03*
G01X17610Y29559D03*
G01X17610Y28559D03*
G01X17610Y27559D03*
G01X17610Y26559D03*
G01X17610Y25559D03*
G04 Draw part 8C2*
G04 Draw part 8J1*
G54D33*
G01X18110Y19685D03*
G04 Draw part 8J2*
G01X18110Y35433D03*
G04 Draw part 8J3*
G01X2362Y19685D03*
G04 Draw part 8J4*
G01X2362Y35433D03*
G04 Draw part 8R2*
G04 Draw part 8R3*
G04 Draw part 8R4*
G04 Draw part 8R5*
G04 Draw part 8J6*
G54D40*
G01X7637Y22854D03*
G01X7637Y32578D03*
G54D41*
G01X2322Y22125D03*
G01X2322Y33070D03*
G01X13275Y22125D03*
G01X13275Y33070D03*
G04 Draw part 2R5*
G04 Draw part 2R2*
G04 Draw part 2R3*
G04 Draw part 2R1*
G04 Draw part 2J11*
G54D31*
G01X18535Y53653D03*
G01X18535Y51653D03*
G04 Draw part 2J9*
G01X18535Y57653D03*
G01X18535Y55653D03*
G04 Draw part 2J6*
G01X18535Y61653D03*
G01X18535Y59653D03*
G04 Draw part 2J7*
G01X40874Y63496D03*
G01X40874Y65496D03*
G04 Draw part 2J8*
G01X40874Y59496D03*
G01X40874Y61496D03*
G04 Draw part 2J10*
G01X40874Y55496D03*
G01X40874Y57496D03*
G04 Draw part 2J12*
G01X40874Y51496D03*
G01X40874Y53496D03*
G04 Draw part 2J1*
G54D32*
G01X23354Y40051D03*
G01X24354Y40051D03*
G01X25354Y40051D03*
G01X26354Y40051D03*
G01X27354Y40051D03*
G01X27354Y41051D03*
G01X26354Y41051D03*
G01X25354Y41051D03*
G01X24354Y41051D03*
G01X23354Y41051D03*
G04 Draw part 2J15*
G54D31*
G01X18535Y45653D03*
G01X18535Y43653D03*
G04 Draw part 2J13*
G01X18535Y49653D03*
G01X18535Y47653D03*
G04 Draw part 2J16*
G01X40874Y43496D03*
G01X40874Y45496D03*
G04 Draw part 2J14*
G01X40874Y47496D03*
G01X40874Y49496D03*
G04 Draw part 2R4*
G04 Draw part 2J2*
G54D33*
G01X18897Y40551D03*
G04 Draw part 2J3*
G01X40551Y40551D03*
G04 Draw part 2J4*
G01X40551Y68110D03*
G04 Draw part 2J5*
G01X18897Y68110D03*
G04 Draw part 2Q1*
G04 Draw part 2U1*
G54D42*
G01X28248Y62129D03*
G01X28248Y61129D03*
G01X28248Y60129D03*
G01X28248Y59129D03*
G01X31248Y59129D03*
G01X31248Y60129D03*
G01X31248Y61129D03*
G01X31248Y62129D03*
G04 Draw part 2Q2*
G54D32*
G01X36220Y62338D03*
G01X36220Y61338D03*
G01X36220Y60338D03*
G04 Draw part 2Q3*
G54D42*
G01X33858Y61938D03*
G01X34458Y61338D03*
G01X33858Y60738D03*
G04 Draw part 2R10*
G04 Draw part 2R7*
G04 Draw part 2R8*
G04 Draw part 2R6*
G04 Draw part 2R9*
G04 Draw part 2Q4*
G04 Draw part 2U2*
G01X28248Y58129D03*
G01X28248Y57129D03*
G01X28248Y56129D03*
G01X28248Y55129D03*
G01X31248Y55129D03*
G01X31248Y56129D03*
G01X31248Y57129D03*
G01X31248Y58129D03*
G04 Draw part 2Q5*
G54D32*
G01X36220Y57929D03*
G01X36220Y56929D03*
G01X36220Y55929D03*
G04 Draw part 2Q6*
G54D42*
G01X33858Y57529D03*
G01X34458Y56929D03*
G01X33858Y56329D03*
G04 Draw part 2R15*
G04 Draw part 2R12*
G04 Draw part 2R13*
G04 Draw part 2R11*
G04 Draw part 2R14*
G04 Draw part 2Q7*
G04 Draw part 2U3*
G01X28248Y54129D03*
G01X28248Y53129D03*
G01X28248Y52129D03*
G01X28248Y51129D03*
G01X31248Y51129D03*
G01X31248Y52129D03*
G01X31248Y53129D03*
G01X31248Y54129D03*
G04 Draw part 2Q8*
G54D32*
G01X36220Y53519D03*
G01X36220Y52519D03*
G01X36220Y51519D03*
G04 Draw part 2Q9*
G54D42*
G01X33858Y53119D03*
G01X34458Y52519D03*
G01X33858Y51919D03*
G04 Draw part 2R20*
G04 Draw part 2R17*
G04 Draw part 2R18*
G04 Draw part 2R16*
G04 Draw part 2R19*
G04 Draw part 2Q10*
G04 Draw part 2U4*
G01X28248Y50129D03*
G01X28248Y49129D03*
G01X28248Y48129D03*
G01X28248Y47129D03*
G01X31248Y47129D03*
G01X31248Y48129D03*
G01X31248Y49129D03*
G01X31248Y50129D03*
G04 Draw part 2Q11*
G54D32*
G01X36220Y49110D03*
G01X36220Y48110D03*
G01X36220Y47110D03*
G04 Draw part 2Q12*
G54D42*
G01X33858Y48710D03*
G01X34458Y48110D03*
G01X33858Y47510D03*
G04 Draw part 2R25*
G04 Draw part 2R22*
G04 Draw part 2R23*
G04 Draw part 2R21*
G04 Draw part 2R24*
G04 Draw part 2Q13*
G04 Draw part 2U5*
G01X28248Y46129D03*
G01X28248Y45129D03*
G01X28248Y44129D03*
G01X28248Y43129D03*
G01X31248Y43129D03*
G01X31248Y44129D03*
G01X31248Y45129D03*
G01X31248Y46129D03*
G04 Draw part 2Q14*
G54D32*
G01X36220Y44700D03*
G01X36220Y43700D03*
G01X36220Y42700D03*
G04 Draw part 2Q15*
G54D42*
G01X33858Y44300D03*
G01X34458Y43700D03*
G01X33858Y43100D03*
G04 Draw part 9R1*
G04 Draw part 9J1*
G54D43*
G01X17519Y5314D03*
G04 Draw part 9J2*
G04 Draw part 9J3*
G04 Draw part 9J4*
G04 Draw part 9J5*
G04 Draw part 9J6*
G04 Draw part 9J7*
G04 Draw part 9J8*
G04 Draw part 9J9*
G04 Draw part 9J10*
G04 Draw part 9J11*
G04 Draw part 9J12*
G04 Draw part 9J14*
G04 Draw part 9J15*
G04 Draw part 9J16*
G04 Draw part 9J17*
G04 Draw part 9J18*
G04 Draw part 9J19*
G04 Draw part 9J20*
G04 Draw part 9J21*
G04 Draw part 9J22*
G04 Draw part 9J23*
G04 Draw part 9J24*
G04 Draw part 9J25*
G04 Draw part 9J26*
G04 Draw part 9J27*
G04 Draw part 9J28*
G04 Draw part 9J29*
G04 Draw part 9J30*
G04 Draw part 9J31*
G04 Draw part 9J32*
G04 Draw part 9J33*
G04 Draw part 9J34*
G04 Draw part 9J35*
G04 Draw part 9J36*
G04 Draw part 9J37*
G04 Draw part 9J38*
G04 Draw part 9J39*
G04 Draw part 9J40*
G04 Draw part 9J41*
G04 Draw part 9J42*
G04 Draw part 9J43*
G04 Draw part 9J44*
G04 Draw part 9J45*
G04 Draw part 9J46*
G04 Draw part 9J47*
G04 Draw part 9J48*
G04 Draw part 9J49*
G04 Draw part 9J50*
G04 Draw part 9J51*
G04 Draw part 9J52*
G04 Draw part 9J53*
G04 Draw part 10U3*
G04 Draw part 10C18*
G04 Draw part 10C19*
G04 Draw part 10C8*
G04 Draw part 10C9*
G04 Draw part 10C17*
G04 Draw part 10C16*
G04 Draw part 10C10*
G04 Draw part 10C11*
G04 Draw part 10C12*
G04 Draw part 10C13*
G04 Draw part 10C14*
G04 Draw part 10C15*
G04 Draw part 10C20*
G04 Draw part 10R2*
G04 Draw part 10C22*
G04 Draw part 10C21*
G04 Draw part 10R3*
G04 Draw part 10C24*
G04 Draw part 10C23*
G04 Draw part 10R1*
G04 Draw part 10C5*
G04 Draw part 10C4*
G04 Draw part 10J3*
G54D32*
G01X76877Y19354D03*
G01X76877Y20354D03*
G01X76877Y21354D03*
G01X76877Y22354D03*
G01X76877Y23354D03*
G01X76877Y24354D03*
G01X76877Y25354D03*
G01X76877Y26354D03*
G01X76877Y27354D03*
G01X76877Y28354D03*
G01X76877Y29354D03*
G01X76877Y30354D03*
G01X76877Y31354D03*
G01X75877Y31354D03*
G01X75877Y30354D03*
G01X75877Y29354D03*
G01X75877Y28354D03*
G01X75877Y27354D03*
G01X75877Y26354D03*
G01X75877Y25354D03*
G01X75877Y24354D03*
G01X75877Y23354D03*
G01X75877Y22354D03*
G01X75877Y21354D03*
G01X75877Y20354D03*
G01X75877Y19354D03*
G04 Draw part 10J4*
G01X59267Y35933D03*
G01X58267Y35933D03*
G01X57267Y35933D03*
G01X56267Y35933D03*
G01X55267Y35933D03*
G01X54267Y35933D03*
G01X53267Y35933D03*
G01X52267Y35933D03*
G01X51267Y35933D03*
G01X50267Y35933D03*
G01X49267Y35933D03*
G01X48267Y35933D03*
G01X47267Y35933D03*
G01X47267Y34933D03*
G01X48267Y34933D03*
G01X49267Y34933D03*
G01X50267Y34933D03*
G01X51267Y34933D03*
G01X52267Y34933D03*
G01X53267Y34933D03*
G01X54267Y34933D03*
G01X55267Y34933D03*
G01X56267Y34933D03*
G01X57267Y34933D03*
G01X58267Y34933D03*
G01X59267Y34933D03*
G04 Draw part 10J5*
G01X46283Y7374D03*
G01X47283Y7374D03*
G01X48283Y7374D03*
G01X49283Y7374D03*
G01X50283Y7374D03*
G01X51283Y7374D03*
G01X52283Y7374D03*
G01X53283Y7374D03*
G01X54283Y7374D03*
G01X55283Y7374D03*
G01X56283Y7374D03*
G01X57283Y7374D03*
G01X58283Y7374D03*
G01X58283Y8374D03*
G01X57283Y8374D03*
G01X56283Y8374D03*
G01X55283Y8374D03*
G01X54283Y8374D03*
G01X53283Y8374D03*
G01X52283Y8374D03*
G01X51283Y8374D03*
G01X50283Y8374D03*
G01X49283Y8374D03*
G01X48283Y8374D03*
G01X47283Y8374D03*
G01X46283Y8374D03*
G04 Draw part 10J6*
G01X40444Y25330D03*
G01X40444Y24330D03*
G01X40444Y23330D03*
G01X40444Y22330D03*
G01X40444Y21330D03*
G01X40444Y20330D03*
G01X40444Y19330D03*
G01X40444Y18330D03*
G01X40444Y17330D03*
G01X40444Y16330D03*
G01X40444Y15330D03*
G01X40444Y14330D03*
G01X40444Y13330D03*
G01X41444Y13330D03*
G01X41444Y14330D03*
G01X41444Y15330D03*
G01X41444Y16330D03*
G01X41444Y17330D03*
G01X41444Y18330D03*
G01X41444Y19330D03*
G01X41444Y20330D03*
G01X41444Y21330D03*
G01X41444Y22330D03*
G01X41444Y23330D03*
G01X41444Y24330D03*
G01X41444Y25330D03*
G04 Draw part 10C7*
G04 Draw part 10C6*
G04 Draw part 10J2*
G04 Draw part 10U2*
G04 Draw part 10C3*
G04 Draw part 10C1*
G04 Draw part 10U1*
G04 Draw part 10C2*
G04 Draw part 10J1*
G54D31*
G01X76692Y12385D03*
G01X76692Y14385D03*
G04 Draw part 10J7*
G54D33*
G01X76377Y7874D03*
G04 Draw part 10J8*
G01X76377Y35433D03*
G04 Draw part 10J9*
G01X40944Y7874D03*
G04 Draw part 10J10*
G01X40944Y35433D03*
G04 Draw part 3J11*
G04 Draw part 3J12*
G04 Draw part 3J13*
G04 Draw part 3J14*
G04 Draw part 3R13*
G04 Draw part 3R14*
G04 Draw part 3R15*
G04 Draw part 3R16*
G04 Draw part 3C12*
G04 Draw part 3C13*
G04 Draw part 3C14*
G04 Draw part 3R17*
G04 Draw part 3C15*
G04 Draw part 3C16*
G04 Draw part 3C17*
G04 Draw part 3C18*
G04 Draw part 3R18*
G04 Draw part 3R19*
G04 Draw part 3R20*
G04 Draw part 3R21*
G04 Draw part 3C19*
G04 Draw part 3R22*
G04 Draw part 3R23*
G04 Draw part 3R24*
G04 Draw part 3J15*
G01X68503Y2755D03*
G04 Draw part 3J16*
G01X76771Y2755D03*
G04 Draw part 3U3*
G04 Draw part 3U4*
G04 Draw part 3D4*
G04 Draw part 3J17*
G04 Draw part 3J18*
G04 Draw part 3J19*
G04 Draw part 3J20*
G04 Draw part 3R25*
G04 Draw part 3R26*
G04 Draw part 3R27*
G04 Draw part 3R28*
G04 Draw part 3C20*
G04 Draw part 3C21*
G04 Draw part 3C22*
G04 Draw part 3R29*
G04 Draw part 3C23*
G04 Draw part 3C24*
G04 Draw part 3C25*
G04 Draw part 3C26*
G04 Draw part 3R30*
G04 Draw part 3R31*
G04 Draw part 3R32*
G04 Draw part 3R33*
G04 Draw part 3C27*
G04 Draw part 3R34*
G04 Draw part 3R35*
G04 Draw part 3R36*
G04 Draw part 3J21*
G01X55905Y2755D03*
G04 Draw part 3J22*
G01X64173Y2755D03*
G04 Draw part 3U5*
G04 Draw part 3U6*
G04 Draw part 3D5*
G04 Draw part 3J23*
G04 Draw part 3J24*
G04 Draw part 3J25*
G04 Draw part 3J26*
G04 Draw part 3R37*
G04 Draw part 3R38*
G04 Draw part 3R39*
G04 Draw part 3R40*
G04 Draw part 3C28*
G04 Draw part 3C29*
G04 Draw part 3C30*
G04 Draw part 3R41*
G04 Draw part 3C31*
G04 Draw part 3C32*
G04 Draw part 3C33*
G04 Draw part 3C34*
G04 Draw part 3R42*
G04 Draw part 3R43*
G04 Draw part 3R44*
G04 Draw part 3R45*
G04 Draw part 3C35*
G04 Draw part 3R46*
G04 Draw part 3R47*
G04 Draw part 3R48*
G04 Draw part 3J27*
G01X40551Y2755D03*
G04 Draw part 3J28*
G01X48818Y2755D03*
G04 Draw part 3U7*
G04 Draw part 3U8*
G04 Draw part 3D6*
G04 Draw part 9J54*
G04 Draw part 9R2*
G04 Draw part 9J55*
G54D43*
G01X32874Y22244D03*
G04 Draw part 9J56*
G04 Draw part 9J57*
G04 Draw part 9J58*
G04 Draw part 9J59*
G04 Draw part 9J60*
G04 Draw part 9J61*
G04 Draw part 9J62*
G04 Draw part 9J63*
G04 Draw part 9J64*
G04 Draw part 9J65*
G04 Draw part 9J66*
G04 Draw part 9J67*
G04 Draw part 9J68*
G04 Draw part 9J69*
G04 Draw part 9J70*
G04 Draw part 9J71*
G04 Draw part 9J72*
G04 Draw part 9J73*
G04 Draw part 9J74*
G04 Draw part 9J75*
G04 Draw part 9J76*
G04 Draw part 9J77*
G04 Draw part 9J78*
G04 Draw part 9J79*
G04 Draw part 9J80*
G04 Draw part 9J81*
G04 Draw part 9J82*
G04 Draw part 9J83*
G04 Draw part 9J84*
G04 Draw part 9J85*
G04 Draw part 9J86*
G04 Draw part 9J87*
G04 Draw part 9J88*
G04 Draw part 9J89*
G04 Draw part 9J90*
G04 Draw part 9J91*
G04 Draw part 9J92*
G04 Draw part 9J93*
G04 Draw part 9J94*
G04 Draw part 9J95*
G04 Draw part 9J96*
G04 Draw part 9J97*
G04 Draw part 9J98*
G04 Draw part 9J99*
G04 Draw part 9J100*
G04 Draw part 9J101*
G04 Draw part 9J102*
G04 Draw part 9J103*
G04 Draw part 9J104*
G04 Draw part 9J105*
G04 Draw part 9J106*
G04 Draw part 9J107*
G04 Draw part 9R3*
G04 Draw part 9J108*
G01X25393Y13582D03*
G04 Draw part 9J109*
G04 Draw part 9J110*
G04 Draw part 9J111*
G04 Draw part 9J112*
G04 Draw part 9J113*
G04 Draw part 9J114*
G04 Draw part 9J115*
G04 Draw part 9J116*
G04 Draw part 9J117*
G04 Draw part 9J118*
G04 Draw part 9J119*
G04 Draw part 9J120*
G04 Draw part 9J121*
G04 Draw part 9J122*
G04 Draw part 9J123*
G04 Draw part 9J124*
G04 Draw part 9J125*
G04 Draw part 9J126*
G04 Draw part 9J127*
G04 Draw part 9J128*
G04 Draw part 9J129*
G04 Draw part 9J130*
G04 Draw part 9J131*
G04 Draw part 9J132*
G04 Draw part 9J133*
G04 Draw part 9J134*
G04 Draw part 9J135*
G04 Draw part 9J136*
G04 Draw part 9J137*
G04 Draw part 9J138*
G04 Draw part 9J139*
G04 Draw part 9J140*
G04 Draw part 9J141*
G04 Draw part 9J142*
G04 Draw part 9J143*
G04 Draw part 9J144*
G04 Draw part 9J145*
G04 Draw part 9J146*
G04 Draw part 9J147*
G04 Draw part 9J148*
G04 Draw part 9J149*
G04 Draw part 9J150*
G04 Draw part 9J151*
G04 Draw part 9J152*
G04 Draw part 9J153*
G04 Draw part 9J154*
G04 Draw part 9J155*
G04 Draw part 9J156*
G04 Draw part 9J157*
G04 Draw part 9J158*
G04 Draw part 9J159*
G04 Draw part 9J160*
G04 Draw part 9R4*
G04 Draw part 9J161*
G01X32874Y5314D03*
G04 Draw part 9J162*
G04 Draw part 9J163*
G04 Draw part 9J164*
G04 Draw part 9J165*
G04 Draw part 9J166*
G04 Draw part 9J167*
G04 Draw part 9J168*
G04 Draw part 9J169*
G04 Draw part 9J170*
G04 Draw part 9J171*
G04 Draw part 9J172*
G04 Draw part 9J173*
G04 Draw part 9J174*
G04 Draw part 9J175*
G04 Draw part 9J176*
G04 Draw part 9J177*
G04 Draw part 9J178*
G04 Draw part 9J179*
G04 Draw part 9J180*
G04 Draw part 9J181*
G04 Draw part 9J182*
G04 Draw part 9J183*
G04 Draw part 9J184*
G04 Draw part 9J185*
G04 Draw part 9J186*
G04 Draw part 9J187*
G04 Draw part 9J188*
G04 Draw part 9J189*
G04 Draw part 9J190*
G04 Draw part 9J191*
G04 Draw part 9J192*
G04 Draw part 9J193*
G04 Draw part 9J194*
G04 Draw part 9J195*
G04 Draw part 9J196*
G04 Draw part 9J197*
G04 Draw part 9J198*
G04 Draw part 9J199*
G04 Draw part 9J200*
G04 Draw part 9J201*
G04 Draw part 9J202*
G04 Draw part 9J203*
G04 Draw part 9J204*
G04 Draw part 9J205*
G04 Draw part 9J206*
G04 Draw part 9J207*
G04 Draw part 9J208*
G04 Draw part 9J209*
G04 Draw part 9J210*
G04 Draw part 9J211*
G04 Draw part 9J212*
G04 Draw part 9J213*
G04 Draw part 9R5*
G04 Draw part 9J214*
G01X26181Y31692D03*
G04 Draw part 9J215*
G04 Draw part 9J216*
G04 Draw part 9J217*
G04 Draw part 9J218*
G04 Draw part 9J219*
G04 Draw part 9J220*
G04 Draw part 9J221*
G04 Draw part 9J222*
G04 Draw part 9J223*
G04 Draw part 9J224*
G04 Draw part 9J225*
G04 Draw part 9J226*
G04 Draw part 9J227*
G04 Draw part 9J228*
G04 Draw part 9J229*
G04 Draw part 9J230*
G04 Draw part 9J231*
G04 Draw part 9J232*
G04 Draw part 9J233*
G04 Draw part 9J234*
G04 Draw part 9J235*
G04 Draw part 9J236*
G04 Draw part 9J237*
G04 Draw part 9J238*
G04 Draw part 9J239*
G04 Draw part 9J240*
G04 Draw part 9J241*
G04 Draw part 9J242*
G04 Draw part 9J243*
G04 Draw part 9J244*
G04 Draw part 9J245*
G04 Draw part 9J246*
G04 Draw part 9J247*
G04 Draw part 9J248*
G04 Draw part 9J249*
G04 Draw part 9J250*
G04 Draw part 9J251*
G04 Draw part 9J252*
G04 Draw part 9J253*
G04 Draw part 9J254*
G04 Draw part 9J255*
G04 Draw part 9J256*
G04 Draw part 9J257*
G04 Draw part 9J258*
G04 Draw part 9J259*
G04 Draw part 9J260*
G04 Draw part 9J261*
G04 Draw part 9J262*
G04 Draw part 9J263*
G04 Draw part 9J264*
G04 Draw part 9J265*

G04 Draw traces*
G54D42*
G01X72086Y14645D03*
G54D44*
G01X72047Y11968D03*
G01X59842Y18897D03*
G01X58976Y18897D03*
G01X55511Y23346D03*
G01X63385Y23149D03*
G01X59448Y26614D03*
G01X74330Y1889D03*
G01X71259Y1574D03*
G01X71850Y2283D03*
G01X70314Y4133D03*
G01X61732Y1889D03*
G01X58661Y1574D03*
G01X59251Y2283D03*
G01X57716Y4133D03*
G01X12677Y27952D03*
G01X12047Y30944D03*
G01X12047Y25039D03*
G01X11220Y20000D03*
G01X46377Y1889D03*
G01X43307Y1574D03*
G01X43897Y2283D03*
G01X42362Y4133D03*
G01X95196Y67874D03*
G54D45*
G01X95196Y67874D02*
G01X95984Y67874D01*
G54D44*
G01X95984Y67874D03*
G01X56614Y50511D03*
G01X57480Y52677D03*
G01X57755Y51299D03*
G01X55590Y50629D03*
G01X57755Y50866D03*
G01X56614Y50511D03*
G01X57874Y52677D03*
G01X56377Y52637D03*
G01X50787Y62283D03*
G01X44685Y61574D03*
G01X53622Y59291D03*
G01X57559Y59212D03*
G01X35629Y19488D03*
G01X30118Y19488D03*
G01X32559Y26377D03*
G01X32559Y26377D03*
G01X35629Y25000D03*
G01X30118Y25000D03*
G01X29566Y25551D03*
G01X29566Y18937D03*
G01X36181Y25551D03*
G01X36181Y18937D03*
G01X20275Y2559D03*
G01X14763Y2559D03*
G01X17204Y9448D03*
G01X17204Y9448D03*
G01X20275Y8070D03*
G01X14763Y8070D03*
G01X14212Y8622D03*
G01X14212Y2007D03*
G01X20826Y8622D03*
G01X20826Y2007D03*
G01X28149Y10826D03*
G01X22637Y10826D03*
G01X25078Y17716D03*
G01X25078Y17716D03*
G01X28149Y16338D03*
G01X22637Y16338D03*
G01X22086Y16889D03*
G01X22086Y10275D03*
G01X28700Y16889D03*
G01X28700Y10275D03*
G01X73543Y2519D03*
G54D45*
G01X73543Y2519D02*
G01X74330Y2519D01*
G54D44*
G01X74330Y2519D03*
G01X26535Y49133D03*
G01X26535Y53149D03*
G01X26535Y57165D03*
G01X26535Y61102D03*
G01X26535Y45118D03*
G01X35629Y2559D03*
G01X30118Y2559D03*
G01X32559Y9448D03*
G01X32559Y9448D03*
G01X35629Y8070D03*
G01X30118Y8070D03*
G01X29566Y8622D03*
G01X29566Y2007D03*
G01X36181Y8622D03*
G01X36181Y2007D03*
G01X60944Y2519D03*
G54D45*
G01X60944Y2519D02*
G01X61732Y2519D01*
G54D44*
G01X61732Y2519D03*
G01X28937Y28937D03*
G01X23425Y28937D03*
G01X25866Y35826D03*
G01X25866Y35826D03*
G01X28937Y34448D03*
G01X23425Y34448D03*
G01X22874Y35000D03*
G01X22874Y28385D03*
G01X29488Y35000D03*
G01X29488Y28385D03*
G01X45590Y2519D03*
G54D45*
G01X45590Y2519D02*
G01X46377Y2519D01*
G54D44*
G01X46377Y2519D03*
G01X7165Y9606D03*
G01X7165Y9606D03*
G01X8425Y48267D03*
G01X8425Y48267D03*
G01X14685Y49212D03*
G01X7283Y47244D03*
G01X95984Y67244D03*
G01X92913Y66929D03*
G01X93503Y67637D03*
G01X91968Y69488D03*
G01X94724Y63503D03*
G01X94724Y48543D03*
G01X94724Y31220D03*
G01X94724Y16259D03*
G01X81968Y37086D03*
G01X91574Y60787D03*
G01X91574Y64488D03*
G01X94724Y64566D03*
G01X91574Y49527D03*
G01X91574Y45826D03*
G01X94724Y49606D03*
G01X91574Y32204D03*
G01X91574Y28503D03*
G01X94724Y32283D03*
G01X91574Y13543D03*
G01X91574Y17244D03*
G01X94724Y17322D03*
G54D42*
G01X62322Y19960D03*
G54D44*
G01X58582Y25275D03*
G01X60472Y20393D03*
G01X57007Y24645D03*
G01X57007Y21181D03*
G01X61023Y25275D03*
G01X61889Y23779D03*
G01X61889Y20944D03*
G01X61141Y20393D03*

G04 Draw Text*
M00*
M02*
