G04 FreePCB version 1.354*
G04 C:\JPT\Projects\07\0701 - PhD\FreePCB\CrySys2\CAM\board_outline.grb*
G04 board outline layer *
G04 Scale: 100 percent, Rotated: No, Reflected: No *
%FSLAX24Y24*%
%MOIN*%
%LN board outline *%
G04 Rounded Rectangle Macro, params: W/2, H/2, R *
%AMRNDREC*
21,1,$1+$1,$2+$2-$3-$3,0,0,0*
21,1,$1+$1-$3-$3,$2+$2,0,0,0*
1,1,$3+$3,$1-$3,$2-$3*
1,1,$3+$3,$3-$1,$2-$3*
1,1,$3+$3,$1-$3,$3-$2*
1,1,$3+$3,$3-$1,$3-$2*%
G04 Rectangular Thermal Macro, params: W/2, H/2, T/2 *
%AMRECTHERM*
$4=$3/2*
21,1,$1-$3,$2-$3,0-$1/2-$4,0-$2/2-$4,0*
21,1,$1-$3,$2-$3,0-$1/2-$4,$2/2+$4,0*
21,1,$1-$3,$2-$3,$1/2+$4,0-$2/2-$4,0*
21,1,$1-$3,$2-$3,$1/2+$4,$2/2+$4,0*%
%ADD10C,0.005000*%
G90*
G70D02*

G04 Step and Repeat for panelization *

G04 ----------------------- Draw board outline (positive)*
%LPD*%
G54D10*
G01X56299Y1771D02*
G01X56300Y1731D01*
G01X56304Y1691D01*
G01X56311Y1651D01*
G01X56321Y1612D01*
G01X56333Y1573D01*
G01X56348Y1536D01*
G01X56365Y1499D01*
G01X56385Y1464D01*
G01X56407Y1431D01*
G01X56431Y1398D01*
G01X56458Y1368D01*
G01X56486Y1340D01*
G01X56517Y1313D01*
G01X56549Y1289D01*
G01X56582Y1267D01*
G01X56618Y1247D01*
G01X56654Y1229D01*
G01X56692Y1215D01*
G01X56730Y1203D01*
G01X56769Y1193D01*
G01X56809Y1186D01*
G01X56849Y1182D01*
G01X56889Y1181D01*
G04 end of side 1*
G01X63582Y1181D01*
G04 end of side 2*
G01X63622Y1182D01*
G01X63663Y1186D01*
G01X63702Y1193D01*
G01X63742Y1203D01*
G01X63780Y1215D01*
G01X63817Y1229D01*
G01X63854Y1247D01*
G01X63889Y1267D01*
G01X63923Y1289D01*
G01X63955Y1313D01*
G01X63985Y1340D01*
G01X64014Y1368D01*
G01X64040Y1398D01*
G01X64065Y1431D01*
G01X64087Y1464D01*
G01X64107Y1499D01*
G01X64124Y1536D01*
G01X64139Y1573D01*
G01X64151Y1612D01*
G01X64160Y1651D01*
G01X64167Y1691D01*
G01X64171Y1731D01*
G01X64173Y1771D01*
G04 end of side 3*
G01X64173Y9055D01*
G04 end of side 4*
G01X64171Y9095D01*
G01X64167Y9135D01*
G01X64160Y9175D01*
G01X64151Y9214D01*
G01X64139Y9252D01*
G01X64124Y9290D01*
G01X64107Y9326D01*
G01X64087Y9361D01*
G01X64065Y9395D01*
G01X64040Y9427D01*
G01X64014Y9458D01*
G01X63985Y9486D01*
G01X63955Y9513D01*
G01X63923Y9537D01*
G01X63889Y9559D01*
G01X63854Y9579D01*
G01X63817Y9596D01*
G01X63780Y9611D01*
G01X63742Y9623D01*
G01X63702Y9633D01*
G01X63663Y9640D01*
G01X63622Y9644D01*
G01X63582Y9645D01*
G04 end of side 5*
G01X61811Y9645D01*
G04 end of side 6*
G01X61770Y9647D01*
G01X61730Y9651D01*
G01X61690Y9658D01*
G01X61651Y9667D01*
G01X61613Y9679D01*
G01X61575Y9694D01*
G01X61539Y9711D01*
G01X61504Y9731D01*
G01X61470Y9753D01*
G01X61438Y9778D01*
G01X61407Y9804D01*
G01X61379Y9833D01*
G01X61352Y9863D01*
G01X61328Y9895D01*
G01X61306Y9929D01*
G01X61286Y9964D01*
G01X61269Y10000D01*
G01X61254Y10038D01*
G01X61242Y10076D01*
G01X61232Y10116D01*
G01X61225Y10155D01*
G01X61221Y10195D01*
G01X61220Y10236D01*
G04 end of side 7*
G01X61220Y11417D01*
G04 end of side 8*
G01X61221Y11457D01*
G01X61225Y11497D01*
G01X61232Y11537D01*
G01X61242Y11576D01*
G01X61254Y11615D01*
G01X61269Y11652D01*
G01X61286Y11689D01*
G01X61306Y11724D01*
G01X61328Y11757D01*
G01X61352Y11790D01*
G01X61379Y11820D01*
G01X61407Y11848D01*
G01X61438Y11875D01*
G01X61470Y11899D01*
G01X61504Y11921D01*
G01X61539Y11941D01*
G01X61575Y11958D01*
G01X61613Y11973D01*
G01X61651Y11985D01*
G01X61690Y11995D01*
G01X61730Y12002D01*
G01X61770Y12006D01*
G01X61811Y12007D01*
G04 end of side 9*
G01X66141Y12007D01*
G04 end of side 10*
G01X66141Y17716D01*
G04 end of side 11*
G01X54330Y17716D01*
G04 end of side 12*
G01X54330Y12007D01*
G04 end of side 13*
G01X58661Y12007D01*
G04 end of side 14*
G01X58701Y12006D01*
G01X58741Y12002D01*
G01X58781Y11995D01*
G01X58820Y11985D01*
G01X58859Y11973D01*
G01X58896Y11958D01*
G01X58933Y11941D01*
G01X58968Y11921D01*
G01X59001Y11899D01*
G01X59034Y11875D01*
G01X59064Y11848D01*
G01X59093Y11820D01*
G01X59119Y11790D01*
G01X59143Y11757D01*
G01X59165Y11724D01*
G01X59185Y11689D01*
G01X59203Y11652D01*
G01X59217Y11615D01*
G01X59230Y11576D01*
G01X59239Y11537D01*
G01X59246Y11497D01*
G01X59250Y11457D01*
G01X59251Y11417D01*
G04 end of side 15*
G01X59251Y10236D01*
G04 end of side 16*
G01X59250Y10195D01*
G01X59246Y10155D01*
G01X59239Y10116D01*
G01X59230Y10076D01*
G01X59217Y10038D01*
G01X59203Y10000D01*
G01X59185Y9964D01*
G01X59165Y9929D01*
G01X59143Y9895D01*
G01X59119Y9863D01*
G01X59093Y9833D01*
G01X59064Y9804D01*
G01X59034Y9778D01*
G01X59001Y9753D01*
G01X58968Y9731D01*
G01X58933Y9711D01*
G01X58896Y9694D01*
G01X58859Y9679D01*
G01X58820Y9667D01*
G01X58781Y9658D01*
G01X58741Y9651D01*
G01X58701Y9647D01*
G01X58661Y9645D01*
G04 end of side 17*
G01X56889Y9645D01*
G04 end of side 18*
G01X56849Y9644D01*
G01X56809Y9640D01*
G01X56769Y9633D01*
G01X56730Y9623D01*
G01X56692Y9611D01*
G01X56654Y9596D01*
G01X56618Y9579D01*
G01X56582Y9559D01*
G01X56549Y9537D01*
G01X56517Y9513D01*
G01X56486Y9486D01*
G01X56458Y9458D01*
G01X56431Y9427D01*
G01X56407Y9395D01*
G01X56385Y9361D01*
G01X56365Y9326D01*
G01X56348Y9290D01*
G01X56333Y9252D01*
G01X56321Y9214D01*
G01X56311Y9175D01*
G01X56304Y9135D01*
G01X56300Y9095D01*
G01X56299Y9055D01*
G04 end of side 19*
G01X56299Y1771D01*
G01X12598Y18503D02*
G01X1181Y18503D01*
G04 end of side 1*
G01X1181Y28149D01*
G04 end of side 2*
G01X12598Y28149D01*
G04 end of side 3*
G01X12598Y18503D01*
G01X50787Y33858D02*
G01X50787Y50393D01*
G04 end of side 1*
G01X13779Y50393D01*
G04 end of side 2*
G01X13779Y33858D01*
G04 end of side 3*
G01X50787Y33858D01*
G01X1181Y17322D02*
G01X1181Y1181D01*
G04 end of side 1*
G01X12598Y1181D01*
G04 end of side 2*
G01X12598Y17322D01*
G04 end of side 3*
G01X1181Y17322D01*
G01X13779Y1181D02*
G01X13779Y32677D01*
G04 end of side 1*
G01X53149Y32677D01*
G04 end of side 2*
G01X53149Y1181D01*
G04 end of side 3*
G01X13779Y1181D01*
G01X12598Y29330D02*
G01X1181Y29330D01*
G04 end of side 1*
G01X1181Y38976D01*
G04 end of side 2*
G01X12598Y38976D01*
G04 end of side 3*
G01X12598Y29330D01*
G01X12598Y40157D02*
G01X1181Y40157D01*
G04 end of side 1*
G01X1181Y49803D01*
G04 end of side 2*
G01X12598Y49803D01*
G04 end of side 3*
G01X12598Y40157D01*
G01X56299Y19488D02*
G01X56300Y19447D01*
G01X56304Y19407D01*
G01X56311Y19368D01*
G01X56321Y19328D01*
G01X56333Y19290D01*
G01X56348Y19252D01*
G01X56365Y19216D01*
G01X56385Y19181D01*
G01X56407Y19147D01*
G01X56431Y19115D01*
G01X56458Y19085D01*
G01X56486Y19056D01*
G01X56517Y19030D01*
G01X56549Y19005D01*
G01X56582Y18983D01*
G01X56618Y18963D01*
G01X56654Y18946D01*
G01X56692Y18931D01*
G01X56730Y18919D01*
G01X56769Y18909D01*
G01X56809Y18903D01*
G01X56849Y18899D01*
G01X56889Y18897D01*
G04 end of side 1*
G01X63582Y18897D01*
G04 end of side 2*
G01X63622Y18899D01*
G01X63663Y18903D01*
G01X63702Y18909D01*
G01X63742Y18919D01*
G01X63780Y18931D01*
G01X63817Y18946D01*
G01X63854Y18963D01*
G01X63889Y18983D01*
G01X63923Y19005D01*
G01X63955Y19030D01*
G01X63985Y19056D01*
G01X64014Y19085D01*
G01X64040Y19115D01*
G01X64065Y19147D01*
G01X64087Y19181D01*
G01X64107Y19216D01*
G01X64124Y19252D01*
G01X64139Y19290D01*
G01X64151Y19328D01*
G01X64160Y19368D01*
G01X64167Y19407D01*
G01X64171Y19447D01*
G01X64173Y19488D01*
G04 end of side 3*
G01X64173Y26771D01*
G04 end of side 4*
G01X64171Y26811D01*
G01X64167Y26852D01*
G01X64160Y26891D01*
G01X64151Y26930D01*
G01X64139Y26969D01*
G01X64124Y27006D01*
G01X64107Y27043D01*
G01X64087Y27078D01*
G01X64065Y27112D01*
G01X64040Y27144D01*
G01X64014Y27174D01*
G01X63985Y27203D01*
G01X63955Y27229D01*
G01X63923Y27254D01*
G01X63889Y27276D01*
G01X63854Y27295D01*
G01X63817Y27313D01*
G01X63780Y27328D01*
G01X63742Y27340D01*
G01X63702Y27349D01*
G01X63663Y27356D01*
G01X63622Y27360D01*
G01X63582Y27362D01*
G04 end of side 5*
G01X61811Y27362D01*
G04 end of side 6*
G01X61770Y27363D01*
G01X61730Y27367D01*
G01X61690Y27374D01*
G01X61651Y27384D01*
G01X61613Y27396D01*
G01X61575Y27411D01*
G01X61539Y27428D01*
G01X61504Y27448D01*
G01X61470Y27470D01*
G01X61438Y27494D01*
G01X61407Y27521D01*
G01X61379Y27549D01*
G01X61352Y27580D01*
G01X61328Y27612D01*
G01X61306Y27645D01*
G01X61286Y27681D01*
G01X61269Y27717D01*
G01X61254Y27754D01*
G01X61242Y27793D01*
G01X61232Y27832D01*
G01X61225Y27872D01*
G01X61221Y27912D01*
G01X61220Y27952D01*
G04 end of side 7*
G01X61220Y29133D01*
G04 end of side 8*
G01X61221Y29174D01*
G01X61225Y29214D01*
G01X61232Y29254D01*
G01X61242Y29293D01*
G01X61254Y29331D01*
G01X61269Y29369D01*
G01X61286Y29405D01*
G01X61306Y29440D01*
G01X61328Y29474D01*
G01X61352Y29506D01*
G01X61379Y29536D01*
G01X61407Y29565D01*
G01X61438Y29591D01*
G01X61470Y29616D01*
G01X61504Y29638D01*
G01X61539Y29658D01*
G01X61575Y29675D01*
G01X61613Y29690D01*
G01X61651Y29702D01*
G01X61690Y29712D01*
G01X61730Y29718D01*
G01X61770Y29723D01*
G01X61811Y29724D01*
G04 end of side 9*
G01X66141Y29724D01*
G04 end of side 10*
G01X66141Y35433D01*
G04 end of side 11*
G01X54330Y35433D01*
G04 end of side 12*
G01X54330Y29724D01*
G04 end of side 13*
G01X58661Y29724D01*
G04 end of side 14*
G01X58701Y29723D01*
G01X58741Y29718D01*
G01X58781Y29712D01*
G01X58820Y29702D01*
G01X58859Y29690D01*
G01X58896Y29675D01*
G01X58933Y29658D01*
G01X58968Y29638D01*
G01X59001Y29616D01*
G01X59034Y29591D01*
G01X59064Y29565D01*
G01X59093Y29536D01*
G01X59119Y29506D01*
G01X59143Y29474D01*
G01X59165Y29440D01*
G01X59185Y29405D01*
G01X59203Y29369D01*
G01X59217Y29331D01*
G01X59230Y29293D01*
G01X59239Y29254D01*
G01X59246Y29214D01*
G01X59250Y29174D01*
G01X59251Y29133D01*
G04 end of side 15*
G01X59251Y27952D01*
G04 end of side 16*
G01X59250Y27912D01*
G01X59246Y27872D01*
G01X59239Y27832D01*
G01X59230Y27793D01*
G01X59217Y27754D01*
G01X59203Y27717D01*
G01X59185Y27681D01*
G01X59165Y27645D01*
G01X59143Y27612D01*
G01X59119Y27580D01*
G01X59093Y27549D01*
G01X59064Y27521D01*
G01X59034Y27494D01*
G01X59001Y27470D01*
G01X58968Y27448D01*
G01X58933Y27428D01*
G01X58896Y27411D01*
G01X58859Y27396D01*
G01X58820Y27384D01*
G01X58781Y27374D01*
G01X58741Y27367D01*
G01X58701Y27363D01*
G01X58661Y27362D01*
G04 end of side 17*
G01X56889Y27362D01*
G04 end of side 18*
G01X56849Y27360D01*
G01X56809Y27356D01*
G01X56769Y27349D01*
G01X56730Y27340D01*
G01X56692Y27328D01*
G01X56654Y27313D01*
G01X56618Y27295D01*
G01X56582Y27276D01*
G01X56549Y27254D01*
G01X56517Y27229D01*
G01X56486Y27203D01*
G01X56458Y27174D01*
G01X56431Y27144D01*
G01X56407Y27112D01*
G01X56385Y27078D01*
G01X56365Y27043D01*
G01X56348Y27006D01*
G01X56333Y26969D01*
G01X56321Y26930D01*
G01X56311Y26891D01*
G01X56304Y26852D01*
G01X56300Y26811D01*
G01X56299Y26771D01*
G04 end of side 19*
G01X56299Y19488D01*
G01X56299Y37204D02*
G01X56300Y37164D01*
G01X56304Y37124D01*
G01X56311Y37084D01*
G01X56321Y37045D01*
G01X56333Y37006D01*
G01X56348Y36969D01*
G01X56365Y36933D01*
G01X56385Y36897D01*
G01X56407Y36864D01*
G01X56431Y36832D01*
G01X56458Y36801D01*
G01X56486Y36773D01*
G01X56517Y36746D01*
G01X56549Y36722D01*
G01X56582Y36700D01*
G01X56618Y36680D01*
G01X56654Y36663D01*
G01X56692Y36648D01*
G01X56730Y36636D01*
G01X56769Y36626D01*
G01X56809Y36619D01*
G01X56849Y36615D01*
G01X56889Y36614D01*
G04 end of side 1*
G01X63582Y36614D01*
G04 end of side 2*
G01X63622Y36615D01*
G01X63663Y36619D01*
G01X63702Y36626D01*
G01X63742Y36636D01*
G01X63780Y36648D01*
G01X63817Y36663D01*
G01X63854Y36680D01*
G01X63889Y36700D01*
G01X63923Y36722D01*
G01X63955Y36746D01*
G01X63985Y36773D01*
G01X64014Y36801D01*
G01X64040Y36832D01*
G01X64065Y36864D01*
G01X64087Y36897D01*
G01X64107Y36933D01*
G01X64124Y36969D01*
G01X64139Y37006D01*
G01X64151Y37045D01*
G01X64160Y37084D01*
G01X64167Y37124D01*
G01X64171Y37164D01*
G01X64173Y37204D01*
G04 end of side 3*
G01X64173Y44488D01*
G04 end of side 4*
G01X64171Y44528D01*
G01X64167Y44568D01*
G01X64160Y44608D01*
G01X64151Y44647D01*
G01X64139Y44685D01*
G01X64124Y44723D01*
G01X64107Y44759D01*
G01X64087Y44795D01*
G01X64065Y44828D01*
G01X64040Y44860D01*
G01X64014Y44891D01*
G01X63985Y44919D01*
G01X63955Y44946D01*
G01X63923Y44970D01*
G01X63889Y44992D01*
G01X63854Y45012D01*
G01X63817Y45029D01*
G01X63780Y45044D01*
G01X63742Y45056D01*
G01X63702Y45066D01*
G01X63663Y45073D01*
G01X63622Y45077D01*
G01X63582Y45078D01*
G04 end of side 5*
G01X61811Y45078D01*
G04 end of side 6*
G01X61770Y45080D01*
G01X61730Y45084D01*
G01X61690Y45091D01*
G01X61651Y45100D01*
G01X61613Y45112D01*
G01X61575Y45127D01*
G01X61539Y45144D01*
G01X61504Y45164D01*
G01X61470Y45186D01*
G01X61438Y45211D01*
G01X61407Y45237D01*
G01X61379Y45266D01*
G01X61352Y45296D01*
G01X61328Y45328D01*
G01X61306Y45362D01*
G01X61286Y45397D01*
G01X61269Y45434D01*
G01X61254Y45471D01*
G01X61242Y45509D01*
G01X61232Y45549D01*
G01X61225Y45588D01*
G01X61221Y45628D01*
G01X61220Y45669D01*
G04 end of side 7*
G01X61220Y46850D01*
G04 end of side 8*
G01X61221Y46890D01*
G01X61225Y46930D01*
G01X61232Y46970D01*
G01X61242Y47009D01*
G01X61254Y47048D01*
G01X61269Y47085D01*
G01X61286Y47122D01*
G01X61306Y47157D01*
G01X61328Y47190D01*
G01X61352Y47223D01*
G01X61379Y47253D01*
G01X61407Y47281D01*
G01X61438Y47308D01*
G01X61470Y47332D01*
G01X61504Y47354D01*
G01X61539Y47374D01*
G01X61575Y47392D01*
G01X61613Y47406D01*
G01X61651Y47419D01*
G01X61690Y47428D01*
G01X61730Y47435D01*
G01X61770Y47439D01*
G01X61811Y47440D01*
G04 end of side 9*
G01X66141Y47440D01*
G04 end of side 10*
G01X66141Y53149D01*
G04 end of side 11*
G01X54330Y53149D01*
G04 end of side 12*
G01X54330Y47440D01*
G04 end of side 13*
G01X58661Y47440D01*
G04 end of side 14*
G01X58701Y47439D01*
G01X58741Y47435D01*
G01X58781Y47428D01*
G01X58820Y47419D01*
G01X58859Y47406D01*
G01X58896Y47392D01*
G01X58933Y47374D01*
G01X58968Y47354D01*
G01X59001Y47332D01*
G01X59034Y47308D01*
G01X59064Y47281D01*
G01X59093Y47253D01*
G01X59119Y47223D01*
G01X59143Y47190D01*
G01X59165Y47157D01*
G01X59185Y47122D01*
G01X59203Y47085D01*
G01X59217Y47048D01*
G01X59230Y47009D01*
G01X59239Y46970D01*
G01X59246Y46930D01*
G01X59250Y46890D01*
G01X59251Y46850D01*
G04 end of side 15*
G01X59251Y45669D01*
G04 end of side 16*
G01X59250Y45628D01*
G01X59246Y45588D01*
G01X59239Y45549D01*
G01X59230Y45509D01*
G01X59217Y45471D01*
G01X59203Y45434D01*
G01X59185Y45397D01*
G01X59165Y45362D01*
G01X59143Y45328D01*
G01X59119Y45296D01*
G01X59093Y45266D01*
G01X59064Y45237D01*
G01X59034Y45211D01*
G01X59001Y45186D01*
G01X58968Y45164D01*
G01X58933Y45144D01*
G01X58896Y45127D01*
G01X58859Y45112D01*
G01X58820Y45100D01*
G01X58781Y45091D01*
G01X58741Y45084D01*
G01X58701Y45080D01*
G01X58661Y45078D01*
G04 end of side 17*
G01X56889Y45078D01*
G04 end of side 18*
G01X56849Y45077D01*
G01X56809Y45073D01*
G01X56769Y45066D01*
G01X56730Y45056D01*
G01X56692Y45044D01*
G01X56654Y45029D01*
G01X56618Y45012D01*
G01X56582Y44992D01*
G01X56549Y44970D01*
G01X56517Y44946D01*
G01X56486Y44919D01*
G01X56458Y44891D01*
G01X56431Y44860D01*
G01X56407Y44828D01*
G01X56385Y44795D01*
G01X56365Y44759D01*
G01X56348Y44723D01*
G01X56333Y44685D01*
G01X56321Y44647D01*
G01X56311Y44608D01*
G01X56304Y44568D01*
G01X56300Y44528D01*
G01X56299Y44488D01*
G04 end of side 19*
G01X56299Y37204D01*
G01X25984Y55118D02*
G01X42913Y55118D01*
G04 end of side 1*
G01X42913Y71653D01*
G04 end of side 2*
G01X25984Y71653D01*
G04 end of side 3*
G01X25984Y55118D01*
G01X1181Y71653D02*
G01X1181Y51574D01*
G04 end of side 1*
G01X1181Y51574D01*
G04 end of side 2*
G01X24803Y51574D01*
G04 end of side 3*
G01X24803Y51968D01*
G04 end of side 4*
G01X24803Y51968D01*
G04 end of side 5*
G01X24803Y71653D01*
G04 end of side 6*
G01X1181Y71653D01*
G01X44094Y55118D02*
G01X44094Y71653D01*
G04 end of side 1*
G01X66929Y71653D01*
G04 end of side 2*
G01X66929Y55118D01*
G04 end of side 3*
G01X44094Y55118D01*
G01X68503Y9842D02*
G01X68503Y1181D01*
G04 end of side 1*
G01X65354Y1181D01*
G04 end of side 2*
G01X65354Y9842D01*
G04 end of side 3*
G01X68503Y9842D01*
G01X68503Y27559D02*
G01X65354Y27559D01*
G04 end of side 1*
G01X65354Y18897D01*
G04 end of side 2*
G01X68503Y18897D01*
G04 end of side 3*
G01X68503Y27559D01*
G01X68503Y45275D02*
G01X65354Y45275D01*
G04 end of side 1*
G01X65354Y36614D01*
G04 end of side 2*
G01X68503Y36614D01*
G04 end of side 3*
G01X68503Y45275D01*
G01X55118Y45275D02*
G01X51968Y45275D01*
G04 end of side 1*
G01X51968Y36614D01*
G04 end of side 2*
G01X55118Y36614D01*
G04 end of side 3*
G01X55118Y45275D01*

G04 -------------- Draw Parts, Pads, Traces, Vias and Text (positive)*
%LPD*%
G04 Draw part R1*
G04 Draw part R2*
G04 Draw part R3*
G04 Draw part C1*
G04 Draw part U1*
G04 Draw part U2*
G04 Draw part C2*
G04 Draw part C3*
G04 Draw part C4*
G04 Draw part R4*
G04 Draw part R5*
G04 Draw part R6*
G04 Draw part C5*
G04 Draw part R7*
G04 Draw part R8*
G04 Draw part U3*
G04 Draw part R9*
G04 Draw part R10*
G04 Draw part C6*
G04 Draw part C7*
G04 Draw part C8*
G04 Draw part C9*
G04 Draw part U4*
G04 Draw part U5*
G04 Draw part R11*
G04 Draw part C10*
G04 Draw part R12*
G04 Draw part C11*
G04 Draw part J1*
G04 Draw part J2*
G04 Draw part J3*
G04 Draw part J4*
G04 Draw part J5*
G04 Draw part J6*
G04 Draw part C12*
G04 Draw part Q1*
G04 Draw part U6*
G04 Draw part C13*
G04 Draw part C14*
G04 Draw part C15*
G04 Draw part C16*
G04 Draw part C17*
G04 Draw part C18*
G04 Draw part C19*
G04 Draw part C20*
G04 Draw part R13*
G04 Draw part R14*
G04 Draw part J7*
G04 Draw part R15*
G04 Draw part C21*
G04 Draw part U7*
G04 Draw part C22*
G04 Draw part R16*
G04 Draw part R17*
G04 Draw part R18*
G04 Draw part C23*
G04 Draw part R19*
G04 Draw part R20*
G04 Draw part R21*
G04 Draw part R22*
G04 Draw part C24*
G04 Draw part C25*
G04 Draw part R23*
G04 Draw part R24*
G04 Draw part C39*
G04 Draw part C41*
G04 Draw part R55*
G04 Draw part C45*
G04 Draw part U19*
G04 Draw part C46*
G04 Draw part R56*
G04 Draw part R57*
G04 Draw part R58*
G04 Draw part C47*
G04 Draw part R59*
G04 Draw part R60*
G04 Draw part R61*
G04 Draw part R62*
G04 Draw part C48*
G04 Draw part C49*
G04 Draw part U20*
G04 Draw part J11*
G04 Draw part C50*
G04 Draw part R63*
G04 Draw part C51*
G04 Draw part R64*
G04 Draw part R65*
G04 Draw part R66*
G04 Draw part U21*
G04 Draw part C52*
G04 Draw part C53*
G04 Draw part C54*
G04 Draw part C55*
G04 Draw part C56*
G04 Draw part C57*
G04 Draw part C58*
G04 Draw part R67*
G04 Draw part R68*
G04 Draw part R177*
G04 Draw part R69*
G04 Draw part C59*
G04 Draw part U22*
G04 Draw part C60*
G04 Draw part R70*
G04 Draw part R71*
G04 Draw part R72*
G04 Draw part C61*
G04 Draw part R73*
G04 Draw part R74*
G04 Draw part R75*
G04 Draw part R76*
G04 Draw part C62*
G04 Draw part C63*
G04 Draw part J12*
G04 Draw part C64*
G04 Draw part R77*
G04 Draw part R78*
G04 Draw part R79*
G04 Draw part R80*
G04 Draw part U24*
G04 Draw part C65*
G04 Draw part C66*
G04 Draw part C67*
G04 Draw part C68*
G04 Draw part C69*
G04 Draw part C70*
G04 Draw part C71*
G04 Draw part R81*
G04 Draw part R82*
G04 Draw part R178*
G04 Draw part U25*
G04 Draw part R83*
G04 Draw part C72*
G04 Draw part R84*
G04 Draw part U26*
G04 Draw part R85*
G04 Draw part C73*
G04 Draw part R86*
G04 Draw part U27*
G04 Draw part R87*
G04 Draw part C74*
G04 Draw part R88*
G04 Draw part U28*
G04 Draw part C75*
G04 Draw part Q2*
G04 Draw part Q3*
G04 Draw part Q4*
G04 Draw part R89*
G04 Draw part R90*
G04 Draw part U29*
G04 Draw part C76*
G04 Draw part R91*
G04 Draw part R92*
G04 Draw part U30*
G04 Draw part C77*
G04 Draw part C78*
G04 Draw part U31*
G04 Draw part C79*
G04 Draw part C80*
G04 Draw part R93*
G04 Draw part J13*
G04 Draw part J14*
G04 Draw part U32*
G04 Draw part C81*
G04 Draw part C82*
G04 Draw part J15*
G04 Draw part J16*
G04 Draw part J17*
G04 Draw part J18*
G04 Draw part U33*
G04 Draw part C83*
G04 Draw part U34*
G04 Draw part R94*
G04 Draw part R95*
G04 Draw part R96*
G04 Draw part J19*
G04 Draw part C84*
G04 Draw part U35*
G04 Draw part R97*
G04 Draw part R98*
G04 Draw part R99*
G04 Draw part J20*
G04 Draw part C85*
G04 Draw part J21*
G04 Draw part C86*
G04 Draw part Q5*
G04 Draw part Q6*
G04 Draw part R100*
G04 Draw part R101*
G04 Draw part R102*
G04 Draw part R103*
G04 Draw part R104*
G04 Draw part R105*
G04 Draw part R106*
G04 Draw part R107*
G04 Draw part R108*
G04 Draw part R109*
G04 Draw part R110*
G04 Draw part R111*
G04 Draw part R112*
G04 Draw part R113*
G04 Draw part U36*
G04 Draw part C87*
G04 Draw part C88*
G04 Draw part C89*
G04 Draw part U37*
G04 Draw part U38*
G04 Draw part R114*
G04 Draw part C90*
G04 Draw part C91*
G04 Draw part C92*
G04 Draw part C93*
G04 Draw part U39*
G04 Draw part U40*
G04 Draw part R115*
G04 Draw part C94*
G04 Draw part C95*
G04 Draw part C96*
G04 Draw part C97*
G04 Draw part U41*
G04 Draw part U42*
G04 Draw part R116*
G04 Draw part C98*
G04 Draw part C99*
G04 Draw part C100*
G04 Draw part C101*
G04 Draw part U43*
G04 Draw part U44*
G04 Draw part C102*
G04 Draw part R117*
G04 Draw part R118*
G04 Draw part R119*
G04 Draw part R120*
G04 Draw part C103*
G04 Draw part C104*
G04 Draw part C105*
G04 Draw part C106*
G04 Draw part R121*
G04 Draw part R122*
G04 Draw part R123*
G04 Draw part R124*
G04 Draw part C107*
G04 Draw part R125*
G04 Draw part R126*
G04 Draw part R127*
G04 Draw part C108*
G04 Draw part R128*
G04 Draw part R129*
G04 Draw part R130*
G04 Draw part C109*
G04 Draw part R131*
G04 Draw part R132*
G04 Draw part R133*
G04 Draw part R134*
G04 Draw part R135*
G04 Draw part R136*
G04 Draw part R137*
G04 Draw part R138*
G04 Draw part R139*
G04 Draw part R140*
G04 Draw part U45*
G04 Draw part R141*
G04 Draw part R142*
G04 Draw part R143*
G04 Draw part R144*
G04 Draw part R145*
G04 Draw part R146*
G04 Draw part R147*
G04 Draw part R148*
G04 Draw part R149*
G04 Draw part R150*
G04 Draw part R151*
G04 Draw part R152*
G04 Draw part R153*
G04 Draw part R154*
G04 Draw part R155*
G04 Draw part R156*
G04 Draw part R157*
G04 Draw part R158*
G04 Draw part R159*
G04 Draw part R160*
G04 Draw part R161*
G04 Draw part R162*
G04 Draw part R163*
G04 Draw part R164*
G04 Draw part J26*
G04 Draw part J27*
G04 Draw part J28*
G04 Draw part C110*
G04 Draw part C111*
G04 Draw part C112*
G04 Draw part C113*
G04 Draw part C114*
G04 Draw part J29*
G04 Draw part R165*
G04 Draw part C115*
G04 Draw part R166*
G04 Draw part J30*
G04 Draw part J31*
G04 Draw part J32*
G04 Draw part J33*
G04 Draw part U50*
G04 Draw part C116*
G04 Draw part C117*
G04 Draw part J34*
G04 Draw part R167*
G04 Draw part R168*
G04 Draw part C118*
G04 Draw part U51*
G04 Draw part C119*
G04 Draw part C120*
G04 Draw part Q7*
G04 Draw part Q8*
G04 Draw part C121*
G04 Draw part R169*
G04 Draw part R170*
G04 Draw part C122*
G04 Draw part C123*
G04 Draw part U52*
G04 Draw part C124*
G04 Draw part C125*
G04 Draw part U53*
G04 Draw part C126*
G04 Draw part C127*
G04 Draw part C128*
G04 Draw part U54*
G04 Draw part C129*
G04 Draw part U55*
G04 Draw part R171*
G04 Draw part C130*
G04 Draw part R172*
G04 Draw part Q9*
G04 Draw part U56*
G04 Draw part C131*
G04 Draw part R174*
G04 Draw part R175*
G04 Draw part U57*
G04 Draw part J35*
G04 Draw part R176*
G04 Draw part J36*
G04 Draw part J37*
G04 Draw part J38*
G04 Draw part R179*
G04 Draw part J8*
G04 Draw part R25*
G04 Draw part C26*
G04 Draw part U13*
G04 Draw part C27*
G04 Draw part R26*
G04 Draw part R27*
G04 Draw part R28*
G04 Draw part C28*
G04 Draw part R29*
G04 Draw part R30*
G04 Draw part C30*
G04 Draw part R34*
G04 Draw part R33*
G04 Draw part C42*
G04 Draw part J9*
G04 Draw part R35*
G04 Draw part C31*
G04 Draw part U15*
G04 Draw part C32*
G04 Draw part R36*
G04 Draw part R37*
G04 Draw part R38*
G04 Draw part C33*
G04 Draw part R39*
G04 Draw part R40*
G04 Draw part C35*
G04 Draw part R43*
G04 Draw part R44*
G04 Draw part C43*
G04 Draw part J10*
G04 Draw part R45*
G04 Draw part C36*
G04 Draw part U17*
G04 Draw part C37*
G04 Draw part R46*
G04 Draw part R47*
G04 Draw part R48*
G04 Draw part C38*
G04 Draw part R49*
G04 Draw part R50*
G04 Draw part C40*
G04 Draw part R53*
G04 Draw part R54*
G04 Draw part C44*
G04 Draw part R31*
G04 Draw part R32*
G04 Draw part C29*
G04 Draw part R41*
G04 Draw part R42*
G04 Draw part C34*
G04 Draw part R51*
G04 Draw part R52*
G04 Draw part C132*
G04 Draw part J39*
G04 Draw part J40*
G04 Draw part J41*
G04 Draw part J42*
G04 Draw part J43*
G04 Draw part J44*
G04 Draw part J47*
G04 Draw part R180*
G04 Draw part J46*
G04 Draw part J45*
G04 Draw part J50*
G04 Draw part R181*
G04 Draw part J49*
G04 Draw part J48*
G04 Draw part U1001*
G04 Draw part C1001*
G04 Draw part C1005*
G04 Draw part R1010*
G04 Draw part R1011*
G04 Draw part C1006*
G04 Draw part C1007*
G04 Draw part R1012*
G04 Draw part R1013*
G04 Draw part R1014*
G04 Draw part R1015*
G04 Draw part R1016*
G04 Draw part R1017*
G04 Draw part R1018*
G04 Draw part C1008*
G04 Draw part C1009*
G04 Draw part C1010*
G04 Draw part R1019*
G04 Draw part R1020*
G04 Draw part U1003*
G04 Draw part U1004*
G04 Draw part C1011*
G04 Draw part C1012*
G04 Draw part C1013*
G04 Draw part C1014*
G04 Draw part C1015*
G04 Draw part C1016*
G04 Draw part C1017*
G04 Draw part U1005*
G04 Draw part R1021*
G04 Draw part R1022*
G04 Draw part C1018*
G04 Draw part C1019*
G04 Draw part R1023*
G04 Draw part U1006*
G04 Draw part R1024*
G04 Draw part R1025*
G04 Draw part C1020*
G04 Draw part C1021*
G04 Draw part R1026*
G04 Draw part U1007*
G04 Draw part R1027*
G04 Draw part R1028*
G04 Draw part C1022*
G04 Draw part C1023*
G04 Draw part R1029*
G04 Draw part U1008*
G04 Draw part R1030*
G04 Draw part R1031*
G04 Draw part C1024*
G04 Draw part C1025*
G04 Draw part R1032*
G04 Draw part U1009*
G04 Draw part R1033*
G04 Draw part R1034*
G04 Draw part C1026*
G04 Draw part C1027*
G04 Draw part R1035*
G04 Draw part U1010*
G04 Draw part R1036*
G04 Draw part R1037*
G04 Draw part C1028*
G04 Draw part C1029*
G04 Draw part R1038*
G04 Draw part U1011*
G04 Draw part C1030*
G04 Draw part C1031*
G04 Draw part U1012*
G04 Draw part C1032*
G04 Draw part C1033*
G04 Draw part U1013*
G04 Draw part U1014*
G04 Draw part U1015*
G04 Draw part U1016*
G04 Draw part D1001*
G04 Draw part L1001*
G04 Draw part C1034*
G04 Draw part U1018*
G04 Draw part U1019*
G04 Draw part X1001*
G04 Draw part C1035*
G04 Draw part C1036*
G04 Draw part R1047*
G04 Draw part C1037*
G04 Draw part R1048*
G04 Draw part R1049*
G04 Draw part C1038*
G04 Draw part C1039*
G04 Draw part C1040*
G04 Draw part C1041*
G04 Draw part C1042*
G04 Draw part C1043*
G04 Draw part C1044*
G04 Draw part C1045*
G04 Draw part C1046*
G04 Draw part J1001*
G04 Draw part R1050*
G04 Draw part R1051*
G04 Draw part L1002*
G04 Draw part C1047*
G04 Draw part C1048*
G04 Draw part C1049*
G04 Draw part U1027*
G04 Draw part U1028*
G04 Draw part U1029*
G04 Draw part U1030*
G04 Draw part R1052*
G04 Draw part R1053*
G04 Draw part R1054*
G04 Draw part R1055*
G04 Draw part R1056*
G04 Draw part R1057*
G04 Draw part R1058*
G04 Draw part U1031*
G04 Draw part U1032*
G04 Draw part U1033*
G04 Draw part U1034*
G04 Draw part U1035*
G04 Draw part R1059*
G04 Draw part D1002*
G04 Draw part U1041*
G04 Draw part R1060*
G04 Draw part R1061*
G04 Draw part C1050*
G04 Draw part C1051*
G04 Draw part R1062*
G04 Draw part C1052*
G04 Draw part C1053*
G04 Draw part C1054*
G04 Draw part C1055*
G04 Draw part C1056*
G04 Draw part C1057*
G04 Draw part U1042*
G04 Draw part U1043*
G04 Draw part U1044*
G04 Draw part R1063*
G04 Draw part U1045*
G04 Draw part U1046*
G04 Draw part U1047*
G04 Draw part U1048*
G04 Draw part R1064*
G04 Draw part D1003*
G04 Draw part L1003*
G04 Draw part C1058*
G04 Draw part U1049*
G04 Draw part C1059*
G04 Draw part R1065*
G04 Draw part R1066*
G04 Draw part R1067*
G04 Draw part R1068*
G04 Draw part R1069*
G04 Draw part R1070*
G04 Draw part U1050*
G04 Draw part U1051*
G04 Draw part U1052*
G04 Draw part U1053*
G04 Draw part U1054*
G04 Draw part U1055*
G04 Draw part U1056*
G04 Draw part T1001*
G04 Draw part U1063*
G04 Draw part C1076*
G04 Draw part U1057*
G04 Draw part U1058*
G04 Draw part U1059*
G04 Draw part U1060*
G04 Draw part U1061*
G04 Draw part U1062*
G04 Draw part C1077*
G04 Draw part R1001*
G04 Draw part R1002*
G04 Draw part R1003*
G04 Draw part R1004*
G04 Draw part R1005*
G04 Draw part R1006*
G04 Draw part R1007*
G04 Draw part R1008*
G04 Draw part C1002*
G04 Draw part C1003*
G04 Draw part U1002*
G04 Draw part C1004*
G04 Draw part R1009*
G04 Draw part U1017*
G04 Draw part U1022*
G04 Draw part U1026*
G04 Draw part R1039*
G04 Draw part R1040*
G04 Draw part R1041*
G04 Draw part R1042*
G04 Draw part R1043*
G04 Draw part R1044*
G04 Draw part R1045*
G04 Draw part R1046*
G04 Draw part C1060*
G04 Draw part C1061*
G04 Draw part C1062*
G04 Draw part C1063*
G04 Draw part C1064*
G04 Draw part C1065*
G04 Draw part C1066*
G04 Draw part U1040*
G04 Draw part C1067*
G04 Draw part C1068*
G04 Draw part C1069*
G04 Draw part C1070*
G04 Draw part C1071*
G04 Draw part C1072*
G04 Draw part C1073*
G04 Draw part C1074*
G04 Draw part C1075*
G04 Draw part R2057*
G04 Draw part R2058*
G04 Draw part R2059*
G04 Draw part R2060*
G04 Draw part R2061*
G04 Draw part R2062*
G04 Draw part U2048*
G04 Draw part U2049*
G04 Draw part R2069*
G04 Draw part U2050*
G04 Draw part U2051*
G04 Draw part U2052*
G04 Draw part U2053*
G04 Draw part U2054*
G04 Draw part U2055*
G04 Draw part C2076*
G04 Draw part R3057*
G04 Draw part R3058*
G04 Draw part R3059*
G04 Draw part R3060*
G04 Draw part R3061*
G04 Draw part R3062*
G04 Draw part U3048*
G04 Draw part U3049*
G04 Draw part R3069*
G04 Draw part U3050*
G04 Draw part U3051*
G04 Draw part U3052*
G04 Draw part U3053*
G04 Draw part U3054*
G04 Draw part U3055*
G04 Draw part C3076*

G04 Draw traces*

G04 Draw Text*
M00*
M02*
