;Holesize 1 =   32.0 PLATED MILS
;Holesize 2 =  138.0 PLATED MILS
;Holesize 3 =   48.0 PLATED MILS
;Holesize 4 =   40.0 PLATED MILS
;Holesize 5 =   35.0 PLATED MILS
;Holesize 6 =   98.0 PLATED MILS
;Holesize 7 =   10.0 PLATED MILS
M48
INCH
T01C0.032
T02C0.138
T03C0.048
T04C0.040
T05C0.035
T06C0.098
T07C0.010
%
G05
G90
T01
X008232Y012531
X008232Y011531
X008232Y010531
X008232Y009531
X011232Y009531
X011232Y012531
X008232Y008531
X008232Y007531
X008232Y006531
X008232Y005531
X011232Y005531
X011232Y008531
X018287Y025531
X018287Y026531
X018287Y027531
X018287Y028531
X015287Y028531
X015287Y025531
X018287Y021531
X018287Y022531
X018287Y023531
X018287Y024531
X015287Y024531
X015287Y021531
X048681Y027437
X048681Y026437
X048681Y025437
X048681Y024437
X051681Y024437
X051681Y027437
X018287Y017531
X018287Y018531
X018287Y019531
X018287Y020531
X015287Y020531
X015287Y017531
X048681Y023437
X048681Y022437
X048681Y021437
X048681Y020437
X051681Y020437
X051681Y023437
X022161Y026531
X023161Y026531
X024161Y026531
X025161Y026531
X025161Y029531
X024161Y029531
X023161Y029531
X022161Y029531
X027358Y026492
X028358Y026492
X029358Y026492
X030358Y026492
X030358Y029492
X029358Y029492
X028358Y029492
X027358Y029492
X028355Y041456
X027755Y040856
X027155Y041456
X027155Y042834
X027755Y043434
X028355Y042834
X046444Y041437
X046444Y040437
X046444Y039437
X046444Y038437
X049444Y038437
X049444Y041437
X046444Y045437
X046444Y044437
X046444Y043437
X046444Y042437
X049444Y042437
X049444Y045437
X062984Y065740
X062984Y066740
X059984Y066740
X059984Y065740
T02
X003149Y015354
X010629Y003149
X010629Y015354
X003149Y003149
X051181Y003149
X015748Y003149
X051181Y030708
X015748Y030708
X048818Y035826
X019291Y048425
X019291Y035826
X048818Y048425
X022834Y069685
X022834Y053543
X003149Y069685
X003149Y053543
X045669Y069685
X065354Y069685
X045625Y056711
X065354Y056692
X027952Y069685
X040944Y069685
X040944Y057086
X027952Y057086
X066929Y025984
X066929Y020472
X066929Y002755
X066929Y008267
X066929Y043700
X066929Y038188
X053543Y043700
X053543Y038188
X026614Y012677
X043110Y016968
X043110Y011417
T03
X005889Y002755
X007889Y002755
X007889Y015748
X005889Y015748
X034582Y048740
X032582Y048740
X002952Y060661
X002952Y058661
X002952Y056661
X036251Y070078
X034251Y070078
X032251Y070078
X055584Y056740
X057584Y056740
X059584Y056740
T04
X045763Y031208
X044763Y031208
X043763Y031208
X042763Y031208
X041763Y031208
X040763Y031208
X039763Y031208
X038763Y031208
X037763Y031208
X036763Y031208
X035763Y031208
X034763Y031208
X033763Y031208
X033763Y030208
X034763Y030208
X035763Y030208
X036763Y030208
X037763Y030208
X038763Y030208
X039763Y030208
X040763Y030208
X041763Y030208
X042763Y030208
X043763Y030208
X044763Y030208
X045763Y030208
X032582Y002649
X033582Y002649
X034582Y002649
X035582Y002649
X036582Y002649
X037582Y002649
X038582Y002649
X039582Y002649
X040582Y002649
X041582Y002649
X042582Y002649
X043582Y002649
X044582Y002649
X044582Y003649
X043582Y003649
X042582Y003649
X041582Y003649
X040582Y003649
X039582Y003649
X038582Y003649
X037582Y003649
X036582Y003649
X035582Y003649
X034582Y003649
X033582Y003649
X032582Y003649
X022015Y002649
X023015Y002649
X024015Y002649
X025015Y002649
X026015Y002649
X026015Y003649
X025015Y003649
X024015Y003649
X023015Y003649
X022015Y003649
X041070Y035287
X042070Y035287
X043070Y035287
X044070Y035287
X045070Y035287
X045070Y036287
X044070Y036287
X043070Y036287
X042070Y036287
X041070Y036287
X045070Y048964
X044070Y048964
X043070Y048964
X042070Y048964
X041070Y048964
X041070Y047964
X042070Y047964
X043070Y047964
X044070Y047964
X045070Y047964
X032409Y035287
X033409Y035287
X034409Y035287
X035409Y035287
X036409Y035287
X036409Y036287
X035409Y036287
X034409Y036287
X033409Y036287
X032409Y036287
X015208Y048125
X015208Y047125
X015208Y046125
X015208Y045125
X015208Y044125
X015208Y043125
X015208Y042125
X015208Y041125
X015208Y040125
X015208Y039125
X015208Y038125
X015208Y037125
X015208Y036125
X016208Y036125
X016208Y037125
X016208Y038125
X016208Y039125
X016208Y040125
X016208Y041125
X016208Y042125
X016208Y043125
X016208Y044125
X016208Y045125
X016208Y046125
X016208Y047125
X016208Y048125
X006992Y053043
X007992Y053043
X008992Y053043
X009992Y053043
X010992Y053043
X011992Y053043
X012992Y053043
X013992Y053043
X014992Y053043
X015992Y053043
X016992Y053043
X017992Y053043
X018992Y053043
X018992Y054043
X017992Y054043
X016992Y054043
X015992Y054043
X014992Y054043
X013992Y054043
X012992Y054043
X011992Y054043
X010992Y054043
X009992Y054043
X008992Y054043
X007992Y054043
X006992Y054043
X052504Y063440
X052504Y065360
X045518Y065798
X045518Y064798
X045518Y063798
X045518Y062798
X045518Y061798
X046518Y061798
X046518Y062798
X046518Y063798
X046518Y064798
X046518Y065798
X053384Y070240
X052384Y070240
X051384Y070240
X050384Y070240
X049384Y070240
X049384Y069240
X050384Y069240
X051384Y069240
X052384Y069240
X053384Y069240
X061584Y070240
X060584Y070240
X059584Y070240
X058584Y070240
X057584Y070240
X057584Y069240
X058584Y069240
X059584Y069240
X060584Y069240
X061584Y069240
X063434Y060400
X063433Y061403
X063433Y062403
X041490Y061540
X041490Y062540
X041490Y063540
X041490Y064540
X041490Y065540
X040490Y065540
X040490Y064540
X040490Y063540
X040490Y062540
X040490Y061540
X031990Y056440
X032990Y056440
X033990Y056440
X034990Y056440
X035990Y056440
X035990Y057440
X034990Y057440
X033990Y057440
X032990Y057440
X031990Y057440
X018992Y070185
X017992Y070185
X016992Y070185
X015992Y070185
X014992Y070185
X013992Y070185
X012992Y070185
X011992Y070185
X010992Y070185
X009992Y070185
X008992Y070185
X007992Y070185
X006992Y070185
X006992Y069185
X007992Y069185
X008992Y069185
X009992Y069185
X010992Y069185
X011992Y069185
X012992Y069185
X013992Y069185
X014992Y069185
X015992Y069185
X016992Y069185
X017992Y069185
X018992Y069185
X027490Y065540
X027490Y064540
X027490Y063540
X027490Y062540
X027490Y061540
X028490Y061540
X028490Y062540
X028490Y063540
X028490Y064540
X028490Y065540
X024488Y048622
X042165Y021102
X042716Y038897
X030708Y041535
T05
X054742Y015944
X065730Y015944
X001521Y019881
X012257Y019881
X001521Y030708
X012257Y030708
X001521Y041535
X012257Y041535
X054742Y033661
X065730Y033661
X054742Y051377
X065730Y051377
T06
X064933Y059903
X064933Y062903
T07
X060354Y051555
X063484Y037401
X060354Y051555
X060354Y051555
X063484Y037401
X057677Y043405
X057913Y049507
X057677Y043405
X057913Y049507
X057913Y049507
X057677Y043405
X057677Y043405
X063484Y041732
X063425Y049114
X063425Y049114
X063425Y049114
X063484Y041732
X063484Y041732
X063425Y048740
X063425Y048740
X063425Y048740
X061732Y041397
X061732Y041397
X059980Y044409
X059980Y044409
X059980Y044409
X063622Y023681
X062637Y031397
X063622Y023681
X062637Y031397
X062637Y031397
X063622Y023681
X063622Y023681
X064212Y031023
X061870Y023346
X064212Y031023
X064212Y031023
X061870Y023346
X060236Y026968
X060236Y026968
X006338Y043129
X011377Y048582
X008425Y044645
X004370Y043602
X004448Y046614
X002401Y044015
X002480Y047598
X010393Y033818
X008425Y033188
X008425Y034803
X004370Y033188
X004448Y036771
X006338Y032775
X006417Y035787
X004448Y026929
X057952Y008641
X056338Y014074
X057952Y008641
X056338Y014074
X056338Y014074
X057952Y008641
X057952Y008641
X063759Y005629
X061850Y013681
X063759Y005629
X061850Y013681
X061850Y013681
X063759Y005629
X063759Y005629
X003622Y010078
X021417Y009409
X022834Y009409
X049902Y066058
X058779Y060236
X060354Y059330
X053110Y062716
X052913Y060236
X048976Y060236
X051771Y057125
X050078Y065118
X053070Y066023
X054685Y066929
X048740Y066732
X048110Y063031
X050078Y062440
X050078Y062440
X057244Y064645
X055866Y063464
X055866Y063464
X054289Y041584
X063622Y041397
X062637Y049114
X063622Y041397
X062637Y049114
X062637Y049114
X063622Y041397
X063622Y041397
X064212Y048740
X061870Y041062
X064212Y048740
X064212Y048740
X061870Y041062
X060236Y044685
X060236Y044685
X065000Y031023
X062125Y026968
X065000Y031023
X065000Y031023
X062125Y026968
X060492Y026692
X060492Y026692
X010393Y044645
X008425Y044015
X008425Y045629
X004370Y044015
X004448Y047598
X006338Y043602
X006417Y046614
X010393Y033188
X010393Y034803
X008425Y032775
X008425Y035787
X006338Y033188
X006417Y036771
X003464Y022992
X006417Y026929
X058090Y008976
X055531Y014074
X058090Y008976
X055531Y014074
X055531Y014074
X058090Y008976
X058090Y008976
X060236Y001988
X059488Y013681
X060236Y001988
X059488Y013681
X059488Y013681
X060236Y001988
X062381Y008976
X065000Y014074
X062381Y008976
X065000Y014074
X065000Y014074
X062381Y008976
X062381Y008976
X021417Y011653
X022401Y011653
X012981Y067753
X012481Y064353
X011581Y064253
X002581Y064253
X004381Y064253
X005981Y057353
X012881Y057453
X015381Y057453
X020381Y057453
X022981Y057453
X017881Y057453
X021231Y057378
X020181Y065553
X007781Y057453
X010356Y057453
X010281Y064253
X021706Y064853
X019781Y060303
X067675Y023867
X065000Y048740
X062125Y044685
X065000Y048740
X065000Y048740
X062125Y044685
X060492Y044409
X060492Y044409
X060629Y026358
X060629Y026358
X010393Y044015
X010393Y045629
X008425Y043602
X008425Y046614
X006338Y044015
X006417Y047598
X010393Y032775
X010393Y035787
X008425Y032303
X008425Y026929
X003385Y021476
X005433Y022992
X056338Y013307
X058346Y009251
X056338Y013307
X056338Y013307
X058346Y009251
X058346Y009251
X056712Y005629
X058700Y013681
X056712Y005629
X058700Y013681
X058700Y013681
X056712Y005629
X056712Y005629
X062519Y008641
X064212Y014074
X062519Y008641
X064212Y014074
X064212Y014074
X062519Y008641
X062519Y008641
X060767Y008307
X060767Y008307
X060767Y008307
X021417Y012283
X021023Y013897
X019488Y014527
X010981Y067753
X017281Y060303
X056834Y060240
X055484Y062140
X061384Y057990
X061102Y060393
X049684Y064540
X029790Y061040
X031690Y061440
X032940Y061440
X033984Y061433
X038188Y060354
X065631Y006277
X067559Y004370
X066732Y005196
X067165Y004566
X060629Y044074
X060629Y044074
X010393Y043602
X010393Y046614
X008425Y043129
X010393Y032303
X010393Y026929
X007440Y022992
X003385Y021948
X003464Y024960
X005354Y021476
X057125Y013307
X058602Y005629
X057125Y013307
X057125Y013307
X058602Y005629
X058602Y005629
X056850Y005964
X057913Y013681
X056850Y005964
X057913Y013681
X057913Y013681
X056850Y005964
X056850Y005964
X062657Y008307
X063425Y014074
X062657Y008307
X063425Y014074
X063425Y014074
X062657Y008307
X062657Y008307
X060905Y007972
X060905Y007972
X060905Y007972
X028976Y039409
X027007Y040433
X020944Y044488
X020984Y041732
X020984Y038976
X024094Y035118
X021574Y046062
X021614Y043307
X021614Y040551
X024724Y036692
X017952Y043897
X017952Y041141
X017992Y038385
X021102Y034527
X025236Y046614
X024212Y045905
X022165Y044921
X024212Y043582
X024212Y038937
X024212Y041259
X022165Y042598
X022165Y037952
X022165Y040275
X025236Y039645
X025236Y044291
X025236Y042007
X038582Y040472
X038582Y040472
X038582Y040472
X040314Y042322
X038425Y043897
X036850Y041692
X038188Y049409
X036614Y049409
X038582Y046181
X032401Y044488
X032125Y043425
X047480Y044645
X043622Y044803
X033937Y038976
X041811Y046181
X032874Y045393
X033228Y041771
X021417Y014527
X022795Y014527
X009981Y067753
X011981Y058353
X014481Y058353
X009381Y058353
X019481Y058353
X022081Y058353
X019281Y064553
X006881Y058353
X016981Y058353
X014781Y060303
X059584Y067840
X029784Y064033
X033984Y064033
X036181Y063149
X032992Y064015
X067723Y006141
X010393Y043129
X009409Y022992
X007440Y022362
X007440Y023976
X003385Y022362
X003464Y025944
X005354Y021948
X005433Y024960
X057913Y013307
X058740Y005964
X057913Y013307
X057913Y013307
X058740Y005964
X058740Y005964
X056988Y006299
X057125Y013681
X056988Y006299
X057125Y013681
X056988Y006299
X057125Y013681
X056988Y006299
X062795Y007972
X062637Y014074
X062795Y007972
X062637Y014074
X062637Y014074
X062795Y007972
X062795Y007972
X061043Y007637
X061043Y007637
X061043Y007637
X059291Y007303
X059291Y007303
X034566Y043937
X043228Y014685
X043700Y014251
X043385Y013661
X043385Y019212
X039724Y011181
X043188Y009291
X043543Y008425
X039724Y011614
X039724Y017165
X039724Y016771
X022716Y025669
X025196Y025590
X030354Y025590
X027913Y025669
X049763Y026653
X047283Y027598
X017204Y026338
X020905Y025669
X017204Y022362
X020866Y021771
X037204Y007519
X032598Y011417
X027322Y022598
X043070Y023779
X026614Y012677
X028425Y013110
X031692Y011417
X004251Y010078
X030000Y044212
X021417Y015157
X005669Y008818
X008981Y067753
X012981Y065453
X012281Y060303
X051384Y067840
X054884Y060240
X058134Y059390
X058684Y056740
X057284Y063540
X057284Y063540
X056609Y065340
X031940Y066390
X068196Y041109
X005275Y004685
X002244Y005354
X011377Y022992
X009409Y022362
X009409Y023976
X007440Y021948
X007440Y024960
X003464Y026929
X005354Y022362
X005433Y025944
X058700Y013307
X058877Y006299
X058700Y013307
X058700Y013307
X058877Y006299
X058877Y006299
X057125Y006633
X056338Y013681
X057125Y006633
X056338Y013681
X057125Y006633
X056338Y013681
X057125Y006633
X062933Y007637
X061850Y014074
X062933Y007637
X061850Y014074
X061850Y014074
X062933Y007637
X062933Y007637
X061181Y007303
X061181Y007303
X061181Y007303
X059429Y007637
X059429Y007637
X027244Y035787
X027795Y046692
X029291Y038188
X028543Y039409
X030984Y039015
X021574Y045511
X021614Y042755
X021614Y040000
X024724Y036141
X025236Y044921
X022165Y045472
X022165Y043149
X022165Y038503
X022165Y040826
X025236Y037952
X025236Y040275
X025236Y042598
X040354Y016771
X040314Y011181
X040039Y018070
X027913Y025039
X022716Y025039
X025354Y022598
X020581Y062053
X012131Y063003
X009681Y060303
X050384Y067840
X036640Y064690
X033490Y065740
X029784Y064633
X033984Y064633
X036456Y065984
X037690Y068890
X065700Y023993
X067598Y022086
X066771Y022874
X067244Y024173
X068171Y039884
X057814Y026023
X057125Y031791
X057814Y026023
X057125Y031791
X057125Y031791
X057814Y026023
X057814Y026023
X002480Y037755
X011377Y022362
X011377Y023976
X009409Y021948
X009409Y024960
X007440Y021476
X005433Y026929
X002480Y022992
X059488Y013307
X059015Y006633
X059488Y013307
X059488Y013307
X059015Y006633
X059015Y006633
X057263Y006968
X055531Y013700
X057263Y006968
X055531Y013700
X057263Y006968
X055531Y013700
X057263Y006968
X063070Y007303
X061062Y014074
X063070Y007303
X061062Y014074
X061062Y014074
X063070Y007303
X063070Y007303
X061062Y013681
X061318Y006968
X061062Y013681
X061062Y013681
X061318Y006968
X061318Y006968
X059566Y007972
X059566Y007972
X059566Y007972
X043582Y046181
X031496Y043425
X030000Y043622
X028543Y048582
X029212Y035787
X028543Y045787
X027795Y046259
X027795Y047125
X031102Y038188
X028307Y034803
X028543Y040039
X028031Y039212
X017952Y044448
X017952Y041692
X017992Y038937
X021102Y035078
X025236Y046062
X022716Y044921
X022716Y042598
X022716Y037952
X022716Y040275
X025236Y039094
X025236Y043740
X025236Y041456
X040314Y041692
X039055Y043897
X036850Y042322
X037795Y040472
X038582Y045590
X032401Y043858
X035905Y038976
X032598Y041771
X060118Y015767
X062893Y001968
X060118Y015767
X062893Y001968
X060118Y015767
X021023Y007165
X019488Y006535
X011981Y067753
X007181Y061453
X011531Y062828
X018081Y062053
X057284Y062240
X058434Y063640
X059584Y068440
X053784Y057940
X029790Y066140
X034590Y060340
X034990Y058840
X065700Y041710
X067598Y039803
X066771Y040590
X067244Y041889
X057814Y043740
X057125Y049507
X057814Y043740
X057125Y049507
X057125Y049507
X057814Y043740
X057814Y043740
X057952Y026358
X056338Y031791
X057952Y026358
X056338Y031791
X056338Y031791
X057952Y026358
X057952Y026358
X063759Y023346
X061850Y031397
X061850Y031397
X061850Y031397
X063759Y023346
X063759Y023346
X002480Y048582
X004448Y037755
X011377Y021948
X011377Y024960
X009409Y021476
X007440Y026929
X004448Y022992
X002401Y021476
X061062Y013307
X059153Y006968
X061062Y013307
X061062Y013307
X059153Y006968
X059153Y006968
X057401Y007303
X059488Y014074
X057401Y007303
X059488Y014074
X057401Y007303
X059488Y014074
X057401Y007303
X063208Y006968
X065000Y013681
X063208Y006968
X065000Y013681
X065000Y013681
X063208Y006968
X063208Y006968
X061850Y013307
X061456Y006633
X061850Y013307
X061850Y013307
X061456Y006633
X061456Y006633
X059704Y008307
X059704Y008307
X030511Y048582
X032874Y047204
X039566Y005866
X040826Y009409
X026023Y014448
X024685Y013149
X023110Y013346
X023110Y012755
X025905Y016181
X023110Y012086
X052165Y012283
X052165Y010590
X052165Y016141
X052165Y017834
X020669Y015157
X016023Y013937
X016023Y015748
X016574Y014566
X024803Y012362
X020669Y012283
X016023Y011062
X016023Y012874
X016574Y011692
X020669Y009409
X016023Y008188
X016023Y010000
X016574Y008818
X020669Y006535
X016023Y005314
X016023Y007125
X016574Y005944
X026023Y009173
X049685Y014330
X050551Y016141
X050039Y012440
X046692Y016456
X048740Y017086
X048779Y011535
X043110Y011417
X025984Y010866
X046692Y010905
X022874Y015866
X023464Y014527
X045866Y013110
X022125Y007047
X025354Y008228
X022165Y005236
X016023Y015748
X016023Y013937
X016023Y012874
X016023Y011062
X016023Y010000
X016023Y008188
X016023Y007125
X016023Y005314
X028425Y012283
X040354Y017165
X043818Y019212
X040944Y018070
X043818Y013661
X042952Y013661
X042952Y019212
X040314Y011614
X028425Y014330
X027874Y015472
X040944Y012519
X026692Y015472
X027007Y009881
X027007Y009881
X035236Y007519
X030787Y011417
X060354Y016122
X063484Y001968
X060354Y016122
X060354Y016122
X063484Y001968
X039370Y040472
X021023Y005275
X019488Y005905
X061152Y063033
X054484Y063240
X033640Y062990
X035240Y062690
X068196Y023392
X067675Y041584
X057952Y044074
X056338Y049507
X057952Y044074
X056338Y049507
X056338Y049507
X057952Y044074
X057952Y044074
X063759Y041062
X061850Y049114
X061850Y049114
X061850Y049114
X063759Y041062
X063759Y041062
X058090Y026692
X055531Y031791
X058090Y026692
X055531Y031791
X055531Y031791
X058090Y026692
X058090Y026692
X060236Y019704
X059488Y031397
X060236Y019704
X059488Y031397
X059488Y031397
X060236Y019704
X062381Y026692
X065000Y031791
X065000Y031791
X065000Y031791
X062381Y026692
X062381Y026692
X004448Y048582
X003464Y033818
X006417Y037755
X006417Y022992
X011377Y021476
X009409Y026929
X004370Y021476
X002401Y021948
X002480Y024960
X057539Y007637
X058700Y014074
X057539Y007637
X058700Y014074
X058700Y014074
X057539Y007637
X057539Y007637
X063346Y006633
X064212Y013681
X063346Y006633
X064212Y013681
X064212Y013681
X063346Y006633
X063346Y006633
X062637Y013307
X061594Y006299
X062637Y013307
X062637Y013307
X061594Y006299
X061594Y006299
X059842Y008641
X059842Y008641
X023700Y012755
X020196Y014527
X020196Y011653
X020196Y008779
X020196Y005905
X022007Y013425
X045354Y017559
X047007Y017086
X045354Y012007
X047007Y011535
X019488Y007716
X024094Y014527
X021417Y005905
X021023Y010039
X019488Y009409
X001653Y013425
X050234Y064040
X034590Y067140
X068171Y022167
X054810Y041109
X053289Y041384
X052314Y041710
X054212Y039803
X053385Y040590
X053858Y041889
X066675Y041384
X058090Y044409
X055531Y049507
X058090Y044409
X055531Y049507
X055531Y049507
X058090Y044409
X058090Y044409
X060236Y037421
X059488Y049114
X060236Y037421
X059488Y049114
X059488Y049114
X060236Y037421
X062381Y044409
X065000Y049507
X065000Y049507
X065000Y049507
X062381Y044409
X062381Y044409
X056338Y031023
X058346Y026968
X056338Y031023
X056338Y031023
X058346Y026968
X058346Y026968
X056712Y023346
X058700Y031397
X056712Y023346
X058700Y031397
X058700Y031397
X056712Y023346
X056712Y023346
X062519Y026358
X064212Y031791
X064212Y031791
X064212Y031791
X062519Y026358
X062519Y026358
X060767Y026023
X060767Y026023
X003464Y044645
X006417Y048582
X008425Y037755
X003385Y032303
X005433Y033818
X006338Y021476
X011377Y026929
X008425Y022992
X004370Y021948
X004448Y024960
X002401Y022362
X002480Y025944
X057677Y007972
X057913Y014074
X057677Y007972
X057913Y014074
X057913Y014074
X057677Y007972
X057677Y007972
X063484Y006299
X063425Y013681
X063484Y006299
X063425Y013681
X063425Y013681
X063484Y006299
X063484Y006299
X063425Y013307
X061732Y005964
X063425Y013307
X063425Y013307
X061732Y005964
X061732Y005964
X059980Y008976
X059980Y008976
X059980Y008976
X034566Y044370
X031141Y044409
X030511Y045787
X004566Y012755
X005157Y011181
X021417Y006535
X023110Y006535
X021023Y008149
X019488Y008779
X006417Y013385
X005590Y059055
X050984Y064040
X052384Y067840
X031090Y062640
X054785Y039884
X053789Y040784
X067175Y040784
X056338Y048740
X058346Y044685
X056338Y048740
X056338Y048740
X058346Y044685
X058346Y044685
X056712Y041062
X058700Y049114
X056712Y041062
X058700Y049114
X058700Y049114
X056712Y041062
X056712Y041062
X062519Y044074
X064212Y049507
X064212Y049507
X064212Y049507
X062519Y044074
X062519Y044074
X060767Y043740
X060767Y043740
X057125Y031023
X058602Y023346
X057125Y031023
X057125Y031023
X058602Y023346
X058602Y023346
X056850Y023681
X057913Y031397
X056850Y023681
X057913Y031397
X057913Y031397
X056850Y023681
X056850Y023681
X062657Y026023
X063425Y031791
X063425Y031791
X063425Y031791
X062657Y026023
X062657Y026023
X060905Y025688
X060905Y025688
X008425Y048582
X003385Y043129
X005433Y044645
X010393Y037755
X007440Y033818
X003385Y032775
X003464Y035787
X005354Y032303
X010393Y022992
X008425Y022362
X008425Y023976
X004370Y022362
X004448Y025944
X006338Y021948
X006417Y024960
X063622Y005964
X062637Y013681
X063622Y005964
X062637Y013681
X062637Y013681
X063622Y005964
X063622Y005964
X064212Y013307
X061870Y005629
X064212Y013307
X064212Y013307
X061870Y005629
X060236Y009251
X060236Y009251
X042559Y005866
X043976Y007992
X023700Y013346
X025905Y015590
X023700Y012086
X020669Y014527
X020669Y008779
X020669Y005905
X020669Y011653
X026023Y009803
X050314Y014330
X050551Y016574
X050039Y012007
X044527Y019133
X045354Y017992
X044606Y013582
X046377Y017086
X048740Y017519
X045354Y012440
X046377Y011535
X048779Y011968
X022874Y015236
X045866Y015078
X024370Y007047
X024370Y007047
X021417Y008779
X021023Y012913
X019488Y012283
X014881Y067203
X047634Y066590
X050984Y066040
X060584Y067590
X053384Y067840
X068223Y005641
X052889Y039984
X066275Y039984
X057125Y048740
X058602Y041062
X057125Y048740
X057125Y048740
X058602Y041062
X058602Y041062
X056850Y041397
X057913Y049114
X056850Y041397
X057913Y049114
X057913Y049114
X056850Y041397
X056850Y041397
X062657Y043740
X063425Y049507
X063425Y049507
X063425Y049507
X062657Y043740
X062657Y043740
X060905Y043405
X060905Y043405
X057913Y031023
X058740Y023681
X057913Y031023
X057913Y031023
X058740Y023681
X058740Y023681
X056988Y024015
X057125Y031397
X056988Y024015
X057125Y031397
X056988Y024015
X057125Y031397
X056988Y024015
X062795Y025688
X062637Y031791
X062637Y031791
X062637Y031791
X062795Y025688
X062795Y025688
X061043Y025354
X061043Y025354
X059291Y025019
X059291Y025019
X010393Y048582
X007440Y044645
X003385Y043602
X003464Y046614
X005354Y043129
X009409Y033818
X007440Y033188
X007440Y034803
X003385Y033188
X003464Y036771
X005354Y032775
X005433Y035787
X010393Y022362
X010393Y023976
X008425Y021948
X008425Y024960
X006338Y022362
X006417Y025944
X065000Y013307
X062125Y009251
X065000Y013307
X065000Y013307
X062125Y009251
X060492Y008976
X060492Y008976
X060492Y008976
X003661Y008818
X006141Y008818
X006141Y010078
X004724Y008818
X005314Y006259
X002204Y006259
X006889Y012047
X003976Y012874
X021023Y011023
X019488Y011653
X016981Y067753
X057784Y062240
X059084Y063940
X066675Y023667
X068223Y004441
X057913Y048740
X058740Y041397
X057913Y048740
X057913Y048740
X058740Y041397
X058740Y041397
X056988Y041732
X057125Y049114
X056988Y041732
X057125Y049114
X056988Y041732
X057125Y049114
X056988Y041732
X062795Y043405
X062637Y049507
X062637Y049507
X062637Y049507
X062795Y043405
X062795Y043405
X061043Y043070
X061043Y043070
X059291Y042736
X059291Y042736
X058700Y031023
X058877Y024015
X058700Y031023
X058700Y031023
X058877Y024015
X058877Y024015
X057125Y024350
X056338Y031397
X057125Y024350
X056338Y031397
X057125Y024350
X056338Y031397
X057125Y024350
X062933Y025354
X061850Y031791
X061850Y031791
X061850Y031791
X062933Y025354
X062933Y025354
X061181Y025019
X061181Y025019
X059429Y025354
X059429Y025354
X009409Y044645
X007440Y044015
X007440Y045629
X003385Y044015
X003464Y047598
X005354Y043602
X005433Y046614
X011377Y033818
X009409Y033188
X009409Y034803
X007440Y032775
X007440Y035787
X003464Y037755
X005354Y033188
X005433Y036771
X010393Y021948
X010393Y024960
X008425Y021476
X060629Y008641
X060629Y008641
X060629Y008641
X037362Y046181
X021023Y015787
X019488Y015157
X007831Y064553
X010981Y064253
X006881Y057753
X013081Y064428
X016681Y061303
X023110Y058149
X022047Y057677
X020472Y058110
X019488Y057637
X017992Y058149
X017007Y057637
X015511Y058149
X014488Y057677
X012952Y058110
X011968Y057598
X010472Y058149
X009370Y057598
X007874Y058149
X005590Y058307
X004763Y063464
X006929Y063779
X006496Y061377
X007992Y060314
X009015Y061456
X010511Y060314
X011692Y061377
X013110Y060354
X014173Y061338
X015590Y060393
X018110Y060354
X019173Y061338
X020629Y060393
X021732Y061299
X023188Y060354
X020078Y064527
X019566Y065748
X017401Y065866
X016377Y064133
X012047Y064330
X009566Y064251
X005472Y064527
X056084Y062140
X053784Y057140
X058034Y064340
X054334Y057140
X061384Y056140
X059803Y062440
X059685Y063937
X060984Y059330
X029790Y062140
X033990Y062040
X029784Y063433
X033984Y063433
X029784Y065258
X038188Y065944
X038149Y063149
X033976Y065275
X033976Y066614
X030984Y066653
X038385Y069645
X067175Y023067
X058700Y048740
X058877Y041732
X058700Y048740
X058700Y048740
X058877Y041732
X058877Y041732
X057125Y042066
X056338Y049114
X057125Y042066
X056338Y049114
X057125Y042066
X056338Y049114
X057125Y042066
X062933Y043070
X061850Y049507
X061850Y049507
X061850Y049507
X062933Y043070
X062933Y043070
X061181Y042736
X061181Y042736
X059429Y043070
X059429Y043070
X059488Y031023
X059015Y024350
X059488Y031023
X059488Y031023
X059015Y024350
X059015Y024350
X057263Y024685
X055531Y031417
X057263Y024685
X055531Y031417
X057263Y024685
X055531Y031417
X057263Y024685
X063070Y025019
X061062Y031791
X061062Y031791
X061062Y031791
X063070Y025019
X063070Y025019
X061062Y031397
X061062Y031397
X061062Y031397
X061318Y024685
X061318Y024685
X059566Y025688
X059566Y025688
X059566Y025688
X011377Y044645
X009409Y044015
X009409Y045629
X007440Y043602
X007440Y046614
X003464Y048582
X005354Y044015
X005433Y047598
X011377Y033188
X011377Y034803
X009409Y032775
X009409Y035787
X007440Y032303
X005433Y037755
X002480Y033818
X010393Y021476
X041574Y005866
X043188Y008779
X014981Y067803
X049384Y067840
X066275Y022267
X067675Y022768
X067165Y022362
X065866Y022125
X066653Y024173
X066623Y005941
X059488Y048740
X059015Y042066
X059488Y048740
X059488Y048740
X059015Y042066
X059015Y042066
X057263Y042401
X055531Y049133
X057263Y042401
X055531Y049133
X057263Y042401
X055531Y049133
X057263Y042401
X063070Y042736
X061062Y049507
X061062Y049507
X061062Y049507
X063070Y042736
X063070Y042736
X061062Y049114
X061062Y049114
X061062Y049114
X061318Y042401
X061318Y042401
X059566Y043405
X059566Y043405
X059566Y043405
X061062Y031023
X059153Y024685
X061062Y031023
X061062Y031023
X059153Y024685
X059153Y024685
X057401Y025019
X059488Y031791
X057401Y025019
X059488Y031791
X057401Y025019
X059488Y031791
X057401Y025019
X063208Y024685
X065000Y031397
X065000Y031397
X065000Y031397
X063208Y024685
X063208Y024685
X061850Y031023
X061850Y031023
X061850Y031023
X061456Y024350
X061456Y024350
X059704Y026023
X059704Y026023
X060118Y033484
X062893Y019685
X060118Y033484
X062893Y019685
X060118Y033484
X011377Y044015
X011377Y045629
X009409Y043602
X009409Y046614
X007440Y043129
X005433Y048582
X002480Y044645
X011377Y032775
X011377Y035787
X009409Y032303
X007440Y037755
X004448Y033818
X002401Y032303
X037636Y043897
X013981Y067753
X047884Y061740
X031090Y061740
X036190Y060340
X036190Y060340
X029790Y061640
X067123Y005341
X067637Y004921
X067637Y004921
X067165Y006417
X066692Y006574
X065708Y004566
X067675Y040485
X067165Y040078
X065866Y039842
X066653Y041889
X061062Y048740
X059153Y042401
X061062Y048740
X061062Y048740
X059153Y042401
X059153Y042401
X057401Y042736
X059488Y049507
X057401Y042736
X059488Y049507
X057401Y042736
X059488Y049507
X057401Y042736
X063208Y042401
X065000Y049114
X065000Y049114
X065000Y049114
X063208Y042401
X063208Y042401
X061850Y048740
X061850Y048740
X061850Y048740
X061456Y042066
X061456Y042066
X059704Y043740
X059704Y043740
X060354Y033838
X063484Y019685
X060354Y033838
X060354Y033838
X063484Y019685
X057539Y025354
X058700Y031791
X057539Y025354
X058700Y031791
X058700Y031791
X057539Y025354
X057539Y025354
X063346Y024350
X064212Y031397
X064212Y031397
X064212Y031397
X063346Y024350
X063346Y024350
X062637Y031023
X062637Y031023
X062637Y031023
X061594Y024015
X061594Y024015
X059842Y026358
X059842Y026358
X011377Y043602
X011377Y046614
X009409Y043129
X007440Y048582
X004448Y044645
X002401Y043129
X006417Y033818
X011377Y032303
X009409Y037755
X004370Y032303
X002401Y032775
X002480Y035787
X003307Y006259
X007598Y011850
X007007Y004685
X006141Y009448
X005787Y013818
X002913Y008818
X002913Y008818
X002244Y007165
X004133Y008818
X003503Y013149
X005157Y010551
X002874Y011614
X009581Y066053
X004556Y066453
X010581Y065453
X005472Y065275
X013582Y065551
X008897Y065354
X066223Y004541
X057539Y043070
X058700Y049507
X057539Y043070
X058700Y049507
X058700Y049507
X057539Y043070
X057539Y043070
X063346Y042066
X064212Y049114
X064212Y049114
X064212Y049114
X063346Y042066
X063346Y042066
X062637Y048740
X062637Y048740
X062637Y048740
X061594Y041732
X061594Y041732
X059842Y044074
X059842Y044074
X060118Y051200
X062893Y037401
X060118Y051200
X062893Y037401
X060118Y051200
X057677Y025688
X057913Y031791
X057677Y025688
X057913Y031791
X057913Y031791
X057677Y025688
X057677Y025688
X063484Y024015
X063425Y031397
X063425Y031397
X063425Y031397
X063484Y024015
X063484Y024015
X063425Y031023
X063425Y031023
X063425Y031023
X061732Y023681
X061732Y023681
X059980Y026692
X059980Y026692
X059980Y026692
X006417Y044645
X011377Y043129
X009409Y048582
X004370Y043129
X002401Y043602
X002480Y046614
X006338Y032303
X011377Y037755
X008425Y033818
X004370Y032775
X004448Y035787
X002401Y033188
X002480Y036771
X002480Y026929
X057814Y008307
X057125Y014074
X057814Y008307
X057125Y014074
X057125Y014074
X057814Y008307
X057814Y008307
X011181Y065453
X002581Y066453
X048677Y063133
X050677Y062533
X055277Y066933
X055877Y062733
X048777Y066058
X050677Y065133
X050944Y060236
X051771Y058031
X054289Y040485
X053779Y040078
X052480Y039842
X053267Y041889
M30
