G04 FreePCB version 1.354*
G04 C:\JPT\Projects\07\0701 - PhD\FreePCB\CrySys2\CAM\inner_copper_2.grb*
G04 inner 2 layer *
G04 Scale: 100 percent, Rotated: No, Reflected: No *
%FSLAX24Y24*%
%MOIN*%
%LN inner 2 *%
G04 Rounded Rectangle Macro, params: W/2, H/2, R *
%AMRNDREC*
21,1,$1+$1,$2+$2-$3-$3,0,0,0*
21,1,$1+$1-$3-$3,$2+$2,0,0,0*
1,1,$3+$3,$1-$3,$2-$3*
1,1,$3+$3,$3-$1,$2-$3*
1,1,$3+$3,$1-$3,$3-$2*
1,1,$3+$3,$3-$1,$3-$2*%
G04 Rectangular Thermal Macro, params: W/2, H/2, T/2 *
%AMRECTHERM*
$4=$3/2*
21,1,$1-$3,$2-$3,0-$1/2-$4,0-$2/2-$4,0*
21,1,$1-$3,$2-$3,0-$1/2-$4,$2/2+$4,0*
21,1,$1-$3,$2-$3,$1/2+$4,0-$2/2-$4,0*
21,1,$1-$3,$2-$3,$1/2+$4,$2/2+$4,0*%
%AMTHERM10*7,0,0,0.072000,0.052000,0.010000,45.0*%
%ADD10THERM10*%
%ADD11C,0.001000*%
%ADD12C,0.072000*%
%ADD13C,0.178000*%
%AMTHERM14*7,0,0,0.090000,0.070000,0.010000,45.0*%
%ADD14THERM14*%
%ADD15C,0.090000*%
%ADD16C,0.080000*%
%AMTHERM17*7,0,0,0.080000,0.060000,0.010000,45.0*%
%ADD17THERM17*%
%ADD18C,0.075039*%
%ADD19C,0.099000*%
%ADD20C,0.138425*%
%ADD21C,0.050000*%
%ADD22C,0.026000*%
%ADD23C,0.040000*%
%ADD24C,0.052000*%
%ADD25C,0.157000*%
%ADD26C,0.070000*%
%ADD27C,0.060000*%
%ADD28C,0.079000*%
%ADD29C,0.030000*%
%ADD30C,0.006000*%
%ADD31C,0.020000*%
G90*
G70D02*

G04 Step and Repeat for panelization *

G04 ----------------------- Draw copper area (positive)*
G36*
G01X5531Y51803D02*
G01X5529Y57775D01*
G01X5511Y57775D01*
G01X5531Y57778D01*
G01X5529Y57775D01*
G01X24631Y57753D01*
G01X24631Y51803D01*
G01X5531Y51803D01*
G37*

G04 ----------------------- Draw copper area (positive)*
G36*
G01X3937Y62303D02*
G01X3937Y64763D01*
G01X14173Y64763D01*
G01X14173Y62303D01*
G01X3937Y62303D01*
G37*

G04 ----------------------- Draw copper area (positive)*
G36*
G01X66732Y55314D02*
G01X60826Y55314D01*
G01X60826Y61811D01*
G01X57874Y61811D01*
G01X57874Y67913D01*
G01X62992Y67913D01*
G01X62992Y71456D01*
G01X66732Y71456D01*
G01X66732Y55314D01*
G37*

G04 ----------------------- Draw copper area (positive)*
G36*
G01X65438Y3816D02*
G01X65438Y7162D01*
G01X68391Y7162D01*
G01X68391Y3816D01*
G01X65438Y3816D01*
G37*

G04 ----------------------- Draw copper area (positive)*
G36*
G01X5314Y57972D02*
G01X5314Y51870D01*
G01X1377Y51870D01*
G01X1377Y59645D01*
G01X3937Y59645D01*
G01X3937Y62007D01*
G01X14370Y62007D01*
G01X14370Y67913D01*
G01X21062Y67913D01*
G01X21062Y71456D01*
G01X24606Y71456D01*
G01X24606Y57972D01*
G01X5314Y57972D01*
G37*

G04 ----------------------- Draw copper area (positive)*
G36*
G01X42790Y62240D02*
G01X26090Y62240D01*
G01X26090Y64290D01*
G01X42790Y64290D01*
G01X42790Y62240D01*
G37*

G04 ----------------------- Draw copper area (positive)*
G36*
G01X6889Y1377D02*
G01X1377Y1377D01*
G01X1377Y5708D01*
G01X6889Y5708D01*
G01X6889Y1377D01*
G37*

G04 ----------------------- Draw copper area (positive)*
G36*
G01X29527Y40551D02*
G01X31692Y40551D01*
G01X31692Y34055D01*
G01X13976Y34055D01*
G01X13976Y50196D01*
G01X29527Y50196D01*
G01X29527Y40551D01*
G37*

G04 ----------------------- Draw copper area (positive)*
G36*
G01X52952Y19685D02*
G01X40433Y19685D01*
G01X40433Y17755D01*
G01X26220Y17755D01*
G01X26220Y16929D01*
G01X13976Y16929D01*
G01X13976Y32480D01*
G01X52952Y32480D01*
G01X52952Y19685D01*
G37*

G04 ----------------------- Draw copper area (positive)*
G36*
G01X42784Y64471D02*
G01X26090Y64490D01*
G01X26090Y71540D01*
G01X42790Y71540D01*
G01X42784Y64471D01*
G37*

G04 ----------------------- Draw copper area (positive)*
G36*
G01X65453Y21542D02*
G01X65453Y24888D01*
G01X68406Y24888D01*
G01X68406Y21542D01*
G01X65453Y21542D01*
G37*

G04 ----------------------- Draw copper area (positive)*
G36*
G01X48031Y37795D02*
G01X43307Y37795D01*
G01X43307Y46653D01*
G01X48031Y46653D01*
G01X48031Y37795D01*
G37*

G04 ----------------------- Draw copper area (positive)*
G36*
G01X43110Y37795D02*
G01X31889Y37795D01*
G01X31889Y46653D01*
G01X43110Y46653D01*
G01X43110Y37795D01*
G37*

G04 ----------------------- Draw copper area (positive)*
G36*
G01X65453Y39259D02*
G01X65453Y42605D01*
G01X68406Y42605D01*
G01X68406Y39259D01*
G01X65453Y39259D01*
G37*

G04 ----------------------- Draw copper area (positive)*
G36*
G01X50590Y34055D02*
G01X31889Y34055D01*
G01X31889Y37598D01*
G01X48228Y37598D01*
G01X48228Y46850D01*
G01X29724Y46850D01*
G01X29724Y50196D01*
G01X50590Y50196D01*
G01X50590Y34055D01*
G37*

G04 ----------------------- Draw copper area (positive)*
G36*
G01X44094Y18346D02*
G01X41732Y18346D01*
G01X41732Y15590D01*
G01X44094Y15590D01*
G01X44094Y12795D01*
G01X41732Y12795D01*
G01X41732Y10039D01*
G01X44094Y10039D01*
G01X44094Y8543D01*
G01X52952Y8543D01*
G01X52952Y1377D01*
G01X13976Y1377D01*
G01X13976Y4645D01*
G01X23307Y4645D01*
G01X26417Y7755D01*
G01X26417Y11299D01*
G01X25236Y11299D01*
G01X25236Y14055D01*
G01X26417Y14055D01*
G01X26417Y17559D01*
G01X40629Y17559D01*
G01X40629Y19488D01*
G01X44094Y19488D01*
G01X44094Y18346D01*
G37*

G04 ----------------------- Draw copper area (positive)*
G36*
G01X20354Y4842D02*
G01X13976Y4842D01*
G01X13976Y16732D01*
G01X20354Y16732D01*
G01X20354Y4842D01*
G37*

G04 ----------------------- Draw copper area (positive)*
G36*
G01X52067Y39259D02*
G01X52067Y42605D01*
G01X55020Y42605D01*
G01X55020Y39259D01*
G01X52067Y39259D01*
G37*

G04 ----------------------- Draw copper area (positive)*
G36*
G01X31692Y40748D02*
G01X29724Y40748D01*
G01X29724Y46653D01*
G01X31692Y46653D01*
G01X31692Y40748D01*
G37*

G04 ----------------------- Draw copper area (positive)*
G36*
G01X26220Y14251D02*
G01X25039Y14251D01*
G01X25039Y11102D01*
G01X26220Y11102D01*
G01X26220Y7834D01*
G01X23228Y4842D01*
G01X20511Y4842D01*
G01X20511Y16732D01*
G01X26220Y16732D01*
G01X26220Y14251D01*
G37*

G04 ----------------------- Draw copper area (positive)*
G36*
G01X52952Y8740D02*
G01X44291Y8740D01*
G01X44291Y19488D01*
G01X52952Y19488D01*
G01X52952Y8740D01*
G37*

G04 ----------------------- Draw copper area (positive)*
G36*
G01X12401Y1377D02*
G01X7086Y1377D01*
G01X7086Y5905D01*
G01X1377Y5905D01*
G01X1377Y17125D01*
G01X12401Y17125D01*
G01X12401Y1377D01*
G37*

G04 ----------------------- Draw copper area (positive)*
G36*
G01X42790Y55240D02*
G01X26090Y55240D01*
G01X26090Y61740D01*
G01X42784Y61771D01*
G01X42790Y55240D01*
G37*

G04 ----------------------- Draw copper area (positive)*
G36*
G01X14173Y68110D02*
G01X14173Y64960D01*
G01X3740Y64960D01*
G01X3740Y59842D01*
G01X1377Y59842D01*
G01X1377Y71456D01*
G01X20866Y71456D01*
G01X20866Y68110D01*
G01X14173Y68110D01*
G37*

G04 ----------------------- Draw copper area (positive)*
G36*
G01X62795Y68110D02*
G01X57677Y68110D01*
G01X57677Y61614D01*
G01X60629Y61614D01*
G01X60629Y55314D01*
G01X44291Y55314D01*
G01X44291Y71456D01*
G01X62795Y71456D01*
G01X62795Y68110D01*
G37*

G04 -------------------- Draw copper area clearances (negative)*
%LPC*%

G04 Draw clearances for pads*
G54D10*
G01X8232Y12531D03*
G54D11*
G54D12*
G01X8232Y11531D03*
G01X8232Y10531D03*
G01X8232Y9531D03*
G01X11232Y9531D03*
G01X11232Y12531D03*
G01X8232Y8531D03*
G01X8232Y7531D03*
G54D10*
G01X8232Y6531D03*
G54D11*
G54D12*
G01X8232Y5531D03*
G01X11232Y5531D03*
G01X11232Y8531D03*
G54D13*
G01X3149Y15354D03*
G01X10629Y3149D03*
G01X10629Y15354D03*
G01X3149Y3149D03*
G54D14*
G01X5889Y2755D03*
G54D11*
G54D15*
G01X7889Y2755D03*
G01X7889Y15748D03*
G01X5889Y15748D03*
G54D10*
G01X18287Y25531D03*
G54D11*
G54D12*
G01X18287Y26531D03*
G01X18287Y27531D03*
G01X18287Y28531D03*
G01X15287Y28531D03*
G01X15287Y25531D03*
G54D10*
G01X18287Y21531D03*
G54D11*
G54D12*
G01X18287Y22531D03*
G01X18287Y23531D03*
G01X18287Y24531D03*
G01X15287Y24531D03*
G01X15287Y21531D03*
G54D10*
G01X48681Y27437D03*
G54D11*
G54D12*
G01X48681Y26437D03*
G01X48681Y25437D03*
G01X48681Y24437D03*
G01X51681Y24437D03*
G01X51681Y27437D03*
G01X18287Y17531D03*
G01X18287Y18531D03*
G54D10*
G01X18287Y19531D03*
G54D11*
G54D12*
G01X18287Y20531D03*
G01X15287Y20531D03*
G01X15287Y17531D03*
G01X48681Y23437D03*
G01X48681Y22437D03*
G54D10*
G01X48681Y21437D03*
G54D11*
G54D12*
G01X48681Y20437D03*
G01X51681Y20437D03*
G01X51681Y23437D03*
G54D16*
G01X45763Y31208D03*
G01X44763Y31208D03*
G01X43763Y31208D03*
G01X42763Y31208D03*
G01X41763Y31208D03*
G01X40763Y31208D03*
G01X39763Y31208D03*
G01X38763Y31208D03*
G01X37763Y31208D03*
G01X36763Y31208D03*
G01X35763Y31208D03*
G01X34763Y31208D03*
G01X33763Y31208D03*
G01X33763Y30208D03*
G01X34763Y30208D03*
G01X35763Y30208D03*
G01X36763Y30208D03*
G01X37763Y30208D03*
G01X38763Y30208D03*
G01X39763Y30208D03*
G01X40763Y30208D03*
G01X41763Y30208D03*
G01X42763Y30208D03*
G01X43763Y30208D03*
G01X44763Y30208D03*
G01X45763Y30208D03*
G01X32582Y2649D03*
G54D17*
G01X33582Y2649D03*
G54D11*
G54D16*
G01X34582Y2649D03*
G01X35582Y2649D03*
G01X36582Y2649D03*
G01X37582Y2649D03*
G01X38582Y2649D03*
G01X39582Y2649D03*
G01X40582Y2649D03*
G01X41582Y2649D03*
G01X42582Y2649D03*
G01X43582Y2649D03*
G01X44582Y2649D03*
G01X44582Y3649D03*
G01X43582Y3649D03*
G01X42582Y3649D03*
G01X41582Y3649D03*
G01X40582Y3649D03*
G01X39582Y3649D03*
G01X38582Y3649D03*
G01X37582Y3649D03*
G01X36582Y3649D03*
G01X35582Y3649D03*
G01X34582Y3649D03*
G01X33582Y3649D03*
G01X32582Y3649D03*
G54D13*
G01X51181Y3149D03*
G01X15748Y3149D03*
G01X51181Y30708D03*
G01X15748Y30708D03*
G54D12*
G01X22161Y26531D03*
G01X23161Y26531D03*
G01X24161Y26531D03*
G01X25161Y26531D03*
G01X25161Y29531D03*
G01X24161Y29531D03*
G01X23161Y29531D03*
G01X22161Y29531D03*
G01X27358Y26492D03*
G01X28358Y26492D03*
G01X29358Y26492D03*
G01X30358Y26492D03*
G01X30358Y29492D03*
G01X29358Y29492D03*
G01X28358Y29492D03*
G01X27358Y29492D03*
G54D16*
G01X22015Y2649D03*
G01X23015Y2649D03*
G01X24015Y2649D03*
G01X25015Y2649D03*
G01X26015Y2649D03*
G01X26015Y3649D03*
G01X25015Y3649D03*
G01X24015Y3649D03*
G01X23015Y3649D03*
G01X22015Y3649D03*
G54D17*
G01X41070Y35287D03*
G54D11*
G54D16*
G01X42070Y35287D03*
G01X43070Y35287D03*
G01X44070Y35287D03*
G01X45070Y35287D03*
G01X45070Y36287D03*
G01X44070Y36287D03*
G01X43070Y36287D03*
G01X42070Y36287D03*
G01X41070Y36287D03*
G01X45070Y48964D03*
G01X44070Y48964D03*
G01X43070Y48964D03*
G01X42070Y48964D03*
G01X41070Y48964D03*
G01X41070Y47964D03*
G01X42070Y47964D03*
G01X43070Y47964D03*
G01X44070Y47964D03*
G01X45070Y47964D03*
G54D17*
G01X32409Y35287D03*
G54D11*
G54D16*
G01X33409Y35287D03*
G01X34409Y35287D03*
G01X35409Y35287D03*
G01X36409Y35287D03*
G01X36409Y36287D03*
G01X35409Y36287D03*
G01X34409Y36287D03*
G01X33409Y36287D03*
G01X32409Y36287D03*
G54D13*
G01X48818Y35826D03*
G01X19291Y48425D03*
G01X19291Y35826D03*
G01X48818Y48425D03*
G54D14*
G01X34582Y48740D03*
G54D11*
G54D15*
G01X32582Y48740D03*
G54D12*
G01X28355Y41456D03*
G01X27755Y40856D03*
G01X27155Y41456D03*
G01X27155Y42834D03*
G01X27755Y43434D03*
G54D10*
G01X28355Y42834D03*
G54D11*
G54D12*
G01X46444Y41437D03*
G01X46444Y40437D03*
G54D10*
G01X46444Y39437D03*
G54D11*
G54D12*
G01X46444Y38437D03*
G01X49444Y38437D03*
G01X49444Y41437D03*
G54D10*
G01X46444Y45437D03*
G54D11*
G54D12*
G01X46444Y44437D03*
G01X46444Y43437D03*
G01X46444Y42437D03*
G01X49444Y42437D03*
G01X49444Y45437D03*
G54D18*
G01X54742Y15944D03*
G01X65730Y15944D03*
G01X1521Y19881D03*
G01X12257Y19881D03*
G54D16*
G01X15208Y48125D03*
G01X15208Y47125D03*
G01X15208Y46125D03*
G01X15208Y45125D03*
G01X15208Y44125D03*
G01X15208Y43125D03*
G01X15208Y42125D03*
G01X15208Y41125D03*
G01X15208Y40125D03*
G01X15208Y39125D03*
G01X15208Y38125D03*
G01X15208Y37125D03*
G01X15208Y36125D03*
G01X16208Y36125D03*
G01X16208Y37125D03*
G01X16208Y38125D03*
G01X16208Y39125D03*
G01X16208Y40125D03*
G01X16208Y41125D03*
G01X16208Y42125D03*
G01X16208Y43125D03*
G01X16208Y44125D03*
G01X16208Y45125D03*
G01X16208Y46125D03*
G01X16208Y47125D03*
G01X16208Y48125D03*
G54D18*
G01X1521Y30708D03*
G01X12257Y30708D03*
G01X1521Y41535D03*
G01X12257Y41535D03*
G01X54742Y33661D03*
G01X65730Y33661D03*
G01X54742Y51377D03*
G01X65730Y51377D03*
G54D16*
G01X6992Y53043D03*
G01X7992Y53043D03*
G01X8992Y53043D03*
G01X9992Y53043D03*
G01X10992Y53043D03*
G01X11992Y53043D03*
G01X12992Y53043D03*
G01X13992Y53043D03*
G01X14992Y53043D03*
G01X15992Y53043D03*
G01X16992Y53043D03*
G01X17992Y53043D03*
G01X18992Y53043D03*
G01X18992Y54043D03*
G01X17992Y54043D03*
G01X16992Y54043D03*
G01X15992Y54043D03*
G01X14992Y54043D03*
G01X13992Y54043D03*
G01X12992Y54043D03*
G01X11992Y54043D03*
G01X10992Y54043D03*
G01X9992Y54043D03*
G01X8992Y54043D03*
G01X7992Y54043D03*
G01X6992Y54043D03*
G54D14*
G01X2952Y60661D03*
G54D11*
G54D15*
G01X2952Y58661D03*
G54D14*
G01X2952Y56661D03*
G54D11*
G54D13*
G01X22834Y69685D03*
G01X22834Y53543D03*
G01X3149Y69685D03*
G01X3149Y53543D03*
G54D19*
G01X52504Y63440D03*
G01X52504Y65360D03*
G54D16*
G01X45518Y65798D03*
G01X45518Y64798D03*
G01X45518Y63798D03*
G01X45518Y62798D03*
G01X45518Y61798D03*
G01X46518Y61798D03*
G01X46518Y62798D03*
G01X46518Y63798D03*
G01X46518Y64798D03*
G01X46518Y65798D03*
G01X53384Y70240D03*
G01X52384Y70240D03*
G01X51384Y70240D03*
G01X50384Y70240D03*
G01X49384Y70240D03*
G01X49384Y69240D03*
G01X50384Y69240D03*
G01X51384Y69240D03*
G01X52384Y69240D03*
G01X53384Y69240D03*
G01X61584Y70240D03*
G01X60584Y70240D03*
G01X59584Y70240D03*
G01X58584Y70240D03*
G01X57584Y70240D03*
G01X57584Y69240D03*
G01X58584Y69240D03*
G01X59584Y69240D03*
G01X60584Y69240D03*
G01X61584Y69240D03*
G54D13*
G01X45669Y69685D03*
G01X65354Y69685D03*
G01X45625Y56711D03*
G01X65354Y56692D03*
G54D19*
G01X63434Y60400D03*
G01X63433Y61403D03*
G01X63433Y62403D03*
G54D20*
G01X64933Y59903D03*
G01X64933Y62903D03*
G54D15*
G01X36251Y70078D03*
G01X34251Y70078D03*
G54D14*
G01X32251Y70078D03*
G54D11*
G54D16*
G01X41490Y61540D03*
G01X41490Y62540D03*
G01X41490Y63540D03*
G01X41490Y64540D03*
G01X41490Y65540D03*
G01X40490Y65540D03*
G01X40490Y64540D03*
G01X40490Y63540D03*
G01X40490Y62540D03*
G01X40490Y61540D03*
G01X31990Y56440D03*
G01X32990Y56440D03*
G01X33990Y56440D03*
G01X34990Y56440D03*
G01X35990Y56440D03*
G01X35990Y57440D03*
G01X34990Y57440D03*
G01X33990Y57440D03*
G01X32990Y57440D03*
G01X31990Y57440D03*
G54D13*
G01X27952Y69685D03*
G01X40944Y69685D03*
G01X40944Y57086D03*
G01X27952Y57086D03*
G01X66929Y25984D03*
G01X66929Y20472D03*
G54D12*
G01X62984Y65740D03*
G01X62984Y66740D03*
G01X59984Y66740D03*
G01X59984Y65740D03*
G54D13*
G01X66929Y2755D03*
G01X66929Y8267D03*
G54D16*
G01X18992Y70185D03*
G01X17992Y70185D03*
G01X16992Y70185D03*
G01X15992Y70185D03*
G01X14992Y70185D03*
G01X13992Y70185D03*
G01X12992Y70185D03*
G01X11992Y70185D03*
G01X10992Y70185D03*
G01X9992Y70185D03*
G01X8992Y70185D03*
G01X7992Y70185D03*
G01X6992Y70185D03*
G01X6992Y69185D03*
G01X7992Y69185D03*
G01X8992Y69185D03*
G01X9992Y69185D03*
G01X10992Y69185D03*
G01X11992Y69185D03*
G01X12992Y69185D03*
G01X13992Y69185D03*
G01X14992Y69185D03*
G01X15992Y69185D03*
G01X16992Y69185D03*
G01X17992Y69185D03*
G01X18992Y69185D03*
G54D15*
G01X55584Y56740D03*
G01X57584Y56740D03*
G01X59584Y56740D03*
G54D16*
G01X27490Y65540D03*
G01X27490Y64540D03*
G01X27490Y63540D03*
G01X27490Y62540D03*
G01X27490Y61540D03*
G01X28490Y61540D03*
G01X28490Y62540D03*
G01X28490Y63540D03*
G01X28490Y64540D03*
G01X28490Y65540D03*
G54D13*
G01X66929Y43700D03*
G01X66929Y38188D03*
G01X53543Y43700D03*
G01X53543Y38188D03*

G04 Draw clearances for traces*
G54D21*
G01X60354Y51555D03*
G01X63484Y37401D03*
G54D22*
G01X63484Y37401D02*
G01X63484Y40846D01*
G01X63484Y40846D02*
G01X61574Y42755D01*
G01X61574Y42755D02*
G01X61574Y43917D01*
G01X61574Y43917D02*
G01X60374Y45118D01*
G01X60374Y45118D02*
G01X60374Y51535D01*
G54D21*
G01X60354Y51555D03*
G54D22*
G01X60374Y51535D02*
G01X60354Y51555D01*
G54D21*
G01X60354Y51555D03*
G54D22*
G01X60354Y51555D02*
G01X60374Y51535D01*
G01X60374Y51535D02*
G01X60374Y45118D01*
G01X60374Y45118D02*
G01X61574Y43917D01*
G01X61574Y43917D02*
G01X61574Y42755D01*
G01X61574Y42755D02*
G01X63484Y40846D01*
G54D21*
G01X63484Y37401D03*
G54D22*
G01X63484Y40846D02*
G01X63484Y37401D01*
G54D21*
G01X57677Y43405D03*
G01X57913Y49507D03*
G01X57677Y43405D03*
G01X57913Y49507D03*
G01X57913Y49507D03*
G01X57677Y43405D03*
G01X57677Y43405D03*
G01X63484Y41732D03*
G54D22*
G01X63484Y41732D02*
G01X63188Y41732D01*
G01X63188Y41732D02*
G01X61988Y42933D01*
G01X61988Y42933D02*
G01X61988Y44036D01*
G01X61988Y44036D02*
G01X60787Y45237D01*
G01X60787Y45237D02*
G01X60787Y47244D01*
G01X60787Y47244D02*
G01X60787Y47440D01*
G01X60787Y47440D02*
G01X61259Y47913D01*
G01X61259Y47913D02*
G01X62637Y47913D01*
G01X62637Y47913D02*
G01X63051Y48326D01*
G01X63051Y48326D02*
G01X63051Y48740D01*
G54D21*
G01X63425Y49114D03*
G54D22*
G01X63051Y48740D02*
G01X63425Y49114D01*
G54D21*
G01X63425Y49114D03*
G01X63425Y49114D03*
G54D22*
G01X63425Y49114D02*
G01X63051Y48740D01*
G01X63051Y48740D02*
G01X63051Y48326D01*
G01X63051Y48326D02*
G01X62637Y47913D01*
G01X62637Y47913D02*
G01X61259Y47913D01*
G01X61259Y47913D02*
G01X60787Y47440D01*
G01X60787Y47440D02*
G01X60787Y45236D01*
G01X60787Y45236D02*
G01X61988Y44035D01*
G01X61988Y44035D02*
G01X61988Y42933D01*
G01X61988Y42933D02*
G01X63188Y41732D01*
G54D21*
G01X63484Y41732D03*
G54D22*
G01X63188Y41732D02*
G01X63484Y41732D01*
G54D21*
G01X63484Y41732D03*
G01X63425Y48740D03*
G01X63425Y48740D03*
G01X63425Y48740D03*
G01X61732Y41397D03*
G01X61732Y41397D03*
G01X59980Y44409D03*
G01X59980Y44409D03*
G01X59980Y44409D03*
G01X63622Y23681D03*
G54D22*
G01X63622Y23681D02*
G01X63326Y23681D01*
G01X63326Y23681D02*
G01X61850Y25157D01*
G01X61850Y25157D02*
G01X61850Y26279D01*
G01X61850Y26279D02*
G01X60649Y27480D01*
G01X60649Y27480D02*
G01X60649Y29527D01*
G01X60649Y29527D02*
G01X60649Y29783D01*
G01X60649Y29783D02*
G01X61200Y30334D01*
G01X61200Y30334D02*
G01X61850Y30334D01*
G01X61850Y30334D02*
G01X62244Y30728D01*
G01X62244Y30728D02*
G01X62244Y31003D01*
G54D21*
G01X62637Y31397D03*
G54D22*
G01X62244Y31003D02*
G01X62637Y31397D01*
G54D21*
G01X63622Y23681D03*
G01X62637Y31397D03*
G01X62637Y31397D03*
G54D22*
G01X62637Y31397D02*
G01X62244Y31003D01*
G01X62244Y31003D02*
G01X62244Y30728D01*
G01X62244Y30728D02*
G01X61850Y30334D01*
G01X61850Y30334D02*
G01X61200Y30334D01*
G01X61200Y30334D02*
G01X60649Y29783D01*
G01X60649Y29783D02*
G01X60649Y27480D01*
G01X60649Y27480D02*
G01X61850Y26279D01*
G01X61850Y26279D02*
G01X61850Y25157D01*
G01X61850Y25157D02*
G01X63326Y23681D01*
G54D21*
G01X63622Y23681D03*
G54D22*
G01X63326Y23681D02*
G01X63622Y23681D01*
G54D21*
G01X63622Y23681D03*
G01X64212Y31023D03*
G01X61870Y23346D03*
G01X64212Y31023D03*
G01X64212Y31023D03*
G01X61870Y23346D03*
G01X60236Y26968D03*
G01X60236Y26968D03*
G01X6338Y43129D03*
G01X11377Y48582D03*
G01X8425Y44645D03*
G01X4370Y43602D03*
G01X4448Y46614D03*
G01X2401Y44015D03*
G54D22*
G01X2401Y44015D02*
G01X2007Y44409D01*
G01X2007Y44409D02*
G01X2007Y47125D01*
G54D21*
G01X2480Y47598D03*
G54D22*
G01X2007Y47125D02*
G01X2480Y47598D01*
G54D21*
G01X10393Y33818D03*
G01X8425Y33188D03*
G54D22*
G01X8425Y33188D02*
G01X8818Y33582D01*
G01X8818Y33582D02*
G01X8818Y34409D01*
G54D21*
G01X8425Y34803D03*
G54D22*
G01X8818Y34409D02*
G01X8425Y34803D01*
G54D21*
G01X4370Y33188D03*
G54D22*
G01X4370Y33188D02*
G01X3976Y33582D01*
G01X3976Y33582D02*
G01X3976Y36299D01*
G54D21*
G01X4448Y36771D03*
G54D22*
G01X3976Y36299D02*
G01X4448Y36771D01*
G54D21*
G01X6338Y32775D03*
G01X6417Y35787D03*
G01X4448Y26929D03*
G01X57952Y8641D03*
G01X56338Y14074D03*
G01X57952Y8641D03*
G01X56338Y14074D03*
G01X56338Y14074D03*
G01X57952Y8641D03*
G01X57952Y8641D03*
G01X63759Y5629D03*
G54D22*
G01X63759Y5629D02*
G01X63464Y5629D01*
G01X63464Y5629D02*
G01X61712Y7381D01*
G01X61712Y7381D02*
G01X61712Y8524D01*
G01X61712Y8524D02*
G01X60511Y9725D01*
G01X60511Y9725D02*
G01X60511Y11811D01*
G01X60511Y11811D02*
G01X60511Y12125D01*
G01X60511Y12125D02*
G01X61456Y13070D01*
G01X61456Y13070D02*
G01X61456Y13287D01*
G54D21*
G01X61850Y13681D03*
G54D22*
G01X61456Y13287D02*
G01X61850Y13681D01*
G54D21*
G01X63759Y5629D03*
G01X61850Y13681D03*
G01X61850Y13681D03*
G54D22*
G01X61850Y13681D02*
G01X61456Y13287D01*
G01X61456Y13287D02*
G01X61456Y13070D01*
G01X61456Y13070D02*
G01X60511Y12125D01*
G01X60511Y12125D02*
G01X60511Y9724D01*
G01X60511Y9724D02*
G01X61712Y8523D01*
G01X61712Y8523D02*
G01X61712Y7381D01*
G01X61712Y7381D02*
G01X63464Y5629D01*
G54D21*
G01X63759Y5629D03*
G54D22*
G01X63464Y5629D02*
G01X63759Y5629D01*
G54D21*
G01X63759Y5629D03*
G01X3622Y10078D03*
G01X21417Y9409D03*
G01X22834Y9409D03*
G01X49902Y66058D03*
G01X58779Y60236D03*
G01X60354Y59330D03*
G01X53110Y62716D03*
G01X52913Y60236D03*
G01X48976Y60236D03*
G01X51771Y57125D03*
G01X50078Y65118D03*
G01X53070Y66023D03*
G01X54685Y66929D03*
G01X48740Y66732D03*
G01X48110Y63031D03*
G01X50078Y62440D03*
G01X50078Y62440D03*
G01X57244Y64645D03*
G01X55866Y63464D03*
G01X55866Y63464D03*
G01X54289Y41584D03*
G01X63622Y41397D03*
G54D22*
G01X63622Y41397D02*
G01X63326Y41397D01*
G01X63326Y41397D02*
G01X61850Y42874D01*
G01X61850Y42874D02*
G01X61850Y43996D01*
G01X61850Y43996D02*
G01X60649Y45197D01*
G01X60649Y45197D02*
G01X60649Y47244D01*
G01X60649Y47244D02*
G01X60649Y47500D01*
G01X60649Y47500D02*
G01X61200Y48051D01*
G01X61200Y48051D02*
G01X61850Y48051D01*
G01X61850Y48051D02*
G01X62244Y48444D01*
G01X62244Y48444D02*
G01X62244Y48720D01*
G54D21*
G01X62637Y49114D03*
G54D22*
G01X62244Y48720D02*
G01X62637Y49114D01*
G54D21*
G01X63622Y41397D03*
G01X62637Y49114D03*
G01X62637Y49114D03*
G54D22*
G01X62637Y49114D02*
G01X62244Y48720D01*
G01X62244Y48720D02*
G01X62244Y48444D01*
G01X62244Y48444D02*
G01X61850Y48051D01*
G01X61850Y48051D02*
G01X61200Y48051D01*
G01X61200Y48051D02*
G01X60649Y47500D01*
G01X60649Y47500D02*
G01X60649Y45196D01*
G01X60649Y45196D02*
G01X61850Y43996D01*
G01X61850Y43996D02*
G01X61850Y42874D01*
G01X61850Y42874D02*
G01X63326Y41397D01*
G54D21*
G01X63622Y41397D03*
G54D22*
G01X63326Y41397D02*
G01X63622Y41397D01*
G54D21*
G01X63622Y41397D03*
G01X64212Y48740D03*
G01X61870Y41062D03*
G01X64212Y48740D03*
G01X64212Y48740D03*
G01X61870Y41062D03*
G01X60236Y44685D03*
G01X60236Y44685D03*
G01X65000Y31023D03*
G01X62125Y26968D03*
G01X65000Y31023D03*
G01X65000Y31023D03*
G01X62125Y26968D03*
G01X60492Y26692D03*
G01X60492Y26692D03*
G01X10393Y44645D03*
G01X8425Y44015D03*
G54D22*
G01X8425Y44015D02*
G01X8818Y44409D01*
G01X8818Y44409D02*
G01X8818Y45236D01*
G54D21*
G01X8425Y45629D03*
G54D22*
G01X8818Y45236D02*
G01X8425Y45629D01*
G54D21*
G01X4370Y44015D03*
G54D22*
G01X4370Y44015D02*
G01X3976Y44409D01*
G01X3976Y44409D02*
G01X3976Y47125D01*
G54D21*
G01X4448Y47598D03*
G54D22*
G01X3976Y47125D02*
G01X4448Y47598D01*
G54D21*
G01X6338Y43602D03*
G01X6417Y46614D03*
G01X10393Y33188D03*
G54D22*
G01X10393Y33188D02*
G01X10787Y33582D01*
G01X10787Y33582D02*
G01X10787Y34409D01*
G54D21*
G01X10393Y34803D03*
G54D22*
G01X10787Y34409D02*
G01X10393Y34803D01*
G54D21*
G01X8425Y32775D03*
G01X8425Y35787D03*
G01X6338Y33188D03*
G54D22*
G01X6338Y33188D02*
G01X5944Y33582D01*
G01X5944Y33582D02*
G01X5944Y36299D01*
G54D21*
G01X6417Y36771D03*
G54D22*
G01X5944Y36299D02*
G01X6417Y36771D01*
G54D21*
G01X3464Y22992D03*
G01X6417Y26929D03*
G01X58090Y8976D03*
G01X55531Y14074D03*
G01X58090Y8976D03*
G01X55531Y14074D03*
G01X55531Y14074D03*
G01X58090Y8976D03*
G01X58090Y8976D03*
G01X60236Y1988D03*
G54D22*
G01X60236Y1988D02*
G01X59350Y1988D01*
G01X59350Y1988D02*
G01X58346Y2992D01*
G01X58346Y2992D02*
G01X58346Y6771D01*
G01X58346Y6771D02*
G01X58897Y7322D01*
G01X58897Y7322D02*
G01X58897Y8307D01*
G01X58897Y8307D02*
G01X60098Y9507D01*
G01X60098Y9507D02*
G01X60098Y11811D01*
G01X60098Y11811D02*
G01X60098Y13070D01*
G54D21*
G01X59488Y13681D03*
G54D22*
G01X60098Y13070D02*
G01X59488Y13681D01*
G54D21*
G01X60236Y1988D03*
G01X59488Y13681D03*
G01X59488Y13681D03*
G54D22*
G01X59488Y13681D02*
G01X60098Y13070D01*
G01X60098Y13070D02*
G01X60098Y9507D01*
G01X60098Y9507D02*
G01X58897Y8307D01*
G01X58897Y8307D02*
G01X58897Y7322D01*
G01X58897Y7322D02*
G01X58346Y6771D01*
G01X58346Y6771D02*
G01X58346Y2992D01*
G01X58346Y2992D02*
G01X59350Y1988D01*
G54D21*
G01X60236Y1988D03*
G54D22*
G01X59350Y1988D02*
G01X60236Y1988D01*
G54D21*
G01X62381Y8976D03*
G01X65000Y14074D03*
G01X62381Y8976D03*
G01X65000Y14074D03*
G01X65000Y14074D03*
G01X62381Y8976D03*
G01X62381Y8976D03*
G01X21417Y11653D03*
G01X22401Y11653D03*
G01X12981Y67753D03*
G01X12481Y64353D03*
G54D11*
G54D21*
G01X2581Y64253D03*
G54D11*
G54D21*
G01X20181Y65553D03*
G54D11*
G54D21*
G01X21706Y64853D03*
G01X19781Y60303D03*
G01X67675Y23867D03*
G01X65000Y48740D03*
G01X62125Y44685D03*
G01X65000Y48740D03*
G01X65000Y48740D03*
G01X62125Y44685D03*
G01X60492Y44409D03*
G01X60492Y44409D03*
G01X60629Y26358D03*
G01X60629Y26358D03*
G01X10393Y44015D03*
G54D22*
G01X10393Y44015D02*
G01X10787Y44409D01*
G01X10787Y44409D02*
G01X10787Y45236D01*
G54D21*
G01X10393Y45629D03*
G54D22*
G01X10787Y45236D02*
G01X10393Y45629D01*
G54D21*
G01X8425Y43602D03*
G01X8425Y46614D03*
G01X6338Y44015D03*
G54D22*
G01X6338Y44015D02*
G01X5944Y44409D01*
G01X5944Y44409D02*
G01X5944Y47125D01*
G54D21*
G01X6417Y47598D03*
G54D22*
G01X5944Y47125D02*
G01X6417Y47598D01*
G54D21*
G01X10393Y32775D03*
G01X10393Y35787D03*
G01X8425Y32303D03*
G01X8425Y26929D03*
G01X3385Y21476D03*
G01X5433Y22992D03*
G01X56338Y13307D03*
G01X58346Y9251D03*
G01X56338Y13307D03*
G01X56338Y13307D03*
G01X58346Y9251D03*
G01X58346Y9251D03*
G01X56712Y5629D03*
G54D22*
G01X56712Y5629D02*
G01X57007Y5629D01*
G01X57007Y5629D02*
G01X58759Y7381D01*
G01X58759Y7381D02*
G01X58759Y8346D01*
G01X58759Y8346D02*
G01X59960Y9547D01*
G01X59960Y9547D02*
G01X59960Y11811D01*
G01X59960Y11811D02*
G01X59960Y12244D01*
G01X59960Y12244D02*
G01X58956Y13248D01*
G01X58956Y13248D02*
G01X58956Y13425D01*
G54D21*
G01X58700Y13681D03*
G54D22*
G01X58956Y13425D02*
G01X58700Y13681D01*
G54D21*
G01X56712Y5629D03*
G01X58700Y13681D03*
G01X58700Y13681D03*
G54D22*
G01X58700Y13681D02*
G01X58956Y13425D01*
G01X58956Y13425D02*
G01X58956Y13248D01*
G01X58956Y13248D02*
G01X59960Y12244D01*
G01X59960Y12244D02*
G01X59960Y9547D01*
G01X59960Y9547D02*
G01X58759Y8346D01*
G01X58759Y8346D02*
G01X58759Y7381D01*
G01X58759Y7381D02*
G01X57007Y5629D01*
G54D21*
G01X56712Y5629D03*
G54D22*
G01X57007Y5629D02*
G01X56712Y5629D01*
G54D21*
G01X56712Y5629D03*
G01X62519Y8641D03*
G01X64212Y14074D03*
G01X62519Y8641D03*
G01X64212Y14074D03*
G01X64212Y14074D03*
G01X62519Y8641D03*
G01X62519Y8641D03*
G01X60767Y8307D03*
G01X60767Y8307D03*
G01X60767Y8307D03*
G01X21417Y12283D03*
G01X21023Y13897D03*
G01X19488Y14527D03*
G01X10981Y67753D03*
G01X17281Y60303D03*
G01X56834Y60240D03*
G01X55484Y62140D03*
G54D11*
G54D21*
G01X49684Y64540D03*
G01X29790Y61040D03*
G01X31690Y61440D03*
G01X32940Y61440D03*
G01X33984Y61433D03*
G01X38188Y60354D03*
G54D11*
G54D21*
G01X60629Y44074D03*
G01X60629Y44074D03*
G01X10393Y43602D03*
G01X10393Y46614D03*
G01X8425Y43129D03*
G01X10393Y32303D03*
G01X10393Y26929D03*
G01X7440Y22992D03*
G01X3385Y21948D03*
G01X3464Y24960D03*
G01X5354Y21476D03*
G01X57125Y13307D03*
G01X58602Y5629D03*
G01X57125Y13307D03*
G01X57125Y13307D03*
G01X58602Y5629D03*
G01X58602Y5629D03*
G01X56850Y5964D03*
G54D22*
G01X56850Y5964D02*
G01X57145Y5964D01*
G01X57145Y5964D02*
G01X58622Y7440D01*
G01X58622Y7440D02*
G01X58622Y8385D01*
G01X58622Y8385D02*
G01X59822Y9586D01*
G01X59822Y9586D02*
G01X59822Y11811D01*
G01X59822Y11811D02*
G01X59822Y12185D01*
G01X59822Y12185D02*
G01X59251Y12755D01*
G01X59251Y12755D02*
G01X58503Y12755D01*
G01X58503Y12755D02*
G01X58169Y13090D01*
G01X58169Y13090D02*
G01X58169Y13425D01*
G54D21*
G01X57913Y13681D03*
G54D22*
G01X58169Y13425D02*
G01X57913Y13681D01*
G54D21*
G01X56850Y5964D03*
G01X57913Y13681D03*
G01X57913Y13681D03*
G54D22*
G01X57913Y13681D02*
G01X58169Y13425D01*
G01X58169Y13425D02*
G01X58169Y13090D01*
G01X58169Y13090D02*
G01X58503Y12755D01*
G01X58503Y12755D02*
G01X59251Y12755D01*
G01X59251Y12755D02*
G01X59822Y12185D01*
G01X59822Y12185D02*
G01X59822Y9586D01*
G01X59822Y9586D02*
G01X58622Y8385D01*
G01X58622Y8385D02*
G01X58622Y7440D01*
G01X58622Y7440D02*
G01X57145Y5964D01*
G54D21*
G01X56850Y5964D03*
G54D22*
G01X57145Y5964D02*
G01X56850Y5964D01*
G54D21*
G01X56850Y5964D03*
G01X62657Y8307D03*
G01X63425Y14074D03*
G01X62657Y8307D03*
G01X63425Y14074D03*
G01X63425Y14074D03*
G01X62657Y8307D03*
G01X62657Y8307D03*
G01X60905Y7972D03*
G01X60905Y7972D03*
G01X60905Y7972D03*
G01X28976Y39409D03*
G01X27007Y40433D03*
G01X20944Y44488D03*
G01X20984Y41732D03*
G01X20984Y38976D03*
G01X24094Y35118D03*
G01X21574Y46062D03*
G01X21614Y43307D03*
G01X21614Y40551D03*
G01X24724Y36692D03*
G01X17952Y43897D03*
G01X17952Y41141D03*
G01X17992Y38385D03*
G01X21102Y34527D03*
G01X25236Y46614D03*
G01X24212Y45905D03*
G01X22165Y44921D03*
G01X24212Y43582D03*
G01X24212Y38937D03*
G01X24212Y41259D03*
G01X22165Y42598D03*
G01X22165Y37952D03*
G01X22165Y40275D03*
G01X25236Y39645D03*
G01X25236Y44291D03*
G01X25236Y42007D03*
G01X38582Y40472D03*
G01X38582Y40472D03*
G01X38582Y40472D03*
G01X40314Y42322D03*
G01X38425Y43897D03*
G01X36850Y41692D03*
G01X38188Y49409D03*
G01X36614Y49409D03*
G01X38582Y46181D03*
G01X32401Y44488D03*
G01X32125Y43425D03*
G01X47480Y44645D03*
G01X43622Y44803D03*
G01X33937Y38976D03*
G01X41811Y46181D03*
G01X32874Y45393D03*
G01X33228Y41771D03*
G01X21417Y14527D03*
G01X22795Y14527D03*
G01X9981Y67753D03*
G54D11*
G54D21*
G01X14781Y60303D03*
G01X59584Y67840D03*
G54D11*
G54D21*
G01X67723Y6141D03*
G01X10393Y43129D03*
G01X9409Y22992D03*
G01X7440Y22362D03*
G54D22*
G01X7440Y22362D02*
G01X7834Y22755D01*
G01X7834Y22755D02*
G01X7834Y23582D01*
G54D21*
G01X7440Y23976D03*
G54D22*
G01X7834Y23582D02*
G01X7440Y23976D01*
G54D21*
G01X3385Y22362D03*
G54D22*
G01X3385Y22362D02*
G01X2992Y22755D01*
G01X2992Y22755D02*
G01X2992Y25472D01*
G54D21*
G01X3464Y25944D03*
G54D22*
G01X2992Y25472D02*
G01X3464Y25944D01*
G54D21*
G01X5354Y21948D03*
G01X5433Y24960D03*
G01X57913Y13307D03*
G01X58740Y5964D03*
G01X57913Y13307D03*
G01X57913Y13307D03*
G01X58740Y5964D03*
G01X58740Y5964D03*
G01X56988Y6299D03*
G54D22*
G01X56988Y6299D02*
G01X57283Y6299D01*
G01X57283Y6299D02*
G01X58484Y7500D01*
G01X58484Y7500D02*
G01X58484Y8425D01*
G01X58484Y8425D02*
G01X59685Y9626D01*
G01X59685Y9626D02*
G01X59685Y11811D01*
G01X59685Y11811D02*
G01X59685Y12125D01*
G01X59685Y12125D02*
G01X59192Y12618D01*
G01X59192Y12618D02*
G01X57716Y12618D01*
G01X57716Y12618D02*
G01X57381Y12952D01*
G01X57381Y12952D02*
G01X57381Y13425D01*
G54D21*
G01X57125Y13681D03*
G54D22*
G01X57381Y13425D02*
G01X57125Y13681D01*
G54D21*
G01X56988Y6299D03*
G01X57125Y13681D03*
G54D22*
G01X57125Y13681D02*
G01X57381Y13425D01*
G01X57381Y13425D02*
G01X57381Y12952D01*
G01X57381Y12952D02*
G01X57716Y12618D01*
G01X57716Y12618D02*
G01X59192Y12618D01*
G01X59192Y12618D02*
G01X59685Y12125D01*
G01X59685Y12125D02*
G01X59685Y9625D01*
G01X59685Y9625D02*
G01X58484Y8425D01*
G01X58484Y8425D02*
G01X58484Y7500D01*
G01X58484Y7500D02*
G01X57283Y6299D01*
G54D21*
G01X56988Y6299D03*
G54D22*
G01X57283Y6299D02*
G01X56988Y6299D01*
G54D21*
G01X57125Y13681D03*
G01X56988Y6299D03*
G01X62795Y7972D03*
G01X62637Y14074D03*
G01X62795Y7972D03*
G01X62637Y14074D03*
G01X62637Y14074D03*
G01X62795Y7972D03*
G01X62795Y7972D03*
G01X61043Y7637D03*
G01X61043Y7637D03*
G01X61043Y7637D03*
G01X59291Y7303D03*
G01X59291Y7303D03*
G01X34566Y43937D03*
G54D13*
G01X26614Y12677D03*
G54D21*
G01X43228Y14685D03*
G01X43700Y14251D03*
G01X43385Y13661D03*
G01X43385Y19212D03*
G01X39724Y11181D03*
G01X43188Y9291D03*
G01X43543Y8425D03*
G01X39724Y11614D03*
G01X39724Y17165D03*
G01X39724Y16771D03*
G01X22716Y25669D03*
G01X25196Y25590D03*
G01X30354Y25590D03*
G01X27913Y25669D03*
G01X49763Y26653D03*
G01X47283Y27598D03*
G01X17204Y26338D03*
G01X20905Y25669D03*
G01X17204Y22362D03*
G01X20866Y21771D03*
G01X37204Y7519D03*
G01X32598Y11417D03*
G01X27322Y22598D03*
G01X43070Y23779D03*
G01X26614Y12677D03*
G01X28425Y13110D03*
G01X31692Y11417D03*
G01X4251Y10078D03*
G01X30000Y44212D03*
G01X21417Y15157D03*
G01X5669Y8818D03*
G01X8981Y67753D03*
G01X12981Y65453D03*
G01X12281Y60303D03*
G01X51384Y67840D03*
G01X54884Y60240D03*
G01X58134Y59390D03*
G01X58684Y56740D03*
G01X57284Y63540D03*
G01X57284Y63540D03*
G01X56609Y65340D03*
G01X31940Y66390D03*
G01X68196Y41109D03*
G54D11*
G54D21*
G01X11377Y22992D03*
G01X9409Y22362D03*
G54D22*
G01X9409Y22362D02*
G01X9803Y22755D01*
G01X9803Y22755D02*
G01X9803Y23582D01*
G54D21*
G01X9409Y23976D03*
G54D22*
G01X9803Y23582D02*
G01X9409Y23976D01*
G54D21*
G01X7440Y21948D03*
G01X7440Y24960D03*
G01X3464Y26929D03*
G01X5354Y22362D03*
G54D22*
G01X5354Y22362D02*
G01X4960Y22755D01*
G01X4960Y22755D02*
G01X4960Y25472D01*
G54D21*
G01X5433Y25944D03*
G54D22*
G01X4960Y25472D02*
G01X5433Y25944D01*
G54D21*
G01X58700Y13307D03*
G01X58877Y6299D03*
G01X58700Y13307D03*
G01X58700Y13307D03*
G01X58877Y6299D03*
G01X58877Y6299D03*
G01X57125Y6633D03*
G54D22*
G01X57125Y6633D02*
G01X57420Y6633D01*
G01X57420Y6633D02*
G01X58346Y7559D01*
G01X58346Y7559D02*
G01X58346Y8464D01*
G01X58346Y8464D02*
G01X59547Y9665D01*
G01X59547Y9665D02*
G01X59547Y11811D01*
G01X59547Y11811D02*
G01X59547Y12066D01*
G01X59547Y12066D02*
G01X59133Y12480D01*
G01X59133Y12480D02*
G01X56909Y12480D01*
G01X56909Y12480D02*
G01X56594Y12795D01*
G01X56594Y12795D02*
G01X56594Y13425D01*
G54D21*
G01X56338Y13681D03*
G54D22*
G01X56594Y13425D02*
G01X56338Y13681D01*
G54D21*
G01X57125Y6633D03*
G01X56338Y13681D03*
G01X57125Y6633D03*
G01X56338Y13681D03*
G54D22*
G01X56338Y13681D02*
G01X56594Y13425D01*
G01X56594Y13425D02*
G01X56594Y12795D01*
G01X56594Y12795D02*
G01X56909Y12480D01*
G01X56909Y12480D02*
G01X59133Y12480D01*
G01X59133Y12480D02*
G01X59547Y12066D01*
G01X59547Y12066D02*
G01X59547Y9665D01*
G01X59547Y9665D02*
G01X58346Y8464D01*
G01X58346Y8464D02*
G01X58346Y7559D01*
G01X58346Y7559D02*
G01X57421Y6633D01*
G54D21*
G01X57125Y6633D03*
G54D22*
G01X57421Y6633D02*
G01X57125Y6633D01*
G54D21*
G01X62933Y7637D03*
G01X61850Y14074D03*
G01X62933Y7637D03*
G01X61850Y14074D03*
G01X61850Y14074D03*
G01X62933Y7637D03*
G01X62933Y7637D03*
G01X61181Y7303D03*
G01X61181Y7303D03*
G01X61181Y7303D03*
G01X59429Y7637D03*
G01X59429Y7637D03*
G54D11*
G54D21*
G01X40354Y16771D03*
G01X40314Y11181D03*
G54D11*
G54D21*
G01X20581Y62053D03*
G01X12131Y63003D03*
G01X9681Y60303D03*
G01X50384Y67840D03*
G01X36640Y64690D03*
G01X33490Y65740D03*
G54D11*
G54D21*
G01X37690Y68890D03*
G54D11*
G54D21*
G01X68171Y39884D03*
G01X57814Y26023D03*
G01X57125Y31791D03*
G01X57814Y26023D03*
G01X57125Y31791D03*
G01X57125Y31791D03*
G01X57814Y26023D03*
G01X57814Y26023D03*
G01X2480Y37755D03*
G01X11377Y22362D03*
G54D22*
G01X11377Y22362D02*
G01X11771Y22755D01*
G01X11771Y22755D02*
G01X11771Y23582D01*
G54D21*
G01X11377Y23976D03*
G54D22*
G01X11771Y23582D02*
G01X11377Y23976D01*
G54D21*
G01X9409Y21948D03*
G01X9409Y24960D03*
G01X7440Y21476D03*
G01X5433Y26929D03*
G01X2480Y22992D03*
G01X59488Y13307D03*
G01X59015Y6633D03*
G01X59488Y13307D03*
G01X59488Y13307D03*
G01X59015Y6633D03*
G01X59015Y6633D03*
G01X57263Y6968D03*
G54D22*
G01X57263Y6968D02*
G01X57559Y6968D01*
G01X57559Y6968D02*
G01X58208Y7617D01*
G01X58208Y7617D02*
G01X58208Y8503D01*
G01X58208Y8503D02*
G01X59409Y9704D01*
G01X59409Y9704D02*
G01X59409Y11811D01*
G01X59409Y11811D02*
G01X59409Y12007D01*
G01X59409Y12007D02*
G01X59074Y12342D01*
G01X59074Y12342D02*
G01X56161Y12342D01*
G01X56161Y12342D02*
G01X55807Y12696D01*
G01X55807Y12696D02*
G01X55807Y13425D01*
G54D21*
G01X55531Y13700D03*
G54D22*
G01X55807Y13425D02*
G01X55531Y13700D01*
G54D21*
G01X57263Y6968D03*
G01X55531Y13700D03*
G01X57263Y6968D03*
G01X55531Y13700D03*
G54D22*
G01X55531Y13700D02*
G01X55807Y13425D01*
G01X55807Y13425D02*
G01X55807Y12696D01*
G01X55807Y12696D02*
G01X56161Y12342D01*
G01X56161Y12342D02*
G01X59074Y12342D01*
G01X59074Y12342D02*
G01X59409Y12007D01*
G01X59409Y12007D02*
G01X59409Y9704D01*
G01X59409Y9704D02*
G01X58208Y8503D01*
G01X58208Y8503D02*
G01X58208Y7618D01*
G01X58208Y7618D02*
G01X57559Y6968D01*
G54D21*
G01X57263Y6968D03*
G54D22*
G01X57559Y6968D02*
G01X57263Y6968D01*
G54D21*
G01X63070Y7303D03*
G01X61062Y14074D03*
G01X63070Y7303D03*
G01X61062Y14074D03*
G01X61062Y14074D03*
G01X63070Y7303D03*
G01X63070Y7303D03*
G01X61062Y13681D03*
G01X61318Y6968D03*
G01X61062Y13681D03*
G01X61062Y13681D03*
G01X61318Y6968D03*
G01X61318Y6968D03*
G01X59566Y7972D03*
G01X59566Y7972D03*
G01X59566Y7972D03*
G54D11*
G54D21*
G01X31496Y43425D03*
G01X30000Y43622D03*
G01X28543Y48582D03*
G01X29212Y35787D03*
G01X28543Y45787D03*
G01X27795Y46259D03*
G01X27795Y47125D03*
G01X31102Y38188D03*
G01X28307Y34803D03*
G01X28543Y40039D03*
G01X28031Y39212D03*
G01X17952Y44448D03*
G01X17952Y41692D03*
G01X17992Y38937D03*
G01X21102Y35078D03*
G01X25236Y46062D03*
G01X22716Y44921D03*
G01X22716Y42598D03*
G01X22716Y37952D03*
G01X22716Y40275D03*
G01X25236Y39094D03*
G01X25236Y43740D03*
G01X25236Y41456D03*
G54D11*
G54D21*
G01X60118Y15767D03*
G01X62893Y1968D03*
G54D22*
G01X62893Y1968D02*
G01X62893Y5807D01*
G01X62893Y5807D02*
G01X61437Y7263D01*
G01X61437Y7263D02*
G01X61437Y8444D01*
G01X61437Y8444D02*
G01X60236Y9645D01*
G01X60236Y9645D02*
G01X60236Y15649D01*
G54D21*
G01X60118Y15767D03*
G54D22*
G01X60236Y15649D02*
G01X60118Y15767D01*
G54D21*
G01X62893Y1968D03*
G54D22*
G01X62893Y1968D02*
G01X62893Y5807D01*
G01X62893Y5807D02*
G01X61437Y7263D01*
G01X61437Y7263D02*
G01X61437Y8444D01*
G01X61437Y8444D02*
G01X60236Y9645D01*
G01X60236Y9645D02*
G01X60236Y15649D01*
G54D21*
G01X60118Y15767D03*
G54D22*
G01X60236Y15649D02*
G01X60118Y15767D01*
G54D21*
G01X21023Y7165D03*
G01X19488Y6535D03*
G01X11981Y67753D03*
G01X7181Y61453D03*
G01X11531Y62828D03*
G01X18081Y62053D03*
G01X57284Y62240D03*
G01X58434Y63640D03*
G01X59584Y68440D03*
G01X53784Y57940D03*
G01X29790Y66140D03*
G01X34590Y60340D03*
G01X34990Y58840D03*
G54D11*
G54D21*
G01X57814Y43740D03*
G01X57125Y49507D03*
G01X57814Y43740D03*
G01X57125Y49507D03*
G01X57125Y49507D03*
G01X57814Y43740D03*
G01X57814Y43740D03*
G01X57952Y26358D03*
G01X56338Y31791D03*
G01X57952Y26358D03*
G01X56338Y31791D03*
G01X56338Y31791D03*
G01X57952Y26358D03*
G01X57952Y26358D03*
G01X63759Y23346D03*
G54D22*
G01X63759Y23346D02*
G01X63464Y23346D01*
G01X63464Y23346D02*
G01X61712Y25098D01*
G01X61712Y25098D02*
G01X61712Y26240D01*
G01X61712Y26240D02*
G01X60511Y27441D01*
G01X60511Y27441D02*
G01X60511Y29527D01*
G01X60511Y29527D02*
G01X60511Y29842D01*
G01X60511Y29842D02*
G01X61456Y30787D01*
G01X61456Y30787D02*
G01X61456Y31003D01*
G54D21*
G01X61850Y31397D03*
G54D22*
G01X61456Y31003D02*
G01X61850Y31397D01*
G54D21*
G01X61850Y31397D03*
G01X61850Y31397D03*
G54D22*
G01X61850Y31397D02*
G01X61456Y31003D01*
G01X61456Y31003D02*
G01X61456Y30787D01*
G01X61456Y30787D02*
G01X60511Y29842D01*
G01X60511Y29842D02*
G01X60511Y27440D01*
G01X60511Y27440D02*
G01X61712Y26240D01*
G01X61712Y26240D02*
G01X61712Y25098D01*
G01X61712Y25098D02*
G01X63464Y23346D01*
G54D21*
G01X63759Y23346D03*
G54D22*
G01X63464Y23346D02*
G01X63759Y23346D01*
G54D21*
G01X63759Y23346D03*
G01X2480Y48582D03*
G01X4448Y37755D03*
G01X11377Y21948D03*
G01X11377Y24960D03*
G01X9409Y21476D03*
G01X7440Y26929D03*
G01X4448Y22992D03*
G01X2401Y21476D03*
G01X61062Y13307D03*
G01X59153Y6968D03*
G01X61062Y13307D03*
G01X61062Y13307D03*
G01X59153Y6968D03*
G01X59153Y6968D03*
G01X57401Y7303D03*
G01X59488Y14074D03*
G01X57401Y7303D03*
G01X59488Y14074D03*
G01X57401Y7303D03*
G01X59488Y14074D03*
G01X57401Y7303D03*
G01X63208Y6968D03*
G54D22*
G01X63208Y6968D02*
G01X62913Y6968D01*
G01X62913Y6968D02*
G01X62263Y7618D01*
G01X62263Y7618D02*
G01X62263Y8682D01*
G01X62263Y8682D02*
G01X61062Y9883D01*
G01X61062Y9883D02*
G01X61062Y11811D01*
G01X61062Y11811D02*
G01X61062Y11870D01*
G01X61062Y11870D02*
G01X61397Y12204D01*
G01X61397Y12204D02*
G01X63858Y12204D01*
G01X63858Y12204D02*
G01X64606Y12952D01*
G01X64606Y12952D02*
G01X64606Y13287D01*
G54D21*
G01X65000Y13681D03*
G54D22*
G01X64606Y13287D02*
G01X65000Y13681D01*
G54D21*
G01X63208Y6968D03*
G01X65000Y13681D03*
G01X65000Y13681D03*
G54D22*
G01X65000Y13681D02*
G01X64606Y13287D01*
G01X64606Y13287D02*
G01X64606Y12952D01*
G01X64606Y12952D02*
G01X63858Y12204D01*
G01X63858Y12204D02*
G01X61397Y12204D01*
G01X61397Y12204D02*
G01X61062Y11870D01*
G01X61062Y11870D02*
G01X61062Y9881D01*
G01X61062Y9881D02*
G01X62263Y8681D01*
G01X62263Y8681D02*
G01X62263Y7618D01*
G01X62263Y7618D02*
G01X62913Y6968D01*
G54D21*
G01X63208Y6968D03*
G54D22*
G01X62913Y6968D02*
G01X63208Y6968D01*
G54D21*
G01X63208Y6968D03*
G01X61850Y13307D03*
G01X61456Y6633D03*
G01X61850Y13307D03*
G01X61850Y13307D03*
G01X61456Y6633D03*
G01X61456Y6633D03*
G01X59704Y8307D03*
G01X59704Y8307D03*
G54D11*
G54D21*
G01X39566Y5866D03*
G01X40826Y9409D03*
G01X26023Y14448D03*
G01X24685Y13149D03*
G01X23110Y13346D03*
G01X23110Y12755D03*
G01X25905Y16181D03*
G01X23110Y12086D03*
G01X52165Y12283D03*
G01X52165Y10590D03*
G01X52165Y16141D03*
G01X52165Y17834D03*
G01X20669Y15157D03*
G01X16023Y13937D03*
G01X16023Y15748D03*
G01X16574Y14566D03*
G01X24803Y12362D03*
G01X20669Y12283D03*
G01X16023Y11062D03*
G01X16023Y12874D03*
G01X16574Y11692D03*
G01X20669Y9409D03*
G01X16023Y8188D03*
G01X16023Y10000D03*
G01X16574Y8818D03*
G01X20669Y6535D03*
G01X16023Y5314D03*
G01X16023Y7125D03*
G01X16574Y5944D03*
G01X26023Y9173D03*
G01X49685Y14330D03*
G01X50551Y16141D03*
G01X50039Y12440D03*
G01X46692Y16456D03*
G01X48740Y17086D03*
G01X48779Y11535D03*
G54D13*
G01X43110Y16968D03*
G01X43110Y11417D03*
G54D21*
G01X43110Y11417D03*
G01X25984Y10866D03*
G01X46692Y10905D03*
G01X22874Y15866D03*
G01X23464Y14527D03*
G01X45866Y13110D03*
G01X22125Y7047D03*
G01X25354Y8228D03*
G01X22165Y5236D03*
G01X16023Y15748D03*
G01X16023Y13937D03*
G01X16023Y12874D03*
G01X16023Y11062D03*
G01X16023Y10000D03*
G01X16023Y8188D03*
G01X16023Y7125D03*
G01X16023Y5314D03*
G54D11*
G54D21*
G01X60354Y16122D03*
G01X63484Y1968D03*
G54D22*
G01X63484Y1968D02*
G01X63484Y5413D01*
G01X63484Y5413D02*
G01X61574Y7322D01*
G01X61574Y7322D02*
G01X61574Y8484D01*
G01X61574Y8484D02*
G01X60374Y9685D01*
G01X60374Y9685D02*
G01X60374Y16102D01*
G54D21*
G01X60354Y16122D03*
G54D22*
G01X60374Y16102D02*
G01X60354Y16122D01*
G54D21*
G01X60354Y16122D03*
G54D22*
G01X60354Y16122D02*
G01X60374Y16102D01*
G01X60374Y16102D02*
G01X60374Y9685D01*
G01X60374Y9685D02*
G01X61574Y8484D01*
G01X61574Y8484D02*
G01X61574Y7322D01*
G01X61574Y7322D02*
G01X63484Y5413D01*
G54D21*
G01X63484Y1968D03*
G54D22*
G01X63484Y5413D02*
G01X63484Y1968D01*
G54D21*
G01X39370Y40472D03*
G01X21023Y5275D03*
G01X19488Y5905D03*
G01X61152Y63033D03*
G01X54484Y63240D03*
G01X33640Y62990D03*
G01X35240Y62690D03*
G01X68196Y23392D03*
G01X67675Y41584D03*
G01X57952Y44074D03*
G01X56338Y49507D03*
G01X57952Y44074D03*
G01X56338Y49507D03*
G01X56338Y49507D03*
G01X57952Y44074D03*
G01X57952Y44074D03*
G01X63759Y41062D03*
G54D22*
G01X63759Y41062D02*
G01X63464Y41062D01*
G01X63464Y41062D02*
G01X61712Y42814D01*
G01X61712Y42814D02*
G01X61712Y43957D01*
G01X61712Y43957D02*
G01X60511Y45158D01*
G01X60511Y45158D02*
G01X60511Y47244D01*
G01X60511Y47244D02*
G01X60511Y47559D01*
G01X60511Y47559D02*
G01X61456Y48503D01*
G01X61456Y48503D02*
G01X61456Y48720D01*
G54D21*
G01X61850Y49114D03*
G54D22*
G01X61456Y48720D02*
G01X61850Y49114D01*
G54D21*
G01X61850Y49114D03*
G01X61850Y49114D03*
G54D22*
G01X61850Y49114D02*
G01X61456Y48720D01*
G01X61456Y48720D02*
G01X61456Y48503D01*
G01X61456Y48503D02*
G01X60511Y47559D01*
G01X60511Y47559D02*
G01X60511Y45157D01*
G01X60511Y45157D02*
G01X61712Y43956D01*
G01X61712Y43956D02*
G01X61712Y42814D01*
G01X61712Y42814D02*
G01X63464Y41062D01*
G54D21*
G01X63759Y41062D03*
G54D22*
G01X63464Y41062D02*
G01X63759Y41062D01*
G54D21*
G01X63759Y41062D03*
G01X58090Y26692D03*
G01X55531Y31791D03*
G01X58090Y26692D03*
G01X55531Y31791D03*
G01X55531Y31791D03*
G01X58090Y26692D03*
G01X58090Y26692D03*
G01X60236Y19704D03*
G54D22*
G01X60236Y19704D02*
G01X59350Y19704D01*
G01X59350Y19704D02*
G01X58346Y20708D01*
G01X58346Y20708D02*
G01X58346Y24488D01*
G01X58346Y24488D02*
G01X58897Y25039D01*
G01X58897Y25039D02*
G01X58897Y26023D01*
G01X58897Y26023D02*
G01X60098Y27223D01*
G01X60098Y27223D02*
G01X60098Y29527D01*
G01X60098Y29527D02*
G01X60098Y30787D01*
G54D21*
G01X59488Y31397D03*
G54D22*
G01X60098Y30787D02*
G01X59488Y31397D01*
G54D21*
G01X60236Y19704D03*
G01X59488Y31397D03*
G01X59488Y31397D03*
G54D22*
G01X59488Y31397D02*
G01X60098Y30787D01*
G01X60098Y30787D02*
G01X60098Y27224D01*
G01X60098Y27224D02*
G01X58897Y26023D01*
G01X58897Y26023D02*
G01X58897Y25039D01*
G01X58897Y25039D02*
G01X58346Y24488D01*
G01X58346Y24488D02*
G01X58346Y20708D01*
G01X58346Y20708D02*
G01X59350Y19704D01*
G54D21*
G01X60236Y19704D03*
G54D22*
G01X59350Y19704D02*
G01X60236Y19704D01*
G54D21*
G01X62381Y26692D03*
G01X65000Y31791D03*
G01X65000Y31791D03*
G01X65000Y31791D03*
G01X62381Y26692D03*
G01X62381Y26692D03*
G01X4448Y48582D03*
G01X3464Y33818D03*
G01X6417Y37755D03*
G01X6417Y22992D03*
G01X11377Y21476D03*
G01X9409Y26929D03*
G01X4370Y21476D03*
G01X2401Y21948D03*
G01X2480Y24960D03*
G01X57539Y7637D03*
G01X58700Y14074D03*
G01X57539Y7637D03*
G01X58700Y14074D03*
G01X58700Y14074D03*
G01X57539Y7637D03*
G01X57539Y7637D03*
G01X63346Y6633D03*
G54D22*
G01X63346Y6633D02*
G01X63051Y6633D01*
G01X63051Y6633D02*
G01X62125Y7559D01*
G01X62125Y7559D02*
G01X62125Y8642D01*
G01X62125Y8642D02*
G01X60925Y9843D01*
G01X60925Y9843D02*
G01X60925Y11811D01*
G01X60925Y11811D02*
G01X60925Y11948D01*
G01X60925Y11948D02*
G01X61318Y12342D01*
G01X61318Y12342D02*
G01X63425Y12342D01*
G01X63425Y12342D02*
G01X63818Y12736D01*
G01X63818Y12736D02*
G01X63818Y13287D01*
G54D21*
G01X64212Y13681D03*
G54D22*
G01X63818Y13287D02*
G01X64212Y13681D01*
G54D21*
G01X63346Y6633D03*
G01X64212Y13681D03*
G01X64212Y13681D03*
G54D22*
G01X64212Y13681D02*
G01X63818Y13287D01*
G01X63818Y13287D02*
G01X63818Y12736D01*
G01X63818Y12736D02*
G01X63425Y12342D01*
G01X63425Y12342D02*
G01X61318Y12342D01*
G01X61318Y12342D02*
G01X60925Y11948D01*
G01X60925Y11948D02*
G01X60925Y9842D01*
G01X60925Y9842D02*
G01X62125Y8641D01*
G01X62125Y8641D02*
G01X62125Y7559D01*
G01X62125Y7559D02*
G01X63051Y6633D01*
G54D21*
G01X63346Y6633D03*
G54D22*
G01X63051Y6633D02*
G01X63346Y6633D01*
G54D21*
G01X63346Y6633D03*
G01X62637Y13307D03*
G01X61594Y6299D03*
G01X62637Y13307D03*
G01X62637Y13307D03*
G01X61594Y6299D03*
G01X61594Y6299D03*
G01X59842Y8641D03*
G01X59842Y8641D03*
G01X23700Y12755D03*
G54D11*
G54D21*
G01X22007Y13425D03*
G01X45354Y17559D03*
G01X47007Y17086D03*
G01X45354Y12007D03*
G01X47007Y11535D03*
G54D11*
G54D21*
G01X24094Y14527D03*
G01X21417Y5905D03*
G01X21023Y10039D03*
G01X19488Y9409D03*
G01X1653Y13425D03*
G01X50234Y64040D03*
G01X34590Y67140D03*
G01X68171Y22167D03*
G01X54810Y41109D03*
G01X53289Y41384D03*
G54D11*
G54D21*
G01X66675Y41384D03*
G01X58090Y44409D03*
G01X55531Y49507D03*
G01X58090Y44409D03*
G01X55531Y49507D03*
G01X55531Y49507D03*
G01X58090Y44409D03*
G01X58090Y44409D03*
G01X60236Y37421D03*
G54D22*
G01X60236Y37421D02*
G01X59350Y37421D01*
G01X59350Y37421D02*
G01X58346Y38425D01*
G01X58346Y38425D02*
G01X58346Y42204D01*
G01X58346Y42204D02*
G01X58897Y42755D01*
G01X58897Y42755D02*
G01X58897Y43740D01*
G01X58897Y43740D02*
G01X60098Y44940D01*
G01X60098Y44940D02*
G01X60098Y47244D01*
G01X60098Y47244D02*
G01X60098Y48503D01*
G54D21*
G01X59488Y49114D03*
G54D22*
G01X60098Y48503D02*
G01X59488Y49114D01*
G54D21*
G01X60236Y37421D03*
G01X59488Y49114D03*
G01X59488Y49114D03*
G54D22*
G01X59488Y49114D02*
G01X60098Y48503D01*
G01X60098Y48503D02*
G01X60098Y44940D01*
G01X60098Y44940D02*
G01X58897Y43740D01*
G01X58897Y43740D02*
G01X58897Y42755D01*
G01X58897Y42755D02*
G01X58346Y42204D01*
G01X58346Y42204D02*
G01X58346Y38425D01*
G01X58346Y38425D02*
G01X59350Y37421D01*
G54D21*
G01X60236Y37421D03*
G54D22*
G01X59350Y37421D02*
G01X60236Y37421D01*
G54D21*
G01X62381Y44409D03*
G01X65000Y49507D03*
G01X65000Y49507D03*
G01X65000Y49507D03*
G01X62381Y44409D03*
G01X62381Y44409D03*
G01X56338Y31023D03*
G01X58346Y26968D03*
G01X56338Y31023D03*
G01X56338Y31023D03*
G01X58346Y26968D03*
G01X58346Y26968D03*
G01X56712Y23346D03*
G54D22*
G01X56712Y23346D02*
G01X57007Y23346D01*
G01X57007Y23346D02*
G01X58759Y25098D01*
G01X58759Y25098D02*
G01X58759Y26062D01*
G01X58759Y26062D02*
G01X59960Y27263D01*
G01X59960Y27263D02*
G01X59960Y29527D01*
G01X59960Y29527D02*
G01X59960Y29960D01*
G01X59960Y29960D02*
G01X58956Y30964D01*
G01X58956Y30964D02*
G01X58956Y31141D01*
G54D21*
G01X58700Y31397D03*
G54D22*
G01X58956Y31141D02*
G01X58700Y31397D01*
G54D21*
G01X56712Y23346D03*
G01X58700Y31397D03*
G01X58700Y31397D03*
G54D22*
G01X58700Y31397D02*
G01X58956Y31141D01*
G01X58956Y31141D02*
G01X58956Y30964D01*
G01X58956Y30964D02*
G01X59960Y29960D01*
G01X59960Y29960D02*
G01X59960Y27263D01*
G01X59960Y27263D02*
G01X58759Y26062D01*
G01X58759Y26062D02*
G01X58759Y25098D01*
G01X58759Y25098D02*
G01X57007Y23346D01*
G54D21*
G01X56712Y23346D03*
G54D22*
G01X57007Y23346D02*
G01X56712Y23346D01*
G54D21*
G01X56712Y23346D03*
G01X62519Y26358D03*
G01X64212Y31791D03*
G01X64212Y31791D03*
G01X64212Y31791D03*
G01X62519Y26358D03*
G01X62519Y26358D03*
G01X60767Y26023D03*
G01X60767Y26023D03*
G01X3464Y44645D03*
G01X6417Y48582D03*
G01X8425Y37755D03*
G01X3385Y32303D03*
G01X5433Y33818D03*
G01X6338Y21476D03*
G01X11377Y26929D03*
G01X8425Y22992D03*
G01X4370Y21948D03*
G01X4448Y24960D03*
G01X2401Y22362D03*
G54D22*
G01X2401Y22362D02*
G01X2007Y22755D01*
G01X2007Y22755D02*
G01X2007Y25472D01*
G54D21*
G01X2480Y25944D03*
G54D22*
G01X2007Y25472D02*
G01X2480Y25944D01*
G54D21*
G01X57677Y7972D03*
G01X57913Y14074D03*
G01X57677Y7972D03*
G01X57913Y14074D03*
G01X57913Y14074D03*
G01X57677Y7972D03*
G01X57677Y7972D03*
G01X63484Y6299D03*
G54D22*
G01X63484Y6299D02*
G01X63188Y6299D01*
G01X63188Y6299D02*
G01X61988Y7500D01*
G01X61988Y7500D02*
G01X61988Y8603D01*
G01X61988Y8603D02*
G01X60787Y9804D01*
G01X60787Y9804D02*
G01X60787Y11811D01*
G01X60787Y11811D02*
G01X60787Y12007D01*
G01X60787Y12007D02*
G01X61259Y12480D01*
G01X61259Y12480D02*
G01X62637Y12480D01*
G01X62637Y12480D02*
G01X63051Y12893D01*
G01X63051Y12893D02*
G01X63051Y13307D01*
G54D21*
G01X63425Y13681D03*
G54D22*
G01X63051Y13307D02*
G01X63425Y13681D01*
G54D21*
G01X63484Y6299D03*
G01X63425Y13681D03*
G01X63425Y13681D03*
G54D22*
G01X63425Y13681D02*
G01X63051Y13307D01*
G01X63051Y13307D02*
G01X63051Y12893D01*
G01X63051Y12893D02*
G01X62637Y12480D01*
G01X62637Y12480D02*
G01X61259Y12480D01*
G01X61259Y12480D02*
G01X60787Y12007D01*
G01X60787Y12007D02*
G01X60787Y9803D01*
G01X60787Y9803D02*
G01X61988Y8602D01*
G01X61988Y8602D02*
G01X61988Y7500D01*
G01X61988Y7500D02*
G01X63188Y6299D01*
G54D21*
G01X63484Y6299D03*
G54D22*
G01X63188Y6299D02*
G01X63484Y6299D01*
G54D21*
G01X63484Y6299D03*
G01X63425Y13307D03*
G01X61732Y5964D03*
G01X63425Y13307D03*
G01X63425Y13307D03*
G01X61732Y5964D03*
G01X61732Y5964D03*
G01X59980Y8976D03*
G01X59980Y8976D03*
G01X59980Y8976D03*
G01X34566Y44370D03*
G54D11*
G54D21*
G01X4566Y12755D03*
G01X5157Y11181D03*
G01X21417Y6535D03*
G01X23110Y6535D03*
G01X21023Y8149D03*
G01X19488Y8779D03*
G01X6417Y13385D03*
G01X5590Y59055D03*
G01X50984Y64040D03*
G01X52384Y67840D03*
G01X31090Y62640D03*
G01X54785Y39884D03*
G01X53789Y40784D03*
G01X67175Y40784D03*
G01X56338Y48740D03*
G01X58346Y44685D03*
G01X56338Y48740D03*
G01X56338Y48740D03*
G01X58346Y44685D03*
G01X58346Y44685D03*
G01X56712Y41062D03*
G54D22*
G01X56712Y41062D02*
G01X57007Y41062D01*
G01X57007Y41062D02*
G01X58759Y42814D01*
G01X58759Y42814D02*
G01X58759Y43779D01*
G01X58759Y43779D02*
G01X59960Y44980D01*
G01X59960Y44980D02*
G01X59960Y47244D01*
G01X59960Y47244D02*
G01X59960Y47677D01*
G01X59960Y47677D02*
G01X58956Y48681D01*
G01X58956Y48681D02*
G01X58956Y48858D01*
G54D21*
G01X58700Y49114D03*
G54D22*
G01X58956Y48858D02*
G01X58700Y49114D01*
G54D21*
G01X56712Y41062D03*
G01X58700Y49114D03*
G01X58700Y49114D03*
G54D22*
G01X58700Y49114D02*
G01X58956Y48858D01*
G01X58956Y48858D02*
G01X58956Y48681D01*
G01X58956Y48681D02*
G01X59960Y47677D01*
G01X59960Y47677D02*
G01X59960Y44980D01*
G01X59960Y44980D02*
G01X58759Y43779D01*
G01X58759Y43779D02*
G01X58759Y42814D01*
G01X58759Y42814D02*
G01X57007Y41062D01*
G54D21*
G01X56712Y41062D03*
G54D22*
G01X57007Y41062D02*
G01X56712Y41062D01*
G54D21*
G01X56712Y41062D03*
G01X62519Y44074D03*
G01X64212Y49507D03*
G01X64212Y49507D03*
G01X64212Y49507D03*
G01X62519Y44074D03*
G01X62519Y44074D03*
G01X60767Y43740D03*
G01X60767Y43740D03*
G01X57125Y31023D03*
G01X58602Y23346D03*
G01X57125Y31023D03*
G01X57125Y31023D03*
G01X58602Y23346D03*
G01X58602Y23346D03*
G01X56850Y23681D03*
G54D22*
G01X56850Y23681D02*
G01X57145Y23681D01*
G01X57145Y23681D02*
G01X58622Y25157D01*
G01X58622Y25157D02*
G01X58622Y26102D01*
G01X58622Y26102D02*
G01X59822Y27302D01*
G01X59822Y27302D02*
G01X59822Y29527D01*
G01X59822Y29527D02*
G01X59822Y29901D01*
G01X59822Y29901D02*
G01X59251Y30472D01*
G01X59251Y30472D02*
G01X58503Y30472D01*
G01X58503Y30472D02*
G01X58169Y30807D01*
G01X58169Y30807D02*
G01X58169Y31141D01*
G54D21*
G01X57913Y31397D03*
G54D22*
G01X58169Y31141D02*
G01X57913Y31397D01*
G54D21*
G01X56850Y23681D03*
G01X57913Y31397D03*
G01X57913Y31397D03*
G54D22*
G01X57913Y31397D02*
G01X58169Y31141D01*
G01X58169Y31141D02*
G01X58169Y30807D01*
G01X58169Y30807D02*
G01X58503Y30472D01*
G01X58503Y30472D02*
G01X59251Y30472D01*
G01X59251Y30472D02*
G01X59822Y29901D01*
G01X59822Y29901D02*
G01X59822Y27303D01*
G01X59822Y27303D02*
G01X58622Y26102D01*
G01X58622Y26102D02*
G01X58622Y25157D01*
G01X58622Y25157D02*
G01X57145Y23681D01*
G54D21*
G01X56850Y23681D03*
G54D22*
G01X57145Y23681D02*
G01X56850Y23681D01*
G54D21*
G01X56850Y23681D03*
G01X62657Y26023D03*
G01X63425Y31791D03*
G01X63425Y31791D03*
G01X63425Y31791D03*
G01X62657Y26023D03*
G01X62657Y26023D03*
G01X60905Y25688D03*
G01X60905Y25688D03*
G01X8425Y48582D03*
G01X3385Y43129D03*
G01X5433Y44645D03*
G01X10393Y37755D03*
G01X7440Y33818D03*
G01X3385Y32775D03*
G01X3464Y35787D03*
G01X5354Y32303D03*
G01X10393Y22992D03*
G01X8425Y22362D03*
G54D22*
G01X8425Y22362D02*
G01X8818Y22755D01*
G01X8818Y22755D02*
G01X8818Y23582D01*
G54D21*
G01X8425Y23976D03*
G54D22*
G01X8818Y23582D02*
G01X8425Y23976D01*
G54D21*
G01X4370Y22362D03*
G54D22*
G01X4370Y22362D02*
G01X3976Y22755D01*
G01X3976Y22755D02*
G01X3976Y25472D01*
G54D21*
G01X4448Y25944D03*
G54D22*
G01X3976Y25472D02*
G01X4448Y25944D01*
G54D21*
G01X6338Y21948D03*
G01X6417Y24960D03*
G01X63622Y5964D03*
G54D22*
G01X63622Y5964D02*
G01X63326Y5964D01*
G01X63326Y5964D02*
G01X61850Y7440D01*
G01X61850Y7440D02*
G01X61850Y8563D01*
G01X61850Y8563D02*
G01X60649Y9764D01*
G01X60649Y9764D02*
G01X60649Y11811D01*
G01X60649Y11811D02*
G01X60649Y12066D01*
G01X60649Y12066D02*
G01X61200Y12618D01*
G01X61200Y12618D02*
G01X61850Y12618D01*
G01X61850Y12618D02*
G01X62244Y13011D01*
G01X62244Y13011D02*
G01X62244Y13287D01*
G54D21*
G01X62637Y13681D03*
G54D22*
G01X62244Y13287D02*
G01X62637Y13681D01*
G54D21*
G01X63622Y5964D03*
G01X62637Y13681D03*
G01X62637Y13681D03*
G54D22*
G01X62637Y13681D02*
G01X62244Y13287D01*
G01X62244Y13287D02*
G01X62244Y13011D01*
G01X62244Y13011D02*
G01X61850Y12618D01*
G01X61850Y12618D02*
G01X61200Y12618D01*
G01X61200Y12618D02*
G01X60649Y12066D01*
G01X60649Y12066D02*
G01X60649Y9763D01*
G01X60649Y9763D02*
G01X61850Y8562D01*
G01X61850Y8562D02*
G01X61850Y7440D01*
G01X61850Y7440D02*
G01X63326Y5964D01*
G54D21*
G01X63622Y5964D03*
G54D22*
G01X63326Y5964D02*
G01X63622Y5964D01*
G54D21*
G01X63622Y5964D03*
G01X64212Y13307D03*
G01X61870Y5629D03*
G01X64212Y13307D03*
G01X64212Y13307D03*
G01X61870Y5629D03*
G01X60236Y9251D03*
G01X60236Y9251D03*
G01X42559Y5866D03*
G01X43976Y7992D03*
G54D11*
G54D21*
G01X21417Y8779D03*
G01X21023Y12913D03*
G01X19488Y12283D03*
G01X14881Y67203D03*
G01X47634Y66590D03*
G01X50984Y66040D03*
G01X60584Y67590D03*
G01X53384Y67840D03*
G01X68223Y5641D03*
G01X52889Y39984D03*
G01X66275Y39984D03*
G01X57125Y48740D03*
G01X58602Y41062D03*
G01X57125Y48740D03*
G01X57125Y48740D03*
G01X58602Y41062D03*
G01X58602Y41062D03*
G01X56850Y41397D03*
G54D22*
G01X56850Y41397D02*
G01X57145Y41397D01*
G01X57145Y41397D02*
G01X58622Y42874D01*
G01X58622Y42874D02*
G01X58622Y43818D01*
G01X58622Y43818D02*
G01X59822Y45019D01*
G01X59822Y45019D02*
G01X59822Y47244D01*
G01X59822Y47244D02*
G01X59822Y47618D01*
G01X59822Y47618D02*
G01X59251Y48188D01*
G01X59251Y48188D02*
G01X58503Y48188D01*
G01X58503Y48188D02*
G01X58169Y48523D01*
G01X58169Y48523D02*
G01X58169Y48858D01*
G54D21*
G01X57913Y49114D03*
G54D22*
G01X58169Y48858D02*
G01X57913Y49114D01*
G54D21*
G01X56850Y41397D03*
G01X57913Y49114D03*
G01X57913Y49114D03*
G54D22*
G01X57913Y49114D02*
G01X58169Y48858D01*
G01X58169Y48858D02*
G01X58169Y48523D01*
G01X58169Y48523D02*
G01X58503Y48188D01*
G01X58503Y48188D02*
G01X59251Y48188D01*
G01X59251Y48188D02*
G01X59822Y47618D01*
G01X59822Y47618D02*
G01X59822Y45019D01*
G01X59822Y45019D02*
G01X58622Y43818D01*
G01X58622Y43818D02*
G01X58622Y42874D01*
G01X58622Y42874D02*
G01X57145Y41397D01*
G54D21*
G01X56850Y41397D03*
G54D22*
G01X57145Y41397D02*
G01X56850Y41397D01*
G54D21*
G01X56850Y41397D03*
G01X62657Y43740D03*
G01X63425Y49507D03*
G01X63425Y49507D03*
G01X63425Y49507D03*
G01X62657Y43740D03*
G01X62657Y43740D03*
G01X60905Y43405D03*
G01X60905Y43405D03*
G01X57913Y31023D03*
G01X58740Y23681D03*
G01X57913Y31023D03*
G01X57913Y31023D03*
G01X58740Y23681D03*
G01X58740Y23681D03*
G01X56988Y24015D03*
G54D22*
G01X56988Y24015D02*
G01X57283Y24015D01*
G01X57283Y24015D02*
G01X58484Y25216D01*
G01X58484Y25216D02*
G01X58484Y26141D01*
G01X58484Y26141D02*
G01X59685Y27342D01*
G01X59685Y27342D02*
G01X59685Y29527D01*
G01X59685Y29527D02*
G01X59685Y29842D01*
G01X59685Y29842D02*
G01X59192Y30334D01*
G01X59192Y30334D02*
G01X57716Y30334D01*
G01X57716Y30334D02*
G01X57381Y30669D01*
G01X57381Y30669D02*
G01X57381Y31141D01*
G54D21*
G01X57125Y31397D03*
G54D22*
G01X57381Y31141D02*
G01X57125Y31397D01*
G54D21*
G01X56988Y24015D03*
G01X57125Y31397D03*
G54D22*
G01X57125Y31397D02*
G01X57381Y31141D01*
G01X57381Y31141D02*
G01X57381Y30669D01*
G01X57381Y30669D02*
G01X57716Y30334D01*
G01X57716Y30334D02*
G01X59192Y30334D01*
G01X59192Y30334D02*
G01X59685Y29842D01*
G01X59685Y29842D02*
G01X59685Y27342D01*
G01X59685Y27342D02*
G01X58484Y26141D01*
G01X58484Y26141D02*
G01X58484Y25216D01*
G01X58484Y25216D02*
G01X57283Y24015D01*
G54D21*
G01X56988Y24015D03*
G54D22*
G01X57283Y24015D02*
G01X56988Y24015D01*
G54D21*
G01X57125Y31397D03*
G01X56988Y24015D03*
G01X62795Y25688D03*
G01X62637Y31791D03*
G01X62637Y31791D03*
G01X62637Y31791D03*
G01X62795Y25688D03*
G01X62795Y25688D03*
G01X61043Y25354D03*
G01X61043Y25354D03*
G01X59291Y25019D03*
G01X59291Y25019D03*
G01X10393Y48582D03*
G01X7440Y44645D03*
G01X3385Y43602D03*
G01X3464Y46614D03*
G01X5354Y43129D03*
G01X9409Y33818D03*
G01X7440Y33188D03*
G54D22*
G01X7440Y33188D02*
G01X7834Y33582D01*
G01X7834Y33582D02*
G01X7834Y34409D01*
G54D21*
G01X7440Y34803D03*
G54D22*
G01X7834Y34409D02*
G01X7440Y34803D01*
G54D21*
G01X3385Y33188D03*
G54D22*
G01X3385Y33188D02*
G01X2992Y33582D01*
G01X2992Y33582D02*
G01X2992Y36299D01*
G54D21*
G01X3464Y36771D03*
G54D22*
G01X2992Y36299D02*
G01X3464Y36771D01*
G54D21*
G01X5354Y32775D03*
G01X5433Y35787D03*
G01X10393Y22362D03*
G54D22*
G01X10393Y22362D02*
G01X10787Y22755D01*
G01X10787Y22755D02*
G01X10787Y23582D01*
G54D21*
G01X10393Y23976D03*
G54D22*
G01X10787Y23582D02*
G01X10393Y23976D01*
G54D21*
G01X8425Y21948D03*
G01X8425Y24960D03*
G01X6338Y22362D03*
G54D22*
G01X6338Y22362D02*
G01X5944Y22755D01*
G01X5944Y22755D02*
G01X5944Y25472D01*
G54D21*
G01X6417Y25944D03*
G54D22*
G01X5944Y25472D02*
G01X6417Y25944D01*
G54D21*
G01X65000Y13307D03*
G01X62125Y9251D03*
G01X65000Y13307D03*
G01X65000Y13307D03*
G01X62125Y9251D03*
G01X60492Y8976D03*
G01X60492Y8976D03*
G01X60492Y8976D03*
G54D11*
G54D21*
G01X21023Y11023D03*
G01X19488Y11653D03*
G01X16981Y67753D03*
G01X57784Y62240D03*
G01X59084Y63940D03*
G01X66675Y23667D03*
G01X68223Y4441D03*
G01X57913Y48740D03*
G01X58740Y41397D03*
G01X57913Y48740D03*
G01X57913Y48740D03*
G01X58740Y41397D03*
G01X58740Y41397D03*
G01X56988Y41732D03*
G54D22*
G01X56988Y41732D02*
G01X57283Y41732D01*
G01X57283Y41732D02*
G01X58484Y42933D01*
G01X58484Y42933D02*
G01X58484Y43858D01*
G01X58484Y43858D02*
G01X59685Y45059D01*
G01X59685Y45059D02*
G01X59685Y47244D01*
G01X59685Y47244D02*
G01X59685Y47559D01*
G01X59685Y47559D02*
G01X59192Y48051D01*
G01X59192Y48051D02*
G01X57716Y48051D01*
G01X57716Y48051D02*
G01X57381Y48385D01*
G01X57381Y48385D02*
G01X57381Y48858D01*
G54D21*
G01X57125Y49114D03*
G54D22*
G01X57381Y48858D02*
G01X57125Y49114D01*
G54D21*
G01X56988Y41732D03*
G01X57125Y49114D03*
G54D22*
G01X57125Y49114D02*
G01X57381Y48858D01*
G01X57381Y48858D02*
G01X57381Y48385D01*
G01X57381Y48385D02*
G01X57716Y48051D01*
G01X57716Y48051D02*
G01X59192Y48051D01*
G01X59192Y48051D02*
G01X59685Y47559D01*
G01X59685Y47559D02*
G01X59685Y45059D01*
G01X59685Y45059D02*
G01X58484Y43858D01*
G01X58484Y43858D02*
G01X58484Y42933D01*
G01X58484Y42933D02*
G01X57283Y41732D01*
G54D21*
G01X56988Y41732D03*
G54D22*
G01X57283Y41732D02*
G01X56988Y41732D01*
G54D21*
G01X57125Y49114D03*
G01X56988Y41732D03*
G01X62795Y43405D03*
G01X62637Y49507D03*
G01X62637Y49507D03*
G01X62637Y49507D03*
G01X62795Y43405D03*
G01X62795Y43405D03*
G01X61043Y43070D03*
G01X61043Y43070D03*
G01X59291Y42736D03*
G01X59291Y42736D03*
G01X58700Y31023D03*
G01X58877Y24015D03*
G01X58700Y31023D03*
G01X58700Y31023D03*
G01X58877Y24015D03*
G01X58877Y24015D03*
G01X57125Y24350D03*
G54D22*
G01X57125Y24350D02*
G01X57420Y24349D01*
G01X57420Y24349D02*
G01X58346Y25275D01*
G01X58346Y25275D02*
G01X58346Y26181D01*
G01X58346Y26181D02*
G01X59547Y27381D01*
G01X59547Y27381D02*
G01X59547Y29527D01*
G01X59547Y29527D02*
G01X59547Y29783D01*
G01X59547Y29783D02*
G01X59133Y30196D01*
G01X59133Y30196D02*
G01X56909Y30196D01*
G01X56909Y30196D02*
G01X56594Y30511D01*
G01X56594Y30511D02*
G01X56594Y31141D01*
G54D21*
G01X56338Y31397D03*
G54D22*
G01X56594Y31141D02*
G01X56338Y31397D01*
G54D21*
G01X57125Y24350D03*
G01X56338Y31397D03*
G01X57125Y24350D03*
G01X56338Y31397D03*
G54D22*
G01X56338Y31397D02*
G01X56594Y31141D01*
G01X56594Y31141D02*
G01X56594Y30511D01*
G01X56594Y30511D02*
G01X56909Y30196D01*
G01X56909Y30196D02*
G01X59133Y30196D01*
G01X59133Y30196D02*
G01X59547Y29783D01*
G01X59547Y29783D02*
G01X59547Y27381D01*
G01X59547Y27381D02*
G01X58346Y26181D01*
G01X58346Y26181D02*
G01X58346Y25275D01*
G01X58346Y25275D02*
G01X57421Y24350D01*
G54D21*
G01X57125Y24350D03*
G54D22*
G01X57421Y24350D02*
G01X57125Y24350D01*
G54D21*
G01X62933Y25354D03*
G01X61850Y31791D03*
G01X61850Y31791D03*
G01X61850Y31791D03*
G01X62933Y25354D03*
G01X62933Y25354D03*
G01X61181Y25019D03*
G01X61181Y25019D03*
G01X59429Y25354D03*
G01X59429Y25354D03*
G01X9409Y44645D03*
G01X7440Y44015D03*
G54D22*
G01X7440Y44015D02*
G01X7834Y44409D01*
G01X7834Y44409D02*
G01X7834Y45236D01*
G54D21*
G01X7440Y45629D03*
G54D22*
G01X7834Y45236D02*
G01X7440Y45629D01*
G54D21*
G01X3385Y44015D03*
G54D22*
G01X3385Y44015D02*
G01X2992Y44409D01*
G01X2992Y44409D02*
G01X2992Y47125D01*
G54D21*
G01X3464Y47598D03*
G54D22*
G01X2992Y47125D02*
G01X3464Y47598D01*
G54D21*
G01X5354Y43602D03*
G01X5433Y46614D03*
G01X11377Y33818D03*
G01X9409Y33188D03*
G54D22*
G01X9409Y33188D02*
G01X9803Y33582D01*
G01X9803Y33582D02*
G01X9803Y34409D01*
G54D21*
G01X9409Y34803D03*
G54D22*
G01X9803Y34409D02*
G01X9409Y34803D01*
G54D21*
G01X7440Y32775D03*
G01X7440Y35787D03*
G01X3464Y37755D03*
G01X5354Y33188D03*
G54D22*
G01X5354Y33188D02*
G01X4960Y33582D01*
G01X4960Y33582D02*
G01X4960Y36299D01*
G54D21*
G01X5433Y36771D03*
G54D22*
G01X4960Y36299D02*
G01X5433Y36771D01*
G54D21*
G01X10393Y21948D03*
G01X10393Y24960D03*
G01X8425Y21476D03*
G01X60629Y8641D03*
G01X60629Y8641D03*
G01X60629Y8641D03*
G01X37362Y46181D03*
G01X21023Y15787D03*
G01X19488Y15157D03*
G01X7831Y64553D03*
G01X10981Y64253D03*
G01X6881Y57753D03*
G01X13081Y64428D03*
G01X16681Y61303D03*
G01X23110Y58149D03*
G01X22047Y57677D03*
G01X20472Y58110D03*
G01X19488Y57637D03*
G01X17992Y58149D03*
G01X17007Y57637D03*
G01X15511Y58149D03*
G01X14488Y57677D03*
G01X12952Y58110D03*
G01X11968Y57598D03*
G01X10472Y58149D03*
G01X9370Y57598D03*
G01X7874Y58149D03*
G01X5590Y58307D03*
G01X4763Y63464D03*
G01X6929Y63779D03*
G01X6496Y61377D03*
G01X7992Y60314D03*
G01X9015Y61456D03*
G01X10511Y60314D03*
G01X11692Y61377D03*
G01X13110Y60354D03*
G01X14173Y61338D03*
G01X15590Y60393D03*
G01X18110Y60354D03*
G01X19173Y61338D03*
G01X20629Y60393D03*
G01X21732Y61299D03*
G01X23188Y60354D03*
G01X20078Y64527D03*
G01X19566Y65748D03*
G01X17401Y65866D03*
G01X16377Y64133D03*
G01X12047Y64330D03*
G01X9566Y64251D03*
G01X5472Y64527D03*
G01X56084Y62140D03*
G01X53784Y57140D03*
G01X58034Y64340D03*
G01X54334Y57140D03*
G01X61384Y56140D03*
G01X59803Y62440D03*
G01X59685Y63937D03*
G01X60984Y59330D03*
G01X29790Y62140D03*
G01X33990Y62040D03*
G01X29784Y63433D03*
G01X33984Y63433D03*
G01X29784Y65258D03*
G01X38188Y65944D03*
G01X38149Y63149D03*
G01X33976Y65275D03*
G01X33976Y66614D03*
G01X30984Y66653D03*
G01X38385Y69645D03*
G01X67175Y23067D03*
G01X58700Y48740D03*
G01X58877Y41732D03*
G01X58700Y48740D03*
G01X58700Y48740D03*
G01X58877Y41732D03*
G01X58877Y41732D03*
G01X57125Y42066D03*
G54D22*
G01X57125Y42066D02*
G01X57420Y42066D01*
G01X57420Y42066D02*
G01X58346Y42992D01*
G01X58346Y42992D02*
G01X58346Y43897D01*
G01X58346Y43897D02*
G01X59547Y45098D01*
G01X59547Y45098D02*
G01X59547Y47244D01*
G01X59547Y47244D02*
G01X59547Y47500D01*
G01X59547Y47500D02*
G01X59133Y47913D01*
G01X59133Y47913D02*
G01X56909Y47913D01*
G01X56909Y47913D02*
G01X56594Y48228D01*
G01X56594Y48228D02*
G01X56594Y48858D01*
G54D21*
G01X56338Y49114D03*
G54D22*
G01X56594Y48858D02*
G01X56338Y49114D01*
G54D21*
G01X57125Y42066D03*
G01X56338Y49114D03*
G01X57125Y42066D03*
G01X56338Y49114D03*
G54D22*
G01X56338Y49114D02*
G01X56594Y48858D01*
G01X56594Y48858D02*
G01X56594Y48228D01*
G01X56594Y48228D02*
G01X56909Y47913D01*
G01X56909Y47913D02*
G01X59133Y47913D01*
G01X59133Y47913D02*
G01X59547Y47500D01*
G01X59547Y47500D02*
G01X59547Y45098D01*
G01X59547Y45098D02*
G01X58346Y43897D01*
G01X58346Y43897D02*
G01X58346Y42992D01*
G01X58346Y42992D02*
G01X57421Y42066D01*
G54D21*
G01X57125Y42066D03*
G54D22*
G01X57421Y42066D02*
G01X57125Y42066D01*
G54D21*
G01X62933Y43070D03*
G01X61850Y49507D03*
G01X61850Y49507D03*
G01X61850Y49507D03*
G01X62933Y43070D03*
G01X62933Y43070D03*
G01X61181Y42736D03*
G01X61181Y42736D03*
G01X59429Y43070D03*
G01X59429Y43070D03*
G01X59488Y31023D03*
G01X59015Y24350D03*
G01X59488Y31023D03*
G01X59488Y31023D03*
G01X59015Y24350D03*
G01X59015Y24350D03*
G01X57263Y24685D03*
G54D22*
G01X57263Y24685D02*
G01X57559Y24684D01*
G01X57559Y24684D02*
G01X58208Y25333D01*
G01X58208Y25333D02*
G01X58208Y26219D01*
G01X58208Y26219D02*
G01X59409Y27420D01*
G01X59409Y27420D02*
G01X59409Y29527D01*
G01X59409Y29527D02*
G01X59409Y29724D01*
G01X59409Y29724D02*
G01X59074Y30059D01*
G01X59074Y30059D02*
G01X56161Y30059D01*
G01X56161Y30059D02*
G01X55807Y30413D01*
G01X55807Y30413D02*
G01X55807Y31141D01*
G54D21*
G01X55531Y31417D03*
G54D22*
G01X55807Y31141D02*
G01X55531Y31417D01*
G54D21*
G01X57263Y24685D03*
G01X55531Y31417D03*
G01X57263Y24685D03*
G01X55531Y31417D03*
G54D22*
G01X55531Y31417D02*
G01X55807Y31141D01*
G01X55807Y31141D02*
G01X55807Y30413D01*
G01X55807Y30413D02*
G01X56161Y30059D01*
G01X56161Y30059D02*
G01X59074Y30059D01*
G01X59074Y30059D02*
G01X59409Y29724D01*
G01X59409Y29724D02*
G01X59409Y27421D01*
G01X59409Y27421D02*
G01X58208Y26220D01*
G01X58208Y26220D02*
G01X58208Y25334D01*
G01X58208Y25334D02*
G01X57559Y24685D01*
G54D21*
G01X57263Y24685D03*
G54D22*
G01X57559Y24685D02*
G01X57263Y24685D01*
G54D21*
G01X63070Y25019D03*
G01X61062Y31791D03*
G01X61062Y31791D03*
G01X61062Y31791D03*
G01X63070Y25019D03*
G01X63070Y25019D03*
G01X61062Y31397D03*
G01X61062Y31397D03*
G01X61062Y31397D03*
G01X61318Y24685D03*
G01X61318Y24685D03*
G01X59566Y25688D03*
G01X59566Y25688D03*
G01X59566Y25688D03*
G01X11377Y44645D03*
G01X9409Y44015D03*
G54D22*
G01X9409Y44015D02*
G01X9803Y44409D01*
G01X9803Y44409D02*
G01X9803Y45236D01*
G54D21*
G01X9409Y45629D03*
G54D22*
G01X9803Y45236D02*
G01X9409Y45629D01*
G54D21*
G01X7440Y43602D03*
G01X7440Y46614D03*
G01X3464Y48582D03*
G01X5354Y44015D03*
G54D22*
G01X5354Y44015D02*
G01X4960Y44409D01*
G01X4960Y44409D02*
G01X4960Y47125D01*
G54D21*
G01X5433Y47598D03*
G54D22*
G01X4960Y47125D02*
G01X5433Y47598D01*
G54D21*
G01X11377Y33188D03*
G54D22*
G01X11377Y33188D02*
G01X11771Y33582D01*
G01X11771Y33582D02*
G01X11771Y34409D01*
G54D21*
G01X11377Y34803D03*
G54D22*
G01X11771Y34409D02*
G01X11377Y34803D01*
G54D21*
G01X9409Y32775D03*
G01X9409Y35787D03*
G01X7440Y32303D03*
G01X5433Y37755D03*
G01X2480Y33818D03*
G01X10393Y21476D03*
G01X41574Y5866D03*
G01X43188Y8779D03*
G01X14981Y67803D03*
G01X49384Y67840D03*
G01X66275Y22267D03*
G01X67675Y22768D03*
G01X67165Y22362D03*
G01X65866Y22125D03*
G01X66653Y24173D03*
G01X66623Y5941D03*
G01X59488Y48740D03*
G01X59015Y42066D03*
G01X59488Y48740D03*
G01X59488Y48740D03*
G01X59015Y42066D03*
G01X59015Y42066D03*
G01X57263Y42401D03*
G54D22*
G01X57263Y42401D02*
G01X57559Y42401D01*
G01X57559Y42401D02*
G01X58208Y43050D01*
G01X58208Y43050D02*
G01X58208Y43936D01*
G01X58208Y43936D02*
G01X59409Y45137D01*
G01X59409Y45137D02*
G01X59409Y47244D01*
G01X59409Y47244D02*
G01X59409Y47440D01*
G01X59409Y47440D02*
G01X59074Y47775D01*
G01X59074Y47775D02*
G01X56161Y47775D01*
G01X56161Y47775D02*
G01X55807Y48129D01*
G01X55807Y48129D02*
G01X55807Y48858D01*
G54D21*
G01X55531Y49133D03*
G54D22*
G01X55807Y48858D02*
G01X55531Y49133D01*
G54D21*
G01X57263Y42401D03*
G01X55531Y49133D03*
G01X57263Y42401D03*
G01X55531Y49133D03*
G54D22*
G01X55531Y49133D02*
G01X55807Y48858D01*
G01X55807Y48858D02*
G01X55807Y48129D01*
G01X55807Y48129D02*
G01X56161Y47775D01*
G01X56161Y47775D02*
G01X59074Y47775D01*
G01X59074Y47775D02*
G01X59409Y47440D01*
G01X59409Y47440D02*
G01X59409Y45137D01*
G01X59409Y45137D02*
G01X58208Y43937D01*
G01X58208Y43937D02*
G01X58208Y43051D01*
G01X58208Y43051D02*
G01X57559Y42401D01*
G54D21*
G01X57263Y42401D03*
G54D22*
G01X57559Y42401D02*
G01X57263Y42401D01*
G54D21*
G01X63070Y42736D03*
G01X61062Y49507D03*
G01X61062Y49507D03*
G01X61062Y49507D03*
G01X63070Y42736D03*
G01X63070Y42736D03*
G01X61062Y49114D03*
G01X61062Y49114D03*
G01X61062Y49114D03*
G01X61318Y42401D03*
G01X61318Y42401D03*
G01X59566Y43405D03*
G01X59566Y43405D03*
G01X59566Y43405D03*
G01X61062Y31023D03*
G01X59153Y24685D03*
G01X61062Y31023D03*
G01X61062Y31023D03*
G01X59153Y24685D03*
G01X59153Y24685D03*
G01X57401Y25019D03*
G01X59488Y31791D03*
G01X57401Y25019D03*
G01X59488Y31791D03*
G01X57401Y25019D03*
G01X59488Y31791D03*
G01X57401Y25019D03*
G01X63208Y24685D03*
G54D22*
G01X63208Y24685D02*
G01X62913Y24685D01*
G01X62913Y24685D02*
G01X62263Y25334D01*
G01X62263Y25334D02*
G01X62263Y26398D01*
G01X62263Y26398D02*
G01X61062Y27599D01*
G01X61062Y27599D02*
G01X61062Y29527D01*
G01X61062Y29527D02*
G01X61062Y29586D01*
G01X61062Y29586D02*
G01X61397Y29921D01*
G01X61397Y29921D02*
G01X63858Y29921D01*
G01X63858Y29921D02*
G01X64606Y30669D01*
G01X64606Y30669D02*
G01X64606Y31003D01*
G54D21*
G01X65000Y31397D03*
G54D22*
G01X64606Y31003D02*
G01X65000Y31397D01*
G54D21*
G01X65000Y31397D03*
G01X65000Y31397D03*
G54D22*
G01X65000Y31397D02*
G01X64606Y31003D01*
G01X64606Y31003D02*
G01X64606Y30669D01*
G01X64606Y30669D02*
G01X63858Y29921D01*
G01X63858Y29921D02*
G01X61397Y29921D01*
G01X61397Y29921D02*
G01X61062Y29586D01*
G01X61062Y29586D02*
G01X61062Y27598D01*
G01X61062Y27598D02*
G01X62263Y26397D01*
G01X62263Y26397D02*
G01X62263Y25334D01*
G01X62263Y25334D02*
G01X62913Y24685D01*
G54D21*
G01X63208Y24685D03*
G54D22*
G01X62913Y24685D02*
G01X63208Y24685D01*
G54D21*
G01X63208Y24685D03*
G01X61850Y31023D03*
G01X61850Y31023D03*
G01X61850Y31023D03*
G01X61456Y24350D03*
G01X61456Y24350D03*
G01X59704Y26023D03*
G01X59704Y26023D03*
G01X60118Y33484D03*
G01X62893Y19685D03*
G54D22*
G01X62893Y19685D02*
G01X62893Y23523D01*
G01X62893Y23523D02*
G01X61437Y24980D01*
G01X61437Y24980D02*
G01X61437Y26161D01*
G01X61437Y26161D02*
G01X60236Y27362D01*
G01X60236Y27362D02*
G01X60236Y33366D01*
G54D21*
G01X60118Y33484D03*
G54D22*
G01X60236Y33366D02*
G01X60118Y33484D01*
G54D21*
G01X62893Y19685D03*
G54D22*
G01X62893Y19685D02*
G01X62893Y23523D01*
G01X62893Y23523D02*
G01X61437Y24980D01*
G01X61437Y24980D02*
G01X61437Y26161D01*
G01X61437Y26161D02*
G01X60236Y27362D01*
G01X60236Y27362D02*
G01X60236Y33366D01*
G54D21*
G01X60118Y33484D03*
G54D22*
G01X60236Y33366D02*
G01X60118Y33484D01*
G54D21*
G01X11377Y44015D03*
G54D22*
G01X11377Y44015D02*
G01X11771Y44409D01*
G01X11771Y44409D02*
G01X11771Y45236D01*
G54D21*
G01X11377Y45629D03*
G54D22*
G01X11771Y45236D02*
G01X11377Y45629D01*
G54D21*
G01X9409Y43602D03*
G01X9409Y46614D03*
G01X7440Y43129D03*
G01X5433Y48582D03*
G01X2480Y44645D03*
G01X11377Y32775D03*
G01X11377Y35787D03*
G01X9409Y32303D03*
G01X7440Y37755D03*
G01X4448Y33818D03*
G01X2401Y32303D03*
G01X37636Y43897D03*
G01X13981Y67753D03*
G01X47884Y61740D03*
G54D11*
G54D23*
G01X36251Y70078D02*
G01X38901Y70078D01*
G01X38901Y70078D02*
G01X39190Y69790D01*
G54D11*
G36*
G01X39385Y62240D02*
G01X38995Y62240D01*
G01X38995Y64290D01*
G01X39385Y64290D01*
G01X39385Y62240D01*
G37*
G01X39385Y62240D02*
G01X38995Y62240D01*
G01X38995Y64290D01*
G01X39385Y64290D01*
G01X39385Y62240D01*
G36*
G01X39265Y69970D02*
G01X39328Y69928D01*
G01X39370Y69864D01*
G01X39385Y69790D01*
G01X39385Y64475D01*
G01X38995Y64475D01*
G01X38995Y69790D01*
G01X39010Y69864D01*
G01X39052Y69928D01*
G01X39115Y69970D01*
G01X39190Y69985D01*
G01X39265Y69970D01*
G37*
G01X39265Y69970D02*
G01X39328Y69928D01*
G01X39370Y69864D01*
G01X39385Y69790D01*
G01X39385Y64475D01*
G01X38995Y64475D01*
G01X38995Y69790D01*
G01X39010Y69864D01*
G01X39052Y69928D01*
G01X39115Y69970D01*
G01X39190Y69985D01*
G01X39265Y69970D01*
G36*
G01X39385Y62240D02*
G01X38995Y62240D01*
G01X38995Y64290D01*
G01X39385Y64290D01*
G01X39385Y62240D01*
G37*
G01X39385Y62240D02*
G01X38995Y62240D01*
G01X38995Y64290D01*
G01X39385Y64290D01*
G01X39385Y62240D01*
G36*
G01X39265Y69970D02*
G01X39328Y69928D01*
G01X39370Y69864D01*
G01X39385Y69790D01*
G01X39385Y64475D01*
G01X38995Y64475D01*
G01X38995Y69790D01*
G01X39010Y69864D01*
G01X39052Y69928D01*
G01X39115Y69970D01*
G01X39190Y69985D01*
G01X39265Y69970D01*
G37*
G01X39265Y69970D02*
G01X39328Y69928D01*
G01X39370Y69864D01*
G01X39385Y69790D01*
G01X39385Y64475D01*
G01X38995Y64475D01*
G01X38995Y69790D01*
G01X39010Y69864D01*
G01X39052Y69928D01*
G01X39115Y69970D01*
G01X39190Y69985D01*
G01X39265Y69970D01*
G54D21*
G01X67123Y5341D03*
G01X67637Y4921D03*
G01X67637Y4921D03*
G01X67165Y6417D03*
G01X66692Y6574D03*
G01X65708Y4566D03*
G01X67675Y40485D03*
G01X67165Y40078D03*
G01X65866Y39842D03*
G01X66653Y41889D03*
G01X61062Y48740D03*
G01X59153Y42401D03*
G01X61062Y48740D03*
G01X61062Y48740D03*
G01X59153Y42401D03*
G01X59153Y42401D03*
G01X57401Y42736D03*
G01X59488Y49507D03*
G01X57401Y42736D03*
G01X59488Y49507D03*
G01X57401Y42736D03*
G01X59488Y49507D03*
G01X57401Y42736D03*
G01X63208Y42401D03*
G54D22*
G01X63208Y42401D02*
G01X62913Y42401D01*
G01X62913Y42401D02*
G01X62263Y43051D01*
G01X62263Y43051D02*
G01X62263Y44115D01*
G01X62263Y44115D02*
G01X61062Y45316D01*
G01X61062Y45316D02*
G01X61062Y47244D01*
G01X61062Y47244D02*
G01X61062Y47303D01*
G01X61062Y47303D02*
G01X61397Y47637D01*
G01X61397Y47637D02*
G01X63858Y47637D01*
G01X63858Y47637D02*
G01X64606Y48385D01*
G01X64606Y48385D02*
G01X64606Y48720D01*
G54D21*
G01X65000Y49114D03*
G54D22*
G01X64606Y48720D02*
G01X65000Y49114D01*
G54D21*
G01X65000Y49114D03*
G01X65000Y49114D03*
G54D22*
G01X65000Y49114D02*
G01X64606Y48720D01*
G01X64606Y48720D02*
G01X64606Y48385D01*
G01X64606Y48385D02*
G01X63858Y47637D01*
G01X63858Y47637D02*
G01X61397Y47637D01*
G01X61397Y47637D02*
G01X61062Y47303D01*
G01X61062Y47303D02*
G01X61062Y45314D01*
G01X61062Y45314D02*
G01X62263Y44114D01*
G01X62263Y44114D02*
G01X62263Y43051D01*
G01X62263Y43051D02*
G01X62913Y42401D01*
G54D21*
G01X63208Y42401D03*
G54D22*
G01X62913Y42401D02*
G01X63208Y42401D01*
G54D21*
G01X63208Y42401D03*
G01X61850Y48740D03*
G01X61850Y48740D03*
G01X61850Y48740D03*
G01X61456Y42066D03*
G01X61456Y42066D03*
G01X59704Y43740D03*
G01X59704Y43740D03*
G01X60354Y33838D03*
G01X63484Y19685D03*
G54D22*
G01X63484Y19685D02*
G01X63484Y23129D01*
G01X63484Y23129D02*
G01X61574Y25039D01*
G01X61574Y25039D02*
G01X61574Y26200D01*
G01X61574Y26200D02*
G01X60374Y27401D01*
G01X60374Y27401D02*
G01X60374Y33818D01*
G54D21*
G01X60354Y33838D03*
G54D22*
G01X60374Y33818D02*
G01X60354Y33838D01*
G54D21*
G01X60354Y33838D03*
G54D22*
G01X60354Y33838D02*
G01X60374Y33818D01*
G01X60374Y33818D02*
G01X60374Y27401D01*
G01X60374Y27401D02*
G01X61574Y26200D01*
G01X61574Y26200D02*
G01X61574Y25039D01*
G01X61574Y25039D02*
G01X63484Y23129D01*
G54D21*
G01X63484Y19685D03*
G54D22*
G01X63484Y23129D02*
G01X63484Y19685D01*
G54D21*
G01X57539Y25354D03*
G01X58700Y31791D03*
G01X57539Y25354D03*
G01X58700Y31791D03*
G01X58700Y31791D03*
G01X57539Y25354D03*
G01X57539Y25354D03*
G01X63346Y24350D03*
G54D22*
G01X63346Y24350D02*
G01X63051Y24350D01*
G01X63051Y24350D02*
G01X62125Y25275D01*
G01X62125Y25275D02*
G01X62125Y26358D01*
G01X62125Y26358D02*
G01X60925Y27559D01*
G01X60925Y27559D02*
G01X60925Y29527D01*
G01X60925Y29527D02*
G01X60925Y29665D01*
G01X60925Y29665D02*
G01X61318Y30059D01*
G01X61318Y30059D02*
G01X63425Y30059D01*
G01X63425Y30059D02*
G01X63818Y30452D01*
G01X63818Y30452D02*
G01X63818Y31003D01*
G54D21*
G01X64212Y31397D03*
G54D22*
G01X63818Y31003D02*
G01X64212Y31397D01*
G54D21*
G01X64212Y31397D03*
G01X64212Y31397D03*
G54D22*
G01X64212Y31397D02*
G01X63818Y31003D01*
G01X63818Y31003D02*
G01X63818Y30452D01*
G01X63818Y30452D02*
G01X63425Y30059D01*
G01X63425Y30059D02*
G01X61318Y30059D01*
G01X61318Y30059D02*
G01X60925Y29665D01*
G01X60925Y29665D02*
G01X60925Y27559D01*
G01X60925Y27559D02*
G01X62125Y26358D01*
G01X62125Y26358D02*
G01X62125Y25275D01*
G01X62125Y25275D02*
G01X63051Y24350D01*
G54D21*
G01X63346Y24350D03*
G54D22*
G01X63051Y24350D02*
G01X63346Y24350D01*
G54D21*
G01X63346Y24350D03*
G01X62637Y31023D03*
G01X62637Y31023D03*
G01X62637Y31023D03*
G01X61594Y24015D03*
G01X61594Y24015D03*
G01X59842Y26358D03*
G01X59842Y26358D03*
G01X11377Y43602D03*
G01X11377Y46614D03*
G01X9409Y43129D03*
G01X7440Y48582D03*
G01X4448Y44645D03*
G01X2401Y43129D03*
G01X6417Y33818D03*
G01X11377Y32303D03*
G01X9409Y37755D03*
G01X4370Y32303D03*
G01X2401Y32775D03*
G01X2480Y35787D03*
G01X3307Y6259D03*
G01X7598Y11850D03*
G01X7007Y4685D03*
G01X6141Y9448D03*
G01X5787Y13818D03*
G01X2913Y8818D03*
G01X2913Y8818D03*
G01X2244Y7165D03*
G01X4133Y8818D03*
G01X3503Y13149D03*
G01X5157Y10551D03*
G01X2874Y11614D03*
G01X9581Y66053D03*
G01X4556Y66453D03*
G01X10581Y65453D03*
G01X5472Y65275D03*
G01X13582Y65551D03*
G01X8897Y65354D03*
G01X66223Y4541D03*
G01X57539Y43070D03*
G01X58700Y49507D03*
G01X57539Y43070D03*
G01X58700Y49507D03*
G01X58700Y49507D03*
G01X57539Y43070D03*
G01X57539Y43070D03*
G01X63346Y42066D03*
G54D22*
G01X63346Y42066D02*
G01X63051Y42066D01*
G01X63051Y42066D02*
G01X62125Y42992D01*
G01X62125Y42992D02*
G01X62125Y44075D01*
G01X62125Y44075D02*
G01X60925Y45276D01*
G01X60925Y45276D02*
G01X60925Y47244D01*
G01X60925Y47244D02*
G01X60925Y47381D01*
G01X60925Y47381D02*
G01X61318Y47775D01*
G01X61318Y47775D02*
G01X63425Y47775D01*
G01X63425Y47775D02*
G01X63818Y48169D01*
G01X63818Y48169D02*
G01X63818Y48720D01*
G54D21*
G01X64212Y49114D03*
G54D22*
G01X63818Y48720D02*
G01X64212Y49114D01*
G54D21*
G01X64212Y49114D03*
G01X64212Y49114D03*
G54D22*
G01X64212Y49114D02*
G01X63818Y48720D01*
G01X63818Y48720D02*
G01X63818Y48169D01*
G01X63818Y48169D02*
G01X63425Y47775D01*
G01X63425Y47775D02*
G01X61318Y47775D01*
G01X61318Y47775D02*
G01X60925Y47381D01*
G01X60925Y47381D02*
G01X60925Y45275D01*
G01X60925Y45275D02*
G01X62125Y44074D01*
G01X62125Y44074D02*
G01X62125Y42992D01*
G01X62125Y42992D02*
G01X63051Y42066D01*
G54D21*
G01X63346Y42066D03*
G54D22*
G01X63051Y42066D02*
G01X63346Y42066D01*
G54D21*
G01X63346Y42066D03*
G01X62637Y48740D03*
G01X62637Y48740D03*
G01X62637Y48740D03*
G01X61594Y41732D03*
G01X61594Y41732D03*
G01X59842Y44074D03*
G01X59842Y44074D03*
G01X60118Y51200D03*
G01X62893Y37401D03*
G54D22*
G01X62893Y37401D02*
G01X62893Y41240D01*
G01X62893Y41240D02*
G01X61437Y42696D01*
G01X61437Y42696D02*
G01X61437Y43877D01*
G01X61437Y43877D02*
G01X60236Y45078D01*
G01X60236Y45078D02*
G01X60236Y51082D01*
G54D21*
G01X60118Y51200D03*
G54D22*
G01X60236Y51082D02*
G01X60118Y51200D01*
G54D21*
G01X62893Y37401D03*
G54D22*
G01X62893Y37401D02*
G01X62893Y41240D01*
G01X62893Y41240D02*
G01X61437Y42696D01*
G01X61437Y42696D02*
G01X61437Y43877D01*
G01X61437Y43877D02*
G01X60236Y45078D01*
G01X60236Y45078D02*
G01X60236Y51082D01*
G54D21*
G01X60118Y51200D03*
G54D22*
G01X60236Y51082D02*
G01X60118Y51200D01*
G54D21*
G01X57677Y25688D03*
G01X57913Y31791D03*
G01X57677Y25688D03*
G01X57913Y31791D03*
G01X57913Y31791D03*
G01X57677Y25688D03*
G01X57677Y25688D03*
G01X63484Y24015D03*
G54D22*
G01X63484Y24015D02*
G01X63188Y24015D01*
G01X63188Y24015D02*
G01X61988Y25216D01*
G01X61988Y25216D02*
G01X61988Y26319D01*
G01X61988Y26319D02*
G01X60787Y27520D01*
G01X60787Y27520D02*
G01X60787Y29527D01*
G01X60787Y29527D02*
G01X60787Y29724D01*
G01X60787Y29724D02*
G01X61259Y30196D01*
G01X61259Y30196D02*
G01X62637Y30196D01*
G01X62637Y30196D02*
G01X63051Y30610D01*
G01X63051Y30610D02*
G01X63051Y31023D01*
G54D21*
G01X63425Y31397D03*
G54D22*
G01X63051Y31023D02*
G01X63425Y31397D01*
G54D21*
G01X63425Y31397D03*
G01X63425Y31397D03*
G54D22*
G01X63425Y31397D02*
G01X63051Y31023D01*
G01X63051Y31023D02*
G01X63051Y30610D01*
G01X63051Y30610D02*
G01X62637Y30196D01*
G01X62637Y30196D02*
G01X61259Y30196D01*
G01X61259Y30196D02*
G01X60787Y29724D01*
G01X60787Y29724D02*
G01X60787Y27519D01*
G01X60787Y27519D02*
G01X61988Y26318D01*
G01X61988Y26318D02*
G01X61988Y25216D01*
G01X61988Y25216D02*
G01X63188Y24015D01*
G54D21*
G01X63484Y24015D03*
G54D22*
G01X63188Y24015D02*
G01X63484Y24015D01*
G54D21*
G01X63484Y24015D03*
G01X63425Y31023D03*
G01X63425Y31023D03*
G01X63425Y31023D03*
G01X61732Y23681D03*
G01X61732Y23681D03*
G01X59980Y26692D03*
G01X59980Y26692D03*
G01X59980Y26692D03*
G01X6417Y44645D03*
G01X11377Y43129D03*
G01X9409Y48582D03*
G01X4370Y43129D03*
G01X2401Y43602D03*
G01X2480Y46614D03*
G01X6338Y32303D03*
G01X11377Y37755D03*
G01X8425Y33818D03*
G01X4370Y32775D03*
G01X4448Y35787D03*
G01X2401Y33188D03*
G54D22*
G01X2401Y33188D02*
G01X2007Y33582D01*
G01X2007Y33582D02*
G01X2007Y36299D01*
G54D21*
G01X2480Y36771D03*
G54D22*
G01X2007Y36299D02*
G01X2480Y36771D01*
G54D21*
G01X2480Y26929D03*
G01X57814Y8307D03*
G01X57125Y14074D03*
G01X57814Y8307D03*
G01X57125Y14074D03*
G01X57125Y14074D03*
G01X57814Y8307D03*
G01X57814Y8307D03*
G54D11*
G54D21*
G01X54289Y40485D03*
G01X53779Y40078D03*
G01X52480Y39842D03*
G01X53267Y41889D03*

G04 Draw clearances for text*

G04 -------------- Draw Parts, Pads, Traces, Vias and Text (positive)*
%LPD*%
G04 Draw part R1*
G04 Draw part R2*
G04 Draw part R3*
G04 Draw part C1*
G04 Draw part U1*
G04 Draw part U2*
G04 Draw part C2*
G04 Draw part C3*
G04 Draw part C4*
G04 Draw part R4*
G04 Draw part R5*
G04 Draw part R6*
G04 Draw part C5*
G04 Draw part R7*
G04 Draw part R8*
G04 Draw part U3*
G04 Draw part R9*
G04 Draw part R10*
G04 Draw part C6*
G04 Draw part C7*
G04 Draw part C8*
G04 Draw part C9*
G04 Draw part U4*
G54D24*
G01X8232Y12531D03*
G01X8232Y11531D03*
G01X8232Y10531D03*
G01X8232Y9531D03*
G01X11232Y9531D03*
G01X11232Y12531D03*
G04 Draw part U5*
G01X8232Y8531D03*
G01X8232Y7531D03*
G01X8232Y6531D03*
G01X8232Y5531D03*
G01X11232Y5531D03*
G01X11232Y8531D03*
G04 Draw part R11*
G04 Draw part C10*
G04 Draw part R12*
G04 Draw part C11*
G04 Draw part J1*
G54D25*
G01X3149Y15354D03*
G04 Draw part J2*
G01X10629Y3149D03*
G04 Draw part J3*
G01X10629Y15354D03*
G04 Draw part J4*
G01X3149Y3149D03*
G04 Draw part J5*
G54D26*
G01X5889Y2755D03*
G01X7889Y2755D03*
G04 Draw part J6*
G01X7889Y15748D03*
G01X5889Y15748D03*
G04 Draw part C12*
G04 Draw part Q1*
G04 Draw part U6*
G04 Draw part C13*
G04 Draw part C14*
G04 Draw part C15*
G04 Draw part C16*
G04 Draw part C17*
G04 Draw part C18*
G04 Draw part C19*
G04 Draw part C20*
G04 Draw part R13*
G04 Draw part R14*
G04 Draw part J7*
G04 Draw part R15*
G04 Draw part C21*
G04 Draw part U7*
G04 Draw part C22*
G04 Draw part R16*
G04 Draw part R17*
G04 Draw part R18*
G04 Draw part C23*
G04 Draw part R19*
G04 Draw part R20*
G04 Draw part R21*
G04 Draw part R22*
G04 Draw part C24*
G04 Draw part C25*
G04 Draw part R23*
G04 Draw part R24*
G04 Draw part C39*
G04 Draw part C41*
G04 Draw part R55*
G04 Draw part C45*
G04 Draw part U19*
G04 Draw part C46*
G04 Draw part R56*
G04 Draw part R57*
G04 Draw part R58*
G04 Draw part C47*
G04 Draw part R59*
G04 Draw part R60*
G04 Draw part R61*
G04 Draw part R62*
G04 Draw part C48*
G04 Draw part C49*
G04 Draw part U20*
G04 Draw part J11*
G04 Draw part C50*
G04 Draw part R63*
G04 Draw part C51*
G04 Draw part R64*
G04 Draw part R65*
G04 Draw part R66*
G04 Draw part U21*
G04 Draw part C52*
G04 Draw part C53*
G04 Draw part C54*
G04 Draw part C55*
G04 Draw part C56*
G04 Draw part C57*
G04 Draw part C58*
G04 Draw part R67*
G04 Draw part R68*
G04 Draw part R177*
G04 Draw part R69*
G04 Draw part C59*
G04 Draw part U22*
G04 Draw part C60*
G04 Draw part R70*
G04 Draw part R71*
G04 Draw part R72*
G04 Draw part C61*
G04 Draw part R73*
G04 Draw part R74*
G04 Draw part R75*
G04 Draw part R76*
G04 Draw part C62*
G04 Draw part C63*
G04 Draw part J12*
G04 Draw part C64*
G04 Draw part R77*
G04 Draw part R78*
G04 Draw part R79*
G04 Draw part R80*
G04 Draw part U24*
G04 Draw part C65*
G04 Draw part C66*
G04 Draw part C67*
G04 Draw part C68*
G04 Draw part C69*
G04 Draw part C70*
G04 Draw part C71*
G04 Draw part R81*
G04 Draw part R82*
G04 Draw part R178*
G04 Draw part U25*
G54D24*
G01X18287Y25531D03*
G01X18287Y26531D03*
G01X18287Y27531D03*
G01X18287Y28531D03*
G01X15287Y28531D03*
G01X15287Y25531D03*
G04 Draw part R83*
G04 Draw part C72*
G04 Draw part R84*
G04 Draw part U26*
G01X18287Y21531D03*
G01X18287Y22531D03*
G01X18287Y23531D03*
G01X18287Y24531D03*
G01X15287Y24531D03*
G01X15287Y21531D03*
G04 Draw part R85*
G04 Draw part C73*
G04 Draw part R86*
G04 Draw part U27*
G01X48681Y27437D03*
G01X48681Y26437D03*
G01X48681Y25437D03*
G01X48681Y24437D03*
G01X51681Y24437D03*
G01X51681Y27437D03*
G04 Draw part R87*
G04 Draw part C74*
G04 Draw part R88*
G04 Draw part U28*
G01X18287Y17531D03*
G01X18287Y18531D03*
G01X18287Y19531D03*
G01X18287Y20531D03*
G01X15287Y20531D03*
G01X15287Y17531D03*
G04 Draw part C75*
G04 Draw part Q2*
G04 Draw part Q3*
G04 Draw part Q4*
G04 Draw part R89*
G04 Draw part R90*
G04 Draw part U29*
G01X48681Y23437D03*
G01X48681Y22437D03*
G01X48681Y21437D03*
G01X48681Y20437D03*
G01X51681Y20437D03*
G01X51681Y23437D03*
G04 Draw part C76*
G04 Draw part R91*
G04 Draw part R92*
G04 Draw part U30*
G04 Draw part C77*
G04 Draw part C78*
G04 Draw part U31*
G04 Draw part C79*
G04 Draw part C80*
G04 Draw part R93*
G04 Draw part J13*
G54D27*
G01X45763Y31208D03*
G01X44763Y31208D03*
G01X43763Y31208D03*
G01X42763Y31208D03*
G01X41763Y31208D03*
G01X40763Y31208D03*
G01X39763Y31208D03*
G01X38763Y31208D03*
G01X37763Y31208D03*
G01X36763Y31208D03*
G01X35763Y31208D03*
G01X34763Y31208D03*
G01X33763Y31208D03*
G01X33763Y30208D03*
G01X34763Y30208D03*
G01X35763Y30208D03*
G01X36763Y30208D03*
G01X37763Y30208D03*
G01X38763Y30208D03*
G01X39763Y30208D03*
G01X40763Y30208D03*
G01X41763Y30208D03*
G01X42763Y30208D03*
G01X43763Y30208D03*
G01X44763Y30208D03*
G01X45763Y30208D03*
G04 Draw part J14*
G01X32582Y2649D03*
G01X33582Y2649D03*
G01X34582Y2649D03*
G01X35582Y2649D03*
G01X36582Y2649D03*
G01X37582Y2649D03*
G01X38582Y2649D03*
G01X39582Y2649D03*
G01X40582Y2649D03*
G01X41582Y2649D03*
G01X42582Y2649D03*
G01X43582Y2649D03*
G01X44582Y2649D03*
G01X44582Y3649D03*
G01X43582Y3649D03*
G01X42582Y3649D03*
G01X41582Y3649D03*
G01X40582Y3649D03*
G01X39582Y3649D03*
G01X38582Y3649D03*
G01X37582Y3649D03*
G01X36582Y3649D03*
G01X35582Y3649D03*
G01X34582Y3649D03*
G01X33582Y3649D03*
G01X32582Y3649D03*
G04 Draw part U32*
G04 Draw part C81*
G04 Draw part C82*
G04 Draw part J15*
G54D25*
G01X51181Y3149D03*
G04 Draw part J16*
G01X15748Y3149D03*
G04 Draw part J17*
G01X51181Y30708D03*
G04 Draw part J18*
G01X15748Y30708D03*
G04 Draw part U33*
G04 Draw part C83*
G04 Draw part U34*
G54D24*
G01X22161Y26531D03*
G01X23161Y26531D03*
G01X24161Y26531D03*
G01X25161Y26531D03*
G01X25161Y29531D03*
G01X24161Y29531D03*
G01X23161Y29531D03*
G01X22161Y29531D03*
G04 Draw part R94*
G04 Draw part R95*
G04 Draw part R96*
G04 Draw part J19*
G04 Draw part C84*
G04 Draw part U35*
G01X27358Y26492D03*
G01X28358Y26492D03*
G01X29358Y26492D03*
G01X30358Y26492D03*
G01X30358Y29492D03*
G01X29358Y29492D03*
G01X28358Y29492D03*
G01X27358Y29492D03*
G04 Draw part R97*
G04 Draw part R98*
G04 Draw part R99*
G04 Draw part J20*
G04 Draw part C85*
G04 Draw part J21*
G54D27*
G01X22015Y2649D03*
G01X23015Y2649D03*
G01X24015Y2649D03*
G01X25015Y2649D03*
G01X26015Y2649D03*
G01X26015Y3649D03*
G01X25015Y3649D03*
G01X24015Y3649D03*
G01X23015Y3649D03*
G01X22015Y3649D03*
G04 Draw part C86*
G04 Draw part Q5*
G04 Draw part Q6*
G04 Draw part R100*
G04 Draw part R101*
G04 Draw part R102*
G04 Draw part R103*
G04 Draw part R104*
G04 Draw part R105*
G04 Draw part R106*
G04 Draw part R107*
G04 Draw part R108*
G04 Draw part R109*
G04 Draw part R110*
G04 Draw part R111*
G04 Draw part R112*
G04 Draw part R113*
G04 Draw part U36*
G04 Draw part C87*
G04 Draw part C88*
G04 Draw part C89*
G04 Draw part U37*
G04 Draw part U38*
G04 Draw part R114*
G04 Draw part C90*
G04 Draw part C91*
G04 Draw part C92*
G04 Draw part C93*
G04 Draw part U39*
G04 Draw part U40*
G04 Draw part R115*
G04 Draw part C94*
G04 Draw part C95*
G04 Draw part C96*
G04 Draw part C97*
G04 Draw part U41*
G04 Draw part U42*
G04 Draw part R116*
G04 Draw part C98*
G04 Draw part C99*
G04 Draw part C100*
G04 Draw part C101*
G04 Draw part U43*
G04 Draw part U44*
G04 Draw part C102*
G04 Draw part R117*
G04 Draw part R118*
G04 Draw part R119*
G04 Draw part R120*
G04 Draw part C103*
G04 Draw part C104*
G04 Draw part C105*
G04 Draw part C106*
G04 Draw part R121*
G04 Draw part R122*
G04 Draw part R123*
G04 Draw part R124*
G04 Draw part C107*
G04 Draw part R125*
G04 Draw part R126*
G04 Draw part R127*
G04 Draw part C108*
G04 Draw part R128*
G04 Draw part R129*
G04 Draw part R130*
G04 Draw part C109*
G04 Draw part R131*
G04 Draw part R132*
G04 Draw part R133*
G04 Draw part R134*
G04 Draw part R135*
G04 Draw part R136*
G04 Draw part R137*
G04 Draw part R138*
G04 Draw part R139*
G04 Draw part R140*
G04 Draw part U45*
G04 Draw part R141*
G04 Draw part R142*
G04 Draw part R143*
G04 Draw part R144*
G04 Draw part R145*
G04 Draw part R146*
G04 Draw part R147*
G04 Draw part R148*
G04 Draw part R149*
G04 Draw part R150*
G04 Draw part R151*
G04 Draw part R152*
G04 Draw part R153*
G04 Draw part R154*
G04 Draw part R155*
G04 Draw part R156*
G04 Draw part R157*
G04 Draw part R158*
G04 Draw part R159*
G04 Draw part R160*
G04 Draw part R161*
G04 Draw part R162*
G04 Draw part R163*
G04 Draw part R164*
G04 Draw part J26*
G01X41070Y35287D03*
G01X42070Y35287D03*
G01X43070Y35287D03*
G01X44070Y35287D03*
G01X45070Y35287D03*
G01X45070Y36287D03*
G01X44070Y36287D03*
G01X43070Y36287D03*
G01X42070Y36287D03*
G01X41070Y36287D03*
G04 Draw part J27*
G01X45070Y48964D03*
G01X44070Y48964D03*
G01X43070Y48964D03*
G01X42070Y48964D03*
G01X41070Y48964D03*
G01X41070Y47964D03*
G01X42070Y47964D03*
G01X43070Y47964D03*
G01X44070Y47964D03*
G01X45070Y47964D03*
G04 Draw part J28*
G01X32409Y35287D03*
G01X33409Y35287D03*
G01X34409Y35287D03*
G01X35409Y35287D03*
G01X36409Y35287D03*
G01X36409Y36287D03*
G01X35409Y36287D03*
G01X34409Y36287D03*
G01X33409Y36287D03*
G01X32409Y36287D03*
G04 Draw part C110*
G04 Draw part C111*
G04 Draw part C112*
G04 Draw part C113*
G04 Draw part C114*
G04 Draw part J29*
G04 Draw part R165*
G04 Draw part C115*
G04 Draw part R166*
G04 Draw part J30*
G54D25*
G01X48818Y35826D03*
G04 Draw part J31*
G01X19291Y48425D03*
G04 Draw part J32*
G01X19291Y35826D03*
G04 Draw part J33*
G01X48818Y48425D03*
G04 Draw part U50*
G04 Draw part C116*
G04 Draw part C117*
G04 Draw part J34*
G54D26*
G01X34582Y48740D03*
G01X32582Y48740D03*
G04 Draw part R167*
G04 Draw part R168*
G04 Draw part C118*
G04 Draw part U51*
G04 Draw part C119*
G04 Draw part C120*
G04 Draw part Q7*
G54D24*
G01X28355Y41456D03*
G01X27755Y40856D03*
G01X27155Y41456D03*
G04 Draw part Q8*
G01X27155Y42834D03*
G01X27755Y43434D03*
G01X28355Y42834D03*
G04 Draw part C121*
G04 Draw part R169*
G04 Draw part R170*
G04 Draw part C122*
G04 Draw part C123*
G04 Draw part U52*
G04 Draw part C124*
G04 Draw part C125*
G04 Draw part U53*
G04 Draw part C126*
G04 Draw part C127*
G04 Draw part C128*
G04 Draw part U54*
G01X46444Y41437D03*
G01X46444Y40437D03*
G01X46444Y39437D03*
G01X46444Y38437D03*
G01X49444Y38437D03*
G01X49444Y41437D03*
G04 Draw part C129*
G04 Draw part U55*
G01X46444Y45437D03*
G01X46444Y44437D03*
G01X46444Y43437D03*
G01X46444Y42437D03*
G01X49444Y42437D03*
G01X49444Y45437D03*
G04 Draw part R171*
G04 Draw part C130*
G04 Draw part R172*
G04 Draw part Q9*
G04 Draw part U56*
G04 Draw part C131*
G04 Draw part R174*
G04 Draw part R175*
G04 Draw part U57*
G04 Draw part J35*
G04 Draw part R176*
G04 Draw part J36*
G04 Draw part J37*
G04 Draw part J38*
G04 Draw part R179*
G04 Draw part J8*
G04 Draw part R25*
G04 Draw part C26*
G04 Draw part U13*
G04 Draw part C27*
G04 Draw part R26*
G04 Draw part R27*
G04 Draw part R28*
G04 Draw part C28*
G04 Draw part R29*
G04 Draw part R30*
G04 Draw part C30*
G04 Draw part R34*
G04 Draw part R33*
G04 Draw part C42*
G04 Draw part J9*
G04 Draw part R35*
G04 Draw part C31*
G04 Draw part U15*
G04 Draw part C32*
G04 Draw part R36*
G04 Draw part R37*
G04 Draw part R38*
G04 Draw part C33*
G04 Draw part R39*
G04 Draw part R40*
G04 Draw part C35*
G04 Draw part R43*
G04 Draw part R44*
G04 Draw part C43*
G04 Draw part J10*
G04 Draw part R45*
G04 Draw part C36*
G04 Draw part U17*
G04 Draw part C37*
G04 Draw part R46*
G04 Draw part R47*
G04 Draw part R48*
G04 Draw part C38*
G04 Draw part R49*
G04 Draw part R50*
G04 Draw part C40*
G04 Draw part R53*
G04 Draw part R54*
G04 Draw part C44*
G04 Draw part R31*
G04 Draw part R32*
G04 Draw part C29*
G04 Draw part R41*
G04 Draw part R42*
G04 Draw part C34*
G04 Draw part R51*
G04 Draw part R52*
G04 Draw part C132*
G04 Draw part J39*
G54D27*
G01X15208Y48125D03*
G01X15208Y47125D03*
G01X15208Y46125D03*
G01X15208Y45125D03*
G01X15208Y44125D03*
G01X15208Y43125D03*
G01X15208Y42125D03*
G01X15208Y41125D03*
G01X15208Y40125D03*
G01X15208Y39125D03*
G01X15208Y38125D03*
G01X15208Y37125D03*
G01X15208Y36125D03*
G01X16208Y36125D03*
G01X16208Y37125D03*
G01X16208Y38125D03*
G01X16208Y39125D03*
G01X16208Y40125D03*
G01X16208Y41125D03*
G01X16208Y42125D03*
G01X16208Y43125D03*
G01X16208Y44125D03*
G01X16208Y45125D03*
G01X16208Y46125D03*
G01X16208Y47125D03*
G01X16208Y48125D03*
G04 Draw part J40*
G04 Draw part J41*
G04 Draw part J42*
G04 Draw part J43*
G04 Draw part J44*
G04 Draw part J47*
G04 Draw part R180*
G04 Draw part J46*
G04 Draw part J45*
G04 Draw part J50*
G04 Draw part R181*
G04 Draw part J49*
G04 Draw part J48*
G04 Draw part U1001*
G04 Draw part C1001*
G04 Draw part C1005*
G04 Draw part R1010*
G04 Draw part R1011*
G04 Draw part C1006*
G04 Draw part C1007*
G04 Draw part R1012*
G04 Draw part R1013*
G04 Draw part R1014*
G04 Draw part R1015*
G04 Draw part R1016*
G04 Draw part R1017*
G04 Draw part R1018*
G04 Draw part C1008*
G04 Draw part C1009*
G04 Draw part C1010*
G04 Draw part R1019*
G04 Draw part R1020*
G04 Draw part U1003*
G01X6992Y53043D03*
G01X7992Y53043D03*
G01X8992Y53043D03*
G01X9992Y53043D03*
G01X10992Y53043D03*
G01X11992Y53043D03*
G01X12992Y53043D03*
G01X13992Y53043D03*
G01X14992Y53043D03*
G01X15992Y53043D03*
G01X16992Y53043D03*
G01X17992Y53043D03*
G01X18992Y53043D03*
G01X18992Y54043D03*
G01X17992Y54043D03*
G01X16992Y54043D03*
G01X15992Y54043D03*
G01X14992Y54043D03*
G01X13992Y54043D03*
G01X12992Y54043D03*
G01X11992Y54043D03*
G01X10992Y54043D03*
G01X9992Y54043D03*
G01X8992Y54043D03*
G01X7992Y54043D03*
G01X6992Y54043D03*
G04 Draw part U1004*
G04 Draw part C1011*
G04 Draw part C1012*
G04 Draw part C1013*
G04 Draw part C1014*
G04 Draw part C1015*
G04 Draw part C1016*
G04 Draw part C1017*
G04 Draw part U1005*
G04 Draw part R1021*
G04 Draw part R1022*
G04 Draw part C1018*
G04 Draw part C1019*
G04 Draw part R1023*
G04 Draw part U1006*
G04 Draw part R1024*
G04 Draw part R1025*
G04 Draw part C1020*
G04 Draw part C1021*
G04 Draw part R1026*
G04 Draw part U1007*
G04 Draw part R1027*
G04 Draw part R1028*
G04 Draw part C1022*
G04 Draw part C1023*
G04 Draw part R1029*
G04 Draw part U1008*
G04 Draw part R1030*
G04 Draw part R1031*
G04 Draw part C1024*
G04 Draw part C1025*
G04 Draw part R1032*
G04 Draw part U1009*
G04 Draw part R1033*
G04 Draw part R1034*
G04 Draw part C1026*
G04 Draw part C1027*
G04 Draw part R1035*
G04 Draw part U1010*
G04 Draw part R1036*
G04 Draw part R1037*
G04 Draw part C1028*
G04 Draw part C1029*
G04 Draw part R1038*
G04 Draw part U1011*
G04 Draw part C1030*
G04 Draw part C1031*
G04 Draw part U1012*
G54D26*
G01X2952Y60661D03*
G01X2952Y58661D03*
G01X2952Y56661D03*
G04 Draw part C1032*
G04 Draw part C1033*
G04 Draw part U1013*
G54D25*
G01X22834Y69685D03*
G04 Draw part U1014*
G01X22834Y53543D03*
G04 Draw part U1015*
G01X3149Y69685D03*
G04 Draw part U1016*
G01X3149Y53543D03*
G04 Draw part D1001*
G04 Draw part L1001*
G04 Draw part C1034*
G04 Draw part U1018*
G04 Draw part U1019*
G04 Draw part X1001*
G54D28*
G01X52504Y63440D03*
G01X52504Y65360D03*
G04 Draw part C1035*
G04 Draw part C1036*
G04 Draw part R1047*
G04 Draw part C1037*
G04 Draw part R1048*
G04 Draw part R1049*
G04 Draw part C1038*
G04 Draw part C1039*
G04 Draw part C1040*
G04 Draw part C1041*
G04 Draw part C1042*
G04 Draw part C1043*
G04 Draw part C1044*
G04 Draw part C1045*
G04 Draw part C1046*
G04 Draw part J1001*
G04 Draw part R1050*
G04 Draw part R1051*
G04 Draw part L1002*
G04 Draw part C1047*
G04 Draw part C1048*
G04 Draw part C1049*
G04 Draw part U1027*
G54D27*
G01X45518Y65798D03*
G01X45518Y64798D03*
G01X45518Y63798D03*
G01X45518Y62798D03*
G01X45518Y61798D03*
G01X46518Y61798D03*
G01X46518Y62798D03*
G01X46518Y63798D03*
G01X46518Y64798D03*
G01X46518Y65798D03*
G04 Draw part U1028*
G01X53384Y70240D03*
G01X52384Y70240D03*
G01X51384Y70240D03*
G01X50384Y70240D03*
G01X49384Y70240D03*
G01X49384Y69240D03*
G01X50384Y69240D03*
G01X51384Y69240D03*
G01X52384Y69240D03*
G01X53384Y69240D03*
G04 Draw part U1029*
G01X61584Y70240D03*
G01X60584Y70240D03*
G01X59584Y70240D03*
G01X58584Y70240D03*
G01X57584Y70240D03*
G01X57584Y69240D03*
G01X58584Y69240D03*
G01X59584Y69240D03*
G01X60584Y69240D03*
G01X61584Y69240D03*
G04 Draw part U1030*
G54D25*
G01X45669Y69685D03*
G04 Draw part R1052*
G04 Draw part R1053*
G04 Draw part R1054*
G04 Draw part R1055*
G04 Draw part R1056*
G04 Draw part R1057*
G04 Draw part R1058*
G04 Draw part U1031*
G01X65354Y69685D03*
G04 Draw part U1032*
G01X45625Y56711D03*
G04 Draw part U1033*
G01X65354Y56692D03*
G04 Draw part U1034*
G54D28*
G01X63434Y60400D03*
G01X63433Y61403D03*
G01X63433Y62403D03*
G04 Draw part U1035*
G04 Draw part R1059*
G04 Draw part D1002*
G04 Draw part U1041*
G54D26*
G01X36251Y70078D03*
G01X34251Y70078D03*
G01X32251Y70078D03*
G04 Draw part R1060*
G04 Draw part R1061*
G04 Draw part C1050*
G04 Draw part C1051*
G04 Draw part R1062*
G04 Draw part C1052*
G04 Draw part C1053*
G04 Draw part C1054*
G04 Draw part C1055*
G04 Draw part C1056*
G04 Draw part C1057*
G04 Draw part U1042*
G54D27*
G01X41490Y61540D03*
G01X41490Y62540D03*
G01X41490Y63540D03*
G01X41490Y64540D03*
G01X41490Y65540D03*
G01X40490Y65540D03*
G01X40490Y64540D03*
G01X40490Y63540D03*
G01X40490Y62540D03*
G01X40490Y61540D03*
G04 Draw part U1043*
G01X31990Y56440D03*
G01X32990Y56440D03*
G01X33990Y56440D03*
G01X34990Y56440D03*
G01X35990Y56440D03*
G01X35990Y57440D03*
G01X34990Y57440D03*
G01X33990Y57440D03*
G01X32990Y57440D03*
G01X31990Y57440D03*
G04 Draw part U1044*
G54D25*
G01X27952Y69685D03*
G04 Draw part R1063*
G04 Draw part U1045*
G01X40944Y69685D03*
G04 Draw part U1046*
G01X40944Y57086D03*
G04 Draw part U1047*
G01X27952Y57086D03*
G04 Draw part U1048*
G04 Draw part R1064*
G04 Draw part D1003*
G04 Draw part L1003*
G04 Draw part C1058*
G04 Draw part U1049*
G04 Draw part C1059*
G04 Draw part R1065*
G04 Draw part R1066*
G04 Draw part R1067*
G04 Draw part R1068*
G04 Draw part R1069*
G04 Draw part R1070*
G04 Draw part U1050*
G04 Draw part U1051*
G04 Draw part U1052*
G04 Draw part U1053*
G04 Draw part U1054*
G01X66929Y25984D03*
G04 Draw part U1055*
G01X66929Y20472D03*
G04 Draw part U1056*
G04 Draw part T1001*
G04 Draw part U1063*
G01X66929Y2755D03*
G04 Draw part C1076*
G04 Draw part U1057*
G04 Draw part U1058*
G04 Draw part U1059*
G04 Draw part U1060*
G04 Draw part U1061*
G04 Draw part U1062*
G01X66929Y8267D03*
G04 Draw part C1077*
G04 Draw part R1001*
G04 Draw part R1002*
G04 Draw part R1003*
G04 Draw part R1004*
G04 Draw part R1005*
G04 Draw part R1006*
G04 Draw part R1007*
G04 Draw part R1008*
G04 Draw part C1002*
G04 Draw part C1003*
G04 Draw part U1002*
G54D27*
G01X18992Y70185D03*
G01X17992Y70185D03*
G01X16992Y70185D03*
G01X15992Y70185D03*
G01X14992Y70185D03*
G01X13992Y70185D03*
G01X12992Y70185D03*
G01X11992Y70185D03*
G01X10992Y70185D03*
G01X9992Y70185D03*
G01X8992Y70185D03*
G01X7992Y70185D03*
G01X6992Y70185D03*
G01X6992Y69185D03*
G01X7992Y69185D03*
G01X8992Y69185D03*
G01X9992Y69185D03*
G01X10992Y69185D03*
G01X11992Y69185D03*
G01X12992Y69185D03*
G01X13992Y69185D03*
G01X14992Y69185D03*
G01X15992Y69185D03*
G01X16992Y69185D03*
G01X17992Y69185D03*
G01X18992Y69185D03*
G04 Draw part C1004*
G04 Draw part R1009*
G04 Draw part U1017*
G04 Draw part U1022*
G04 Draw part U1026*
G54D26*
G01X55584Y56740D03*
G01X57584Y56740D03*
G01X59584Y56740D03*
G04 Draw part R1039*
G04 Draw part R1040*
G04 Draw part R1041*
G04 Draw part R1042*
G04 Draw part R1043*
G04 Draw part R1044*
G04 Draw part R1045*
G04 Draw part R1046*
G04 Draw part C1060*
G04 Draw part C1061*
G04 Draw part C1062*
G04 Draw part C1063*
G04 Draw part C1064*
G04 Draw part C1065*
G04 Draw part C1066*
G04 Draw part U1040*
G54D27*
G01X27490Y65540D03*
G01X27490Y64540D03*
G01X27490Y63540D03*
G01X27490Y62540D03*
G01X27490Y61540D03*
G01X28490Y61540D03*
G01X28490Y62540D03*
G01X28490Y63540D03*
G01X28490Y64540D03*
G01X28490Y65540D03*
G04 Draw part C1067*
G04 Draw part C1068*
G04 Draw part C1069*
G04 Draw part C1070*
G04 Draw part C1071*
G04 Draw part C1072*
G04 Draw part C1073*
G04 Draw part C1074*
G04 Draw part C1075*
G04 Draw part R2057*
G04 Draw part R2058*
G04 Draw part R2059*
G04 Draw part R2060*
G04 Draw part R2061*
G04 Draw part R2062*
G04 Draw part U2048*
G04 Draw part U2049*
G04 Draw part R2069*
G04 Draw part U2050*
G04 Draw part U2051*
G04 Draw part U2052*
G04 Draw part U2053*
G04 Draw part U2054*
G54D25*
G01X66929Y43700D03*
G04 Draw part U2055*
G01X66929Y38188D03*
G04 Draw part C2076*
G04 Draw part R3057*
G04 Draw part R3058*
G04 Draw part R3059*
G04 Draw part R3060*
G04 Draw part R3061*
G04 Draw part R3062*
G04 Draw part U3048*
G04 Draw part U3049*
G04 Draw part R3069*
G04 Draw part U3050*
G04 Draw part U3051*
G04 Draw part U3052*
G04 Draw part U3053*
G04 Draw part U3054*
G01X53543Y43700D03*
G04 Draw part U3055*
G01X53543Y38188D03*
G04 Draw part C3076*

G04 Draw traces*
G54D29*
G01X63484Y37401D03*
G54D30*
G01X63484Y37401D02*
G01X63484Y40846D01*
G01X63484Y40846D02*
G01X61574Y42755D01*
G01X61574Y42755D02*
G01X61574Y43917D01*
G01X61574Y43917D02*
G01X60374Y45118D01*
G01X60374Y45118D02*
G01X60374Y51535D01*
G01X60374Y51535D02*
G01X60354Y51555D01*
G54D29*
G01X60354Y51555D03*
G01X60354Y51555D03*
G54D30*
G01X60354Y51555D02*
G01X60374Y51535D01*
G01X60374Y51535D02*
G01X60374Y45118D01*
G01X60374Y45118D02*
G01X61574Y43917D01*
G01X61574Y43917D02*
G01X61574Y42755D01*
G01X61574Y42755D02*
G01X63484Y40846D01*
G01X63484Y40846D02*
G01X63484Y37401D01*
G54D29*
G01X63484Y37401D03*
G01X63484Y41732D03*
G54D30*
G01X63484Y41732D02*
G01X63188Y41732D01*
G01X63188Y41732D02*
G01X61988Y42933D01*
G01X61988Y42933D02*
G01X61988Y44036D01*
G01X61988Y44036D02*
G01X60787Y45237D01*
G01X60787Y45237D02*
G01X60787Y47244D01*
G01X60787Y47244D02*
G01X60787Y47440D01*
G01X60787Y47440D02*
G01X61259Y47913D01*
G01X61259Y47913D02*
G01X62637Y47913D01*
G01X62637Y47913D02*
G01X63051Y48326D01*
G01X63051Y48326D02*
G01X63051Y48740D01*
G01X63051Y48740D02*
G01X63425Y49114D01*
G54D29*
G01X63425Y49114D03*
G01X63425Y49114D03*
G54D30*
G01X63425Y49114D02*
G01X63051Y48740D01*
G01X63051Y48740D02*
G01X63051Y48326D01*
G01X63051Y48326D02*
G01X62637Y47913D01*
G01X62637Y47913D02*
G01X61259Y47913D01*
G01X61259Y47913D02*
G01X60787Y47440D01*
G01X60787Y47440D02*
G01X60787Y45236D01*
G01X60787Y45236D02*
G01X61988Y44035D01*
G01X61988Y44035D02*
G01X61988Y42933D01*
G01X61988Y42933D02*
G01X63188Y41732D01*
G01X63188Y41732D02*
G01X63484Y41732D01*
G54D29*
G01X63484Y41732D03*
G01X63622Y23681D03*
G54D30*
G01X63622Y23681D02*
G01X63326Y23681D01*
G01X63326Y23681D02*
G01X61850Y25157D01*
G01X61850Y25157D02*
G01X61850Y26279D01*
G01X61850Y26279D02*
G01X60649Y27480D01*
G01X60649Y27480D02*
G01X60649Y29527D01*
G01X60649Y29527D02*
G01X60649Y29783D01*
G01X60649Y29783D02*
G01X61200Y30334D01*
G01X61200Y30334D02*
G01X61850Y30334D01*
G01X61850Y30334D02*
G01X62244Y30728D01*
G01X62244Y30728D02*
G01X62244Y31003D01*
G01X62244Y31003D02*
G01X62637Y31397D01*
G54D29*
G01X62637Y31397D03*
G01X62637Y31397D03*
G54D30*
G01X62637Y31397D02*
G01X62244Y31003D01*
G01X62244Y31003D02*
G01X62244Y30728D01*
G01X62244Y30728D02*
G01X61850Y30334D01*
G01X61850Y30334D02*
G01X61200Y30334D01*
G01X61200Y30334D02*
G01X60649Y29783D01*
G01X60649Y29783D02*
G01X60649Y27480D01*
G01X60649Y27480D02*
G01X61850Y26279D01*
G01X61850Y26279D02*
G01X61850Y25157D01*
G01X61850Y25157D02*
G01X63326Y23681D01*
G01X63326Y23681D02*
G01X63622Y23681D01*
G54D29*
G01X63622Y23681D03*
G01X2401Y44015D03*
G54D30*
G01X2401Y44015D02*
G01X2007Y44409D01*
G01X2007Y44409D02*
G01X2007Y47125D01*
G01X2007Y47125D02*
G01X2480Y47598D01*
G54D29*
G01X2480Y47598D03*
G01X8425Y33188D03*
G54D30*
G01X8425Y33188D02*
G01X8818Y33582D01*
G01X8818Y33582D02*
G01X8818Y34409D01*
G01X8818Y34409D02*
G01X8425Y34803D01*
G54D29*
G01X8425Y34803D03*
G01X4370Y33188D03*
G54D30*
G01X4370Y33188D02*
G01X3976Y33582D01*
G01X3976Y33582D02*
G01X3976Y36299D01*
G01X3976Y36299D02*
G01X4448Y36771D01*
G54D29*
G01X4448Y36771D03*
G01X63759Y5629D03*
G54D30*
G01X63759Y5629D02*
G01X63464Y5629D01*
G01X63464Y5629D02*
G01X61712Y7381D01*
G01X61712Y7381D02*
G01X61712Y8524D01*
G01X61712Y8524D02*
G01X60511Y9725D01*
G01X60511Y9725D02*
G01X60511Y11811D01*
G01X60511Y11811D02*
G01X60511Y12125D01*
G01X60511Y12125D02*
G01X61456Y13070D01*
G01X61456Y13070D02*
G01X61456Y13287D01*
G01X61456Y13287D02*
G01X61850Y13681D01*
G54D29*
G01X61850Y13681D03*
G01X61850Y13681D03*
G54D30*
G01X61850Y13681D02*
G01X61456Y13287D01*
G01X61456Y13287D02*
G01X61456Y13070D01*
G01X61456Y13070D02*
G01X60511Y12125D01*
G01X60511Y12125D02*
G01X60511Y9724D01*
G01X60511Y9724D02*
G01X61712Y8523D01*
G01X61712Y8523D02*
G01X61712Y7381D01*
G01X61712Y7381D02*
G01X63464Y5629D01*
G01X63464Y5629D02*
G01X63759Y5629D01*
G54D29*
G01X63759Y5629D03*
G01X63622Y41397D03*
G54D30*
G01X63622Y41397D02*
G01X63326Y41397D01*
G01X63326Y41397D02*
G01X61850Y42874D01*
G01X61850Y42874D02*
G01X61850Y43996D01*
G01X61850Y43996D02*
G01X60649Y45197D01*
G01X60649Y45197D02*
G01X60649Y47244D01*
G01X60649Y47244D02*
G01X60649Y47500D01*
G01X60649Y47500D02*
G01X61200Y48051D01*
G01X61200Y48051D02*
G01X61850Y48051D01*
G01X61850Y48051D02*
G01X62244Y48444D01*
G01X62244Y48444D02*
G01X62244Y48720D01*
G01X62244Y48720D02*
G01X62637Y49114D01*
G54D29*
G01X62637Y49114D03*
G01X62637Y49114D03*
G54D30*
G01X62637Y49114D02*
G01X62244Y48720D01*
G01X62244Y48720D02*
G01X62244Y48444D01*
G01X62244Y48444D02*
G01X61850Y48051D01*
G01X61850Y48051D02*
G01X61200Y48051D01*
G01X61200Y48051D02*
G01X60649Y47500D01*
G01X60649Y47500D02*
G01X60649Y45196D01*
G01X60649Y45196D02*
G01X61850Y43996D01*
G01X61850Y43996D02*
G01X61850Y42874D01*
G01X61850Y42874D02*
G01X63326Y41397D01*
G01X63326Y41397D02*
G01X63622Y41397D01*
G54D29*
G01X63622Y41397D03*
G01X8425Y44015D03*
G54D30*
G01X8425Y44015D02*
G01X8818Y44409D01*
G01X8818Y44409D02*
G01X8818Y45236D01*
G01X8818Y45236D02*
G01X8425Y45629D01*
G54D29*
G01X8425Y45629D03*
G01X4370Y44015D03*
G54D30*
G01X4370Y44015D02*
G01X3976Y44409D01*
G01X3976Y44409D02*
G01X3976Y47125D01*
G01X3976Y47125D02*
G01X4448Y47598D01*
G54D29*
G01X4448Y47598D03*
G01X10393Y33188D03*
G54D30*
G01X10393Y33188D02*
G01X10787Y33582D01*
G01X10787Y33582D02*
G01X10787Y34409D01*
G01X10787Y34409D02*
G01X10393Y34803D01*
G54D29*
G01X10393Y34803D03*
G01X6338Y33188D03*
G54D30*
G01X6338Y33188D02*
G01X5944Y33582D01*
G01X5944Y33582D02*
G01X5944Y36299D01*
G01X5944Y36299D02*
G01X6417Y36771D01*
G54D29*
G01X6417Y36771D03*
G01X60236Y1988D03*
G54D30*
G01X60236Y1988D02*
G01X59350Y1988D01*
G01X59350Y1988D02*
G01X58346Y2992D01*
G01X58346Y2992D02*
G01X58346Y6771D01*
G01X58346Y6771D02*
G01X58897Y7322D01*
G01X58897Y7322D02*
G01X58897Y8307D01*
G01X58897Y8307D02*
G01X60098Y9507D01*
G01X60098Y9507D02*
G01X60098Y11811D01*
G01X60098Y11811D02*
G01X60098Y13070D01*
G01X60098Y13070D02*
G01X59488Y13681D01*
G54D29*
G01X59488Y13681D03*
G01X59488Y13681D03*
G54D30*
G01X59488Y13681D02*
G01X60098Y13070D01*
G01X60098Y13070D02*
G01X60098Y9507D01*
G01X60098Y9507D02*
G01X58897Y8307D01*
G01X58897Y8307D02*
G01X58897Y7322D01*
G01X58897Y7322D02*
G01X58346Y6771D01*
G01X58346Y6771D02*
G01X58346Y2992D01*
G01X58346Y2992D02*
G01X59350Y1988D01*
G01X59350Y1988D02*
G01X60236Y1988D01*
G54D29*
G01X60236Y1988D03*
G01X11581Y64253D03*
G01X4381Y64253D03*
G01X5981Y57353D03*
G01X12881Y57453D03*
G01X15381Y57453D03*
G01X20381Y57453D03*
G01X22981Y57453D03*
G01X17881Y57453D03*
G01X21231Y57378D03*
G01X7781Y57453D03*
G01X10356Y57453D03*
G01X10281Y64253D03*
G01X10393Y44015D03*
G54D30*
G01X10393Y44015D02*
G01X10787Y44409D01*
G01X10787Y44409D02*
G01X10787Y45236D01*
G01X10787Y45236D02*
G01X10393Y45629D01*
G54D29*
G01X10393Y45629D03*
G01X6338Y44015D03*
G54D30*
G01X6338Y44015D02*
G01X5944Y44409D01*
G01X5944Y44409D02*
G01X5944Y47125D01*
G01X5944Y47125D02*
G01X6417Y47598D01*
G54D29*
G01X6417Y47598D03*
G01X56712Y5629D03*
G54D30*
G01X56712Y5629D02*
G01X57007Y5629D01*
G01X57007Y5629D02*
G01X58759Y7381D01*
G01X58759Y7381D02*
G01X58759Y8346D01*
G01X58759Y8346D02*
G01X59960Y9547D01*
G01X59960Y9547D02*
G01X59960Y11811D01*
G01X59960Y11811D02*
G01X59960Y12244D01*
G01X59960Y12244D02*
G01X58956Y13248D01*
G01X58956Y13248D02*
G01X58956Y13425D01*
G01X58956Y13425D02*
G01X58700Y13681D01*
G54D29*
G01X58700Y13681D03*
G01X58700Y13681D03*
G54D30*
G01X58700Y13681D02*
G01X58956Y13425D01*
G01X58956Y13425D02*
G01X58956Y13248D01*
G01X58956Y13248D02*
G01X59960Y12244D01*
G01X59960Y12244D02*
G01X59960Y9547D01*
G01X59960Y9547D02*
G01X58759Y8346D01*
G01X58759Y8346D02*
G01X58759Y7381D01*
G01X58759Y7381D02*
G01X57007Y5629D01*
G01X57007Y5629D02*
G01X56712Y5629D01*
G54D29*
G01X56712Y5629D03*
G01X61384Y57990D03*
G01X61102Y60393D03*
G01X65631Y6277D03*
G01X67559Y4370D03*
G01X66732Y5196D03*
G01X67165Y4566D03*
G01X56850Y5964D03*
G54D30*
G01X56850Y5964D02*
G01X57145Y5964D01*
G01X57145Y5964D02*
G01X58622Y7440D01*
G01X58622Y7440D02*
G01X58622Y8385D01*
G01X58622Y8385D02*
G01X59822Y9586D01*
G01X59822Y9586D02*
G01X59822Y11811D01*
G01X59822Y11811D02*
G01X59822Y12185D01*
G01X59822Y12185D02*
G01X59251Y12755D01*
G01X59251Y12755D02*
G01X58503Y12755D01*
G01X58503Y12755D02*
G01X58169Y13090D01*
G01X58169Y13090D02*
G01X58169Y13425D01*
G01X58169Y13425D02*
G01X57913Y13681D01*
G54D29*
G01X57913Y13681D03*
G01X57913Y13681D03*
G54D30*
G01X57913Y13681D02*
G01X58169Y13425D01*
G01X58169Y13425D02*
G01X58169Y13090D01*
G01X58169Y13090D02*
G01X58503Y12755D01*
G01X58503Y12755D02*
G01X59251Y12755D01*
G01X59251Y12755D02*
G01X59822Y12185D01*
G01X59822Y12185D02*
G01X59822Y9586D01*
G01X59822Y9586D02*
G01X58622Y8385D01*
G01X58622Y8385D02*
G01X58622Y7440D01*
G01X58622Y7440D02*
G01X57145Y5964D01*
G01X57145Y5964D02*
G01X56850Y5964D01*
G54D29*
G01X56850Y5964D03*
G01X11981Y58353D03*
G01X14481Y58353D03*
G01X9381Y58353D03*
G01X19481Y58353D03*
G01X22081Y58353D03*
G01X19281Y64553D03*
G01X6881Y58353D03*
G01X16981Y58353D03*
G01X29784Y64033D03*
G01X33984Y64033D03*
G01X36181Y63149D03*
G01X32992Y64015D03*
G01X7440Y22362D03*
G54D30*
G01X7440Y22362D02*
G01X7834Y22755D01*
G01X7834Y22755D02*
G01X7834Y23582D01*
G01X7834Y23582D02*
G01X7440Y23976D01*
G54D29*
G01X7440Y23976D03*
G01X3385Y22362D03*
G54D30*
G01X3385Y22362D02*
G01X2992Y22755D01*
G01X2992Y22755D02*
G01X2992Y25472D01*
G01X2992Y25472D02*
G01X3464Y25944D01*
G54D29*
G01X3464Y25944D03*
G01X56988Y6299D03*
G54D30*
G01X56988Y6299D02*
G01X57283Y6299D01*
G01X57283Y6299D02*
G01X58484Y7500D01*
G01X58484Y7500D02*
G01X58484Y8425D01*
G01X58484Y8425D02*
G01X59685Y9626D01*
G01X59685Y9626D02*
G01X59685Y11811D01*
G01X59685Y11811D02*
G01X59685Y12125D01*
G01X59685Y12125D02*
G01X59192Y12618D01*
G01X59192Y12618D02*
G01X57716Y12618D01*
G01X57716Y12618D02*
G01X57381Y12952D01*
G01X57381Y12952D02*
G01X57381Y13425D01*
G01X57381Y13425D02*
G01X57125Y13681D01*
G54D29*
G01X57125Y13681D03*
G01X57125Y13681D03*
G54D30*
G01X57125Y13681D02*
G01X57381Y13425D01*
G01X57381Y13425D02*
G01X57381Y12952D01*
G01X57381Y12952D02*
G01X57716Y12618D01*
G01X57716Y12618D02*
G01X59192Y12618D01*
G01X59192Y12618D02*
G01X59685Y12125D01*
G01X59685Y12125D02*
G01X59685Y9625D01*
G01X59685Y9625D02*
G01X58484Y8425D01*
G01X58484Y8425D02*
G01X58484Y7500D01*
G01X58484Y7500D02*
G01X57283Y6299D01*
G01X57283Y6299D02*
G01X56988Y6299D01*
G54D29*
G01X56988Y6299D03*
G01X5275Y4685D03*
G01X2244Y5354D03*
G01X9409Y22362D03*
G54D30*
G01X9409Y22362D02*
G01X9803Y22755D01*
G01X9803Y22755D02*
G01X9803Y23582D01*
G01X9803Y23582D02*
G01X9409Y23976D01*
G54D29*
G01X9409Y23976D03*
G01X5354Y22362D03*
G54D30*
G01X5354Y22362D02*
G01X4960Y22755D01*
G01X4960Y22755D02*
G01X4960Y25472D01*
G01X4960Y25472D02*
G01X5433Y25944D01*
G54D29*
G01X5433Y25944D03*
G01X57125Y6633D03*
G54D30*
G01X57125Y6633D02*
G01X57420Y6633D01*
G01X57420Y6633D02*
G01X58346Y7559D01*
G01X58346Y7559D02*
G01X58346Y8464D01*
G01X58346Y8464D02*
G01X59547Y9665D01*
G01X59547Y9665D02*
G01X59547Y11811D01*
G01X59547Y11811D02*
G01X59547Y12066D01*
G01X59547Y12066D02*
G01X59133Y12480D01*
G01X59133Y12480D02*
G01X56909Y12480D01*
G01X56909Y12480D02*
G01X56594Y12795D01*
G01X56594Y12795D02*
G01X56594Y13425D01*
G01X56594Y13425D02*
G01X56338Y13681D01*
G54D29*
G01X56338Y13681D03*
G01X56338Y13681D03*
G54D30*
G01X56338Y13681D02*
G01X56594Y13425D01*
G01X56594Y13425D02*
G01X56594Y12795D01*
G01X56594Y12795D02*
G01X56909Y12480D01*
G01X56909Y12480D02*
G01X59133Y12480D01*
G01X59133Y12480D02*
G01X59547Y12066D01*
G01X59547Y12066D02*
G01X59547Y9665D01*
G01X59547Y9665D02*
G01X58346Y8464D01*
G01X58346Y8464D02*
G01X58346Y7559D01*
G01X58346Y7559D02*
G01X57421Y6633D01*
G01X57421Y6633D02*
G01X57125Y6633D01*
G54D29*
G01X57125Y6633D03*
G01X27244Y35787D03*
G54D27*
G01X24488Y48622D03*
G54D29*
G01X27795Y46692D03*
G01X29291Y38188D03*
G01X28543Y39409D03*
G01X30984Y39015D03*
G01X21574Y45511D03*
G01X21614Y42755D03*
G01X21614Y40000D03*
G01X24724Y36141D03*
G01X25236Y44921D03*
G01X22165Y45472D03*
G01X22165Y43149D03*
G01X22165Y38503D03*
G01X22165Y40826D03*
G01X25236Y37952D03*
G01X25236Y40275D03*
G01X25236Y42598D03*
G01X40039Y18070D03*
G01X27913Y25039D03*
G01X22716Y25039D03*
G01X25354Y22598D03*
G54D27*
G01X42165Y21102D03*
G54D29*
G01X29784Y64633D03*
G01X33984Y64633D03*
G01X36456Y65984D03*
G01X65700Y23993D03*
G01X67598Y22086D03*
G01X66771Y22874D03*
G01X67244Y24173D03*
G01X11377Y22362D03*
G54D30*
G01X11377Y22362D02*
G01X11771Y22755D01*
G01X11771Y22755D02*
G01X11771Y23582D01*
G01X11771Y23582D02*
G01X11377Y23976D01*
G54D29*
G01X11377Y23976D03*
G01X57263Y6968D03*
G54D30*
G01X57263Y6968D02*
G01X57559Y6968D01*
G01X57559Y6968D02*
G01X58208Y7617D01*
G01X58208Y7617D02*
G01X58208Y8503D01*
G01X58208Y8503D02*
G01X59409Y9704D01*
G01X59409Y9704D02*
G01X59409Y11811D01*
G01X59409Y11811D02*
G01X59409Y12007D01*
G01X59409Y12007D02*
G01X59074Y12342D01*
G01X59074Y12342D02*
G01X56161Y12342D01*
G01X56161Y12342D02*
G01X55807Y12696D01*
G01X55807Y12696D02*
G01X55807Y13425D01*
G01X55807Y13425D02*
G01X55531Y13700D01*
G54D29*
G01X55531Y13700D03*
G01X55531Y13700D03*
G54D30*
G01X55531Y13700D02*
G01X55807Y13425D01*
G01X55807Y13425D02*
G01X55807Y12696D01*
G01X55807Y12696D02*
G01X56161Y12342D01*
G01X56161Y12342D02*
G01X59074Y12342D01*
G01X59074Y12342D02*
G01X59409Y12007D01*
G01X59409Y12007D02*
G01X59409Y9704D01*
G01X59409Y9704D02*
G01X58208Y8503D01*
G01X58208Y8503D02*
G01X58208Y7618D01*
G01X58208Y7618D02*
G01X57559Y6968D01*
G01X57559Y6968D02*
G01X57263Y6968D01*
G54D29*
G01X57263Y6968D03*
G01X43582Y46181D03*
G01X40314Y41692D03*
G01X39055Y43897D03*
G01X36850Y42322D03*
G01X37795Y40472D03*
G01X38582Y45590D03*
G01X32401Y43858D03*
G01X35905Y38976D03*
G54D27*
G01X42716Y38897D03*
G54D29*
G01X32598Y41771D03*
G01X62893Y1968D03*
G54D30*
G01X62893Y1968D02*
G01X62893Y5807D01*
G01X62893Y5807D02*
G01X61437Y7263D01*
G01X61437Y7263D02*
G01X61437Y8444D01*
G01X61437Y8444D02*
G01X60236Y9645D01*
G01X60236Y9645D02*
G01X60236Y15649D01*
G01X60236Y15649D02*
G01X60118Y15767D01*
G54D29*
G01X60118Y15767D03*
G01X62893Y1968D03*
G54D30*
G01X62893Y1968D02*
G01X62893Y5807D01*
G01X62893Y5807D02*
G01X61437Y7263D01*
G01X61437Y7263D02*
G01X61437Y8444D01*
G01X61437Y8444D02*
G01X60236Y9645D01*
G01X60236Y9645D02*
G01X60236Y15649D01*
G01X60236Y15649D02*
G01X60118Y15767D01*
G54D29*
G01X60118Y15767D03*
G01X65700Y41710D03*
G01X67598Y39803D03*
G01X66771Y40590D03*
G01X67244Y41889D03*
G01X63759Y23346D03*
G54D30*
G01X63759Y23346D02*
G01X63464Y23346D01*
G01X63464Y23346D02*
G01X61712Y25098D01*
G01X61712Y25098D02*
G01X61712Y26240D01*
G01X61712Y26240D02*
G01X60511Y27441D01*
G01X60511Y27441D02*
G01X60511Y29527D01*
G01X60511Y29527D02*
G01X60511Y29842D01*
G01X60511Y29842D02*
G01X61456Y30787D01*
G01X61456Y30787D02*
G01X61456Y31003D01*
G01X61456Y31003D02*
G01X61850Y31397D01*
G54D29*
G01X61850Y31397D03*
G01X61850Y31397D03*
G54D30*
G01X61850Y31397D02*
G01X61456Y31003D01*
G01X61456Y31003D02*
G01X61456Y30787D01*
G01X61456Y30787D02*
G01X60511Y29842D01*
G01X60511Y29842D02*
G01X60511Y27440D01*
G01X60511Y27440D02*
G01X61712Y26240D01*
G01X61712Y26240D02*
G01X61712Y25098D01*
G01X61712Y25098D02*
G01X63464Y23346D01*
G01X63464Y23346D02*
G01X63759Y23346D01*
G54D29*
G01X63759Y23346D03*
G01X63208Y6968D03*
G54D30*
G01X63208Y6968D02*
G01X62913Y6968D01*
G01X62913Y6968D02*
G01X62263Y7618D01*
G01X62263Y7618D02*
G01X62263Y8682D01*
G01X62263Y8682D02*
G01X61062Y9883D01*
G01X61062Y9883D02*
G01X61062Y11811D01*
G01X61062Y11811D02*
G01X61062Y11870D01*
G01X61062Y11870D02*
G01X61397Y12204D01*
G01X61397Y12204D02*
G01X63858Y12204D01*
G01X63858Y12204D02*
G01X64606Y12952D01*
G01X64606Y12952D02*
G01X64606Y13287D01*
G01X64606Y13287D02*
G01X65000Y13681D01*
G54D29*
G01X65000Y13681D03*
G01X65000Y13681D03*
G54D30*
G01X65000Y13681D02*
G01X64606Y13287D01*
G01X64606Y13287D02*
G01X64606Y12952D01*
G01X64606Y12952D02*
G01X63858Y12204D01*
G01X63858Y12204D02*
G01X61397Y12204D01*
G01X61397Y12204D02*
G01X61062Y11870D01*
G01X61062Y11870D02*
G01X61062Y9881D01*
G01X61062Y9881D02*
G01X62263Y8681D01*
G01X62263Y8681D02*
G01X62263Y7618D01*
G01X62263Y7618D02*
G01X62913Y6968D01*
G01X62913Y6968D02*
G01X63208Y6968D01*
G54D29*
G01X63208Y6968D03*
G01X30511Y48582D03*
G01X32874Y47204D03*
G01X28425Y12283D03*
G01X40354Y17165D03*
G01X43818Y19212D03*
G01X40944Y18070D03*
G01X43818Y13661D03*
G01X42952Y13661D03*
G01X42952Y19212D03*
G01X40314Y11614D03*
G01X28425Y14330D03*
G01X27874Y15472D03*
G01X40944Y12519D03*
G01X26692Y15472D03*
G01X27007Y9881D03*
G01X27007Y9881D03*
G01X35236Y7519D03*
G01X30787Y11417D03*
G01X63484Y1968D03*
G54D30*
G01X63484Y1968D02*
G01X63484Y5413D01*
G01X63484Y5413D02*
G01X61574Y7322D01*
G01X61574Y7322D02*
G01X61574Y8484D01*
G01X61574Y8484D02*
G01X60374Y9685D01*
G01X60374Y9685D02*
G01X60374Y16102D01*
G01X60374Y16102D02*
G01X60354Y16122D01*
G54D29*
G01X60354Y16122D03*
G01X60354Y16122D03*
G54D30*
G01X60354Y16122D02*
G01X60374Y16102D01*
G01X60374Y16102D02*
G01X60374Y9685D01*
G01X60374Y9685D02*
G01X61574Y8484D01*
G01X61574Y8484D02*
G01X61574Y7322D01*
G01X61574Y7322D02*
G01X63484Y5413D01*
G01X63484Y5413D02*
G01X63484Y1968D01*
G54D29*
G01X63484Y1968D03*
G01X63759Y41062D03*
G54D30*
G01X63759Y41062D02*
G01X63464Y41062D01*
G01X63464Y41062D02*
G01X61712Y42814D01*
G01X61712Y42814D02*
G01X61712Y43957D01*
G01X61712Y43957D02*
G01X60511Y45158D01*
G01X60511Y45158D02*
G01X60511Y47244D01*
G01X60511Y47244D02*
G01X60511Y47559D01*
G01X60511Y47559D02*
G01X61456Y48503D01*
G01X61456Y48503D02*
G01X61456Y48720D01*
G01X61456Y48720D02*
G01X61850Y49114D01*
G54D29*
G01X61850Y49114D03*
G01X61850Y49114D03*
G54D30*
G01X61850Y49114D02*
G01X61456Y48720D01*
G01X61456Y48720D02*
G01X61456Y48503D01*
G01X61456Y48503D02*
G01X60511Y47559D01*
G01X60511Y47559D02*
G01X60511Y45157D01*
G01X60511Y45157D02*
G01X61712Y43956D01*
G01X61712Y43956D02*
G01X61712Y42814D01*
G01X61712Y42814D02*
G01X63464Y41062D01*
G01X63464Y41062D02*
G01X63759Y41062D01*
G54D29*
G01X63759Y41062D03*
G01X60236Y19704D03*
G54D30*
G01X60236Y19704D02*
G01X59350Y19704D01*
G01X59350Y19704D02*
G01X58346Y20708D01*
G01X58346Y20708D02*
G01X58346Y24488D01*
G01X58346Y24488D02*
G01X58897Y25039D01*
G01X58897Y25039D02*
G01X58897Y26023D01*
G01X58897Y26023D02*
G01X60098Y27223D01*
G01X60098Y27223D02*
G01X60098Y29527D01*
G01X60098Y29527D02*
G01X60098Y30787D01*
G01X60098Y30787D02*
G01X59488Y31397D01*
G54D29*
G01X59488Y31397D03*
G01X59488Y31397D03*
G54D30*
G01X59488Y31397D02*
G01X60098Y30787D01*
G01X60098Y30787D02*
G01X60098Y27224D01*
G01X60098Y27224D02*
G01X58897Y26023D01*
G01X58897Y26023D02*
G01X58897Y25039D01*
G01X58897Y25039D02*
G01X58346Y24488D01*
G01X58346Y24488D02*
G01X58346Y20708D01*
G01X58346Y20708D02*
G01X59350Y19704D01*
G01X59350Y19704D02*
G01X60236Y19704D01*
G54D29*
G01X60236Y19704D03*
G01X63346Y6633D03*
G54D30*
G01X63346Y6633D02*
G01X63051Y6633D01*
G01X63051Y6633D02*
G01X62125Y7559D01*
G01X62125Y7559D02*
G01X62125Y8642D01*
G01X62125Y8642D02*
G01X60925Y9843D01*
G01X60925Y9843D02*
G01X60925Y11811D01*
G01X60925Y11811D02*
G01X60925Y11948D01*
G01X60925Y11948D02*
G01X61318Y12342D01*
G01X61318Y12342D02*
G01X63425Y12342D01*
G01X63425Y12342D02*
G01X63818Y12736D01*
G01X63818Y12736D02*
G01X63818Y13287D01*
G01X63818Y13287D02*
G01X64212Y13681D01*
G54D29*
G01X64212Y13681D03*
G01X64212Y13681D03*
G54D30*
G01X64212Y13681D02*
G01X63818Y13287D01*
G01X63818Y13287D02*
G01X63818Y12736D01*
G01X63818Y12736D02*
G01X63425Y12342D01*
G01X63425Y12342D02*
G01X61318Y12342D01*
G01X61318Y12342D02*
G01X60925Y11948D01*
G01X60925Y11948D02*
G01X60925Y9842D01*
G01X60925Y9842D02*
G01X62125Y8641D01*
G01X62125Y8641D02*
G01X62125Y7559D01*
G01X62125Y7559D02*
G01X63051Y6633D01*
G01X63051Y6633D02*
G01X63346Y6633D01*
G54D29*
G01X63346Y6633D03*
G01X20196Y14527D03*
G01X20196Y11653D03*
G01X20196Y8779D03*
G01X20196Y5905D03*
G01X19488Y7716D03*
G01X52314Y41710D03*
G01X54212Y39803D03*
G01X53385Y40590D03*
G01X53858Y41889D03*
G01X60236Y37421D03*
G54D30*
G01X60236Y37421D02*
G01X59350Y37421D01*
G01X59350Y37421D02*
G01X58346Y38425D01*
G01X58346Y38425D02*
G01X58346Y42204D01*
G01X58346Y42204D02*
G01X58897Y42755D01*
G01X58897Y42755D02*
G01X58897Y43740D01*
G01X58897Y43740D02*
G01X60098Y44940D01*
G01X60098Y44940D02*
G01X60098Y47244D01*
G01X60098Y47244D02*
G01X60098Y48503D01*
G01X60098Y48503D02*
G01X59488Y49114D01*
G54D29*
G01X59488Y49114D03*
G01X59488Y49114D03*
G54D30*
G01X59488Y49114D02*
G01X60098Y48503D01*
G01X60098Y48503D02*
G01X60098Y44940D01*
G01X60098Y44940D02*
G01X58897Y43740D01*
G01X58897Y43740D02*
G01X58897Y42755D01*
G01X58897Y42755D02*
G01X58346Y42204D01*
G01X58346Y42204D02*
G01X58346Y38425D01*
G01X58346Y38425D02*
G01X59350Y37421D01*
G01X59350Y37421D02*
G01X60236Y37421D01*
G54D29*
G01X60236Y37421D03*
G01X56712Y23346D03*
G54D30*
G01X56712Y23346D02*
G01X57007Y23346D01*
G01X57007Y23346D02*
G01X58759Y25098D01*
G01X58759Y25098D02*
G01X58759Y26062D01*
G01X58759Y26062D02*
G01X59960Y27263D01*
G01X59960Y27263D02*
G01X59960Y29527D01*
G01X59960Y29527D02*
G01X59960Y29960D01*
G01X59960Y29960D02*
G01X58956Y30964D01*
G01X58956Y30964D02*
G01X58956Y31141D01*
G01X58956Y31141D02*
G01X58700Y31397D01*
G54D29*
G01X58700Y31397D03*
G01X58700Y31397D03*
G54D30*
G01X58700Y31397D02*
G01X58956Y31141D01*
G01X58956Y31141D02*
G01X58956Y30964D01*
G01X58956Y30964D02*
G01X59960Y29960D01*
G01X59960Y29960D02*
G01X59960Y27263D01*
G01X59960Y27263D02*
G01X58759Y26062D01*
G01X58759Y26062D02*
G01X58759Y25098D01*
G01X58759Y25098D02*
G01X57007Y23346D01*
G01X57007Y23346D02*
G01X56712Y23346D01*
G54D29*
G01X56712Y23346D03*
G01X2401Y22362D03*
G54D30*
G01X2401Y22362D02*
G01X2007Y22755D01*
G01X2007Y22755D02*
G01X2007Y25472D01*
G01X2007Y25472D02*
G01X2480Y25944D01*
G54D29*
G01X2480Y25944D03*
G01X63484Y6299D03*
G54D30*
G01X63484Y6299D02*
G01X63188Y6299D01*
G01X63188Y6299D02*
G01X61988Y7500D01*
G01X61988Y7500D02*
G01X61988Y8603D01*
G01X61988Y8603D02*
G01X60787Y9804D01*
G01X60787Y9804D02*
G01X60787Y11811D01*
G01X60787Y11811D02*
G01X60787Y12007D01*
G01X60787Y12007D02*
G01X61259Y12480D01*
G01X61259Y12480D02*
G01X62637Y12480D01*
G01X62637Y12480D02*
G01X63051Y12893D01*
G01X63051Y12893D02*
G01X63051Y13307D01*
G01X63051Y13307D02*
G01X63425Y13681D01*
G54D29*
G01X63425Y13681D03*
G01X63425Y13681D03*
G54D30*
G01X63425Y13681D02*
G01X63051Y13307D01*
G01X63051Y13307D02*
G01X63051Y12893D01*
G01X63051Y12893D02*
G01X62637Y12480D01*
G01X62637Y12480D02*
G01X61259Y12480D01*
G01X61259Y12480D02*
G01X60787Y12007D01*
G01X60787Y12007D02*
G01X60787Y9803D01*
G01X60787Y9803D02*
G01X61988Y8602D01*
G01X61988Y8602D02*
G01X61988Y7500D01*
G01X61988Y7500D02*
G01X63188Y6299D01*
G01X63188Y6299D02*
G01X63484Y6299D01*
G54D29*
G01X63484Y6299D03*
G01X31141Y44409D03*
G01X30511Y45787D03*
G54D27*
G01X30708Y41535D03*
G54D29*
G01X56712Y41062D03*
G54D30*
G01X56712Y41062D02*
G01X57007Y41062D01*
G01X57007Y41062D02*
G01X58759Y42814D01*
G01X58759Y42814D02*
G01X58759Y43779D01*
G01X58759Y43779D02*
G01X59960Y44980D01*
G01X59960Y44980D02*
G01X59960Y47244D01*
G01X59960Y47244D02*
G01X59960Y47677D01*
G01X59960Y47677D02*
G01X58956Y48681D01*
G01X58956Y48681D02*
G01X58956Y48858D01*
G01X58956Y48858D02*
G01X58700Y49114D01*
G54D29*
G01X58700Y49114D03*
G01X58700Y49114D03*
G54D30*
G01X58700Y49114D02*
G01X58956Y48858D01*
G01X58956Y48858D02*
G01X58956Y48681D01*
G01X58956Y48681D02*
G01X59960Y47677D01*
G01X59960Y47677D02*
G01X59960Y44980D01*
G01X59960Y44980D02*
G01X58759Y43779D01*
G01X58759Y43779D02*
G01X58759Y42814D01*
G01X58759Y42814D02*
G01X57007Y41062D01*
G01X57007Y41062D02*
G01X56712Y41062D01*
G54D29*
G01X56712Y41062D03*
G01X56850Y23681D03*
G54D30*
G01X56850Y23681D02*
G01X57145Y23681D01*
G01X57145Y23681D02*
G01X58622Y25157D01*
G01X58622Y25157D02*
G01X58622Y26102D01*
G01X58622Y26102D02*
G01X59822Y27302D01*
G01X59822Y27302D02*
G01X59822Y29527D01*
G01X59822Y29527D02*
G01X59822Y29901D01*
G01X59822Y29901D02*
G01X59251Y30472D01*
G01X59251Y30472D02*
G01X58503Y30472D01*
G01X58503Y30472D02*
G01X58169Y30807D01*
G01X58169Y30807D02*
G01X58169Y31141D01*
G01X58169Y31141D02*
G01X57913Y31397D01*
G54D29*
G01X57913Y31397D03*
G01X57913Y31397D03*
G54D30*
G01X57913Y31397D02*
G01X58169Y31141D01*
G01X58169Y31141D02*
G01X58169Y30807D01*
G01X58169Y30807D02*
G01X58503Y30472D01*
G01X58503Y30472D02*
G01X59251Y30472D01*
G01X59251Y30472D02*
G01X59822Y29901D01*
G01X59822Y29901D02*
G01X59822Y27303D01*
G01X59822Y27303D02*
G01X58622Y26102D01*
G01X58622Y26102D02*
G01X58622Y25157D01*
G01X58622Y25157D02*
G01X57145Y23681D01*
G01X57145Y23681D02*
G01X56850Y23681D01*
G54D29*
G01X56850Y23681D03*
G01X8425Y22362D03*
G54D30*
G01X8425Y22362D02*
G01X8818Y22755D01*
G01X8818Y22755D02*
G01X8818Y23582D01*
G01X8818Y23582D02*
G01X8425Y23976D01*
G54D29*
G01X8425Y23976D03*
G01X4370Y22362D03*
G54D30*
G01X4370Y22362D02*
G01X3976Y22755D01*
G01X3976Y22755D02*
G01X3976Y25472D01*
G01X3976Y25472D02*
G01X4448Y25944D01*
G54D29*
G01X4448Y25944D03*
G01X63622Y5964D03*
G54D30*
G01X63622Y5964D02*
G01X63326Y5964D01*
G01X63326Y5964D02*
G01X61850Y7440D01*
G01X61850Y7440D02*
G01X61850Y8563D01*
G01X61850Y8563D02*
G01X60649Y9764D01*
G01X60649Y9764D02*
G01X60649Y11811D01*
G01X60649Y11811D02*
G01X60649Y12066D01*
G01X60649Y12066D02*
G01X61200Y12618D01*
G01X61200Y12618D02*
G01X61850Y12618D01*
G01X61850Y12618D02*
G01X62244Y13011D01*
G01X62244Y13011D02*
G01X62244Y13287D01*
G01X62244Y13287D02*
G01X62637Y13681D01*
G54D29*
G01X62637Y13681D03*
G01X62637Y13681D03*
G54D30*
G01X62637Y13681D02*
G01X62244Y13287D01*
G01X62244Y13287D02*
G01X62244Y13011D01*
G01X62244Y13011D02*
G01X61850Y12618D01*
G01X61850Y12618D02*
G01X61200Y12618D01*
G01X61200Y12618D02*
G01X60649Y12066D01*
G01X60649Y12066D02*
G01X60649Y9763D01*
G01X60649Y9763D02*
G01X61850Y8562D01*
G01X61850Y8562D02*
G01X61850Y7440D01*
G01X61850Y7440D02*
G01X63326Y5964D01*
G01X63326Y5964D02*
G01X63622Y5964D01*
G54D29*
G01X63622Y5964D03*
G01X23700Y13346D03*
G01X25905Y15590D03*
G01X23700Y12086D03*
G01X20669Y14527D03*
G01X20669Y8779D03*
G01X20669Y5905D03*
G01X20669Y11653D03*
G01X26023Y9803D03*
G01X50314Y14330D03*
G01X50551Y16574D03*
G01X50039Y12007D03*
G01X44527Y19133D03*
G01X45354Y17992D03*
G01X44606Y13582D03*
G01X46377Y17086D03*
G01X48740Y17519D03*
G01X45354Y12440D03*
G01X46377Y11535D03*
G01X48779Y11968D03*
G01X22874Y15236D03*
G01X45866Y15078D03*
G01X24370Y7047D03*
G01X24370Y7047D03*
G01X56850Y41397D03*
G54D30*
G01X56850Y41397D02*
G01X57145Y41397D01*
G01X57145Y41397D02*
G01X58622Y42874D01*
G01X58622Y42874D02*
G01X58622Y43818D01*
G01X58622Y43818D02*
G01X59822Y45019D01*
G01X59822Y45019D02*
G01X59822Y47244D01*
G01X59822Y47244D02*
G01X59822Y47618D01*
G01X59822Y47618D02*
G01X59251Y48188D01*
G01X59251Y48188D02*
G01X58503Y48188D01*
G01X58503Y48188D02*
G01X58169Y48523D01*
G01X58169Y48523D02*
G01X58169Y48858D01*
G01X58169Y48858D02*
G01X57913Y49114D01*
G54D29*
G01X57913Y49114D03*
G01X57913Y49114D03*
G54D30*
G01X57913Y49114D02*
G01X58169Y48858D01*
G01X58169Y48858D02*
G01X58169Y48523D01*
G01X58169Y48523D02*
G01X58503Y48188D01*
G01X58503Y48188D02*
G01X59251Y48188D01*
G01X59251Y48188D02*
G01X59822Y47618D01*
G01X59822Y47618D02*
G01X59822Y45019D01*
G01X59822Y45019D02*
G01X58622Y43818D01*
G01X58622Y43818D02*
G01X58622Y42874D01*
G01X58622Y42874D02*
G01X57145Y41397D01*
G01X57145Y41397D02*
G01X56850Y41397D01*
G54D29*
G01X56850Y41397D03*
G01X56988Y24015D03*
G54D30*
G01X56988Y24015D02*
G01X57283Y24015D01*
G01X57283Y24015D02*
G01X58484Y25216D01*
G01X58484Y25216D02*
G01X58484Y26141D01*
G01X58484Y26141D02*
G01X59685Y27342D01*
G01X59685Y27342D02*
G01X59685Y29527D01*
G01X59685Y29527D02*
G01X59685Y29842D01*
G01X59685Y29842D02*
G01X59192Y30334D01*
G01X59192Y30334D02*
G01X57716Y30334D01*
G01X57716Y30334D02*
G01X57381Y30669D01*
G01X57381Y30669D02*
G01X57381Y31141D01*
G01X57381Y31141D02*
G01X57125Y31397D01*
G54D29*
G01X57125Y31397D03*
G01X57125Y31397D03*
G54D30*
G01X57125Y31397D02*
G01X57381Y31141D01*
G01X57381Y31141D02*
G01X57381Y30669D01*
G01X57381Y30669D02*
G01X57716Y30334D01*
G01X57716Y30334D02*
G01X59192Y30334D01*
G01X59192Y30334D02*
G01X59685Y29842D01*
G01X59685Y29842D02*
G01X59685Y27342D01*
G01X59685Y27342D02*
G01X58484Y26141D01*
G01X58484Y26141D02*
G01X58484Y25216D01*
G01X58484Y25216D02*
G01X57283Y24015D01*
G01X57283Y24015D02*
G01X56988Y24015D01*
G54D29*
G01X56988Y24015D03*
G01X7440Y33188D03*
G54D30*
G01X7440Y33188D02*
G01X7834Y33582D01*
G01X7834Y33582D02*
G01X7834Y34409D01*
G01X7834Y34409D02*
G01X7440Y34803D01*
G54D29*
G01X7440Y34803D03*
G01X3385Y33188D03*
G54D30*
G01X3385Y33188D02*
G01X2992Y33582D01*
G01X2992Y33582D02*
G01X2992Y36299D01*
G01X2992Y36299D02*
G01X3464Y36771D01*
G54D29*
G01X3464Y36771D03*
G01X10393Y22362D03*
G54D30*
G01X10393Y22362D02*
G01X10787Y22755D01*
G01X10787Y22755D02*
G01X10787Y23582D01*
G01X10787Y23582D02*
G01X10393Y23976D01*
G54D29*
G01X10393Y23976D03*
G01X6338Y22362D03*
G54D30*
G01X6338Y22362D02*
G01X5944Y22755D01*
G01X5944Y22755D02*
G01X5944Y25472D01*
G01X5944Y25472D02*
G01X6417Y25944D01*
G54D29*
G01X6417Y25944D03*
G01X3661Y8818D03*
G01X6141Y8818D03*
G01X6141Y10078D03*
G01X4724Y8818D03*
G01X5314Y6259D03*
G01X2204Y6259D03*
G01X6889Y12047D03*
G01X3976Y12874D03*
G01X56988Y41732D03*
G54D30*
G01X56988Y41732D02*
G01X57283Y41732D01*
G01X57283Y41732D02*
G01X58484Y42933D01*
G01X58484Y42933D02*
G01X58484Y43858D01*
G01X58484Y43858D02*
G01X59685Y45059D01*
G01X59685Y45059D02*
G01X59685Y47244D01*
G01X59685Y47244D02*
G01X59685Y47559D01*
G01X59685Y47559D02*
G01X59192Y48051D01*
G01X59192Y48051D02*
G01X57716Y48051D01*
G01X57716Y48051D02*
G01X57381Y48385D01*
G01X57381Y48385D02*
G01X57381Y48858D01*
G01X57381Y48858D02*
G01X57125Y49114D01*
G54D29*
G01X57125Y49114D03*
G01X57125Y49114D03*
G54D30*
G01X57125Y49114D02*
G01X57381Y48858D01*
G01X57381Y48858D02*
G01X57381Y48385D01*
G01X57381Y48385D02*
G01X57716Y48051D01*
G01X57716Y48051D02*
G01X59192Y48051D01*
G01X59192Y48051D02*
G01X59685Y47559D01*
G01X59685Y47559D02*
G01X59685Y45059D01*
G01X59685Y45059D02*
G01X58484Y43858D01*
G01X58484Y43858D02*
G01X58484Y42933D01*
G01X58484Y42933D02*
G01X57283Y41732D01*
G01X57283Y41732D02*
G01X56988Y41732D01*
G54D29*
G01X56988Y41732D03*
G01X57125Y24350D03*
G54D30*
G01X57125Y24350D02*
G01X57420Y24349D01*
G01X57420Y24349D02*
G01X58346Y25275D01*
G01X58346Y25275D02*
G01X58346Y26181D01*
G01X58346Y26181D02*
G01X59547Y27381D01*
G01X59547Y27381D02*
G01X59547Y29527D01*
G01X59547Y29527D02*
G01X59547Y29783D01*
G01X59547Y29783D02*
G01X59133Y30196D01*
G01X59133Y30196D02*
G01X56909Y30196D01*
G01X56909Y30196D02*
G01X56594Y30511D01*
G01X56594Y30511D02*
G01X56594Y31141D01*
G01X56594Y31141D02*
G01X56338Y31397D01*
G54D29*
G01X56338Y31397D03*
G01X56338Y31397D03*
G54D30*
G01X56338Y31397D02*
G01X56594Y31141D01*
G01X56594Y31141D02*
G01X56594Y30511D01*
G01X56594Y30511D02*
G01X56909Y30196D01*
G01X56909Y30196D02*
G01X59133Y30196D01*
G01X59133Y30196D02*
G01X59547Y29783D01*
G01X59547Y29783D02*
G01X59547Y27381D01*
G01X59547Y27381D02*
G01X58346Y26181D01*
G01X58346Y26181D02*
G01X58346Y25275D01*
G01X58346Y25275D02*
G01X57421Y24350D01*
G01X57421Y24350D02*
G01X57125Y24350D01*
G54D29*
G01X57125Y24350D03*
G01X7440Y44015D03*
G54D30*
G01X7440Y44015D02*
G01X7834Y44409D01*
G01X7834Y44409D02*
G01X7834Y45236D01*
G01X7834Y45236D02*
G01X7440Y45629D01*
G54D29*
G01X7440Y45629D03*
G01X3385Y44015D03*
G54D30*
G01X3385Y44015D02*
G01X2992Y44409D01*
G01X2992Y44409D02*
G01X2992Y47125D01*
G01X2992Y47125D02*
G01X3464Y47598D01*
G54D29*
G01X3464Y47598D03*
G01X9409Y33188D03*
G54D30*
G01X9409Y33188D02*
G01X9803Y33582D01*
G01X9803Y33582D02*
G01X9803Y34409D01*
G01X9803Y34409D02*
G01X9409Y34803D01*
G54D29*
G01X9409Y34803D03*
G01X5354Y33188D03*
G54D30*
G01X5354Y33188D02*
G01X4960Y33582D01*
G01X4960Y33582D02*
G01X4960Y36299D01*
G01X4960Y36299D02*
G01X5433Y36771D01*
G54D29*
G01X5433Y36771D03*
G01X57125Y42066D03*
G54D30*
G01X57125Y42066D02*
G01X57420Y42066D01*
G01X57420Y42066D02*
G01X58346Y42992D01*
G01X58346Y42992D02*
G01X58346Y43897D01*
G01X58346Y43897D02*
G01X59547Y45098D01*
G01X59547Y45098D02*
G01X59547Y47244D01*
G01X59547Y47244D02*
G01X59547Y47500D01*
G01X59547Y47500D02*
G01X59133Y47913D01*
G01X59133Y47913D02*
G01X56909Y47913D01*
G01X56909Y47913D02*
G01X56594Y48228D01*
G01X56594Y48228D02*
G01X56594Y48858D01*
G01X56594Y48858D02*
G01X56338Y49114D01*
G54D29*
G01X56338Y49114D03*
G01X56338Y49114D03*
G54D30*
G01X56338Y49114D02*
G01X56594Y48858D01*
G01X56594Y48858D02*
G01X56594Y48228D01*
G01X56594Y48228D02*
G01X56909Y47913D01*
G01X56909Y47913D02*
G01X59133Y47913D01*
G01X59133Y47913D02*
G01X59547Y47500D01*
G01X59547Y47500D02*
G01X59547Y45098D01*
G01X59547Y45098D02*
G01X58346Y43897D01*
G01X58346Y43897D02*
G01X58346Y42992D01*
G01X58346Y42992D02*
G01X57421Y42066D01*
G01X57421Y42066D02*
G01X57125Y42066D01*
G54D29*
G01X57125Y42066D03*
G01X57263Y24685D03*
G54D30*
G01X57263Y24685D02*
G01X57559Y24684D01*
G01X57559Y24684D02*
G01X58208Y25333D01*
G01X58208Y25333D02*
G01X58208Y26219D01*
G01X58208Y26219D02*
G01X59409Y27420D01*
G01X59409Y27420D02*
G01X59409Y29527D01*
G01X59409Y29527D02*
G01X59409Y29724D01*
G01X59409Y29724D02*
G01X59074Y30059D01*
G01X59074Y30059D02*
G01X56161Y30059D01*
G01X56161Y30059D02*
G01X55807Y30413D01*
G01X55807Y30413D02*
G01X55807Y31141D01*
G01X55807Y31141D02*
G01X55531Y31417D01*
G54D29*
G01X55531Y31417D03*
G01X55531Y31417D03*
G54D30*
G01X55531Y31417D02*
G01X55807Y31141D01*
G01X55807Y31141D02*
G01X55807Y30413D01*
G01X55807Y30413D02*
G01X56161Y30059D01*
G01X56161Y30059D02*
G01X59074Y30059D01*
G01X59074Y30059D02*
G01X59409Y29724D01*
G01X59409Y29724D02*
G01X59409Y27421D01*
G01X59409Y27421D02*
G01X58208Y26220D01*
G01X58208Y26220D02*
G01X58208Y25334D01*
G01X58208Y25334D02*
G01X57559Y24685D01*
G01X57559Y24685D02*
G01X57263Y24685D01*
G54D29*
G01X57263Y24685D03*
G01X9409Y44015D03*
G54D30*
G01X9409Y44015D02*
G01X9803Y44409D01*
G01X9803Y44409D02*
G01X9803Y45236D01*
G01X9803Y45236D02*
G01X9409Y45629D01*
G54D29*
G01X9409Y45629D03*
G01X5354Y44015D03*
G54D30*
G01X5354Y44015D02*
G01X4960Y44409D01*
G01X4960Y44409D02*
G01X4960Y47125D01*
G01X4960Y47125D02*
G01X5433Y47598D01*
G54D29*
G01X5433Y47598D03*
G01X11377Y33188D03*
G54D30*
G01X11377Y33188D02*
G01X11771Y33582D01*
G01X11771Y33582D02*
G01X11771Y34409D01*
G01X11771Y34409D02*
G01X11377Y34803D01*
G54D29*
G01X11377Y34803D03*
G01X57263Y42401D03*
G54D30*
G01X57263Y42401D02*
G01X57559Y42401D01*
G01X57559Y42401D02*
G01X58208Y43050D01*
G01X58208Y43050D02*
G01X58208Y43936D01*
G01X58208Y43936D02*
G01X59409Y45137D01*
G01X59409Y45137D02*
G01X59409Y47244D01*
G01X59409Y47244D02*
G01X59409Y47440D01*
G01X59409Y47440D02*
G01X59074Y47775D01*
G01X59074Y47775D02*
G01X56161Y47775D01*
G01X56161Y47775D02*
G01X55807Y48129D01*
G01X55807Y48129D02*
G01X55807Y48858D01*
G01X55807Y48858D02*
G01X55531Y49133D01*
G54D29*
G01X55531Y49133D03*
G01X55531Y49133D03*
G54D30*
G01X55531Y49133D02*
G01X55807Y48858D01*
G01X55807Y48858D02*
G01X55807Y48129D01*
G01X55807Y48129D02*
G01X56161Y47775D01*
G01X56161Y47775D02*
G01X59074Y47775D01*
G01X59074Y47775D02*
G01X59409Y47440D01*
G01X59409Y47440D02*
G01X59409Y45137D01*
G01X59409Y45137D02*
G01X58208Y43937D01*
G01X58208Y43937D02*
G01X58208Y43051D01*
G01X58208Y43051D02*
G01X57559Y42401D01*
G01X57559Y42401D02*
G01X57263Y42401D01*
G54D29*
G01X57263Y42401D03*
G01X63208Y24685D03*
G54D30*
G01X63208Y24685D02*
G01X62913Y24685D01*
G01X62913Y24685D02*
G01X62263Y25334D01*
G01X62263Y25334D02*
G01X62263Y26398D01*
G01X62263Y26398D02*
G01X61062Y27599D01*
G01X61062Y27599D02*
G01X61062Y29527D01*
G01X61062Y29527D02*
G01X61062Y29586D01*
G01X61062Y29586D02*
G01X61397Y29921D01*
G01X61397Y29921D02*
G01X63858Y29921D01*
G01X63858Y29921D02*
G01X64606Y30669D01*
G01X64606Y30669D02*
G01X64606Y31003D01*
G01X64606Y31003D02*
G01X65000Y31397D01*
G54D29*
G01X65000Y31397D03*
G01X65000Y31397D03*
G54D30*
G01X65000Y31397D02*
G01X64606Y31003D01*
G01X64606Y31003D02*
G01X64606Y30669D01*
G01X64606Y30669D02*
G01X63858Y29921D01*
G01X63858Y29921D02*
G01X61397Y29921D01*
G01X61397Y29921D02*
G01X61062Y29586D01*
G01X61062Y29586D02*
G01X61062Y27598D01*
G01X61062Y27598D02*
G01X62263Y26397D01*
G01X62263Y26397D02*
G01X62263Y25334D01*
G01X62263Y25334D02*
G01X62913Y24685D01*
G01X62913Y24685D02*
G01X63208Y24685D01*
G54D29*
G01X63208Y24685D03*
G01X62893Y19685D03*
G54D30*
G01X62893Y19685D02*
G01X62893Y23523D01*
G01X62893Y23523D02*
G01X61437Y24980D01*
G01X61437Y24980D02*
G01X61437Y26161D01*
G01X61437Y26161D02*
G01X60236Y27362D01*
G01X60236Y27362D02*
G01X60236Y33366D01*
G01X60236Y33366D02*
G01X60118Y33484D01*
G54D29*
G01X60118Y33484D03*
G01X62893Y19685D03*
G54D30*
G01X62893Y19685D02*
G01X62893Y23523D01*
G01X62893Y23523D02*
G01X61437Y24980D01*
G01X61437Y24980D02*
G01X61437Y26161D01*
G01X61437Y26161D02*
G01X60236Y27362D01*
G01X60236Y27362D02*
G01X60236Y33366D01*
G01X60236Y33366D02*
G01X60118Y33484D01*
G54D29*
G01X60118Y33484D03*
G01X11377Y44015D03*
G54D30*
G01X11377Y44015D02*
G01X11771Y44409D01*
G01X11771Y44409D02*
G01X11771Y45236D01*
G01X11771Y45236D02*
G01X11377Y45629D01*
G54D29*
G01X11377Y45629D03*
G01X31090Y61740D03*
G54D31*
G01X36251Y70078D02*
G01X38901Y70078D01*
G01X38901Y70078D02*
G01X39190Y69790D01*
G01X39190Y69790D02*
G01X39190Y61840D01*
G01X39190Y61840D02*
G01X38740Y61390D01*
G01X38740Y61390D02*
G01X37240Y61390D01*
G01X37240Y61390D02*
G01X36190Y60340D01*
G54D29*
G01X36190Y60340D03*
G01X36190Y60340D03*
G01X29790Y61640D03*
G01X63208Y42401D03*
G54D30*
G01X63208Y42401D02*
G01X62913Y42401D01*
G01X62913Y42401D02*
G01X62263Y43051D01*
G01X62263Y43051D02*
G01X62263Y44115D01*
G01X62263Y44115D02*
G01X61062Y45316D01*
G01X61062Y45316D02*
G01X61062Y47244D01*
G01X61062Y47244D02*
G01X61062Y47303D01*
G01X61062Y47303D02*
G01X61397Y47637D01*
G01X61397Y47637D02*
G01X63858Y47637D01*
G01X63858Y47637D02*
G01X64606Y48385D01*
G01X64606Y48385D02*
G01X64606Y48720D01*
G01X64606Y48720D02*
G01X65000Y49114D01*
G54D29*
G01X65000Y49114D03*
G01X65000Y49114D03*
G54D30*
G01X65000Y49114D02*
G01X64606Y48720D01*
G01X64606Y48720D02*
G01X64606Y48385D01*
G01X64606Y48385D02*
G01X63858Y47637D01*
G01X63858Y47637D02*
G01X61397Y47637D01*
G01X61397Y47637D02*
G01X61062Y47303D01*
G01X61062Y47303D02*
G01X61062Y45314D01*
G01X61062Y45314D02*
G01X62263Y44114D01*
G01X62263Y44114D02*
G01X62263Y43051D01*
G01X62263Y43051D02*
G01X62913Y42401D01*
G01X62913Y42401D02*
G01X63208Y42401D01*
G54D29*
G01X63208Y42401D03*
G01X63484Y19685D03*
G54D30*
G01X63484Y19685D02*
G01X63484Y23129D01*
G01X63484Y23129D02*
G01X61574Y25039D01*
G01X61574Y25039D02*
G01X61574Y26200D01*
G01X61574Y26200D02*
G01X60374Y27401D01*
G01X60374Y27401D02*
G01X60374Y33818D01*
G01X60374Y33818D02*
G01X60354Y33838D01*
G54D29*
G01X60354Y33838D03*
G01X60354Y33838D03*
G54D30*
G01X60354Y33838D02*
G01X60374Y33818D01*
G01X60374Y33818D02*
G01X60374Y27401D01*
G01X60374Y27401D02*
G01X61574Y26200D01*
G01X61574Y26200D02*
G01X61574Y25039D01*
G01X61574Y25039D02*
G01X63484Y23129D01*
G01X63484Y23129D02*
G01X63484Y19685D01*
G54D29*
G01X63484Y19685D03*
G01X63346Y24350D03*
G54D30*
G01X63346Y24350D02*
G01X63051Y24350D01*
G01X63051Y24350D02*
G01X62125Y25275D01*
G01X62125Y25275D02*
G01X62125Y26358D01*
G01X62125Y26358D02*
G01X60925Y27559D01*
G01X60925Y27559D02*
G01X60925Y29527D01*
G01X60925Y29527D02*
G01X60925Y29665D01*
G01X60925Y29665D02*
G01X61318Y30059D01*
G01X61318Y30059D02*
G01X63425Y30059D01*
G01X63425Y30059D02*
G01X63818Y30452D01*
G01X63818Y30452D02*
G01X63818Y31003D01*
G01X63818Y31003D02*
G01X64212Y31397D01*
G54D29*
G01X64212Y31397D03*
G01X64212Y31397D03*
G54D30*
G01X64212Y31397D02*
G01X63818Y31003D01*
G01X63818Y31003D02*
G01X63818Y30452D01*
G01X63818Y30452D02*
G01X63425Y30059D01*
G01X63425Y30059D02*
G01X61318Y30059D01*
G01X61318Y30059D02*
G01X60925Y29665D01*
G01X60925Y29665D02*
G01X60925Y27559D01*
G01X60925Y27559D02*
G01X62125Y26358D01*
G01X62125Y26358D02*
G01X62125Y25275D01*
G01X62125Y25275D02*
G01X63051Y24350D01*
G01X63051Y24350D02*
G01X63346Y24350D01*
G54D29*
G01X63346Y24350D03*
G01X63346Y42066D03*
G54D30*
G01X63346Y42066D02*
G01X63051Y42066D01*
G01X63051Y42066D02*
G01X62125Y42992D01*
G01X62125Y42992D02*
G01X62125Y44075D01*
G01X62125Y44075D02*
G01X60925Y45276D01*
G01X60925Y45276D02*
G01X60925Y47244D01*
G01X60925Y47244D02*
G01X60925Y47381D01*
G01X60925Y47381D02*
G01X61318Y47775D01*
G01X61318Y47775D02*
G01X63425Y47775D01*
G01X63425Y47775D02*
G01X63818Y48169D01*
G01X63818Y48169D02*
G01X63818Y48720D01*
G01X63818Y48720D02*
G01X64212Y49114D01*
G54D29*
G01X64212Y49114D03*
G01X64212Y49114D03*
G54D30*
G01X64212Y49114D02*
G01X63818Y48720D01*
G01X63818Y48720D02*
G01X63818Y48169D01*
G01X63818Y48169D02*
G01X63425Y47775D01*
G01X63425Y47775D02*
G01X61318Y47775D01*
G01X61318Y47775D02*
G01X60925Y47381D01*
G01X60925Y47381D02*
G01X60925Y45275D01*
G01X60925Y45275D02*
G01X62125Y44074D01*
G01X62125Y44074D02*
G01X62125Y42992D01*
G01X62125Y42992D02*
G01X63051Y42066D01*
G01X63051Y42066D02*
G01X63346Y42066D01*
G54D29*
G01X63346Y42066D03*
G01X62893Y37401D03*
G54D30*
G01X62893Y37401D02*
G01X62893Y41240D01*
G01X62893Y41240D02*
G01X61437Y42696D01*
G01X61437Y42696D02*
G01X61437Y43877D01*
G01X61437Y43877D02*
G01X60236Y45078D01*
G01X60236Y45078D02*
G01X60236Y51082D01*
G01X60236Y51082D02*
G01X60118Y51200D01*
G54D29*
G01X60118Y51200D03*
G01X62893Y37401D03*
G54D30*
G01X62893Y37401D02*
G01X62893Y41240D01*
G01X62893Y41240D02*
G01X61437Y42696D01*
G01X61437Y42696D02*
G01X61437Y43877D01*
G01X61437Y43877D02*
G01X60236Y45078D01*
G01X60236Y45078D02*
G01X60236Y51082D01*
G01X60236Y51082D02*
G01X60118Y51200D01*
G54D29*
G01X60118Y51200D03*
G01X63484Y24015D03*
G54D30*
G01X63484Y24015D02*
G01X63188Y24015D01*
G01X63188Y24015D02*
G01X61988Y25216D01*
G01X61988Y25216D02*
G01X61988Y26319D01*
G01X61988Y26319D02*
G01X60787Y27520D01*
G01X60787Y27520D02*
G01X60787Y29527D01*
G01X60787Y29527D02*
G01X60787Y29724D01*
G01X60787Y29724D02*
G01X61259Y30196D01*
G01X61259Y30196D02*
G01X62637Y30196D01*
G01X62637Y30196D02*
G01X63051Y30610D01*
G01X63051Y30610D02*
G01X63051Y31023D01*
G01X63051Y31023D02*
G01X63425Y31397D01*
G54D29*
G01X63425Y31397D03*
G01X63425Y31397D03*
G54D30*
G01X63425Y31397D02*
G01X63051Y31023D01*
G01X63051Y31023D02*
G01X63051Y30610D01*
G01X63051Y30610D02*
G01X62637Y30196D01*
G01X62637Y30196D02*
G01X61259Y30196D01*
G01X61259Y30196D02*
G01X60787Y29724D01*
G01X60787Y29724D02*
G01X60787Y27519D01*
G01X60787Y27519D02*
G01X61988Y26318D01*
G01X61988Y26318D02*
G01X61988Y25216D01*
G01X61988Y25216D02*
G01X63188Y24015D01*
G01X63188Y24015D02*
G01X63484Y24015D01*
G54D29*
G01X63484Y24015D03*
G01X2401Y33188D03*
G54D30*
G01X2401Y33188D02*
G01X2007Y33582D01*
G01X2007Y33582D02*
G01X2007Y36299D01*
G01X2007Y36299D02*
G01X2480Y36771D01*
G54D29*
G01X2480Y36771D03*
G01X11181Y65453D03*
G01X2581Y66453D03*
G01X48677Y63133D03*
G01X50677Y62533D03*
G01X55277Y66933D03*
G01X55877Y62733D03*
G01X48777Y66058D03*
G01X50677Y65133D03*
G01X50944Y60236D03*
G01X51771Y58031D03*

G04 Draw Text*
M00*
M02*
