G04 FreePCB version 1.354*
G04 C:\JPT\Projects\07\0701 - PhD\FreePCB\CrySys2\CAM\top_solder_mask.grb*
G04 top solder mask layer *
G04 Scale: 100 percent, Rotated: No, Reflected: No *
%FSLAX24Y24*%
%MOIN*%
%LN top solder mask *%
G04 Rounded Rectangle Macro, params: W/2, H/2, R *
%AMRNDREC*
21,1,$1+$1,$2+$2-$3-$3,0,0,0*
21,1,$1+$1-$3-$3,$2+$2,0,0,0*
1,1,$3+$3,$1-$3,$2-$3*
1,1,$3+$3,$3-$1,$2-$3*
1,1,$3+$3,$1-$3,$3-$2*
1,1,$3+$3,$3-$1,$3-$2*%
G04 Rectangular Thermal Macro, params: W/2, H/2, T/2 *
%AMRECTHERM*
$4=$3/2*
21,1,$1-$3,$2-$3,0-$1/2-$4,0-$2/2-$4,0*
21,1,$1-$3,$2-$3,0-$1/2-$4,$2/2+$4,0*
21,1,$1-$3,$2-$3,$1/2+$4,0-$2/2-$4,0*
21,1,$1-$3,$2-$3,$1/2+$4,$2/2+$4,0*%
%ADD10R,0.064000X0.044000*%
%ADD11R,0.254000X0.254000*%
%ADD12R,0.034000X0.034000*%
%ADD13R,0.022000X0.064000*%
%ADD14R,0.056000X0.056000*%
%ADD15C,0.056000*%
%ADD16C,0.280000*%
%ADD17C,0.074000*%
%ADD18R,0.014630X0.051244*%
%ADD19R,0.051244X0.014630*%
%ADD20R,0.279591X0.279591*%
%ADD21R,0.200850X0.063055*%
%ADD22R,0.018961X0.051244*%
%ADD23R,0.023685X0.063055*%
%ADD24R,0.014630X0.082740*%
%ADD25R,0.082740X0.014630*%
%ADD26R,0.210693X0.210693*%
%ADD27R,0.054000X0.024000*%
%ADD28R,0.044000X0.064000*%
%ADD29R,0.141795X0.043370*%
%ADD30R,0.064000X0.064000*%
%ADD31C,0.064000*%
%ADD32R,0.023685X0.043370*%
%ADD33R,0.063055X0.200850*%
%ADD34R,0.051244X0.015811*%
%ADD35R,0.051244X0.018961*%
%ADD36R,0.063055X0.023685*%
%ADD37R,0.021717X0.063055*%
%ADD38R,0.063055X0.021717*%
%ADD39R,0.013843X0.318961*%
%ADD40R,0.063055X0.063055*%
%ADD41R,0.013843X0.013843*%
%ADD42R,0.015811X0.051244*%
%ADD43R,0.054000X0.054000*%
%ADD44R,0.039433X0.012268*%
%ADD45C,0.075000*%
%ADD46R,0.043370X0.141795*%
%ADD47C,0.083000*%
%ADD48C,0.102425*%
%ADD49R,0.066992X0.024079*%
%ADD50R,0.054000X0.054000*%
%ADD51R,0.059000X0.059000*%
%ADD52C,0.059000*%
%ADD53R,0.015811X0.043370*%
G90*
G70D02*

G04 Step and Repeat for panelization *

G04 -------------- Draw Parts, Pads, Traces, Vias and Text (positive)*
%LPD*%
G04 Draw part R1*
G04 Draw part R2*
G04 Draw part R3*
G04 Draw part C1*
G04 Draw part U1*
G04 Draw part U2*
G54D10*
G01X2230Y7169D03*
G01X2230Y6259D03*
G01X2230Y5349D03*
G54D11*
G01X4930Y6259D03*
G04 Draw part C2*
G04 Draw part C3*
G04 Draw part C4*
G04 Draw part R4*
G04 Draw part R5*
G04 Draw part R6*
G04 Draw part C5*
G54D12*
G01X3991Y13425D03*
G01X4591Y13425D03*
G04 Draw part R7*
G04 Draw part R8*
G04 Draw part U3*
G54D13*
G01X6159Y12196D03*
G01X5659Y12196D03*
G01X5159Y12196D03*
G01X4659Y12196D03*
G01X4159Y12196D03*
G01X3659Y12196D03*
G01X3159Y12196D03*
G01X2659Y12196D03*
G01X2659Y8196D03*
G01X3159Y8196D03*
G01X3659Y8196D03*
G01X4159Y8196D03*
G01X4659Y8196D03*
G01X5159Y8196D03*
G01X5659Y8196D03*
G01X6159Y8196D03*
G04 Draw part R9*
G04 Draw part R10*
G04 Draw part C6*
G04 Draw part C7*
G04 Draw part C8*
G04 Draw part C9*
G04 Draw part U4*
G54D14*
G01X8232Y12531D03*
G54D15*
G01X8232Y11531D03*
G01X8232Y10531D03*
G01X8232Y9531D03*
G01X11232Y9531D03*
G01X11232Y12531D03*
G04 Draw part U5*
G54D14*
G01X8232Y8531D03*
G54D15*
G01X8232Y7531D03*
G01X8232Y6531D03*
G01X8232Y5531D03*
G01X11232Y5531D03*
G01X11232Y8531D03*
G04 Draw part R11*
G04 Draw part C10*
G04 Draw part R12*
G04 Draw part C11*
G04 Draw part J1*
G54D16*
G01X3149Y15354D03*
G04 Draw part J2*
G01X10629Y3149D03*
G04 Draw part J3*
G01X10629Y15354D03*
G04 Draw part J4*
G01X3149Y3149D03*
G04 Draw part J5*
G54D17*
G01X5889Y2755D03*
G01X7889Y2755D03*
G04 Draw part J6*
G01X7889Y15748D03*
G01X5889Y15748D03*
G04 Draw part C12*
G54D12*
G01X4000Y12874D03*
G01X3400Y12874D03*
G04 Draw part Q1*
G04 Draw part U6*
G54D18*
G01X25137Y10314D03*
G01X25334Y10314D03*
G01X25531Y10314D03*
G01X25728Y10314D03*
G01X25925Y10314D03*
G01X26122Y10314D03*
G01X26318Y10314D03*
G01X26515Y10314D03*
G01X26712Y10314D03*
G01X26909Y10314D03*
G01X27106Y10314D03*
G01X27303Y10314D03*
G01X27500Y10314D03*
G01X27696Y10314D03*
G01X27893Y10314D03*
G01X28090Y10314D03*
G54D19*
G01X28976Y11200D03*
G01X28976Y11397D03*
G01X28976Y11594D03*
G01X28976Y11791D03*
G01X28976Y11988D03*
G01X28976Y12185D03*
G01X28976Y12381D03*
G01X28976Y12578D03*
G01X28976Y12775D03*
G01X28976Y12972D03*
G01X28976Y13169D03*
G01X28976Y13366D03*
G01X28976Y13562D03*
G01X28976Y13759D03*
G01X28976Y13956D03*
G01X28976Y14153D03*
G54D18*
G01X28090Y15039D03*
G01X27893Y15039D03*
G01X27696Y15039D03*
G01X27500Y15039D03*
G01X27303Y15039D03*
G01X27106Y15039D03*
G01X26909Y15039D03*
G01X26712Y15039D03*
G01X26515Y15039D03*
G01X26318Y15039D03*
G01X26122Y15039D03*
G01X25925Y15039D03*
G01X25728Y15039D03*
G01X25531Y15039D03*
G01X25334Y15039D03*
G01X25137Y15039D03*
G54D19*
G01X24251Y14153D03*
G01X24251Y13956D03*
G01X24251Y13759D03*
G01X24251Y13562D03*
G01X24251Y13366D03*
G01X24251Y13169D03*
G01X24251Y12972D03*
G01X24251Y12775D03*
G01X24251Y12578D03*
G01X24251Y12381D03*
G01X24251Y12185D03*
G01X24251Y11988D03*
G01X24251Y11791D03*
G01X24251Y11594D03*
G01X24251Y11397D03*
G01X24251Y11200D03*
G54D20*
G01X26614Y12677D03*
G04 Draw part C13*
G04 Draw part C14*
G04 Draw part C15*
G04 Draw part C16*
G04 Draw part C17*
G04 Draw part C18*
G04 Draw part C19*
G04 Draw part C20*
G04 Draw part R13*
G54D12*
G01X29542Y13661D03*
G01X30142Y13661D03*
G04 Draw part R14*
G01X29542Y11811D03*
G01X30142Y11811D03*
G04 Draw part J7*
G54D21*
G01X14763Y14842D03*
G04 Draw part R15*
G54D12*
G01X18322Y15118D03*
G01X18922Y15118D03*
G04 Draw part C21*
G01X19488Y15733D03*
G01X19488Y15133D03*
G04 Draw part U7*
G54D22*
G01X20049Y13877D03*
G01X20305Y13877D03*
G01X20561Y13877D03*
G01X20816Y13877D03*
G01X20816Y15807D03*
G01X20561Y15807D03*
G01X20305Y15807D03*
G01X20049Y15807D03*
G04 Draw part C22*
G54D12*
G01X19488Y13951D03*
G01X19488Y14551D03*
G04 Draw part R16*
G01X18322Y14566D03*
G01X18922Y14566D03*
G04 Draw part R17*
G01X17731Y15748D03*
G01X18331Y15748D03*
G04 Draw part R18*
G01X17731Y13937D03*
G01X18331Y13937D03*
G04 Draw part C23*
G01X17716Y15142D03*
G01X17716Y14542D03*
G04 Draw part R19*
G01X16589Y15118D03*
G01X17189Y15118D03*
G04 Draw part R20*
G01X16589Y14566D03*
G01X17189Y14566D03*
G04 Draw part R21*
G01X21417Y15811D03*
G01X21417Y15211D03*
G04 Draw part R22*
G01X21417Y13873D03*
G01X21417Y14473D03*
G04 Draw part C24*
G04 Draw part C25*
G04 Draw part R23*
G01X16023Y14551D03*
G01X16023Y13951D03*
G04 Draw part R24*
G01X16023Y15133D03*
G01X16023Y15733D03*
G04 Draw part C39*
G04 Draw part C41*
G04 Draw part R55*
G01X46992Y14803D03*
G01X46392Y14803D03*
G04 Draw part C45*
G01X46992Y15236D03*
G01X46392Y15236D03*
G04 Draw part U19*
G54D22*
G01X47076Y17736D03*
G01X46820Y17736D03*
G01X46564Y17736D03*
G01X46309Y17736D03*
G01X46309Y15807D03*
G01X46564Y15807D03*
G01X46820Y15807D03*
G01X47076Y15807D03*
G04 Draw part C46*
G54D12*
G01X46992Y18307D03*
G01X46392Y18307D03*
G04 Draw part R56*
G01X46992Y18740D03*
G01X46392Y18740D03*
G04 Draw part R57*
G01X47480Y14818D03*
G01X47480Y15418D03*
G04 Draw part R58*
G01X47440Y18725D03*
G01X47440Y18125D03*
G04 Draw part C47*
G01X47637Y16471D03*
G01X47637Y17071D03*
G04 Draw part R59*
G01X48764Y16456D03*
G01X48164Y16456D03*
G04 Draw part R60*
G01X48725Y17086D03*
G01X48125Y17086D03*
G04 Draw part R61*
G01X45787Y15841D03*
G01X45787Y16441D03*
G04 Draw part R62*
G01X45787Y17622D03*
G01X45787Y17022D03*
G04 Draw part C48*
G01X45354Y16432D03*
G01X45354Y17032D03*
G04 Draw part C49*
G04 Draw part U20*
G54D23*
G01X50750Y15472D03*
G01X50250Y15472D03*
G01X49750Y15472D03*
G01X49250Y15472D03*
G01X49250Y13110D03*
G01X49750Y13110D03*
G01X50250Y13110D03*
G01X50750Y13110D03*
G04 Draw part J11*
G54D21*
G01X52165Y16968D03*
G04 Draw part C50*
G54D12*
G01X50536Y17007D03*
G01X49936Y17007D03*
G04 Draw part R63*
G01X49936Y16141D03*
G01X50536Y16141D03*
G04 Draw part C51*
G04 Draw part R64*
G01X50536Y16574D03*
G01X49936Y16574D03*
G04 Draw part R65*
G01X48725Y17519D03*
G01X48125Y17519D03*
G04 Draw part R66*
G01X48764Y16023D03*
G01X48164Y16023D03*
G04 Draw part U21*
G54D24*
G01X44192Y18543D03*
G01X43996Y18543D03*
G01X43799Y18543D03*
G01X43602Y18543D03*
G01X43405Y18543D03*
G01X43208Y18543D03*
G01X43011Y18543D03*
G01X42814Y18543D03*
G01X42618Y18543D03*
G01X42421Y18543D03*
G01X42224Y18543D03*
G01X42027Y18543D03*
G54D25*
G01X41535Y18051D03*
G01X41535Y17854D03*
G01X41535Y17657D03*
G01X41535Y17460D03*
G01X41535Y17263D03*
G01X41535Y17066D03*
G01X41535Y16870D03*
G01X41535Y16673D03*
G01X41535Y16476D03*
G01X41535Y16279D03*
G01X41535Y16082D03*
G01X41535Y15885D03*
G54D24*
G01X42027Y15393D03*
G01X42224Y15393D03*
G01X42421Y15393D03*
G01X42618Y15393D03*
G01X42814Y15393D03*
G01X43011Y15393D03*
G01X43208Y15393D03*
G01X43405Y15393D03*
G01X43602Y15393D03*
G01X43799Y15393D03*
G01X43996Y15393D03*
G01X44192Y15393D03*
G54D25*
G01X44685Y15885D03*
G01X44685Y16082D03*
G01X44685Y16279D03*
G01X44685Y16476D03*
G01X44685Y16673D03*
G01X44685Y16870D03*
G01X44685Y17066D03*
G01X44685Y17263D03*
G01X44685Y17460D03*
G01X44685Y17657D03*
G01X44685Y17854D03*
G01X44685Y18051D03*
G54D26*
G01X43110Y16968D03*
G04 Draw part C52*
G04 Draw part C53*
G54D12*
G01X44527Y19118D03*
G01X44527Y18518D03*
G04 Draw part C54*
G04 Draw part C55*
G01X45354Y17967D03*
G01X45354Y18567D03*
G04 Draw part C56*
G01X45354Y15369D03*
G01X45354Y15969D03*
G04 Draw part C57*
G04 Draw part C58*
G04 Draw part R67*
G01X40339Y16220D03*
G01X39739Y16220D03*
G04 Draw part R68*
G01X42701Y14685D03*
G01X42101Y14685D03*
G04 Draw part R177*
G01X50536Y17440D03*
G01X49936Y17440D03*
G04 Draw part R69*
G01X46992Y9251D03*
G01X46392Y9251D03*
G04 Draw part C59*
G01X46992Y9685D03*
G01X46392Y9685D03*
G04 Draw part U22*
G54D22*
G01X47076Y12185D03*
G01X46820Y12185D03*
G01X46564Y12185D03*
G01X46309Y12185D03*
G01X46309Y10255D03*
G01X46564Y10255D03*
G01X46820Y10255D03*
G01X47076Y10255D03*
G04 Draw part C60*
G54D12*
G01X46992Y12755D03*
G01X46392Y12755D03*
G04 Draw part R70*
G01X46992Y13188D03*
G01X46392Y13188D03*
G04 Draw part R71*
G01X47480Y9266D03*
G01X47480Y9866D03*
G04 Draw part R72*
G01X47480Y13174D03*
G01X47480Y12574D03*
G04 Draw part C61*
G01X47637Y10920D03*
G01X47637Y11520D03*
G04 Draw part R73*
G01X48764Y10905D03*
G01X48164Y10905D03*
G04 Draw part R74*
G01X48764Y11535D03*
G01X48164Y11535D03*
G04 Draw part R75*
G01X45787Y10329D03*
G01X45787Y10929D03*
G04 Draw part R76*
G01X45787Y12111D03*
G01X45787Y11511D03*
G04 Draw part C62*
G01X45354Y10920D03*
G01X45354Y11520D03*
G04 Draw part C63*
G04 Draw part J12*
G54D21*
G01X52165Y11417D03*
G04 Draw part C64*
G54D12*
G01X50024Y11574D03*
G01X49424Y11574D03*
G04 Draw part R77*
G01X49424Y12440D03*
G01X50024Y12440D03*
G04 Draw part R78*
G01X50024Y12007D03*
G01X49424Y12007D03*
G04 Draw part R79*
G01X48764Y11968D03*
G01X48164Y11968D03*
G04 Draw part R80*
G01X48764Y10472D03*
G01X48164Y10472D03*
G04 Draw part U24*
G54D24*
G01X44192Y12992D03*
G01X43996Y12992D03*
G01X43799Y12992D03*
G01X43602Y12992D03*
G01X43405Y12992D03*
G01X43208Y12992D03*
G01X43011Y12992D03*
G01X42814Y12992D03*
G01X42618Y12992D03*
G01X42421Y12992D03*
G01X42224Y12992D03*
G01X42027Y12992D03*
G54D25*
G01X41535Y12500D03*
G01X41535Y12303D03*
G01X41535Y12106D03*
G01X41535Y11909D03*
G01X41535Y11712D03*
G01X41535Y11515D03*
G01X41535Y11318D03*
G01X41535Y11122D03*
G01X41535Y10925D03*
G01X41535Y10728D03*
G01X41535Y10531D03*
G01X41535Y10334D03*
G54D24*
G01X42027Y9842D03*
G01X42224Y9842D03*
G01X42421Y9842D03*
G01X42618Y9842D03*
G01X42814Y9842D03*
G01X43011Y9842D03*
G01X43208Y9842D03*
G01X43405Y9842D03*
G01X43602Y9842D03*
G01X43799Y9842D03*
G01X43996Y9842D03*
G01X44192Y9842D03*
G54D25*
G01X44685Y10334D03*
G01X44685Y10531D03*
G01X44685Y10728D03*
G01X44685Y10925D03*
G01X44685Y11122D03*
G01X44685Y11318D03*
G01X44685Y11515D03*
G01X44685Y11712D03*
G01X44685Y11909D03*
G01X44685Y12106D03*
G01X44685Y12303D03*
G01X44685Y12500D03*
G54D26*
G01X43110Y11417D03*
G04 Draw part C65*
G04 Draw part C66*
G54D12*
G01X45354Y12416D03*
G01X45354Y13016D03*
G04 Draw part C67*
G04 Draw part C68*
G01X44606Y13567D03*
G01X44606Y12967D03*
G04 Draw part C69*
G01X45354Y9818D03*
G01X45354Y10418D03*
G04 Draw part C70*
G04 Draw part C71*
G04 Draw part R81*
G01X40339Y10629D03*
G01X39739Y10629D03*
G04 Draw part R82*
G01X42740Y9133D03*
G01X42140Y9133D03*
G04 Draw part R178*
G01X50024Y11141D03*
G01X49424Y11141D03*
G04 Draw part U25*
G54D14*
G01X18287Y25531D03*
G54D15*
G01X18287Y26531D03*
G01X18287Y27531D03*
G01X18287Y28531D03*
G01X15287Y28531D03*
G01X15287Y25531D03*
G04 Draw part R83*
G54D12*
G01X19881Y26520D03*
G01X19881Y25920D03*
G04 Draw part C72*
G04 Draw part R84*
G04 Draw part U26*
G54D14*
G01X18287Y21531D03*
G54D15*
G01X18287Y22531D03*
G01X18287Y23531D03*
G01X18287Y24531D03*
G01X15287Y24531D03*
G01X15287Y21531D03*
G04 Draw part R85*
G54D12*
G01X19881Y22544D03*
G01X19881Y21944D03*
G04 Draw part C73*
G04 Draw part R86*
G04 Draw part U27*
G54D14*
G01X48681Y27437D03*
G54D15*
G01X48681Y26437D03*
G01X48681Y25437D03*
G01X48681Y24437D03*
G01X51681Y24437D03*
G01X51681Y27437D03*
G04 Draw part R87*
G04 Draw part C74*
G04 Draw part R88*
G04 Draw part U28*
G54D14*
G01X18287Y17531D03*
G54D15*
G01X18287Y18531D03*
G01X18287Y19531D03*
G01X18287Y20531D03*
G01X15287Y20531D03*
G01X15287Y17531D03*
G04 Draw part C75*
G04 Draw part Q2*
G04 Draw part Q3*
G54D27*
G01X20893Y24939D03*
G01X19893Y25319D03*
G01X20893Y25689D03*
G04 Draw part Q4*
G01X20893Y21002D03*
G01X19893Y21382D03*
G01X20893Y21752D03*
G04 Draw part R89*
G54D12*
G01X20418Y17519D03*
G01X19818Y17519D03*
G04 Draw part R90*
G01X20418Y18503D03*
G01X19818Y18503D03*
G04 Draw part U29*
G54D14*
G01X48681Y23437D03*
G54D15*
G01X48681Y22437D03*
G01X48681Y21437D03*
G01X48681Y20437D03*
G01X51681Y20437D03*
G01X51681Y23437D03*
G04 Draw part C76*
G04 Draw part R91*
G04 Draw part R92*
G04 Draw part U30*
G54D10*
G01X25734Y7957D03*
G01X25734Y7047D03*
G01X25734Y6137D03*
G54D11*
G01X28434Y7047D03*
G04 Draw part C77*
G04 Draw part C78*
G04 Draw part U31*
G54D28*
G01X32602Y11037D03*
G01X31692Y11037D03*
G01X30782Y11037D03*
G54D11*
G01X31692Y8337D03*
G04 Draw part C79*
G54D29*
G01X35236Y7519D03*
G01X37204Y7519D03*
G04 Draw part C80*
G04 Draw part R93*
G04 Draw part J13*
G54D30*
G01X45763Y31208D03*
G54D31*
G01X44763Y31208D03*
G01X43763Y31208D03*
G01X42763Y31208D03*
G01X41763Y31208D03*
G01X40763Y31208D03*
G01X39763Y31208D03*
G01X38763Y31208D03*
G01X37763Y31208D03*
G01X36763Y31208D03*
G01X35763Y31208D03*
G01X34763Y31208D03*
G01X33763Y31208D03*
G01X33763Y30208D03*
G01X34763Y30208D03*
G01X35763Y30208D03*
G01X36763Y30208D03*
G01X37763Y30208D03*
G01X38763Y30208D03*
G01X39763Y30208D03*
G01X40763Y30208D03*
G01X41763Y30208D03*
G01X42763Y30208D03*
G01X43763Y30208D03*
G01X44763Y30208D03*
G01X45763Y30208D03*
G04 Draw part J14*
G54D30*
G01X32582Y2649D03*
G54D31*
G01X33582Y2649D03*
G01X34582Y2649D03*
G01X35582Y2649D03*
G01X36582Y2649D03*
G01X37582Y2649D03*
G01X38582Y2649D03*
G01X39582Y2649D03*
G01X40582Y2649D03*
G01X41582Y2649D03*
G01X42582Y2649D03*
G01X43582Y2649D03*
G01X44582Y2649D03*
G01X44582Y3649D03*
G01X43582Y3649D03*
G01X42582Y3649D03*
G01X41582Y3649D03*
G01X40582Y3649D03*
G01X39582Y3649D03*
G01X38582Y3649D03*
G01X37582Y3649D03*
G01X36582Y3649D03*
G01X35582Y3649D03*
G01X34582Y3649D03*
G01X33582Y3649D03*
G01X32582Y3649D03*
G04 Draw part U32*
G54D32*
G01X23405Y14960D03*
G01X23779Y14960D03*
G01X24153Y14960D03*
G01X24153Y16062D03*
G01X23405Y16062D03*
G04 Draw part C81*
G54D12*
G01X22874Y15251D03*
G01X22874Y15851D03*
G04 Draw part C82*
G04 Draw part J15*
G54D16*
G01X51181Y3149D03*
G04 Draw part J16*
G01X15748Y3149D03*
G04 Draw part J17*
G01X51181Y30708D03*
G04 Draw part J18*
G01X15748Y30708D03*
G04 Draw part U33*
G54D28*
G01X43075Y23793D03*
G01X42165Y23793D03*
G01X41255Y23793D03*
G54D11*
G01X42165Y21093D03*
G04 Draw part C83*
G54D29*
G01X25354Y22598D03*
G01X27322Y22598D03*
G04 Draw part U34*
G54D14*
G01X22161Y26531D03*
G54D15*
G01X23161Y26531D03*
G01X24161Y26531D03*
G01X25161Y26531D03*
G01X25161Y29531D03*
G01X24161Y29531D03*
G01X23161Y29531D03*
G01X22161Y29531D03*
G04 Draw part R94*
G04 Draw part R95*
G04 Draw part R96*
G54D12*
G01X23149Y25054D03*
G01X23149Y25654D03*
G04 Draw part J19*
G54D33*
G01X24645Y31692D03*
G04 Draw part C84*
G54D12*
G01X22716Y25054D03*
G01X22716Y25654D03*
G04 Draw part U35*
G54D14*
G01X27358Y26492D03*
G54D15*
G01X28358Y26492D03*
G01X29358Y26492D03*
G01X30358Y26492D03*
G01X30358Y29492D03*
G01X29358Y29492D03*
G01X28358Y29492D03*
G01X27358Y29492D03*
G04 Draw part R97*
G04 Draw part R98*
G04 Draw part R99*
G54D12*
G01X28346Y25054D03*
G01X28346Y25654D03*
G04 Draw part J20*
G54D33*
G01X29803Y31692D03*
G04 Draw part C85*
G54D12*
G01X27913Y25054D03*
G01X27913Y25654D03*
G04 Draw part J21*
G54D30*
G01X22015Y2649D03*
G54D31*
G01X23015Y2649D03*
G01X24015Y2649D03*
G01X25015Y2649D03*
G01X26015Y2649D03*
G01X26015Y3649D03*
G01X25015Y3649D03*
G01X24015Y3649D03*
G01X23015Y3649D03*
G01X22015Y3649D03*
G04 Draw part C86*
G54D12*
G01X41865Y24566D03*
G01X42465Y24566D03*
G04 Draw part Q5*
G54D27*
G01X25185Y24861D03*
G01X24185Y25241D03*
G01X25185Y25611D03*
G04 Draw part Q6*
G01X30342Y24821D03*
G01X29342Y25201D03*
G01X30342Y25571D03*
G04 Draw part R100*
G54D12*
G01X41574Y5251D03*
G01X41574Y5851D03*
G04 Draw part R101*
G01X42559Y5251D03*
G01X42559Y5851D03*
G04 Draw part R102*
G01X39566Y5251D03*
G01X39566Y5851D03*
G04 Draw part R103*
G01X36771Y28567D03*
G01X36771Y27967D03*
G04 Draw part R104*
G01X35787Y28567D03*
G01X35787Y27967D03*
G04 Draw part R105*
G04 Draw part R106*
G01X33740Y28567D03*
G01X33740Y27967D03*
G04 Draw part R107*
G01X34763Y28567D03*
G01X34763Y27967D03*
G04 Draw part R108*
G01X39763Y28567D03*
G01X39763Y27967D03*
G04 Draw part R109*
G01X40748Y28567D03*
G01X40748Y27967D03*
G04 Draw part R110*
G04 Draw part R111*
G04 Draw part R112*
G04 Draw part R113*
G04 Draw part U36*
G54D34*
G01X30511Y44675D03*
G01X30511Y44419D03*
G01X30511Y44163D03*
G01X30511Y43907D03*
G01X30511Y43651D03*
G01X30511Y43395D03*
G01X30511Y43139D03*
G01X30511Y42883D03*
G01X33031Y42883D03*
G01X33031Y43139D03*
G01X33031Y43395D03*
G01X33031Y43651D03*
G01X33031Y43907D03*
G01X33031Y44163D03*
G01X33031Y44419D03*
G01X33031Y44675D03*
G04 Draw part C87*
G04 Draw part C88*
G04 Draw part C89*
G04 Draw part U37*
G54D35*
G01X24665Y45246D03*
G01X24665Y45501D03*
G01X24665Y45757D03*
G01X24665Y46013D03*
G01X22736Y46013D03*
G01X22736Y45757D03*
G01X22736Y45501D03*
G01X22736Y45246D03*
G04 Draw part U38*
G54D36*
G01X18582Y45986D03*
G01X18582Y45486D03*
G01X18582Y44986D03*
G01X18582Y44486D03*
G01X20944Y44486D03*
G01X20944Y44986D03*
G01X20944Y45486D03*
G01X20944Y45986D03*
G04 Draw part R114*
G54D12*
G01X17952Y44936D03*
G01X17952Y45536D03*
G04 Draw part C90*
G01X22165Y40851D03*
G01X22165Y40251D03*
G04 Draw part C91*
G01X25236Y42032D03*
G01X25236Y41432D03*
G04 Draw part C92*
G01X22165Y38528D03*
G01X22165Y37928D03*
G04 Draw part C93*
G01X25236Y39670D03*
G01X25236Y39070D03*
G04 Draw part U39*
G54D35*
G01X24665Y42923D03*
G01X24665Y43179D03*
G01X24665Y43435D03*
G01X24665Y43690D03*
G01X22736Y43690D03*
G01X22736Y43435D03*
G01X22736Y43179D03*
G01X22736Y42923D03*
G04 Draw part U40*
G54D36*
G01X18622Y43230D03*
G01X18622Y42730D03*
G01X18622Y42230D03*
G01X18622Y41730D03*
G01X20984Y41730D03*
G01X20984Y42230D03*
G01X20984Y42730D03*
G01X20984Y43230D03*
G04 Draw part R115*
G54D12*
G01X17992Y42180D03*
G01X17992Y42780D03*
G04 Draw part C94*
G01X21614Y39975D03*
G01X21614Y40575D03*
G04 Draw part C95*
G01X17992Y38361D03*
G01X17992Y38961D03*
G04 Draw part C96*
G01X24724Y36117D03*
G01X24724Y36717D03*
G04 Draw part C97*
G01X21102Y34503D03*
G01X21102Y35103D03*
G04 Draw part U41*
G54D35*
G01X24665Y40600D03*
G01X24665Y40856D03*
G01X24665Y41112D03*
G01X24665Y41368D03*
G01X22736Y41368D03*
G01X22736Y41112D03*
G01X22736Y40856D03*
G01X22736Y40600D03*
G04 Draw part U42*
G54D36*
G01X18622Y40474D03*
G01X18622Y39974D03*
G01X18622Y39474D03*
G01X18622Y38974D03*
G01X20984Y38974D03*
G01X20984Y39474D03*
G01X20984Y39974D03*
G01X20984Y40474D03*
G04 Draw part R116*
G54D12*
G01X17992Y39424D03*
G01X17992Y40024D03*
G04 Draw part C98*
G01X22165Y45496D03*
G01X22165Y44896D03*
G04 Draw part C99*
G01X25236Y46638D03*
G01X25236Y46038D03*
G04 Draw part C100*
G01X22165Y43174D03*
G01X22165Y42574D03*
G04 Draw part C101*
G01X25236Y44315D03*
G01X25236Y43715D03*
G04 Draw part U43*
G54D35*
G01X24665Y38277D03*
G01X24665Y38533D03*
G01X24665Y38789D03*
G01X24665Y39045D03*
G01X22736Y39045D03*
G01X22736Y38789D03*
G01X22736Y38533D03*
G01X22736Y38277D03*
G04 Draw part U44*
G54D36*
G01X21732Y36616D03*
G01X21732Y36116D03*
G01X21732Y35616D03*
G01X21732Y35116D03*
G01X24094Y35116D03*
G01X24094Y35616D03*
G01X24094Y36116D03*
G01X24094Y36616D03*
G04 Draw part C102*
G54D12*
G01X24000Y39645D03*
G01X23400Y39645D03*
G04 Draw part R117*
G01X21102Y35566D03*
G01X21102Y36166D03*
G04 Draw part R118*
G01X24724Y35054D03*
G01X24724Y35654D03*
G04 Draw part R119*
G01X25236Y37928D03*
G01X25236Y38528D03*
G04 Draw part R120*
G01X25669Y37928D03*
G01X25669Y38528D03*
G04 Draw part C103*
G01X21574Y45487D03*
G01X21574Y46087D03*
G04 Draw part C104*
G01X17952Y43873D03*
G01X17952Y44473D03*
G04 Draw part C105*
G01X21614Y42731D03*
G01X21614Y43331D03*
G04 Draw part C106*
G01X17952Y41117D03*
G01X17952Y41717D03*
G04 Draw part R121*
G01X20063Y46614D03*
G01X19463Y46614D03*
G04 Draw part R122*
G01X20103Y43858D03*
G01X19503Y43858D03*
G04 Draw part R123*
G01X20103Y41102D03*
G01X19503Y41102D03*
G04 Draw part R124*
G01X23213Y37244D03*
G01X22613Y37244D03*
G04 Draw part C107*
G01X24000Y41968D03*
G01X23400Y41968D03*
G04 Draw part R125*
G01X21614Y38912D03*
G01X21614Y39512D03*
G04 Draw part R126*
G01X25236Y40251D03*
G01X25236Y40851D03*
G04 Draw part R127*
G01X25669Y40251D03*
G01X25669Y40851D03*
G04 Draw part C108*
G01X24000Y44291D03*
G01X23400Y44291D03*
G04 Draw part R128*
G01X21614Y41668D03*
G01X21614Y42268D03*
G04 Draw part R129*
G01X25236Y42574D03*
G01X25236Y43174D03*
G04 Draw part R130*
G01X25669Y42574D03*
G01X25669Y43174D03*
G04 Draw part C109*
G01X24000Y46614D03*
G01X23400Y46614D03*
G04 Draw part R131*
G01X21574Y44385D03*
G01X21574Y44985D03*
G04 Draw part R132*
G01X25236Y44896D03*
G01X25236Y45496D03*
G04 Draw part R133*
G01X25669Y44896D03*
G01X25669Y45496D03*
G04 Draw part R134*
G01X37362Y46166D03*
G01X37362Y45566D03*
G04 Draw part R135*
G01X34581Y44370D03*
G01X35181Y44370D03*
G04 Draw part R136*
G01X34581Y43937D03*
G01X35181Y43937D03*
G04 Draw part R137*
G01X34581Y43503D03*
G01X35181Y43503D03*
G04 Draw part R138*
G01X34581Y43070D03*
G01X35181Y43070D03*
G04 Draw part R139*
G01X34581Y42637D03*
G01X35181Y42637D03*
G04 Draw part R140*
G01X34581Y42204D03*
G01X35181Y42204D03*
G04 Draw part U45*
G54D37*
G01X40157Y44527D03*
G01X39842Y44527D03*
G01X39527Y44527D03*
G01X39212Y44527D03*
G01X38897Y44527D03*
G01X38582Y44527D03*
G01X38267Y44527D03*
G01X37952Y44527D03*
G01X37637Y44527D03*
G01X37322Y44527D03*
G01X37007Y44527D03*
G54D38*
G01X36220Y43740D03*
G01X36220Y43425D03*
G01X36220Y43110D03*
G01X36220Y42795D03*
G01X36220Y42480D03*
G01X36220Y42165D03*
G01X36220Y41850D03*
G01X36220Y41535D03*
G01X36220Y41220D03*
G01X36220Y40905D03*
G01X36220Y40590D03*
G54D37*
G01X37007Y39803D03*
G01X37322Y39803D03*
G01X37637Y39803D03*
G01X37952Y39803D03*
G01X38267Y39803D03*
G01X38582Y39803D03*
G01X38897Y39803D03*
G01X39212Y39803D03*
G01X39527Y39803D03*
G01X39842Y39803D03*
G01X40157Y39803D03*
G54D38*
G01X40944Y40590D03*
G01X40944Y40905D03*
G01X40944Y41220D03*
G01X40944Y41535D03*
G01X40944Y41850D03*
G01X40944Y42165D03*
G01X40944Y42480D03*
G01X40944Y42795D03*
G01X40944Y43110D03*
G01X40944Y43425D03*
G01X40944Y43740D03*
G04 Draw part R141*
G54D12*
G01X42583Y41732D03*
G01X41983Y41732D03*
G04 Draw part R142*
G01X42583Y41299D03*
G01X41983Y41299D03*
G04 Draw part R143*
G01X42583Y40866D03*
G01X41983Y40866D03*
G04 Draw part R144*
G01X42583Y40433D03*
G01X41983Y40433D03*
G04 Draw part R145*
G01X40275Y38125D03*
G01X40275Y38725D03*
G04 Draw part R146*
G01X39881Y38125D03*
G01X39881Y38725D03*
G04 Draw part R147*
G01X39488Y38125D03*
G01X39488Y38725D03*
G04 Draw part R148*
G01X39094Y38125D03*
G01X39094Y38725D03*
G04 Draw part R149*
G01X42583Y42165D03*
G01X41983Y42165D03*
G04 Draw part R150*
G01X42583Y42598D03*
G01X41983Y42598D03*
G04 Draw part R151*
G01X42583Y43031D03*
G01X41983Y43031D03*
G04 Draw part R152*
G01X42583Y43464D03*
G01X41983Y43464D03*
G04 Draw part R153*
G01X42583Y43897D03*
G01X41983Y43897D03*
G04 Draw part R154*
G01X40275Y46166D03*
G01X40275Y45566D03*
G04 Draw part R155*
G01X39842Y46166D03*
G01X39842Y45566D03*
G04 Draw part R156*
G01X39409Y46166D03*
G01X39409Y45566D03*
G04 Draw part R157*
G01X34581Y41771D03*
G01X35181Y41771D03*
G04 Draw part R158*
G01X34581Y41338D03*
G01X35181Y41338D03*
G04 Draw part R159*
G01X34581Y40905D03*
G01X35181Y40905D03*
G04 Draw part R160*
G01X34581Y40472D03*
G01X35181Y40472D03*
G04 Draw part R161*
G01X36811Y38125D03*
G01X36811Y38725D03*
G04 Draw part R162*
G01X37244Y38125D03*
G01X37244Y38725D03*
G04 Draw part R163*
G01X37677Y38125D03*
G01X37677Y38725D03*
G04 Draw part R164*
G01X38110Y38125D03*
G01X38110Y38725D03*
G04 Draw part J26*
G54D30*
G01X41070Y35287D03*
G54D31*
G01X42070Y35287D03*
G01X43070Y35287D03*
G01X44070Y35287D03*
G01X45070Y35287D03*
G01X45070Y36287D03*
G01X44070Y36287D03*
G01X43070Y36287D03*
G01X42070Y36287D03*
G01X41070Y36287D03*
G04 Draw part J27*
G54D30*
G01X45070Y48964D03*
G54D31*
G01X44070Y48964D03*
G01X43070Y48964D03*
G01X42070Y48964D03*
G01X41070Y48964D03*
G01X41070Y47964D03*
G01X42070Y47964D03*
G01X43070Y47964D03*
G01X44070Y47964D03*
G01X45070Y47964D03*
G04 Draw part J28*
G54D30*
G01X32409Y35287D03*
G54D31*
G01X33409Y35287D03*
G01X34409Y35287D03*
G01X35409Y35287D03*
G01X36409Y35287D03*
G01X36409Y36287D03*
G01X35409Y36287D03*
G01X34409Y36287D03*
G01X33409Y36287D03*
G01X32409Y36287D03*
G04 Draw part C110*
G04 Draw part C111*
G04 Draw part C112*
G04 Draw part C113*
G04 Draw part C114*
G04 Draw part J29*
G54D33*
G01X37401Y49409D03*
G04 Draw part R165*
G54D12*
G01X38567Y45590D03*
G01X37967Y45590D03*
G04 Draw part C115*
G01X37967Y46181D03*
G01X38567Y46181D03*
G04 Draw part R166*
G04 Draw part J30*
G54D16*
G01X48818Y35826D03*
G04 Draw part J31*
G01X19291Y48425D03*
G04 Draw part J32*
G01X19291Y35826D03*
G04 Draw part J33*
G01X48818Y48425D03*
G04 Draw part U50*
G54D10*
G01X27179Y47712D03*
G01X27179Y48622D03*
G01X27179Y49532D03*
G54D11*
G01X24479Y48622D03*
G04 Draw part C116*
G54D29*
G01X30511Y48582D03*
G01X28543Y48582D03*
G04 Draw part C117*
G01X27244Y35787D03*
G01X29212Y35787D03*
G04 Draw part J34*
G54D17*
G01X34582Y48740D03*
G01X32582Y48740D03*
G04 Draw part R167*
G54D12*
G01X27780Y46692D03*
G01X27180Y46692D03*
G04 Draw part R168*
G01X27180Y46259D03*
G01X27780Y46259D03*
G04 Draw part C118*
G01X27180Y47125D03*
G01X27780Y47125D03*
G04 Draw part U51*
G04 Draw part C119*
G04 Draw part C120*
G04 Draw part Q7*
G54D15*
G01X28355Y41456D03*
G01X27755Y40856D03*
G01X27155Y41456D03*
G04 Draw part Q8*
G01X27155Y42834D03*
G01X27755Y43434D03*
G01X28355Y42834D03*
G04 Draw part C121*
G04 Draw part R169*
G54D12*
G01X30511Y39621D03*
G01X30511Y40221D03*
G04 Draw part R170*
G01X30984Y39030D03*
G01X30984Y39630D03*
G04 Draw part C122*
G04 Draw part C123*
G01X27007Y39818D03*
G01X27007Y40418D03*
G04 Draw part U52*
G04 Draw part C124*
G04 Draw part C125*
G04 Draw part U53*
G04 Draw part C126*
G04 Draw part C127*
G04 Draw part C128*
G01X30078Y39621D03*
G01X30078Y40221D03*
G04 Draw part U54*
G54D14*
G01X46444Y41437D03*
G54D15*
G01X46444Y40437D03*
G01X46444Y39437D03*
G01X46444Y38437D03*
G01X49444Y38437D03*
G01X49444Y41437D03*
G04 Draw part C129*
G04 Draw part U55*
G54D14*
G01X46444Y45437D03*
G54D15*
G01X46444Y44437D03*
G01X46444Y43437D03*
G01X46444Y42437D03*
G01X49444Y42437D03*
G01X49444Y45437D03*
G04 Draw part R171*
G04 Draw part C130*
G04 Draw part R172*
G04 Draw part Q9*
G04 Draw part U56*
G04 Draw part C131*
G54D12*
G01X32613Y41771D03*
G01X33213Y41771D03*
G04 Draw part R174*
G04 Draw part R175*
G04 Draw part U57*
G54D35*
G01X29507Y39301D03*
G01X29507Y39557D03*
G01X29507Y39812D03*
G01X29507Y40068D03*
G01X27578Y40068D03*
G01X27578Y39812D03*
G01X27578Y39557D03*
G01X27578Y39301D03*
G04 Draw part J35*
G04 Draw part R176*
G54D12*
G01X63488Y1968D03*
G01X62888Y1968D03*
G04 Draw part J36*
G54D39*
G01X65255Y15944D03*
G01X65059Y15944D03*
G01X64862Y15944D03*
G01X64665Y15944D03*
G01X64468Y15944D03*
G01X64271Y15944D03*
G01X64074Y15944D03*
G01X63877Y15944D03*
G01X63681Y15944D03*
G01X63484Y15944D03*
G01X63287Y15944D03*
G01X63090Y15944D03*
G01X62893Y15944D03*
G01X62696Y15944D03*
G01X62500Y15944D03*
G01X62303Y15944D03*
G01X62106Y15944D03*
G01X61909Y15944D03*
G01X61712Y15944D03*
G01X61515Y15944D03*
G01X61318Y15944D03*
G01X61122Y15944D03*
G01X60925Y15944D03*
G01X60728Y15944D03*
G01X60531Y15944D03*
G01X59940Y15944D03*
G01X59744Y15944D03*
G01X59547Y15944D03*
G01X59350Y15944D03*
G01X59153Y15944D03*
G01X58956Y15944D03*
G01X58759Y15944D03*
G01X58562Y15944D03*
G01X58366Y15944D03*
G01X58169Y15944D03*
G01X57972Y15944D03*
G01X57775Y15944D03*
G01X57578Y15944D03*
G01X57381Y15944D03*
G01X57185Y15944D03*
G01X56988Y15944D03*
G01X56791Y15944D03*
G01X56594Y15944D03*
G01X56397Y15944D03*
G01X56200Y15944D03*
G01X56003Y15944D03*
G01X55807Y15944D03*
G01X55610Y15944D03*
G01X55413Y15944D03*
G01X55216Y15944D03*
G04 Draw part J37*
G04 Draw part J38*
G54D40*
G01X2500Y22992D03*
G01X3484Y22992D03*
G01X4468Y22992D03*
G01X5452Y22992D03*
G01X6437Y22992D03*
G01X7421Y22992D03*
G01X8405Y22992D03*
G01X9389Y22992D03*
G01X10374Y22992D03*
G01X11358Y22992D03*
G01X2500Y23976D03*
G01X3484Y23976D03*
G01X4468Y23976D03*
G01X5452Y23976D03*
G01X6437Y23976D03*
G01X7421Y23976D03*
G01X8405Y23976D03*
G01X9389Y23976D03*
G01X10374Y23976D03*
G01X11358Y23976D03*
G01X2500Y24960D03*
G01X3484Y24960D03*
G01X4468Y24960D03*
G01X5452Y24960D03*
G01X6437Y24960D03*
G01X7421Y24960D03*
G01X8405Y24960D03*
G01X9389Y24960D03*
G01X10374Y24960D03*
G01X11358Y24960D03*
G01X2500Y25944D03*
G01X3484Y25944D03*
G01X4468Y25944D03*
G01X5452Y25944D03*
G01X6437Y25944D03*
G01X7421Y25944D03*
G01X8405Y25944D03*
G01X9389Y25944D03*
G01X10374Y25944D03*
G01X11358Y25944D03*
G01X2500Y26929D03*
G01X3484Y26929D03*
G01X4468Y26929D03*
G01X5452Y26929D03*
G01X6437Y26929D03*
G01X7421Y26929D03*
G01X8405Y26929D03*
G01X9389Y26929D03*
G01X10374Y26929D03*
G01X11358Y26929D03*
G04 Draw part R179*
G54D12*
G01X1692Y5487D03*
G01X1692Y6087D03*
G04 Draw part J8*
G54D21*
G01X14763Y11968D03*
G04 Draw part R25*
G54D12*
G01X18322Y12244D03*
G01X18922Y12244D03*
G04 Draw part C26*
G01X19488Y12859D03*
G01X19488Y12259D03*
G04 Draw part U13*
G54D22*
G01X20049Y11003D03*
G01X20305Y11003D03*
G01X20561Y11003D03*
G01X20816Y11003D03*
G01X20816Y12933D03*
G01X20561Y12933D03*
G01X20305Y12933D03*
G01X20049Y12933D03*
G04 Draw part C27*
G54D12*
G01X19488Y11077D03*
G01X19488Y11677D03*
G04 Draw part R26*
G01X18322Y11692D03*
G01X18922Y11692D03*
G04 Draw part R27*
G01X17731Y12874D03*
G01X18331Y12874D03*
G04 Draw part R28*
G01X17731Y11062D03*
G01X18331Y11062D03*
G04 Draw part C28*
G01X17716Y12268D03*
G01X17716Y11668D03*
G04 Draw part R29*
G01X16589Y12244D03*
G01X17189Y12244D03*
G04 Draw part R30*
G01X16589Y11692D03*
G01X17189Y11692D03*
G04 Draw part C30*
G04 Draw part R34*
G01X16023Y11677D03*
G01X16023Y11077D03*
G04 Draw part R33*
G01X16023Y12259D03*
G01X16023Y12859D03*
G04 Draw part C42*
G04 Draw part J9*
G54D21*
G01X14763Y9094D03*
G04 Draw part R35*
G54D12*
G01X18322Y9370D03*
G01X18922Y9370D03*
G04 Draw part C31*
G01X19488Y9985D03*
G01X19488Y9385D03*
G04 Draw part U15*
G54D22*
G01X20049Y8129D03*
G01X20305Y8129D03*
G01X20561Y8129D03*
G01X20816Y8129D03*
G01X20816Y10059D03*
G01X20561Y10059D03*
G01X20305Y10059D03*
G01X20049Y10059D03*
G04 Draw part C32*
G54D12*
G01X19488Y8203D03*
G01X19488Y8803D03*
G04 Draw part R36*
G01X18322Y8818D03*
G01X18922Y8818D03*
G04 Draw part R37*
G01X17731Y10000D03*
G01X18331Y10000D03*
G04 Draw part R38*
G01X17731Y8188D03*
G01X18331Y8188D03*
G04 Draw part C33*
G01X17716Y9394D03*
G01X17716Y8794D03*
G04 Draw part R39*
G01X16589Y9370D03*
G01X17189Y9370D03*
G04 Draw part R40*
G01X16589Y8818D03*
G01X17189Y8818D03*
G04 Draw part C35*
G04 Draw part R43*
G01X16023Y8803D03*
G01X16023Y8203D03*
G04 Draw part R44*
G01X16023Y9385D03*
G01X16023Y9985D03*
G04 Draw part C43*
G04 Draw part J10*
G54D21*
G01X14763Y6220D03*
G04 Draw part R45*
G54D12*
G01X18322Y6496D03*
G01X18922Y6496D03*
G04 Draw part C36*
G01X19488Y7111D03*
G01X19488Y6511D03*
G04 Draw part U17*
G54D22*
G01X20049Y5255D03*
G01X20305Y5255D03*
G01X20561Y5255D03*
G01X20816Y5255D03*
G01X20816Y7185D03*
G01X20561Y7185D03*
G01X20305Y7185D03*
G01X20049Y7185D03*
G04 Draw part C37*
G54D12*
G01X19488Y5329D03*
G01X19488Y5929D03*
G04 Draw part R46*
G01X18322Y5944D03*
G01X18922Y5944D03*
G04 Draw part R47*
G01X17731Y7125D03*
G01X18331Y7125D03*
G04 Draw part R48*
G01X17731Y5314D03*
G01X18331Y5314D03*
G04 Draw part C38*
G01X17716Y6520D03*
G01X17716Y5920D03*
G04 Draw part R49*
G01X16589Y6496D03*
G01X17189Y6496D03*
G04 Draw part R50*
G01X16589Y5944D03*
G01X17189Y5944D03*
G04 Draw part C40*
G04 Draw part R53*
G01X16023Y5929D03*
G01X16023Y5329D03*
G04 Draw part R54*
G01X16023Y6511D03*
G01X16023Y7111D03*
G04 Draw part C44*
G04 Draw part R31*
G01X21417Y12937D03*
G01X21417Y12337D03*
G04 Draw part R32*
G01X21417Y10999D03*
G01X21417Y11599D03*
G04 Draw part C29*
G04 Draw part R41*
G01X21417Y10063D03*
G01X21417Y9463D03*
G04 Draw part R42*
G01X21417Y8125D03*
G01X21417Y8725D03*
G04 Draw part C34*
G04 Draw part R51*
G01X21417Y7189D03*
G01X21417Y6589D03*
G04 Draw part R52*
G01X21417Y5251D03*
G01X21417Y5851D03*
G04 Draw part C132*
G04 Draw part J39*
G54D30*
G01X15208Y48125D03*
G54D31*
G01X15208Y47125D03*
G01X15208Y46125D03*
G01X15208Y45125D03*
G01X15208Y44125D03*
G01X15208Y43125D03*
G01X15208Y42125D03*
G01X15208Y41125D03*
G01X15208Y40125D03*
G01X15208Y39125D03*
G01X15208Y38125D03*
G01X15208Y37125D03*
G01X15208Y36125D03*
G01X16208Y36125D03*
G01X16208Y37125D03*
G01X16208Y38125D03*
G01X16208Y39125D03*
G01X16208Y40125D03*
G01X16208Y41125D03*
G01X16208Y42125D03*
G01X16208Y43125D03*
G01X16208Y44125D03*
G01X16208Y45125D03*
G01X16208Y46125D03*
G01X16208Y47125D03*
G01X16208Y48125D03*
G04 Draw part J40*
G04 Draw part J41*
G54D40*
G01X2500Y33818D03*
G01X3484Y33818D03*
G01X4468Y33818D03*
G01X5452Y33818D03*
G01X6437Y33818D03*
G01X7421Y33818D03*
G01X8405Y33818D03*
G01X9389Y33818D03*
G01X10374Y33818D03*
G01X11358Y33818D03*
G01X2500Y34803D03*
G01X3484Y34803D03*
G01X4468Y34803D03*
G01X5452Y34803D03*
G01X6437Y34803D03*
G01X7421Y34803D03*
G01X8405Y34803D03*
G01X9389Y34803D03*
G01X10374Y34803D03*
G01X11358Y34803D03*
G01X2500Y35787D03*
G01X3484Y35787D03*
G01X4468Y35787D03*
G01X5452Y35787D03*
G01X6437Y35787D03*
G01X7421Y35787D03*
G01X8405Y35787D03*
G01X9389Y35787D03*
G01X10374Y35787D03*
G01X11358Y35787D03*
G01X2500Y36771D03*
G01X3484Y36771D03*
G01X4468Y36771D03*
G01X5452Y36771D03*
G01X6437Y36771D03*
G01X7421Y36771D03*
G01X8405Y36771D03*
G01X9389Y36771D03*
G01X10374Y36771D03*
G01X11358Y36771D03*
G01X2500Y37755D03*
G01X3484Y37755D03*
G01X4468Y37755D03*
G01X5452Y37755D03*
G01X6437Y37755D03*
G01X7421Y37755D03*
G01X8405Y37755D03*
G01X9389Y37755D03*
G01X10374Y37755D03*
G01X11358Y37755D03*
G04 Draw part J42*
G04 Draw part J43*
G01X2500Y44645D03*
G01X3484Y44645D03*
G01X4468Y44645D03*
G01X5452Y44645D03*
G01X6437Y44645D03*
G01X7421Y44645D03*
G01X8405Y44645D03*
G01X9389Y44645D03*
G01X10374Y44645D03*
G01X11358Y44645D03*
G01X2500Y45629D03*
G01X3484Y45629D03*
G01X4468Y45629D03*
G01X5452Y45629D03*
G01X6437Y45629D03*
G01X7421Y45629D03*
G01X8405Y45629D03*
G01X9389Y45629D03*
G01X10374Y45629D03*
G01X11358Y45629D03*
G01X2500Y46614D03*
G01X3484Y46614D03*
G01X4468Y46614D03*
G01X5452Y46614D03*
G01X6437Y46614D03*
G01X7421Y46614D03*
G01X8405Y46614D03*
G01X9389Y46614D03*
G01X10374Y46614D03*
G01X11358Y46614D03*
G01X2500Y47598D03*
G01X3484Y47598D03*
G01X4468Y47598D03*
G01X5452Y47598D03*
G01X6437Y47598D03*
G01X7421Y47598D03*
G01X8405Y47598D03*
G01X9389Y47598D03*
G01X10374Y47598D03*
G01X11358Y47598D03*
G01X2500Y48582D03*
G01X3484Y48582D03*
G01X4468Y48582D03*
G01X5452Y48582D03*
G01X6437Y48582D03*
G01X7421Y48582D03*
G01X8405Y48582D03*
G01X9389Y48582D03*
G01X10374Y48582D03*
G01X11358Y48582D03*
G04 Draw part J44*
G54D41*
G01X59055Y4645D03*
G01X59055Y4448D03*
G01X59055Y4251D03*
G01X59055Y4055D03*
G01X59055Y3858D03*
G01X59055Y3661D03*
G01X59055Y3464D03*
G01X59055Y3267D03*
G01X59055Y3070D03*
G01X59055Y2874D03*
G01X59055Y2677D03*
G01X59055Y2480D03*
G01X59055Y2283D03*
G01X59251Y2283D03*
G01X59448Y2283D03*
G01X59645Y2283D03*
G01X59842Y2283D03*
G01X60039Y2283D03*
G01X60236Y2283D03*
G01X60433Y2283D03*
G01X60629Y2283D03*
G01X60826Y2283D03*
G01X61023Y2283D03*
G01X61220Y2283D03*
G01X61417Y2283D03*
G01X61417Y2480D03*
G01X61417Y2677D03*
G01X61417Y2874D03*
G01X61417Y3070D03*
G01X61417Y3267D03*
G01X61417Y3464D03*
G01X61417Y3661D03*
G01X61417Y3858D03*
G01X61417Y4055D03*
G01X61417Y4251D03*
G01X61417Y4448D03*
G01X61417Y4645D03*
G01X61220Y4645D03*
G01X61023Y4645D03*
G01X60826Y4645D03*
G01X60629Y4645D03*
G01X60433Y4645D03*
G01X60236Y4645D03*
G01X60039Y4645D03*
G01X59842Y4645D03*
G01X59645Y4645D03*
G01X59448Y4645D03*
G01X59251Y4645D03*
G04 Draw part J47*
G04 Draw part R180*
G54D12*
G01X63488Y19685D03*
G01X62888Y19685D03*
G04 Draw part J46*
G54D39*
G01X65255Y33661D03*
G01X65059Y33661D03*
G01X64862Y33661D03*
G01X64665Y33661D03*
G01X64468Y33661D03*
G01X64271Y33661D03*
G01X64074Y33661D03*
G01X63877Y33661D03*
G01X63681Y33661D03*
G01X63484Y33661D03*
G01X63287Y33661D03*
G01X63090Y33661D03*
G01X62893Y33661D03*
G01X62696Y33661D03*
G01X62500Y33661D03*
G01X62303Y33661D03*
G01X62106Y33661D03*
G01X61909Y33661D03*
G01X61712Y33661D03*
G01X61515Y33661D03*
G01X61318Y33661D03*
G01X61122Y33661D03*
G01X60925Y33661D03*
G01X60728Y33661D03*
G01X60531Y33661D03*
G01X59940Y33661D03*
G01X59744Y33661D03*
G01X59547Y33661D03*
G01X59350Y33661D03*
G01X59153Y33661D03*
G01X58956Y33661D03*
G01X58759Y33661D03*
G01X58562Y33661D03*
G01X58366Y33661D03*
G01X58169Y33661D03*
G01X57972Y33661D03*
G01X57775Y33661D03*
G01X57578Y33661D03*
G01X57381Y33661D03*
G01X57185Y33661D03*
G01X56988Y33661D03*
G01X56791Y33661D03*
G01X56594Y33661D03*
G01X56397Y33661D03*
G01X56200Y33661D03*
G01X56003Y33661D03*
G01X55807Y33661D03*
G01X55610Y33661D03*
G01X55413Y33661D03*
G01X55216Y33661D03*
G04 Draw part J45*
G54D41*
G01X59055Y22362D03*
G01X59055Y22165D03*
G01X59055Y21968D03*
G01X59055Y21771D03*
G01X59055Y21574D03*
G01X59055Y21377D03*
G01X59055Y21181D03*
G01X59055Y20984D03*
G01X59055Y20787D03*
G01X59055Y20590D03*
G01X59055Y20393D03*
G01X59055Y20196D03*
G01X59055Y20000D03*
G01X59251Y20000D03*
G01X59448Y20000D03*
G01X59645Y20000D03*
G01X59842Y20000D03*
G01X60039Y20000D03*
G01X60236Y20000D03*
G01X60433Y20000D03*
G01X60629Y20000D03*
G01X60826Y20000D03*
G01X61023Y20000D03*
G01X61220Y20000D03*
G01X61417Y20000D03*
G01X61417Y20196D03*
G01X61417Y20393D03*
G01X61417Y20590D03*
G01X61417Y20787D03*
G01X61417Y20984D03*
G01X61417Y21181D03*
G01X61417Y21377D03*
G01X61417Y21574D03*
G01X61417Y21771D03*
G01X61417Y21968D03*
G01X61417Y22165D03*
G01X61417Y22362D03*
G01X61220Y22362D03*
G01X61023Y22362D03*
G01X60826Y22362D03*
G01X60629Y22362D03*
G01X60433Y22362D03*
G01X60236Y22362D03*
G01X60039Y22362D03*
G01X59842Y22362D03*
G01X59645Y22362D03*
G01X59448Y22362D03*
G01X59251Y22362D03*
G04 Draw part J50*
G04 Draw part R181*
G54D12*
G01X63488Y37401D03*
G01X62888Y37401D03*
G04 Draw part J49*
G54D39*
G01X65255Y51377D03*
G01X65059Y51377D03*
G01X64862Y51377D03*
G01X64665Y51377D03*
G01X64468Y51377D03*
G01X64271Y51377D03*
G01X64074Y51377D03*
G01X63877Y51377D03*
G01X63681Y51377D03*
G01X63484Y51377D03*
G01X63287Y51377D03*
G01X63090Y51377D03*
G01X62893Y51377D03*
G01X62696Y51377D03*
G01X62500Y51377D03*
G01X62303Y51377D03*
G01X62106Y51377D03*
G01X61909Y51377D03*
G01X61712Y51377D03*
G01X61515Y51377D03*
G01X61318Y51377D03*
G01X61122Y51377D03*
G01X60925Y51377D03*
G01X60728Y51377D03*
G01X60531Y51377D03*
G01X59940Y51377D03*
G01X59744Y51377D03*
G01X59547Y51377D03*
G01X59350Y51377D03*
G01X59153Y51377D03*
G01X58956Y51377D03*
G01X58759Y51377D03*
G01X58562Y51377D03*
G01X58366Y51377D03*
G01X58169Y51377D03*
G01X57972Y51377D03*
G01X57775Y51377D03*
G01X57578Y51377D03*
G01X57381Y51377D03*
G01X57185Y51377D03*
G01X56988Y51377D03*
G01X56791Y51377D03*
G01X56594Y51377D03*
G01X56397Y51377D03*
G01X56200Y51377D03*
G01X56003Y51377D03*
G01X55807Y51377D03*
G01X55610Y51377D03*
G01X55413Y51377D03*
G01X55216Y51377D03*
G04 Draw part J48*
G54D41*
G01X59055Y40078D03*
G01X59055Y39881D03*
G01X59055Y39685D03*
G01X59055Y39488D03*
G01X59055Y39291D03*
G01X59055Y39094D03*
G01X59055Y38897D03*
G01X59055Y38700D03*
G01X59055Y38503D03*
G01X59055Y38307D03*
G01X59055Y38110D03*
G01X59055Y37913D03*
G01X59055Y37716D03*
G01X59251Y37716D03*
G01X59448Y37716D03*
G01X59645Y37716D03*
G01X59842Y37716D03*
G01X60039Y37716D03*
G01X60236Y37716D03*
G01X60433Y37716D03*
G01X60629Y37716D03*
G01X60826Y37716D03*
G01X61023Y37716D03*
G01X61220Y37716D03*
G01X61417Y37716D03*
G01X61417Y37913D03*
G01X61417Y38110D03*
G01X61417Y38307D03*
G01X61417Y38503D03*
G01X61417Y38700D03*
G01X61417Y38897D03*
G01X61417Y39094D03*
G01X61417Y39291D03*
G01X61417Y39488D03*
G01X61417Y39685D03*
G01X61417Y39881D03*
G01X61417Y40078D03*
G01X61220Y40078D03*
G01X61023Y40078D03*
G01X60826Y40078D03*
G01X60629Y40078D03*
G01X60433Y40078D03*
G01X60236Y40078D03*
G01X60039Y40078D03*
G01X59842Y40078D03*
G01X59645Y40078D03*
G01X59448Y40078D03*
G01X59251Y40078D03*
G04 Draw part U1001*
G54D42*
G01X13181Y66053D03*
G01X12931Y66053D03*
G01X12681Y66053D03*
G01X12431Y66053D03*
G01X12181Y66053D03*
G01X11931Y66053D03*
G01X11681Y66053D03*
G01X11431Y66053D03*
G01X11181Y66053D03*
G01X10931Y66053D03*
G01X10681Y66053D03*
G01X10431Y66053D03*
G01X10181Y66053D03*
G01X9931Y66053D03*
G01X9931Y63691D03*
G01X10181Y63691D03*
G01X10431Y63691D03*
G01X10681Y63691D03*
G01X10931Y63691D03*
G01X11181Y63691D03*
G01X11431Y63691D03*
G01X11681Y63691D03*
G01X11931Y63691D03*
G01X12181Y63691D03*
G01X12431Y63691D03*
G01X12681Y63691D03*
G01X12931Y63691D03*
G01X13181Y63691D03*
G04 Draw part C1001*
G04 Draw part C1005*
G54D12*
G01X17481Y65753D03*
G01X18081Y65753D03*
G04 Draw part R1010*
G04 Draw part R1011*
G04 Draw part C1006*
G01X20581Y60253D03*
G01X20581Y59653D03*
G04 Draw part C1007*
G01X18081Y60253D03*
G01X18081Y59653D03*
G04 Draw part R1012*
G04 Draw part R1013*
G01X22381Y59653D03*
G01X21781Y59653D03*
G04 Draw part R1014*
G01X21781Y60453D03*
G01X22381Y60453D03*
G04 Draw part R1015*
G01X21781Y61453D03*
G01X22381Y61453D03*
G04 Draw part R1016*
G01X18081Y64853D03*
G01X18081Y64253D03*
G04 Draw part R1017*
G01X17281Y64253D03*
G01X17281Y64853D03*
G04 Draw part R1018*
G01X16381Y64253D03*
G01X16381Y64853D03*
G04 Draw part C1008*
G01X15581Y60253D03*
G01X15581Y59653D03*
G04 Draw part C1009*
G01X13081Y60253D03*
G01X13081Y59653D03*
G04 Draw part C1010*
G01X10481Y60253D03*
G01X10481Y59653D03*
G04 Draw part R1019*
G01X19781Y59653D03*
G01X19181Y59653D03*
G04 Draw part R1020*
G01X19181Y60453D03*
G01X19781Y60453D03*
G04 Draw part U1003*
G54D30*
G01X6992Y53043D03*
G54D31*
G01X7992Y53043D03*
G01X8992Y53043D03*
G01X9992Y53043D03*
G01X10992Y53043D03*
G01X11992Y53043D03*
G01X12992Y53043D03*
G01X13992Y53043D03*
G01X14992Y53043D03*
G01X15992Y53043D03*
G01X16992Y53043D03*
G01X17992Y53043D03*
G01X18992Y53043D03*
G01X18992Y54043D03*
G01X17992Y54043D03*
G01X16992Y54043D03*
G01X15992Y54043D03*
G01X14992Y54043D03*
G01X13992Y54043D03*
G01X12992Y54043D03*
G01X11992Y54043D03*
G01X10992Y54043D03*
G01X9992Y54043D03*
G01X8992Y54043D03*
G01X7992Y54043D03*
G01X6992Y54043D03*
G04 Draw part U1004*
G54D22*
G01X22964Y58818D03*
G01X22709Y58818D03*
G01X22453Y58818D03*
G01X22197Y58818D03*
G01X22197Y56888D03*
G01X22453Y56888D03*
G01X22709Y56888D03*
G01X22964Y56888D03*
G04 Draw part C1011*
G54D12*
G01X7981Y60253D03*
G01X7981Y59653D03*
G04 Draw part C1012*
G04 Draw part C1013*
G04 Draw part C1014*
G04 Draw part C1015*
G04 Draw part C1016*
G04 Draw part C1017*
G04 Draw part U1005*
G54D35*
G01X18816Y65437D03*
G01X18816Y65181D03*
G01X18816Y64925D03*
G01X18816Y64669D03*
G01X20745Y64669D03*
G01X20745Y64925D03*
G01X20745Y65181D03*
G01X20745Y65437D03*
G04 Draw part R1021*
G54D12*
G01X19181Y61453D03*
G01X19781Y61453D03*
G04 Draw part R1022*
G01X17281Y59653D03*
G01X16681Y59653D03*
G04 Draw part C1018*
G04 Draw part C1019*
G04 Draw part R1023*
G01X16681Y60453D03*
G01X17281Y60453D03*
G04 Draw part U1006*
G54D22*
G01X20364Y58818D03*
G01X20109Y58818D03*
G01X19853Y58818D03*
G01X19597Y58818D03*
G01X19597Y56888D03*
G01X19853Y56888D03*
G01X20109Y56888D03*
G01X20364Y56888D03*
G04 Draw part R1024*
G54D12*
G01X16681Y61453D03*
G01X17281Y61453D03*
G04 Draw part R1025*
G01X14781Y59653D03*
G01X14181Y59653D03*
G04 Draw part C1020*
G04 Draw part C1021*
G04 Draw part R1026*
G01X14181Y60453D03*
G01X14781Y60453D03*
G04 Draw part U1007*
G54D22*
G01X17833Y58818D03*
G01X17577Y58818D03*
G01X17321Y58818D03*
G01X17065Y58818D03*
G01X17065Y56888D03*
G01X17321Y56888D03*
G01X17577Y56888D03*
G01X17833Y56888D03*
G04 Draw part R1027*
G54D12*
G01X14181Y61453D03*
G01X14781Y61453D03*
G04 Draw part R1028*
G01X12281Y59653D03*
G01X11681Y59653D03*
G04 Draw part C1022*
G04 Draw part C1023*
G04 Draw part R1029*
G01X11681Y60453D03*
G01X12281Y60453D03*
G04 Draw part U1008*
G54D22*
G01X15333Y58818D03*
G01X15077Y58818D03*
G01X14821Y58818D03*
G01X14565Y58818D03*
G01X14565Y56888D03*
G01X14821Y56888D03*
G01X15077Y56888D03*
G01X15333Y56888D03*
G04 Draw part R1030*
G54D12*
G01X11681Y61453D03*
G01X12281Y61453D03*
G04 Draw part R1031*
G01X9681Y59653D03*
G01X9081Y59653D03*
G04 Draw part C1024*
G04 Draw part C1025*
G04 Draw part R1032*
G01X9081Y60453D03*
G01X9681Y60453D03*
G04 Draw part U1009*
G54D22*
G01X12833Y58818D03*
G01X12577Y58818D03*
G01X12321Y58818D03*
G01X12065Y58818D03*
G01X12065Y56888D03*
G01X12321Y56888D03*
G01X12577Y56888D03*
G01X12833Y56888D03*
G04 Draw part R1033*
G54D12*
G01X9081Y61453D03*
G01X9681Y61453D03*
G04 Draw part R1034*
G01X7181Y59653D03*
G01X6581Y59653D03*
G04 Draw part C1026*
G04 Draw part C1027*
G04 Draw part R1035*
G01X6581Y60453D03*
G01X7181Y60453D03*
G04 Draw part U1010*
G54D22*
G01X10264Y58818D03*
G01X10009Y58818D03*
G01X9753Y58818D03*
G01X9497Y58818D03*
G01X9497Y56888D03*
G01X9753Y56888D03*
G01X10009Y56888D03*
G01X10264Y56888D03*
G04 Draw part R1036*
G54D12*
G01X6581Y61453D03*
G01X7181Y61453D03*
G04 Draw part R1037*
G04 Draw part C1028*
G01X21381Y64253D03*
G01X21381Y64853D03*
G04 Draw part C1029*
G01X21781Y56153D03*
G01X22381Y56153D03*
G04 Draw part R1038*
G04 Draw part U1011*
G54D22*
G01X7764Y58818D03*
G01X7509Y58818D03*
G01X7253Y58818D03*
G01X6997Y58818D03*
G01X6997Y56888D03*
G01X7253Y56888D03*
G01X7509Y56888D03*
G01X7764Y56888D03*
G04 Draw part C1030*
G54D12*
G01X19174Y56153D03*
G01X19774Y56153D03*
G04 Draw part C1031*
G01X16649Y56153D03*
G01X17249Y56153D03*
G04 Draw part U1012*
G54D17*
G01X2952Y60661D03*
G01X2952Y58661D03*
G01X2952Y56661D03*
G04 Draw part C1032*
G54D12*
G01X14149Y56153D03*
G01X14749Y56153D03*
G04 Draw part C1033*
G01X11681Y56153D03*
G01X12281Y56153D03*
G04 Draw part U1013*
G54D16*
G01X22834Y69685D03*
G04 Draw part U1014*
G01X22834Y53543D03*
G04 Draw part U1015*
G01X3149Y69685D03*
G04 Draw part U1016*
G01X3149Y53543D03*
G04 Draw part D1001*
G54D43*
G01X5581Y59053D03*
G01X5581Y58253D03*
G04 Draw part L1001*
G04 Draw part C1034*
G54D12*
G01X9081Y56153D03*
G01X9681Y56153D03*
G04 Draw part U1018*
G54D10*
G01X51780Y56195D03*
G01X51780Y57105D03*
G01X51780Y58015D03*
G54D11*
G01X49080Y57105D03*
G04 Draw part U1019*
G54D44*
G01X57384Y62540D03*
G01X57384Y62737D03*
G01X57384Y62933D03*
G01X57384Y63130D03*
G01X57384Y63327D03*
G01X55455Y63327D03*
G01X55455Y63130D03*
G01X55455Y62933D03*
G01X55455Y62737D03*
G01X55455Y62540D03*
G04 Draw part X1001*
G54D45*
G01X52504Y63440D03*
G01X52504Y65360D03*
G04 Draw part C1035*
G54D12*
G01X6581Y56053D03*
G01X7181Y56053D03*
G04 Draw part C1036*
G01X15781Y65753D03*
G01X16381Y65753D03*
G04 Draw part R1047*
G01X59184Y65240D03*
G01X59184Y64640D03*
G04 Draw part C1037*
G01X23181Y62053D03*
G01X23181Y61453D03*
G04 Draw part R1048*
G01X58384Y63040D03*
G01X58384Y62440D03*
G04 Draw part R1049*
G04 Draw part C1038*
G01X20581Y62053D03*
G01X20581Y61453D03*
G04 Draw part C1039*
G01X18081Y62053D03*
G01X18081Y61453D03*
G04 Draw part C1040*
G01X15581Y62053D03*
G01X15581Y61453D03*
G04 Draw part C1041*
G01X13081Y62053D03*
G01X13081Y61453D03*
G04 Draw part C1042*
G01X10481Y62053D03*
G01X10481Y61453D03*
G04 Draw part C1043*
G01X7981Y62053D03*
G01X7981Y61453D03*
G04 Draw part C1044*
G04 Draw part C1045*
G54D29*
G01X2596Y66453D03*
G01X4565Y66453D03*
G04 Draw part C1046*
G54D46*
G01X6981Y63869D03*
G01X6981Y65837D03*
G04 Draw part J1001*
G54D21*
G01X65884Y65740D03*
G04 Draw part R1050*
G04 Draw part R1051*
G04 Draw part L1002*
G04 Draw part C1047*
G54D29*
G01X4565Y63453D03*
G01X2596Y63453D03*
G04 Draw part C1048*
G04 Draw part C1049*
G54D12*
G01X59084Y63940D03*
G01X59684Y63940D03*
G04 Draw part U1027*
G54D30*
G01X45518Y65798D03*
G54D31*
G01X45518Y64798D03*
G01X45518Y63798D03*
G01X45518Y62798D03*
G01X45518Y61798D03*
G01X46518Y61798D03*
G01X46518Y62798D03*
G01X46518Y63798D03*
G01X46518Y64798D03*
G01X46518Y65798D03*
G04 Draw part U1028*
G54D30*
G01X53384Y70240D03*
G54D31*
G01X52384Y70240D03*
G01X51384Y70240D03*
G01X50384Y70240D03*
G01X49384Y70240D03*
G01X49384Y69240D03*
G01X50384Y69240D03*
G01X51384Y69240D03*
G01X52384Y69240D03*
G01X53384Y69240D03*
G04 Draw part U1029*
G54D30*
G01X61584Y70240D03*
G54D31*
G01X60584Y70240D03*
G01X59584Y70240D03*
G01X58584Y70240D03*
G01X57584Y70240D03*
G01X57584Y69240D03*
G01X58584Y69240D03*
G01X59584Y69240D03*
G01X60584Y69240D03*
G01X61584Y69240D03*
G04 Draw part U1030*
G54D16*
G01X45669Y69685D03*
G04 Draw part R1052*
G04 Draw part R1053*
G04 Draw part R1054*
G04 Draw part R1055*
G04 Draw part R1056*
G04 Draw part R1057*
G54D12*
G01X66675Y24267D03*
G01X66675Y23667D03*
G04 Draw part R1058*
G01X66275Y24267D03*
G01X66275Y23667D03*
G04 Draw part U1031*
G54D16*
G01X65354Y69685D03*
G04 Draw part U1032*
G01X45625Y56711D03*
G04 Draw part U1033*
G01X65354Y56692D03*
G04 Draw part U1034*
G54D47*
G01X63434Y60400D03*
G01X63433Y61403D03*
G01X63433Y62403D03*
G54D48*
G01X64933Y59903D03*
G01X64933Y62903D03*
G04 Draw part U1035*
G54D49*
G01X30390Y67140D03*
G01X30390Y66640D03*
G01X30390Y66140D03*
G01X30390Y65640D03*
G01X30390Y65140D03*
G01X30390Y64640D03*
G01X30390Y64140D03*
G01X30390Y63640D03*
G01X30390Y63140D03*
G01X30390Y62640D03*
G01X30390Y62140D03*
G01X30390Y61640D03*
G01X30390Y61140D03*
G01X30390Y60640D03*
G01X34583Y60640D03*
G01X34583Y61140D03*
G01X34583Y61640D03*
G01X34583Y62140D03*
G01X34583Y62640D03*
G01X34583Y63140D03*
G01X34583Y63640D03*
G01X34583Y64140D03*
G01X34583Y64640D03*
G01X34583Y65140D03*
G01X34583Y65640D03*
G01X34583Y66140D03*
G01X34583Y66640D03*
G01X34583Y67140D03*
G04 Draw part R1059*
G54D12*
G01X67175Y22467D03*
G01X67175Y23067D03*
G04 Draw part D1002*
G54D43*
G01X53784Y57940D03*
G01X53784Y57140D03*
G04 Draw part U1041*
G54D17*
G01X36251Y70078D03*
G01X34251Y70078D03*
G01X32251Y70078D03*
G04 Draw part R1060*
G54D12*
G01X67175Y24067D03*
G01X67175Y23467D03*
G04 Draw part R1061*
G01X66275Y22867D03*
G01X66275Y22267D03*
G04 Draw part C1050*
G01X59184Y62440D03*
G01X59784Y62440D03*
G04 Draw part C1051*
G01X59184Y66040D03*
G01X59184Y66640D03*
G04 Draw part R1062*
G01X66675Y22867D03*
G01X66675Y22267D03*
G04 Draw part C1052*
G04 Draw part C1053*
G04 Draw part C1054*
G04 Draw part C1055*
G04 Draw part C1056*
G04 Draw part C1057*
G04 Draw part U1042*
G54D30*
G01X41490Y61540D03*
G54D31*
G01X41490Y62540D03*
G01X41490Y63540D03*
G01X41490Y64540D03*
G01X41490Y65540D03*
G01X40490Y65540D03*
G01X40490Y64540D03*
G01X40490Y63540D03*
G01X40490Y62540D03*
G01X40490Y61540D03*
G04 Draw part U1043*
G54D30*
G01X31990Y56440D03*
G54D31*
G01X32990Y56440D03*
G01X33990Y56440D03*
G01X34990Y56440D03*
G01X35990Y56440D03*
G01X35990Y57440D03*
G01X34990Y57440D03*
G01X33990Y57440D03*
G01X32990Y57440D03*
G01X31990Y57440D03*
G04 Draw part U1044*
G54D16*
G01X27952Y69685D03*
G04 Draw part R1063*
G54D12*
G01X66623Y6541D03*
G01X66623Y5941D03*
G04 Draw part U1045*
G54D16*
G01X40944Y69685D03*
G04 Draw part U1046*
G01X40944Y57086D03*
G04 Draw part U1047*
G01X27952Y57086D03*
G04 Draw part U1048*
G04 Draw part R1064*
G54D12*
G01X66223Y6541D03*
G01X66223Y5941D03*
G04 Draw part D1003*
G54D43*
G01X38188Y68891D03*
G01X38188Y69691D03*
G04 Draw part L1003*
G04 Draw part C1058*
G04 Draw part U1049*
G54D50*
G01X68175Y24367D03*
G04 Draw part C1059*
G04 Draw part R1065*
G54D12*
G01X67123Y6341D03*
G01X67123Y5741D03*
G04 Draw part R1066*
G01X67123Y4741D03*
G01X67123Y5341D03*
G04 Draw part R1067*
G01X66223Y5141D03*
G01X66223Y4541D03*
G04 Draw part R1068*
G01X66623Y5141D03*
G01X66623Y4541D03*
G04 Draw part R1069*
G01X67675Y24467D03*
G01X67675Y23867D03*
G04 Draw part R1070*
G01X67723Y6741D03*
G01X67723Y6141D03*
G04 Draw part U1050*
G54D50*
G01X68175Y23367D03*
G04 Draw part U1051*
G01X68175Y22167D03*
G04 Draw part U1052*
G01X65675Y23967D03*
G04 Draw part U1053*
G01X65675Y22467D03*
G04 Draw part U1054*
G54D16*
G01X66929Y25984D03*
G04 Draw part U1055*
G01X66929Y20472D03*
G04 Draw part U1056*
G04 Draw part T1001*
G54D51*
G01X62984Y65740D03*
G54D52*
G01X62984Y66740D03*
G01X59984Y66740D03*
G01X59984Y65740D03*
G04 Draw part U1063*
G54D16*
G01X66929Y2755D03*
G04 Draw part C1076*
G54D12*
G01X67675Y22767D03*
G01X67675Y22167D03*
G04 Draw part U1057*
G54D50*
G01X68223Y6641D03*
G04 Draw part U1058*
G01X68223Y5641D03*
G04 Draw part U1059*
G01X68223Y4441D03*
G04 Draw part U1060*
G01X65623Y6241D03*
G04 Draw part U1061*
G01X65623Y4741D03*
G04 Draw part U1062*
G54D16*
G01X66929Y8267D03*
G04 Draw part C1077*
G54D12*
G01X67723Y4941D03*
G01X67723Y4341D03*
G04 Draw part R1001*
G04 Draw part R1002*
G04 Draw part R1003*
G04 Draw part R1004*
G04 Draw part R1005*
G04 Draw part R1006*
G04 Draw part R1007*
G04 Draw part R1008*
G04 Draw part C1002*
G04 Draw part C1003*
G04 Draw part U1002*
G54D30*
G01X18992Y70185D03*
G54D31*
G01X17992Y70185D03*
G01X16992Y70185D03*
G01X15992Y70185D03*
G01X14992Y70185D03*
G01X13992Y70185D03*
G01X12992Y70185D03*
G01X11992Y70185D03*
G01X10992Y70185D03*
G01X9992Y70185D03*
G01X8992Y70185D03*
G01X7992Y70185D03*
G01X6992Y70185D03*
G01X6992Y69185D03*
G01X7992Y69185D03*
G01X8992Y69185D03*
G01X9992Y69185D03*
G01X10992Y69185D03*
G01X11992Y69185D03*
G01X12992Y69185D03*
G01X13992Y69185D03*
G01X14992Y69185D03*
G01X15992Y69185D03*
G01X16992Y69185D03*
G01X17992Y69185D03*
G01X18992Y69185D03*
G04 Draw part C1004*
G54D12*
G01X23181Y60253D03*
G01X23181Y59653D03*
G04 Draw part R1009*
G04 Draw part U1017*
G54D42*
G01X48984Y63140D03*
G01X49234Y63140D03*
G01X49484Y63140D03*
G01X49734Y63140D03*
G01X49984Y63140D03*
G01X50234Y63140D03*
G01X50484Y63140D03*
G01X50734Y63140D03*
G01X50984Y63140D03*
G01X51234Y63140D03*
G01X51234Y65581D03*
G01X50984Y65581D03*
G01X50734Y65581D03*
G01X50484Y65581D03*
G01X50234Y65581D03*
G01X49984Y65581D03*
G01X49734Y65581D03*
G01X49484Y65581D03*
G01X49234Y65581D03*
G01X48984Y65581D03*
G04 Draw part U1022*
G54D53*
G01X55584Y64340D03*
G01X55840Y64340D03*
G01X56096Y64340D03*
G01X56351Y64340D03*
G01X56607Y64340D03*
G01X56863Y64340D03*
G01X57119Y64340D03*
G01X57119Y66938D03*
G01X56863Y66938D03*
G01X56607Y66938D03*
G01X56351Y66938D03*
G01X56096Y66938D03*
G01X55840Y66938D03*
G01X55584Y66938D03*
G04 Draw part U1026*
G54D17*
G01X55584Y56740D03*
G01X57584Y56740D03*
G01X59584Y56740D03*
G04 Draw part R1039*
G04 Draw part R1040*
G04 Draw part R1041*
G04 Draw part R1042*
G04 Draw part R1043*
G04 Draw part R1044*
G04 Draw part R1045*
G04 Draw part R1046*
G04 Draw part C1060*
G04 Draw part C1061*
G04 Draw part C1062*
G04 Draw part C1063*
G04 Draw part C1064*
G54D29*
G01X56845Y60255D03*
G01X58814Y60255D03*
G04 Draw part C1065*
G01X52908Y60255D03*
G01X54877Y60255D03*
G04 Draw part C1066*
G01X50940Y60255D03*
G01X48971Y60255D03*
G04 Draw part U1040*
G54D30*
G01X27490Y65540D03*
G54D31*
G01X27490Y64540D03*
G01X27490Y63540D03*
G01X27490Y62540D03*
G01X27490Y61540D03*
G01X28490Y61540D03*
G01X28490Y62540D03*
G01X28490Y63540D03*
G01X28490Y64540D03*
G01X28490Y65540D03*
G04 Draw part C1067*
G04 Draw part C1068*
G04 Draw part C1069*
G04 Draw part C1070*
G04 Draw part C1071*
G04 Draw part C1072*
G04 Draw part C1073*
G54D29*
G01X38174Y65940D03*
G01X36206Y65940D03*
G04 Draw part C1074*
G01X36206Y63140D03*
G01X38174Y63140D03*
G04 Draw part C1075*
G01X36206Y60340D03*
G01X38174Y60340D03*
G04 Draw part R2057*
G54D12*
G01X66675Y41984D03*
G01X66675Y41384D03*
G04 Draw part R2058*
G01X66275Y41984D03*
G01X66275Y41384D03*
G04 Draw part R2059*
G01X67175Y40184D03*
G01X67175Y40784D03*
G04 Draw part R2060*
G01X67175Y41784D03*
G01X67175Y41184D03*
G04 Draw part R2061*
G01X66275Y40584D03*
G01X66275Y39984D03*
G04 Draw part R2062*
G01X66675Y40584D03*
G01X66675Y39984D03*
G04 Draw part U2048*
G04 Draw part U2049*
G54D50*
G01X68175Y42084D03*
G04 Draw part R2069*
G54D12*
G01X67675Y42184D03*
G01X67675Y41584D03*
G04 Draw part U2050*
G54D50*
G01X68175Y41084D03*
G04 Draw part U2051*
G01X68175Y39884D03*
G04 Draw part U2052*
G01X65675Y41684D03*
G04 Draw part U2053*
G01X65675Y40184D03*
G04 Draw part U2054*
G54D16*
G01X66929Y43700D03*
G04 Draw part U2055*
G01X66929Y38188D03*
G04 Draw part C2076*
G54D12*
G01X67675Y40484D03*
G01X67675Y39884D03*
G04 Draw part R3057*
G01X53289Y41984D03*
G01X53289Y41384D03*
G04 Draw part R3058*
G01X52889Y41984D03*
G01X52889Y41384D03*
G04 Draw part R3059*
G01X53789Y40184D03*
G01X53789Y40784D03*
G04 Draw part R3060*
G01X53789Y41784D03*
G01X53789Y41184D03*
G04 Draw part R3061*
G01X52889Y40584D03*
G01X52889Y39984D03*
G04 Draw part R3062*
G01X53289Y40584D03*
G01X53289Y39984D03*
G04 Draw part U3048*
G04 Draw part U3049*
G54D50*
G01X54789Y42084D03*
G04 Draw part R3069*
G54D12*
G01X54289Y42184D03*
G01X54289Y41584D03*
G04 Draw part U3050*
G54D50*
G01X54789Y41084D03*
G04 Draw part U3051*
G01X54789Y39884D03*
G04 Draw part U3052*
G01X52289Y41684D03*
G04 Draw part U3053*
G01X52289Y40184D03*
G04 Draw part U3054*
G54D16*
G01X53543Y43700D03*
G04 Draw part U3055*
G01X53543Y38188D03*
G04 Draw part C3076*
G54D12*
G01X54289Y40484D03*
G01X54289Y39884D03*

G04 Draw traces*

G04 Draw Text*

G04 Draw solder mask cutouts*
M00*
M02*
