<?xml version="1.0" encoding="iso-8859-1"?>
<!-- Generator: Adobe Illustrator 19.0.0, SVG Export Plug-In . SVG Version: 6.00 Build 0)  -->
<svg version="1.1" id="Layer_1" xmlns="http://www.w3.org/2000/svg" xmlns:xlink="http://www.w3.org/1999/xlink" x="0px" y="0px"
	 viewBox="0 0 279.765 279.765" style="enable-background:new 0 0 279.765 279.765;" xml:space="preserve">
<g>
	<path style="fill:#324D5B;" d="M46.484,0h186.804c6.406,0,11.604,5.251,11.604,11.709v256.339c0,6.467-5.198,11.717-11.604,11.717
		H46.484c-6.414,0-11.612-5.25-11.612-11.717V11.709C34.871,5.242,40.069,0,46.484,0z"/>
	<path style="fill:#EFC75E;" d="M139.882,140.145c29.018,0,52.549,23.479,52.549,52.426c0,28.965-23.522,52.435-52.549,52.435
		s-52.54-23.479-52.54-52.435C87.341,163.623,110.864,140.145,139.882,140.145z"/>
	<path style="fill:#324D5B;" d="M139.882,157.428c19.392,0,35.108,15.673,35.108,35.012s-15.717,35.012-35.108,35.012
		s-35.108-15.673-35.108-35.012S120.49,157.428,139.882,157.428z"/>
	<path style="fill:#E4E7E7;" d="M139.882,183.707c4.892,0,8.856,3.92,8.856,8.76c0,4.83-3.964,8.751-8.856,8.751
		s-8.847-3.92-8.847-8.751C131.035,187.627,134.99,183.707,139.882,183.707z"/>
	<path style="fill:#E4E7E7;" d="M139.882,34.881c19.392,0,35.108,15.673,35.108,35.012s-15.717,35.012-35.108,35.012
		s-35.108-15.673-35.108-35.012S120.49,34.881,139.882,34.881z"/>
	<path style="fill:#324D5B;" d="M139.882,43.772c14.483,0,26.235,11.761,26.235,26.27c0,14.5-11.752,26.261-26.235,26.261
		s-26.226-11.761-26.226-26.261C113.655,55.524,125.399,43.772,139.882,43.772z"/>
	<path style="fill:#EFC75E;" d="M139.882,61.168c4.787,0,8.663,3.912,8.663,8.751s-3.877,8.751-8.663,8.751
		c-4.787,0-8.663-3.912-8.663-8.751S135.095,61.168,139.882,61.168z"/>
</g>
<g>
</g>
<g>
</g>
<g>
</g>
<g>
</g>
<g>
</g>
<g>
</g>
<g>
</g>
<g>
</g>
<g>
</g>
<g>
</g>
<g>
</g>
<g>
</g>
<g>
</g>
<g>
</g>
<g>
</g>
</svg>
